<svg width="58" height="74" viewBox="0 0 58 74" fill="none" xmlns="http://www.w3.org/2000/svg">
<circle cx="28.5" cy="29.4824" r="28.5" fill="#FFA600"/>
<path d="M22.9141 38.2324H19.293V28.3184C19.293 28.0449 19.2969 27.709 19.3047 27.3105C19.3125 26.9043 19.3242 26.4902 19.3398 26.0684C19.3555 25.6387 19.3711 25.252 19.3867 24.9082C19.3008 25.0098 19.125 25.1855 18.8594 25.4355C18.6016 25.6777 18.3594 25.8965 18.1328 26.0918L16.1641 27.6738L14.418 25.4941L19.9375 21.0996H22.9141V38.2324ZM39.5781 29.666C39.5781 31.0488 39.4687 32.2832 39.25 33.3691C39.0391 34.4551 38.6953 35.377 38.2187 36.1348C37.75 36.8926 37.1328 37.4707 36.3672 37.8691C35.6016 38.2676 34.6719 38.4668 33.5781 38.4668C32.2031 38.4668 31.0742 38.1191 30.1914 37.4238C29.3086 36.7207 28.6562 35.7129 28.2344 34.4004C27.8125 33.0801 27.6016 31.502 27.6016 29.666C27.6016 27.8145 27.793 26.2324 28.1758 24.9199C28.5664 23.5996 29.1992 22.5879 30.0742 21.8848C30.9492 21.1816 32.1172 20.8301 33.5781 20.8301C34.9453 20.8301 36.0703 21.1816 36.9531 21.8848C37.8437 22.5801 38.5039 23.5879 38.9336 24.9082C39.3633 26.2207 39.5781 27.8066 39.5781 29.666ZM31.1992 29.666C31.1992 30.9707 31.2695 32.0605 31.4102 32.9355C31.5586 33.8027 31.8047 34.4551 32.1484 34.8926C32.4922 35.3301 32.9687 35.5488 33.5781 35.5488C34.1797 35.5488 34.6523 35.334 34.9961 34.9043C35.3477 34.4668 35.5977 33.8145 35.7461 32.9473C35.8945 32.0723 35.9687 30.9785 35.9687 29.666C35.9687 28.3613 35.8945 27.2715 35.7461 26.3965C35.5977 25.5215 35.3477 24.8652 34.9961 24.4277C34.6523 23.9824 34.1797 23.7598 33.5781 23.7598C32.9687 23.7598 32.4922 23.9824 32.1484 24.4277C31.8047 24.8652 31.5586 25.5215 31.4102 26.3965C31.2695 27.2715 31.1992 28.3613 31.1992 29.666Z" fill="white"/>
</svg>
