<svg width="44" height="45" viewBox="0 0 44 45" fill="none" xmlns="http://www.w3.org/2000/svg">
<circle cx="22" cy="22.2305" r="22" fill="#FFA600"/>
<path d="M17.9141 31.2305H14.293V21.3164C14.293 21.043 14.2969 20.707 14.3047 20.3086C14.3125 19.9023 14.3242 19.4883 14.3398 19.0664C14.3555 18.6367 14.3711 18.25 14.3867 17.9062C14.3008 18.0078 14.125 18.1836 13.8594 18.4336C13.6016 18.6758 13.3594 18.8945 13.1328 19.0898L11.1641 20.6719L9.41797 18.4922L14.9375 14.0977H17.9141V31.2305ZM34.6719 31.2305H22.6953V28.7109L26.9961 24.3633C27.8633 23.4727 28.5586 22.7305 29.082 22.1367C29.6133 21.5352 29.9961 20.9883 30.2305 20.4961C30.4727 20.0039 30.5938 19.4766 30.5938 18.9141C30.5938 18.2344 30.4023 17.7266 30.0195 17.3906C29.6445 17.0469 29.1406 16.875 28.5078 16.875C27.8438 16.875 27.1992 17.0273 26.5742 17.332C25.9492 17.6367 25.2969 18.0703 24.6172 18.6328L22.6484 16.3008C23.1406 15.8789 23.6602 15.4805 24.207 15.1055C24.7617 14.7305 25.4023 14.4297 26.1289 14.2031C26.8633 13.9688 27.7422 13.8516 28.7656 13.8516C29.8906 13.8516 30.8555 14.0547 31.6602 14.4609C32.4727 14.8672 33.0977 15.4219 33.5352 16.125C33.9727 16.8203 34.1914 17.6094 34.1914 18.4922C34.1914 19.4375 34.0039 20.3008 33.6289 21.082C33.2539 21.8633 32.707 22.6367 31.9883 23.4023C31.2773 24.168 30.418 25.0156 29.4102 25.9453L27.207 28.0195V28.1836H34.6719V31.2305Z" fill="white"/>
</svg>
