<svg width="44" height="45" viewBox="0 0 44 45" fill="none" xmlns="http://www.w3.org/2000/svg">
<circle cx="22" cy="22.2305" r="22" fill="#FFA600"/>
<path d="M27.9375 31.2305H15.9609V28.7109L20.2617 24.3633C21.1289 23.4727 21.8242 22.7305 22.3477 22.1367C22.8789 21.5352 23.2617 20.9883 23.4961 20.4961C23.7383 20.0039 23.8594 19.4766 23.8594 18.9141C23.8594 18.2344 23.668 17.7266 23.2852 17.3906C22.9102 17.0469 22.4062 16.875 21.7734 16.875C21.1094 16.875 20.4648 17.0273 19.8398 17.332C19.2148 17.6367 18.5625 18.0703 17.8828 18.6328L15.9141 16.3008C16.4062 15.8789 16.9258 15.4805 17.4727 15.1055C18.0273 14.7305 18.668 14.4297 19.3945 14.2031C20.1289 13.9688 21.0078 13.8516 22.0312 13.8516C23.1562 13.8516 24.1211 14.0547 24.9258 14.4609C25.7383 14.8672 26.3633 15.4219 26.8008 16.125C27.2383 16.8203 27.457 17.6094 27.457 18.4922C27.457 19.4375 27.2695 20.3008 26.8945 21.082C26.5195 21.8633 25.9727 22.6367 25.2539 23.4023C24.543 24.168 23.6836 25.0156 22.6758 25.9453L20.4727 28.0195V28.1836H27.9375V31.2305Z" fill="white"/>
</svg>
