<svg width="506" height="65" viewBox="0 0 506 65" fill="none" xmlns="http://www.w3.org/2000/svg">
<g clip-path="url(#clip0_4193_19441)">
<g filter="url(#filter0_d_4193_19441)">
<rect width="448" height="65" rx="21" fill="#E2E8F0"/>
<path d="M34.304 30.7244H30.7528C30.7055 30.3598 30.6084 30.0308 30.4616 29.7372C30.3149 29.4437 30.1207 29.1927 29.8793 28.9844C29.6378 28.776 29.3513 28.6174 29.0199 28.5085C28.6932 28.3949 28.331 28.3381 27.9332 28.3381C27.2277 28.3381 26.6193 28.5109 26.108 28.8565C25.6013 29.2022 25.2107 29.7017 24.9361 30.3551C24.6662 31.0085 24.5312 31.7992 24.5312 32.7273C24.5312 33.6932 24.6686 34.5028 24.9432 35.1562C25.2225 35.8049 25.6132 36.295 26.1151 36.6264C26.6217 36.9531 27.2206 37.1165 27.9119 37.1165C28.3002 37.1165 28.6529 37.0668 28.9702 36.9673C29.2921 36.8679 29.5739 36.7235 29.8153 36.5341C30.0616 36.34 30.2628 36.1056 30.419 35.831C30.58 35.5516 30.6913 35.2367 30.7528 34.8864L34.304 34.9077C34.2424 35.5516 34.0554 36.1861 33.7429 36.8111C33.4351 37.4361 33.0114 38.0066 32.4716 38.5227C31.9318 39.0341 31.2737 39.4413 30.4972 39.7443C29.7254 40.0473 28.84 40.1989 27.8409 40.1989C26.5246 40.1989 25.3456 39.91 24.304 39.3324C23.267 38.75 22.4479 37.9025 21.8466 36.7898C21.2453 35.6771 20.9446 34.3229 20.9446 32.7273C20.9446 31.1269 21.25 29.7704 21.8608 28.6577C22.4716 27.545 23.2978 26.6998 24.3395 26.1222C25.3812 25.5445 26.5483 25.2557 27.8409 25.2557C28.7216 25.2557 29.536 25.3788 30.2841 25.625C31.0322 25.8665 31.6903 26.2216 32.2585 26.6903C32.8267 27.1544 33.2884 27.7249 33.6435 28.402C33.9986 29.0791 34.2188 29.8532 34.304 30.7244ZM36.3157 40V29.0909H39.7887V40H36.3157ZM38.0558 27.8196C37.5681 27.8196 37.149 27.6586 36.7987 27.3366C36.4483 27.0099 36.2731 26.617 36.2731 26.1577C36.2731 25.7031 36.4483 25.3149 36.7987 24.9929C37.149 24.6662 37.5681 24.5028 38.0558 24.5028C38.5482 24.5028 38.9672 24.6662 39.3129 24.9929C39.6632 25.3149 39.8384 25.7031 39.8384 26.1577C39.8384 26.617 39.6632 27.0099 39.3129 27.3366C38.9672 27.6586 38.5482 27.8196 38.0558 27.8196ZM45.4723 33.7784V40H41.9993V29.0909H45.3018V31.0938H45.4226C45.6641 30.4261 46.076 29.9029 46.6584 29.5241C47.2408 29.1406 47.9344 28.9489 48.7393 28.9489C49.5064 28.9489 50.1716 29.1217 50.7351 29.4673C51.3033 29.8082 51.7436 30.2865 52.0561 30.902C52.3733 31.5128 52.5296 32.2277 52.5249 33.0469V40H49.0518V33.7287C49.0566 33.1226 48.9027 32.6491 48.5902 32.3082C48.2824 31.9673 47.8539 31.7969 47.3047 31.7969C46.9401 31.7969 46.6181 31.8774 46.3388 32.0384C46.0642 32.1946 45.8511 32.4195 45.6996 32.7131C45.5528 33.0066 45.477 33.3617 45.4723 33.7784ZM58.6594 40.1562C57.8545 40.1562 57.123 39.9479 56.4648 39.5312C55.8067 39.1146 55.2811 38.4896 54.8881 37.6562C54.4951 36.8229 54.2987 35.7884 54.2987 34.5526C54.2987 33.2694 54.5022 32.2135 54.9094 31.3849C55.3166 30.5563 55.8493 29.9432 56.5075 29.5455C57.1703 29.1477 57.8829 28.9489 58.6452 28.9489C59.2182 28.9489 59.7082 29.0483 60.1154 29.2472C60.5226 29.4413 60.8588 29.6922 61.1239 30C61.3891 30.3078 61.5903 30.6274 61.7276 30.9588H61.7987V25.4545H65.2717V40H61.8342V38.2315H61.7276C61.5808 38.5677 61.3725 38.8826 61.1026 39.1761C60.8327 39.4697 60.4942 39.7064 60.087 39.8864C59.6845 40.0663 59.2087 40.1562 58.6594 40.1562ZM59.8668 37.4503C60.2882 37.4503 60.6481 37.3319 60.9464 37.0952C61.2447 36.8537 61.4743 36.5152 61.6353 36.0795C61.7963 35.6439 61.8768 35.1326 61.8768 34.5455C61.8768 33.9489 61.7963 33.4351 61.6353 33.0043C61.479 32.5734 61.2494 32.242 60.9464 32.0099C60.6481 31.7779 60.2882 31.6619 59.8668 31.6619C59.436 31.6619 59.0714 31.7803 58.7731 32.017C58.4748 32.2538 58.2475 32.5876 58.0913 33.0185C57.9397 33.4493 57.864 33.9583 57.864 34.5455C57.864 35.1326 57.9421 35.6439 58.0984 36.0795C58.2546 36.5152 58.4795 36.8537 58.7731 37.0952C59.0714 37.3319 59.436 37.4503 59.8668 37.4503ZM69.5916 44.0909C69.175 44.0909 68.782 44.0578 68.4126 43.9915C68.0433 43.9299 67.7261 43.8471 67.4609 43.7429L68.228 41.2216C68.5689 41.3352 68.8767 41.4015 69.1513 41.4205C69.4306 41.4394 69.6697 41.3944 69.8686 41.2855C70.0722 41.1813 70.2285 40.9943 70.3374 40.7244L70.4723 40.3977L66.5945 29.0909H70.2308L72.2408 36.875H72.3544L74.3928 29.0909H78.0504L73.9382 41.044C73.7393 41.6406 73.4576 42.1662 73.093 42.6207C72.7332 43.08 72.2668 43.4399 71.6939 43.7003C71.1257 43.9607 70.425 44.0909 69.5916 44.0909ZM82.8587 25.4545V27.0739C82.8587 27.5237 82.7687 27.9782 82.5888 28.4375C82.4136 28.892 82.1839 29.3182 81.8999 29.7159C81.6158 30.1136 81.3151 30.4498 80.9979 30.7244L79.5206 29.9148C79.7384 29.5549 79.9325 29.1501 80.103 28.7003C80.2734 28.2457 80.3587 27.706 80.3587 27.081V25.4545H82.8587ZM93.0273 32.4219L89.8384 32.5071C89.8053 32.2798 89.7153 32.0786 89.5685 31.9034C89.4218 31.7235 89.23 31.5838 88.9933 31.4844C88.7612 31.3802 88.4914 31.3281 88.1836 31.3281C87.7811 31.3281 87.4379 31.4086 87.1538 31.5696C86.8744 31.7306 86.7371 31.9484 86.7418 32.223C86.7371 32.4361 86.8223 32.6207 86.9975 32.777C87.1774 32.9332 87.497 33.0587 87.9563 33.1534L90.0586 33.5511C91.1476 33.7595 91.9573 34.1051 92.4876 34.5881C93.0226 35.071 93.2925 35.7102 93.2972 36.5057C93.2925 37.2538 93.07 37.9048 92.6296 38.4588C92.194 39.0128 91.5974 39.4437 90.8398 39.7514C90.0823 40.0545 89.2158 40.206 88.2404 40.206C86.6826 40.206 85.454 39.8864 84.5543 39.2472C83.6594 38.6032 83.1481 37.7415 83.0202 36.6619L86.4506 36.5767C86.5264 36.9744 86.7229 37.2775 87.0401 37.4858C87.3574 37.6941 87.7622 37.7983 88.2546 37.7983C88.6997 37.7983 89.0619 37.7154 89.3413 37.5497C89.6206 37.384 89.7627 37.1638 89.7674 36.8892C89.7627 36.643 89.6538 36.4465 89.4407 36.2997C89.2276 36.1482 88.8938 36.0298 88.4393 35.9446L86.5359 35.5824C85.4421 35.3835 84.6277 35.0166 84.0927 34.4815C83.5576 33.9418 83.2925 33.2552 83.2972 32.4219C83.2925 31.6927 83.4866 31.0701 83.8796 30.554C84.2726 30.0331 84.8313 29.6354 85.5558 29.3608C86.2802 29.0862 87.1348 28.9489 88.1197 28.9489C89.5969 28.9489 90.7617 29.259 91.614 29.8793C92.4663 30.4948 92.9374 31.3423 93.0273 32.4219ZM99.304 40V25.4545H102.777V30.9588H102.848C102.99 30.6274 103.191 30.3078 103.452 30C103.717 29.6922 104.053 29.4413 104.46 29.2472C104.872 29.0483 105.365 28.9489 105.938 28.9489C106.695 28.9489 107.403 29.1477 108.061 29.5455C108.724 29.9432 109.259 30.5563 109.666 31.3849C110.073 32.2135 110.277 33.2694 110.277 34.5526C110.277 35.7884 110.08 36.8229 109.688 37.6562C109.299 38.4896 108.774 39.1146 108.111 39.5312C107.453 39.9479 106.721 40.1562 105.916 40.1562C105.367 40.1562 104.891 40.0663 104.489 39.8864C104.086 39.7064 103.748 39.4697 103.473 39.1761C103.203 38.8826 102.995 38.5677 102.848 38.2315H102.741V40H99.304ZM102.706 34.5455C102.706 35.1326 102.784 35.6439 102.94 36.0795C103.101 36.5152 103.331 36.8537 103.629 37.0952C103.932 37.3319 104.295 37.4503 104.716 37.4503C105.142 37.4503 105.504 37.3319 105.803 37.0952C106.101 36.8537 106.326 36.5152 106.477 36.0795C106.634 35.6439 106.712 35.1326 106.712 34.5455C106.712 33.9583 106.634 33.4493 106.477 33.0185C106.326 32.5876 106.101 32.2538 105.803 32.017C105.509 31.7803 105.147 31.6619 104.716 31.6619C104.29 31.6619 103.928 31.7779 103.629 32.0099C103.331 32.242 103.101 32.5734 102.94 33.0043C102.784 33.4351 102.706 33.9489 102.706 34.5455ZM117.196 40.206C116.055 40.206 115.07 39.9811 114.242 39.5312C113.418 39.0767 112.783 38.4304 112.338 37.5923C111.898 36.7495 111.678 35.7481 111.678 34.5881C111.678 33.4612 111.9 32.4763 112.346 31.6335C112.791 30.786 113.418 30.1278 114.228 29.6591C115.037 29.1856 115.991 28.9489 117.09 28.9489C117.866 28.9489 118.577 29.0696 119.221 29.3111C119.864 29.5526 120.421 29.91 120.89 30.3835C121.358 30.857 121.723 31.4418 121.983 32.1378C122.244 32.8291 122.374 33.6222 122.374 34.517V35.3835H112.892V33.3665H119.142C119.138 32.9972 119.05 32.6681 118.88 32.3793C118.709 32.0904 118.475 31.8655 118.176 31.7045C117.883 31.5388 117.544 31.456 117.161 31.456C116.773 31.456 116.425 31.5436 116.117 31.7188C115.809 31.8892 115.565 32.1236 115.385 32.4219C115.205 32.7154 115.111 33.0492 115.101 33.4233V35.4759C115.101 35.9209 115.189 36.3116 115.364 36.6477C115.539 36.9792 115.788 37.2372 116.11 37.4219C116.432 37.6065 116.815 37.6989 117.26 37.6989C117.568 37.6989 117.847 37.6562 118.098 37.571C118.349 37.4858 118.565 37.3603 118.745 37.1946C118.925 37.0289 119.06 36.8253 119.15 36.5838L122.338 36.6761C122.206 37.3911 121.915 38.0137 121.465 38.544C121.02 39.0696 120.435 39.4792 119.711 39.7727C118.986 40.0616 118.148 40.206 117.196 40.206ZM129.247 40.206C128.106 40.206 127.121 39.9811 126.293 39.5312C125.469 39.0767 124.834 38.4304 124.389 37.5923C123.949 36.7495 123.729 35.7481 123.729 34.5881C123.729 33.4612 123.951 32.4763 124.396 31.6335C124.841 30.786 125.469 30.1278 126.278 29.6591C127.088 29.1856 128.042 28.9489 129.141 28.9489C129.917 28.9489 130.627 29.0696 131.271 29.3111C131.915 29.5526 132.472 29.91 132.94 30.3835C133.409 30.857 133.774 31.4418 134.034 32.1378C134.295 32.8291 134.425 33.6222 134.425 34.517V35.3835H124.943V33.3665H131.193C131.188 32.9972 131.101 32.6681 130.93 32.3793C130.76 32.0904 130.526 31.8655 130.227 31.7045C129.934 31.5388 129.595 31.456 129.212 31.456C128.823 31.456 128.475 31.5436 128.168 31.7188C127.86 31.8892 127.616 32.1236 127.436 32.4219C127.256 32.7154 127.161 33.0492 127.152 33.4233V35.4759C127.152 35.9209 127.24 36.3116 127.415 36.6477C127.59 36.9792 127.839 37.2372 128.161 37.4219C128.482 37.6065 128.866 37.6989 129.311 37.6989C129.619 37.6989 129.898 37.6562 130.149 37.571C130.4 37.4858 130.616 37.3603 130.795 37.1946C130.975 37.0289 131.11 36.8253 131.2 36.5838L134.389 36.6761C134.257 37.3911 133.965 38.0137 133.516 38.544C133.071 39.0696 132.486 39.4792 131.761 39.7727C131.037 40.0616 130.199 40.206 129.247 40.206ZM139.672 33.7784V40H136.199V29.0909H139.501V31.0938H139.622C139.863 30.4261 140.275 29.9029 140.858 29.5241C141.44 29.1406 142.134 28.9489 142.939 28.9489C143.706 28.9489 144.371 29.1217 144.934 29.4673C145.502 29.8082 145.943 30.2865 146.255 30.902C146.573 31.5128 146.729 32.2277 146.724 33.0469V40H143.251V33.7287C143.256 33.1226 143.102 32.6491 142.789 32.3082C142.482 31.9673 142.053 31.7969 141.504 31.7969C141.139 31.7969 140.817 31.8774 140.538 32.0384C140.263 32.1946 140.05 32.4195 139.899 32.7131C139.752 33.0066 139.676 33.3617 139.672 33.7784ZM153.171 44.0909V29.0909H156.609V30.9588H156.715C156.857 30.6274 157.058 30.3078 157.319 30C157.584 29.6922 157.92 29.4413 158.327 29.2472C158.739 29.0483 159.232 28.9489 159.805 28.9489C160.562 28.9489 161.27 29.1477 161.928 29.5455C162.591 29.9432 163.126 30.5563 163.533 31.3849C163.941 32.2135 164.144 33.2694 164.144 34.5526C164.144 35.7884 163.948 36.8229 163.555 37.6562C163.166 38.4896 162.641 39.1146 161.978 39.5312C161.32 39.9479 160.588 40.1562 159.783 40.1562C159.234 40.1562 158.758 40.0663 158.356 39.8864C157.953 39.7064 157.615 39.4697 157.34 39.1761C157.07 38.8826 156.862 38.5677 156.715 38.2315H156.644V44.0909H153.171ZM156.573 34.5455C156.573 35.1326 156.651 35.6439 156.808 36.0795C156.969 36.5152 157.198 36.8537 157.496 37.0952C157.799 37.3319 158.162 37.4503 158.583 37.4503C159.009 37.4503 159.371 37.3319 159.67 37.0952C159.968 36.8537 160.193 36.5152 160.344 36.0795C160.501 35.6439 160.579 35.1326 160.579 34.5455C160.579 33.9583 160.501 33.4493 160.344 33.0185C160.193 32.5876 159.968 32.2538 159.67 32.017C159.376 31.7803 159.014 31.6619 158.583 31.6619C158.157 31.6619 157.795 31.7779 157.496 32.0099C157.198 32.242 156.969 32.5734 156.808 33.0043C156.651 33.4351 156.573 33.9489 156.573 34.5455ZM169.039 40.1847C168.343 40.1847 167.725 40.0687 167.186 39.8366C166.651 39.5999 166.227 39.2448 165.914 38.7713C165.607 38.2931 165.453 37.6941 165.453 36.9744C165.453 36.3684 165.559 35.857 165.772 35.4403C165.985 35.0237 166.279 34.6851 166.653 34.4247C167.027 34.1643 167.458 33.9678 167.946 33.8352C168.433 33.6979 168.954 33.6056 169.508 33.5582C170.128 33.5014 170.628 33.4422 171.007 33.3807C171.386 33.3144 171.66 33.2221 171.831 33.1037C172.006 32.9806 172.093 32.8078 172.093 32.5852V32.5497C172.093 32.1851 171.968 31.9034 171.717 31.7045C171.466 31.5057 171.127 31.4062 170.701 31.4062C170.242 31.4062 169.873 31.5057 169.593 31.7045C169.314 31.9034 169.136 32.178 169.061 32.5284L165.858 32.4148C165.952 31.7519 166.196 31.16 166.589 30.6392C166.987 30.1136 167.531 29.7017 168.223 29.4034C168.919 29.1004 169.754 28.9489 170.73 28.9489C171.426 28.9489 172.067 29.0317 172.654 29.1974C173.242 29.3584 173.753 29.5952 174.189 29.9077C174.624 30.2154 174.96 30.5942 175.197 31.044C175.439 31.4938 175.559 32.0076 175.559 32.5852V40H172.292V38.4801H172.207C172.013 38.8494 171.764 39.1619 171.461 39.4176C171.163 39.6733 170.81 39.8651 170.403 39.9929C170.001 40.1207 169.546 40.1847 169.039 40.1847ZM170.112 37.9119C170.486 37.9119 170.822 37.8362 171.12 37.6847C171.423 37.5331 171.665 37.3248 171.845 37.0597C172.025 36.7898 172.115 36.4773 172.115 36.1222V35.0852C172.015 35.1373 171.895 35.1847 171.752 35.2273C171.615 35.2699 171.464 35.3101 171.298 35.348C171.132 35.3859 170.962 35.419 170.787 35.4474C170.611 35.4759 170.443 35.5019 170.282 35.5256C169.956 35.5777 169.676 35.6581 169.444 35.767C169.217 35.8759 169.042 36.018 168.919 36.1932C168.8 36.3636 168.741 36.5672 168.741 36.804C168.741 37.1638 168.869 37.4384 169.125 37.6278C169.385 37.8172 169.714 37.9119 170.112 37.9119ZM187.207 32.4219L184.018 32.5071C183.985 32.2798 183.895 32.0786 183.748 31.9034C183.601 31.7235 183.41 31.5838 183.173 31.4844C182.941 31.3802 182.671 31.3281 182.363 31.3281C181.961 31.3281 181.618 31.4086 181.333 31.5696C181.054 31.7306 180.917 31.9484 180.922 32.223C180.917 32.4361 181.002 32.6207 181.177 32.777C181.357 32.9332 181.677 33.0587 182.136 33.1534L184.238 33.5511C185.327 33.7595 186.137 34.1051 186.667 34.5881C187.202 35.071 187.472 35.7102 187.477 36.5057C187.472 37.2538 187.25 37.9048 186.809 38.4588C186.374 39.0128 185.777 39.4437 185.02 39.7514C184.262 40.0545 183.395 40.206 182.42 40.206C180.862 40.206 179.634 39.8864 178.734 39.2472C177.839 38.6032 177.328 37.7415 177.2 36.6619L180.63 36.5767C180.706 36.9744 180.903 37.2775 181.22 37.4858C181.537 37.6941 181.942 37.7983 182.434 37.7983C182.879 37.7983 183.242 37.7154 183.521 37.5497C183.8 37.384 183.942 37.1638 183.947 36.8892C183.942 36.643 183.833 36.4465 183.62 36.2997C183.407 36.1482 183.074 36.0298 182.619 35.9446L180.716 35.5824C179.622 35.3835 178.807 35.0166 178.272 34.4815C177.737 33.9418 177.472 33.2552 177.477 32.4219C177.472 31.6927 177.666 31.0701 178.059 30.554C178.452 30.0331 179.011 29.6354 179.735 29.3608C180.46 29.0862 181.315 28.9489 182.299 28.9489C183.777 28.9489 184.941 29.259 185.794 29.8793C186.646 30.4948 187.117 31.3423 187.207 32.4219ZM198.711 32.4219L195.522 32.5071C195.489 32.2798 195.399 32.0786 195.252 31.9034C195.105 31.7235 194.914 31.5838 194.677 31.4844C194.445 31.3802 194.175 31.3281 193.867 31.3281C193.465 31.3281 193.121 31.4086 192.837 31.5696C192.558 31.7306 192.421 31.9484 192.425 32.223C192.421 32.4361 192.506 32.6207 192.681 32.777C192.861 32.9332 193.181 33.0587 193.64 33.1534L195.742 33.5511C196.831 33.7595 197.641 34.1051 198.171 34.5881C198.706 35.071 198.976 35.7102 198.981 36.5057C198.976 37.2538 198.754 37.9048 198.313 38.4588C197.878 39.0128 197.281 39.4437 196.523 39.7514C195.766 40.0545 194.899 40.206 193.924 40.206C192.366 40.206 191.138 39.8864 190.238 39.2472C189.343 38.6032 188.832 37.7415 188.704 36.6619L192.134 36.5767C192.21 36.9744 192.406 37.2775 192.724 37.4858C193.041 37.6941 193.446 37.7983 193.938 37.7983C194.383 37.7983 194.746 37.7154 195.025 37.5497C195.304 37.384 195.446 37.1638 195.451 36.8892C195.446 36.643 195.337 36.4465 195.124 36.2997C194.911 36.1482 194.577 36.0298 194.123 35.9446L192.219 35.5824C191.126 35.3835 190.311 35.0166 189.776 34.4815C189.241 33.9418 188.976 33.2552 188.981 32.4219C188.976 31.6927 189.17 31.0701 189.563 30.554C189.956 30.0331 190.515 29.6354 191.239 29.3608C191.964 29.0862 192.818 28.9489 193.803 28.9489C195.281 28.9489 196.445 29.259 197.298 29.8793C198.15 30.4948 198.621 31.3423 198.711 32.4219ZM200.691 40V29.0909H204.164V40H200.691ZM202.431 27.8196C201.943 27.8196 201.524 27.6586 201.174 27.3366C200.823 27.0099 200.648 26.617 200.648 26.1577C200.648 25.7031 200.823 25.3149 201.174 24.9929C201.524 24.6662 201.943 24.5028 202.431 24.5028C202.923 24.5028 203.342 24.6662 203.688 24.9929C204.038 25.3149 204.213 25.7031 204.213 26.1577C204.213 26.617 204.038 27.0099 203.688 27.3366C203.342 27.6586 202.923 27.8196 202.431 27.8196ZM209.847 33.7784V40H206.374V29.0909H209.677V31.0938H209.798C210.039 30.4261 210.451 29.9029 211.033 29.5241C211.616 29.1406 212.309 28.9489 213.114 28.9489C213.881 28.9489 214.547 29.1217 215.11 29.4673C215.678 29.8082 216.119 30.2865 216.431 30.902C216.748 31.5128 216.905 32.2277 216.9 33.0469V40H213.427V33.7287C213.432 33.1226 213.278 32.6491 212.965 32.3082C212.657 31.9673 212.229 31.7969 211.68 31.7969C211.315 31.7969 210.993 31.8774 210.714 32.0384C210.439 32.1946 210.226 32.4195 210.075 32.7131C209.928 33.0066 209.852 33.3617 209.847 33.7784ZM224.135 44.3182C223.098 44.3182 222.211 44.1738 221.472 43.8849C220.733 43.5961 220.153 43.2008 219.732 42.6989C219.31 42.197 219.057 41.6288 218.972 40.9943L222.26 40.8097C222.322 41.0322 222.435 41.2263 222.601 41.392C222.772 41.5578 222.992 41.6856 223.262 41.7756C223.536 41.8655 223.858 41.9105 224.228 41.9105C224.81 41.9105 225.291 41.7685 225.669 41.4844C226.053 41.205 226.245 40.715 226.245 40.0142V38.0966H226.124C225.987 38.4328 225.778 38.7334 225.499 38.9986C225.22 39.2637 224.872 39.4721 224.455 39.6236C224.043 39.7751 223.569 39.8509 223.034 39.8509C222.239 39.8509 221.51 39.6662 220.847 39.2969C220.189 38.9228 219.661 38.3452 219.263 37.5639C218.87 36.7779 218.674 35.767 218.674 34.5312C218.674 33.2576 218.877 32.2088 219.284 31.3849C219.692 30.5563 220.224 29.9432 220.882 29.5455C221.545 29.1477 222.258 28.9489 223.02 28.9489C223.593 28.9489 224.083 29.0483 224.49 29.2472C224.902 29.4413 225.241 29.6922 225.506 30C225.771 30.3078 225.972 30.6274 226.11 30.9588H226.209V29.0909H229.668V40.0426C229.668 40.9659 229.436 41.7448 228.972 42.3793C228.508 43.0137 227.859 43.4943 227.026 43.821C226.193 44.1525 225.229 44.3182 224.135 44.3182ZM224.242 37.3224C224.663 37.3224 225.023 37.2112 225.321 36.9886C225.62 36.7661 225.849 36.4465 226.01 36.0298C226.171 35.6132 226.252 35.1136 226.252 34.5312C226.252 33.9394 226.171 33.4304 226.01 33.0043C225.854 32.5734 225.624 32.242 225.321 32.0099C225.023 31.7779 224.663 31.6619 224.242 31.6619C223.811 31.6619 223.446 31.7803 223.148 32.017C222.85 32.2538 222.623 32.5876 222.466 33.0185C222.315 33.4446 222.239 33.9489 222.239 34.5312C222.239 35.1136 222.317 35.6132 222.473 36.0298C222.63 36.4465 222.855 36.7661 223.148 36.9886C223.446 37.2112 223.811 37.3224 224.242 37.3224ZM239.254 40.1847C238.558 40.1847 237.94 40.0687 237.401 39.8366C236.866 39.5999 236.442 39.2448 236.129 38.7713C235.821 38.2931 235.668 37.6941 235.668 36.9744C235.668 36.3684 235.774 35.857 235.987 35.4403C236.2 35.0237 236.494 34.6851 236.868 34.4247C237.242 34.1643 237.673 33.9678 238.161 33.8352C238.648 33.6979 239.169 33.6056 239.723 33.5582C240.343 33.5014 240.843 33.4422 241.222 33.3807C241.6 33.3144 241.875 33.2221 242.045 33.1037C242.221 32.9806 242.308 32.8078 242.308 32.5852V32.5497C242.308 32.1851 242.183 31.9034 241.932 31.7045C241.681 31.5057 241.342 31.4062 240.916 31.4062C240.457 31.4062 240.088 31.5057 239.808 31.7045C239.529 31.9034 239.351 32.178 239.276 32.5284L236.072 32.4148C236.167 31.7519 236.411 31.16 236.804 30.6392C237.202 30.1136 237.746 29.7017 238.438 29.4034C239.134 29.1004 239.969 28.9489 240.945 28.9489C241.641 28.9489 242.282 29.0317 242.869 29.1974C243.456 29.3584 243.968 29.5952 244.403 29.9077C244.839 30.2154 245.175 30.5942 245.412 31.044C245.653 31.4938 245.774 32.0076 245.774 32.5852V40H242.507V38.4801H242.422C242.228 38.8494 241.979 39.1619 241.676 39.4176C241.378 39.6733 241.025 39.8651 240.618 39.9929C240.215 40.1207 239.761 40.1847 239.254 40.1847ZM240.327 37.9119C240.701 37.9119 241.037 37.8362 241.335 37.6847C241.638 37.5331 241.88 37.3248 242.06 37.0597C242.24 36.7898 242.33 36.4773 242.33 36.1222V35.0852C242.23 35.1373 242.109 35.1847 241.967 35.2273C241.83 35.2699 241.679 35.3101 241.513 35.348C241.347 35.3859 241.177 35.419 241.001 35.4474C240.826 35.4759 240.658 35.5019 240.497 35.5256C240.17 35.5777 239.891 35.6581 239.659 35.767C239.432 35.8759 239.257 36.018 239.134 36.1932C239.015 36.3636 238.956 36.5672 238.956 36.804C238.956 37.1638 239.084 37.4384 239.339 37.6278C239.6 37.8172 239.929 37.9119 240.327 37.9119ZM251.371 25.4545V40H247.898V25.4545H251.371ZM257.054 25.4545V40H253.581V25.4545H257.054ZM273.086 32.4219L269.897 32.5071C269.864 32.2798 269.774 32.0786 269.627 31.9034C269.48 31.7235 269.289 31.5838 269.052 31.4844C268.82 31.3802 268.55 31.3281 268.242 31.3281C267.84 31.3281 267.496 31.4086 267.212 31.5696C266.933 31.7306 266.796 31.9484 266.8 32.223C266.796 32.4361 266.881 32.6207 267.056 32.777C267.236 32.9332 267.556 33.0587 268.015 33.1534L270.117 33.5511C271.206 33.7595 272.016 34.1051 272.546 34.5881C273.081 35.071 273.351 35.7102 273.356 36.5057C273.351 37.2538 273.129 37.9048 272.688 38.4588C272.253 39.0128 271.656 39.4437 270.898 39.7514C270.141 40.0545 269.274 40.206 268.299 40.206C266.741 40.206 265.513 39.8864 264.613 39.2472C263.718 38.6032 263.207 37.7415 263.079 36.6619L266.509 36.5767C266.585 36.9744 266.781 37.2775 267.099 37.4858C267.416 37.6941 267.821 37.7983 268.313 37.7983C268.758 37.7983 269.121 37.7154 269.4 37.5497C269.679 37.384 269.821 37.1638 269.826 36.8892C269.821 36.643 269.712 36.4465 269.499 36.2997C269.286 36.1482 268.952 36.0298 268.498 35.9446L266.594 35.5824C265.501 35.3835 264.686 35.0166 264.151 34.4815C263.616 33.9418 263.351 33.2552 263.356 32.4219C263.351 31.6927 263.545 31.0701 263.938 30.554C264.331 30.0331 264.89 29.6354 265.614 29.3608C266.339 29.0862 267.193 28.9489 268.178 28.9489C269.656 28.9489 270.82 29.259 271.673 29.8793C272.525 30.4948 272.996 31.3423 273.086 32.4219ZM281.223 29.0909V31.6477H274.341V29.0909H281.223ZM275.783 26.4773H279.256V36.5696C279.256 36.7827 279.289 36.9555 279.355 37.0881C279.426 37.2159 279.528 37.3082 279.661 37.3651C279.793 37.4171 279.952 37.4432 280.137 37.4432C280.269 37.4432 280.409 37.4313 280.556 37.4077C280.707 37.3793 280.821 37.3556 280.897 37.3366L281.422 39.8438C281.257 39.8911 281.022 39.9503 280.719 40.0213C280.421 40.0923 280.063 40.1373 279.647 40.1562C278.832 40.1941 278.134 40.0994 277.551 39.8722C276.974 39.6402 276.531 39.2803 276.223 38.7926C275.92 38.3049 275.774 37.6918 275.783 36.9531V26.4773ZM286.071 40.1847C285.375 40.1847 284.757 40.0687 284.217 39.8366C283.682 39.5999 283.258 39.2448 282.946 38.7713C282.638 38.2931 282.484 37.6941 282.484 36.9744C282.484 36.3684 282.591 35.857 282.804 35.4403C283.017 35.0237 283.31 34.6851 283.684 34.4247C284.058 34.1643 284.489 33.9678 284.977 33.8352C285.465 33.6979 285.985 33.6056 286.539 33.5582C287.16 33.5014 287.659 33.4422 288.038 33.3807C288.417 33.3144 288.691 33.2221 288.862 33.1037C289.037 32.9806 289.125 32.8078 289.125 32.5852V32.5497C289.125 32.1851 288.999 31.9034 288.748 31.7045C288.497 31.5057 288.159 31.4062 287.733 31.4062C287.273 31.4062 286.904 31.5057 286.625 31.7045C286.345 31.9034 286.168 32.178 286.092 32.5284L282.889 32.4148C282.984 31.7519 283.227 31.16 283.62 30.6392C284.018 30.1136 284.563 29.7017 285.254 29.4034C285.95 29.1004 286.786 28.9489 287.761 28.9489C288.457 28.9489 289.099 29.0317 289.686 29.1974C290.273 29.3584 290.784 29.5952 291.22 29.9077C291.655 30.2154 291.992 30.5942 292.228 31.044C292.47 31.4938 292.591 32.0076 292.591 32.5852V40H289.324V38.4801H289.238C289.044 38.8494 288.796 39.1619 288.493 39.4176C288.194 39.6733 287.842 39.8651 287.434 39.9929C287.032 40.1207 286.577 40.1847 286.071 40.1847ZM287.143 37.9119C287.517 37.9119 287.853 37.8362 288.152 37.6847C288.455 37.5331 288.696 37.3248 288.876 37.0597C289.056 36.7898 289.146 36.4773 289.146 36.1222V35.0852C289.047 35.1373 288.926 35.1847 288.784 35.2273C288.646 35.2699 288.495 35.3101 288.329 35.348C288.163 35.3859 287.993 35.419 287.818 35.4474C287.643 35.4759 287.475 35.5019 287.314 35.5256C286.987 35.5777 286.708 35.6581 286.475 35.767C286.248 35.8759 286.073 36.018 285.95 36.1932C285.832 36.3636 285.772 36.5672 285.772 36.804C285.772 37.1638 285.9 37.4384 286.156 37.6278C286.416 37.8172 286.745 37.9119 287.143 37.9119ZM299.799 44.3182C298.762 44.3182 297.875 44.1738 297.136 43.8849C296.397 43.5961 295.817 43.2008 295.396 42.6989C294.975 42.197 294.721 41.6288 294.636 40.9943L297.924 40.8097C297.986 41.0322 298.1 41.2263 298.265 41.392C298.436 41.5578 298.656 41.6856 298.926 41.7756C299.2 41.8655 299.522 41.9105 299.892 41.9105C300.474 41.9105 300.955 41.7685 301.333 41.4844C301.717 41.205 301.909 40.715 301.909 40.0142V38.0966H301.788C301.651 38.4328 301.442 38.7334 301.163 38.9986C300.884 39.2637 300.536 39.4721 300.119 39.6236C299.707 39.7751 299.234 39.8509 298.699 39.8509C297.903 39.8509 297.174 39.6662 296.511 39.2969C295.853 38.9228 295.325 38.3452 294.927 37.5639C294.534 36.7779 294.338 35.767 294.338 34.5312C294.338 33.2576 294.541 32.2088 294.949 31.3849C295.356 30.5563 295.888 29.9432 296.547 29.5455C297.209 29.1477 297.922 28.9489 298.684 28.9489C299.257 28.9489 299.747 29.0483 300.154 29.2472C300.566 29.4413 300.905 29.6922 301.17 30C301.435 30.3078 301.636 30.6274 301.774 30.9588H301.873V29.0909H305.332V40.0426C305.332 40.9659 305.1 41.7448 304.636 42.3793C304.172 43.0137 303.523 43.4943 302.69 43.821C301.857 44.1525 300.893 44.3182 299.799 44.3182ZM299.906 37.3224C300.327 37.3224 300.687 37.2112 300.985 36.9886C301.284 36.7661 301.513 36.4465 301.674 36.0298C301.835 35.6132 301.916 35.1136 301.916 34.5312C301.916 33.9394 301.835 33.4304 301.674 33.0043C301.518 32.5734 301.288 32.242 300.985 32.0099C300.687 31.7779 300.327 31.6619 299.906 31.6619C299.475 31.6619 299.11 31.7803 298.812 32.017C298.514 32.2538 298.287 32.5876 298.13 33.0185C297.979 33.4446 297.903 33.9489 297.903 34.5312C297.903 35.1136 297.981 35.6132 298.137 36.0298C298.294 36.4465 298.519 36.7661 298.812 36.9886C299.11 37.2112 299.475 37.3224 299.906 37.3224ZM312.646 40.206C311.504 40.206 310.52 39.9811 309.691 39.5312C308.867 39.0767 308.233 38.4304 307.788 37.5923C307.347 36.7495 307.127 35.7481 307.127 34.5881C307.127 33.4612 307.35 32.4763 307.795 31.6335C308.24 30.786 308.867 30.1278 309.677 29.6591C310.487 29.1856 311.441 28.9489 312.539 28.9489C313.316 28.9489 314.026 29.0696 314.67 29.3111C315.314 29.5526 315.87 29.91 316.339 30.3835C316.808 30.857 317.172 31.4418 317.433 32.1378C317.693 32.8291 317.823 33.6222 317.823 34.517V35.3835H308.342V33.3665H314.592C314.587 32.9972 314.499 32.6681 314.329 32.3793C314.158 32.0904 313.924 31.8655 313.626 31.7045C313.332 31.5388 312.994 31.456 312.61 31.456C312.222 31.456 311.874 31.5436 311.566 31.7188C311.258 31.8892 311.014 32.1236 310.835 32.4219C310.655 32.7154 310.56 33.0492 310.55 33.4233V35.4759C310.55 35.9209 310.638 36.3116 310.813 36.6477C310.988 36.9792 311.237 37.2372 311.559 37.4219C311.881 37.6065 312.264 37.6989 312.71 37.6989C313.017 37.6989 313.297 37.6562 313.548 37.571C313.799 37.4858 314.014 37.3603 314.194 37.1946C314.374 37.0289 314.509 36.8253 314.599 36.5838L317.788 36.6761C317.655 37.3911 317.364 38.0137 316.914 38.544C316.469 39.0696 315.884 39.4792 315.16 39.7727C314.435 40.0616 313.597 40.206 312.646 40.206ZM329.121 32.4219L325.932 32.5071C325.899 32.2798 325.809 32.0786 325.662 31.9034C325.516 31.7235 325.324 31.5838 325.087 31.4844C324.855 31.3802 324.585 31.3281 324.277 31.3281C323.875 31.3281 323.532 31.4086 323.248 31.5696C322.968 31.7306 322.831 31.9484 322.836 32.223C322.831 32.4361 322.916 32.6207 323.091 32.777C323.271 32.9332 323.591 33.0587 324.05 33.1534L326.152 33.5511C327.241 33.7595 328.051 34.1051 328.581 34.5881C329.116 35.071 329.386 35.7102 329.391 36.5057C329.386 37.2538 329.164 37.9048 328.723 38.4588C328.288 39.0128 327.691 39.4437 326.934 39.7514C326.176 40.0545 325.31 40.206 324.334 40.206C322.776 40.206 321.548 39.8864 320.648 39.2472C319.753 38.6032 319.242 37.7415 319.114 36.6619L322.544 36.5767C322.62 36.9744 322.817 37.2775 323.134 37.4858C323.451 37.6941 323.856 37.7983 324.348 37.7983C324.793 37.7983 325.156 37.7154 325.435 37.5497C325.714 37.384 325.856 37.1638 325.861 36.8892C325.856 36.643 325.748 36.4465 325.534 36.2997C325.321 36.1482 324.988 36.0298 324.533 35.9446L322.63 35.5824C321.536 35.3835 320.721 35.0166 320.186 34.4815C319.651 33.9418 319.386 33.2552 319.391 32.4219C319.386 31.6927 319.58 31.0701 319.973 30.554C320.366 30.0331 320.925 29.6354 321.65 29.3608C322.374 29.0862 323.229 28.9489 324.213 28.9489C325.691 28.9489 326.855 29.259 327.708 29.8793C328.56 30.4948 329.031 31.3423 329.121 32.4219ZM344.922 32.4219L341.733 32.5071C341.7 32.2798 341.61 32.0786 341.463 31.9034C341.316 31.7235 341.125 31.5838 340.888 31.4844C340.656 31.3802 340.386 31.3281 340.078 31.3281C339.676 31.3281 339.332 31.4086 339.048 31.5696C338.769 31.7306 338.632 31.9484 338.636 32.223C338.632 32.4361 338.717 32.6207 338.892 32.777C339.072 32.9332 339.392 33.0587 339.851 33.1534L341.953 33.5511C343.042 33.7595 343.852 34.1051 344.382 34.5881C344.917 35.071 345.187 35.7102 345.192 36.5057C345.187 37.2538 344.964 37.9048 344.524 38.4588C344.089 39.0128 343.492 39.4437 342.734 39.7514C341.977 40.0545 341.11 40.206 340.135 40.206C338.577 40.206 337.348 39.8864 336.449 39.2472C335.554 38.6032 335.043 37.7415 334.915 36.6619L338.345 36.5767C338.421 36.9744 338.617 37.2775 338.935 37.4858C339.252 37.6941 339.657 37.7983 340.149 37.7983C340.594 37.7983 340.956 37.7154 341.236 37.5497C341.515 37.384 341.657 37.1638 341.662 36.8892C341.657 36.643 341.548 36.4465 341.335 36.2997C341.122 36.1482 340.788 36.0298 340.334 35.9446L338.43 35.5824C337.337 35.3835 336.522 35.0166 335.987 34.4815C335.452 33.9418 335.187 33.2552 335.192 32.4219C335.187 31.6927 335.381 31.0701 335.774 30.554C336.167 30.0331 336.726 29.6354 337.45 29.3608C338.175 29.0862 339.029 28.9489 340.014 28.9489C341.491 28.9489 342.656 29.259 343.509 29.8793C344.361 30.4948 344.832 31.3423 344.922 32.4219ZM346.902 40V29.0909H350.204V31.0938H350.325C350.552 30.4309 350.936 29.9077 351.475 29.5241C352.015 29.1406 352.659 28.9489 353.407 28.9489C354.165 28.9489 354.814 29.143 355.353 29.5312C355.893 29.9195 356.236 30.4403 356.383 31.0938H356.497C356.7 30.4451 357.098 29.9266 357.69 29.5384C358.282 29.1454 358.98 28.9489 359.785 28.9489C360.817 28.9489 361.655 29.2803 362.299 29.9432C362.943 30.6013 363.265 31.5057 363.265 32.6562V40H359.792V33.4517C359.792 32.9072 359.653 32.4929 359.373 32.2088C359.094 31.92 358.732 31.7756 358.287 31.7756C357.808 31.7756 357.432 31.9318 357.157 32.2443C356.887 32.5521 356.752 32.9664 356.752 33.4872V40H353.414V33.4162C353.414 32.9096 353.277 32.5095 353.002 32.2159C352.728 31.9223 352.366 31.7756 351.916 31.7756C351.613 31.7756 351.345 31.849 351.113 31.9957C350.881 32.1378 350.699 32.3414 350.566 32.6065C350.439 32.8717 350.375 33.1842 350.375 33.544V40H346.902ZM370.51 40.206C369.364 40.206 368.379 39.9716 367.555 39.5028C366.736 39.0294 366.104 38.3712 365.659 37.5284C365.218 36.6809 364.998 35.6984 364.998 34.581C364.998 33.4588 365.218 32.4763 365.659 31.6335C366.104 30.786 366.736 30.1278 367.555 29.6591C368.379 29.1856 369.364 28.9489 370.51 28.9489C371.655 28.9489 372.638 29.1856 373.457 29.6591C374.281 30.1278 374.913 30.786 375.353 31.6335C375.798 32.4763 376.021 33.4588 376.021 34.581C376.021 35.6984 375.798 36.6809 375.353 37.5284C374.913 38.3712 374.281 39.0294 373.457 39.5028C372.638 39.9716 371.655 40.206 370.51 40.206ZM370.531 37.5852C370.948 37.5852 371.3 37.4574 371.589 37.2017C371.878 36.946 372.098 36.5909 372.25 36.1364C372.406 35.6818 372.484 35.1562 372.484 34.5597C372.484 33.9536 372.406 33.4233 372.25 32.9688C372.098 32.5142 371.878 32.1591 371.589 31.9034C371.3 31.6477 370.948 31.5199 370.531 31.5199C370.1 31.5199 369.735 31.6477 369.437 31.9034C369.144 32.1591 368.919 32.5142 368.762 32.9688C368.611 33.4233 368.535 33.9536 368.535 34.5597C368.535 35.1562 368.611 35.6818 368.762 36.1364C368.919 36.5909 369.144 36.946 369.437 37.2017C369.735 37.4574 370.1 37.5852 370.531 37.5852ZM382.892 40.206C381.747 40.206 380.762 39.9716 379.938 39.5028C379.119 39.0294 378.487 38.3712 378.042 37.5284C377.601 36.6809 377.381 35.6984 377.381 34.581C377.381 33.4588 377.601 32.4763 378.042 31.6335C378.487 30.786 379.119 30.1278 379.938 29.6591C380.762 29.1856 381.747 28.9489 382.892 28.9489C384.038 28.9489 385.021 29.1856 385.84 29.6591C386.664 30.1278 387.296 30.786 387.736 31.6335C388.181 32.4763 388.404 33.4588 388.404 34.581C388.404 35.6984 388.181 36.6809 387.736 37.5284C387.296 38.3712 386.664 39.0294 385.84 39.5028C385.021 39.9716 384.038 40.206 382.892 40.206ZM382.914 37.5852C383.33 37.5852 383.683 37.4574 383.972 37.2017C384.261 36.946 384.481 36.5909 384.632 36.1364C384.789 35.6818 384.867 35.1562 384.867 34.5597C384.867 33.9536 384.789 33.4233 384.632 32.9688C384.481 32.5142 384.261 32.1591 383.972 31.9034C383.683 31.6477 383.33 31.5199 382.914 31.5199C382.483 31.5199 382.118 31.6477 381.82 31.9034C381.526 32.1591 381.301 32.5142 381.145 32.9688C380.994 33.4233 380.918 33.9536 380.918 34.5597C380.918 35.1562 380.994 35.6818 381.145 36.1364C381.301 36.5909 381.526 36.946 381.82 37.2017C382.118 37.4574 382.483 37.5852 382.914 37.5852ZM396.341 29.0909V31.6477H389.458V29.0909H396.341ZM390.9 26.4773H394.373V36.5696C394.373 36.7827 394.406 36.9555 394.473 37.0881C394.544 37.2159 394.645 37.3082 394.778 37.3651C394.911 37.4171 395.069 37.4432 395.254 37.4432C395.386 37.4432 395.526 37.4313 395.673 37.4077C395.824 37.3793 395.938 37.3556 396.014 37.3366L396.539 39.8438C396.374 39.8911 396.139 39.9503 395.836 40.0213C395.538 40.0923 395.181 40.1373 394.764 40.1562C393.949 40.1941 393.251 40.0994 392.669 39.8722C392.091 39.6402 391.648 39.2803 391.341 38.7926C391.038 38.3049 390.891 37.6918 390.9 36.9531V26.4773ZM401.82 33.7784V40H398.347V25.4545H401.706V31.0938H401.827C402.073 30.4214 402.476 29.8958 403.034 29.517C403.598 29.1383 404.287 28.9489 405.101 28.9489C405.868 28.9489 406.536 29.1193 407.104 29.4602C407.672 29.7964 408.113 30.2723 408.425 30.8878C408.742 31.5033 408.899 32.223 408.894 33.0469V40H405.421V33.7287C405.426 33.1226 405.274 32.6491 404.966 32.3082C404.658 31.9673 404.225 31.7969 403.667 31.7969C403.302 31.7969 402.98 31.8774 402.701 32.0384C402.426 32.1946 402.211 32.4195 402.054 32.7131C401.903 33.0066 401.825 33.3617 401.82 33.7784ZM414.535 25.4545V40H411.062V25.4545H414.535ZM418.869 44.0909C418.452 44.0909 418.059 44.0578 417.69 43.9915C417.321 43.9299 417.003 43.8471 416.738 43.7429L417.505 41.2216C417.846 41.3352 418.154 41.4015 418.429 41.4205C418.708 41.4394 418.947 41.3944 419.146 41.2855C419.35 41.1813 419.506 40.9943 419.615 40.7244L419.75 40.3977L415.872 29.0909H419.508L421.518 36.875H421.632L423.67 29.0909H427.328L423.216 41.044C423.017 41.6406 422.735 42.1662 422.37 42.6207C422.011 43.08 421.544 43.4399 420.971 43.7003C420.403 43.9607 419.702 44.0909 418.869 44.0909Z" fill="#4A5568"/>
<rect x="1" y="1" width="446" height="63" rx="20" stroke="url(#paint0_radial_4193_19441)" stroke-width="2"/>
<rect x="1" y="1" width="446" height="63" rx="20" stroke="url(#paint1_radial_4193_19441)" stroke-width="2"/>
<rect x="1" y="1" width="446" height="63" rx="20" stroke="url(#paint2_linear_4193_19441)" stroke-width="2"/>
<rect x="1" y="1" width="446" height="63" rx="20" stroke="#C1BABA" stroke-opacity="0.2" stroke-width="2"/>
</g>
</g>
<defs>
<filter id="filter0_d_4193_19441" x="-8" y="-7" width="490" height="107" filterUnits="userSpaceOnUse" color-interpolation-filters="sRGB">
<feFlood flood-opacity="0" result="BackgroundImageFix"/>
<feColorMatrix in="SourceAlpha" type="matrix" values="0 0 0 0 0 0 0 0 0 0 0 0 0 0 0 0 0 0 127 0" result="hardAlpha"/>
<feOffset dx="13" dy="14"/>
<feGaussianBlur stdDeviation="10.5"/>
<feComposite in2="hardAlpha" operator="out"/>
<feColorMatrix type="matrix" values="0 0 0 0 0 0 0 0 0 0 0 0 0 0 0 0 0 0 0.5 0"/>
<feBlend mode="overlay" in2="BackgroundImageFix" result="effect1_dropShadow_4193_19441"/>
<feBlend mode="normal" in="SourceGraphic" in2="effect1_dropShadow_4193_19441" result="shape"/>
</filter>
<radialGradient id="paint0_radial_4193_19441" cx="0" cy="0" r="1" gradientUnits="userSpaceOnUse" gradientTransform="translate(4.02965 1.93388) rotate(7.99627) scale(441.388 194.596)">
<stop stop-color="#D8D8D8" stop-opacity="0"/>
<stop offset="1" stop-color="#D8D8D8"/>
</radialGradient>
<radialGradient id="paint1_radial_4193_19441" cx="0" cy="0" r="1" gradientUnits="userSpaceOnUse" gradientTransform="translate(6.16295 63.0124) rotate(-7.99334) scale(439.23 193.374)">
<stop stop-color="#D8D8D8" stop-opacity="0"/>
<stop offset="1" stop-color="#D8D8D8"/>
</radialGradient>
<linearGradient id="paint2_linear_4193_19441" x1="8.2963" y1="1.77273" x2="65.7033" y2="182.545" gradientUnits="userSpaceOnUse">
<stop stop-color="white" stop-opacity="0.9"/>
<stop offset="1" stop-color="white" stop-opacity="0"/>
</linearGradient>
<clipPath id="clip0_4193_19441">
<rect width="506" height="65" fill="white"/>
</clipPath>
</defs>
</svg>
