<svg width="490" height="107" viewBox="0 0 490 107" fill="none" xmlns="http://www.w3.org/2000/svg">
<g filter="url(#filter0_d_4039_21372)">
<rect x="8" y="7" width="448" height="65" rx="21" fill="#E2E8F0"/>
<path d="M42.304 37.7244H38.7528C38.7055 37.3598 38.6084 37.0308 38.4616 36.7372C38.3149 36.4437 38.1207 36.1927 37.8793 35.9844C37.6378 35.776 37.3513 35.6174 37.0199 35.5085C36.6932 35.3949 36.331 35.3381 35.9332 35.3381C35.2277 35.3381 34.6193 35.5109 34.108 35.8565C33.6013 36.2022 33.2107 36.7017 32.9361 37.3551C32.6662 38.0085 32.5312 38.7992 32.5312 39.7273C32.5312 40.6932 32.6686 41.5028 32.9432 42.1562C33.2225 42.8049 33.6132 43.295 34.1151 43.6264C34.6217 43.9531 35.2206 44.1165 35.9119 44.1165C36.3002 44.1165 36.6529 44.0668 36.9702 43.9673C37.2921 43.8679 37.5739 43.7235 37.8153 43.5341C38.0616 43.34 38.2628 43.1056 38.419 42.831C38.58 42.5516 38.6913 42.2367 38.7528 41.8864L42.304 41.9077C42.2424 42.5516 42.0554 43.1861 41.7429 43.8111C41.4351 44.4361 41.0114 45.0066 40.4716 45.5227C39.9318 46.0341 39.2737 46.4413 38.4972 46.7443C37.7254 47.0473 36.84 47.1989 35.8409 47.1989C34.5246 47.1989 33.3456 46.91 32.304 46.3324C31.267 45.75 30.4479 44.9025 29.8466 43.7898C29.2453 42.6771 28.9446 41.3229 28.9446 39.7273C28.9446 38.1269 29.25 36.7704 29.8608 35.6577C30.4716 34.545 31.2978 33.6998 32.3395 33.1222C33.3812 32.5445 34.5483 32.2557 35.8409 32.2557C36.7216 32.2557 37.536 32.3788 38.2841 32.625C39.0322 32.8665 39.6903 33.2216 40.2585 33.6903C40.8267 34.1544 41.2884 34.7249 41.6435 35.402C41.9986 36.0791 42.2188 36.8532 42.304 37.7244ZM44.3157 47V36.0909H47.7887V47H44.3157ZM46.0558 34.8196C45.5681 34.8196 45.149 34.6586 44.7987 34.3366C44.4483 34.0099 44.2731 33.617 44.2731 33.1577C44.2731 32.7031 44.4483 32.3149 44.7987 31.9929C45.149 31.6662 45.5681 31.5028 46.0558 31.5028C46.5482 31.5028 46.9672 31.6662 47.3129 31.9929C47.6632 32.3149 47.8384 32.7031 47.8384 33.1577C47.8384 33.617 47.6632 34.0099 47.3129 34.3366C46.9672 34.6586 46.5482 34.8196 46.0558 34.8196ZM53.4723 40.7784V47H49.9993V36.0909H53.3018V38.0938H53.4226C53.6641 37.4261 54.076 36.9029 54.6584 36.5241C55.2408 36.1406 55.9344 35.9489 56.7393 35.9489C57.5064 35.9489 58.1716 36.1217 58.7351 36.4673C59.3033 36.8082 59.7436 37.2865 60.0561 37.902C60.3733 38.5128 60.5296 39.2277 60.5249 40.0469V47H57.0518V40.7287C57.0566 40.1226 56.9027 39.6491 56.5902 39.3082C56.2824 38.9673 55.8539 38.7969 55.3047 38.7969C54.9401 38.7969 54.6181 38.8774 54.3388 39.0384C54.0642 39.1946 53.8511 39.4195 53.6996 39.7131C53.5528 40.0066 53.477 40.3617 53.4723 40.7784ZM66.6594 47.1562C65.8545 47.1562 65.123 46.9479 64.4648 46.5312C63.8067 46.1146 63.2811 45.4896 62.8881 44.6562C62.4951 43.8229 62.2987 42.7884 62.2987 41.5526C62.2987 40.2694 62.5022 39.2135 62.9094 38.3849C63.3166 37.5563 63.8493 36.9432 64.5075 36.5455C65.1703 36.1477 65.8829 35.9489 66.6452 35.9489C67.2182 35.9489 67.7082 36.0483 68.1154 36.2472C68.5226 36.4413 68.8588 36.6922 69.1239 37C69.3891 37.3078 69.5903 37.6274 69.7276 37.9588H69.7987V32.4545H73.2717V47H69.8342V45.2315H69.7276C69.5808 45.5677 69.3725 45.8826 69.1026 46.1761C68.8327 46.4697 68.4942 46.7064 68.087 46.8864C67.6845 47.0663 67.2087 47.1562 66.6594 47.1562ZM67.8668 44.4503C68.2882 44.4503 68.6481 44.3319 68.9464 44.0952C69.2447 43.8537 69.4743 43.5152 69.6353 43.0795C69.7963 42.6439 69.8768 42.1326 69.8768 41.5455C69.8768 40.9489 69.7963 40.4351 69.6353 40.0043C69.479 39.5734 69.2494 39.242 68.9464 39.0099C68.6481 38.7779 68.2882 38.6619 67.8668 38.6619C67.436 38.6619 67.0714 38.7803 66.7731 39.017C66.4748 39.2538 66.2475 39.5876 66.0913 40.0185C65.9397 40.4493 65.864 40.9583 65.864 41.5455C65.864 42.1326 65.9421 42.6439 66.0984 43.0795C66.2546 43.5152 66.4795 43.8537 66.7731 44.0952C67.0714 44.3319 67.436 44.4503 67.8668 44.4503ZM77.5916 51.0909C77.175 51.0909 76.782 51.0578 76.4126 50.9915C76.0433 50.9299 75.7261 50.8471 75.4609 50.7429L76.228 48.2216C76.5689 48.3352 76.8767 48.4015 77.1513 48.4205C77.4306 48.4394 77.6697 48.3944 77.8686 48.2855C78.0722 48.1813 78.2285 47.9943 78.3374 47.7244L78.4723 47.3977L74.5945 36.0909H78.2308L80.2408 43.875H80.3544L82.3928 36.0909H86.0504L81.9382 48.044C81.7393 48.6406 81.4576 49.1662 81.093 49.6207C80.7332 50.08 80.2668 50.4399 79.6939 50.7003C79.1257 50.9607 78.425 51.0909 77.5916 51.0909ZM90.8587 32.4545V34.0739C90.8587 34.5237 90.7687 34.9782 90.5888 35.4375C90.4136 35.892 90.1839 36.3182 89.8999 36.7159C89.6158 37.1136 89.3151 37.4498 88.9979 37.7244L87.5206 36.9148C87.7384 36.5549 87.9325 36.1501 88.103 35.7003C88.2734 35.2457 88.3587 34.706 88.3587 34.081V32.4545H90.8587ZM101.027 39.4219L97.8384 39.5071C97.8053 39.2798 97.7153 39.0786 97.5685 38.9034C97.4218 38.7235 97.23 38.5838 96.9933 38.4844C96.7612 38.3802 96.4914 38.3281 96.1836 38.3281C95.7811 38.3281 95.4379 38.4086 95.1538 38.5696C94.8744 38.7306 94.7371 38.9484 94.7418 39.223C94.7371 39.4361 94.8223 39.6207 94.9975 39.777C95.1774 39.9332 95.497 40.0587 95.9563 40.1534L98.0586 40.5511C99.1476 40.7595 99.9573 41.1051 100.488 41.5881C101.023 42.071 101.292 42.7102 101.297 43.5057C101.292 44.2538 101.07 44.9048 100.63 45.4588C100.194 46.0128 99.5974 46.4437 98.8398 46.7514C98.0823 47.0545 97.2158 47.206 96.2404 47.206C94.6826 47.206 93.454 46.8864 92.5543 46.2472C91.6594 45.6032 91.1481 44.7415 91.0202 43.6619L94.4506 43.5767C94.5264 43.9744 94.7229 44.2775 95.0401 44.4858C95.3574 44.6941 95.7622 44.7983 96.2546 44.7983C96.6997 44.7983 97.0619 44.7154 97.3413 44.5497C97.6206 44.384 97.7627 44.1638 97.7674 43.8892C97.7627 43.643 97.6538 43.4465 97.4407 43.2997C97.2276 43.1482 96.8938 43.0298 96.4393 42.9446L94.5359 42.5824C93.4421 42.3835 92.6277 42.0166 92.0927 41.4815C91.5576 40.9418 91.2925 40.2552 91.2972 39.4219C91.2925 38.6927 91.4866 38.0701 91.8796 37.554C92.2726 37.0331 92.8313 36.6354 93.5558 36.3608C94.2802 36.0862 95.1348 35.9489 96.1197 35.9489C97.5969 35.9489 98.7617 36.259 99.614 36.8793C100.466 37.4948 100.937 38.3423 101.027 39.4219ZM107.304 47V32.4545H110.777V37.9588H110.848C110.99 37.6274 111.191 37.3078 111.452 37C111.717 36.6922 112.053 36.4413 112.46 36.2472C112.872 36.0483 113.365 35.9489 113.938 35.9489C114.695 35.9489 115.403 36.1477 116.061 36.5455C116.724 36.9432 117.259 37.5563 117.666 38.3849C118.073 39.2135 118.277 40.2694 118.277 41.5526C118.277 42.7884 118.08 43.8229 117.688 44.6562C117.299 45.4896 116.774 46.1146 116.111 46.5312C115.453 46.9479 114.721 47.1562 113.916 47.1562C113.367 47.1562 112.891 47.0663 112.489 46.8864C112.086 46.7064 111.748 46.4697 111.473 46.1761C111.203 45.8826 110.995 45.5677 110.848 45.2315H110.741V47H107.304ZM110.706 41.5455C110.706 42.1326 110.784 42.6439 110.94 43.0795C111.101 43.5152 111.331 43.8537 111.629 44.0952C111.932 44.3319 112.295 44.4503 112.716 44.4503C113.142 44.4503 113.504 44.3319 113.803 44.0952C114.101 43.8537 114.326 43.5152 114.477 43.0795C114.634 42.6439 114.712 42.1326 114.712 41.5455C114.712 40.9583 114.634 40.4493 114.477 40.0185C114.326 39.5876 114.101 39.2538 113.803 39.017C113.509 38.7803 113.147 38.6619 112.716 38.6619C112.29 38.6619 111.928 38.7779 111.629 39.0099C111.331 39.242 111.101 39.5734 110.94 40.0043C110.784 40.4351 110.706 40.9489 110.706 41.5455ZM125.196 47.206C124.055 47.206 123.07 46.9811 122.242 46.5312C121.418 46.0767 120.783 45.4304 120.338 44.5923C119.898 43.7495 119.678 42.7481 119.678 41.5881C119.678 40.4612 119.9 39.4763 120.346 38.6335C120.791 37.786 121.418 37.1278 122.228 36.6591C123.037 36.1856 123.991 35.9489 125.09 35.9489C125.866 35.9489 126.577 36.0696 127.221 36.3111C127.864 36.5526 128.421 36.91 128.89 37.3835C129.358 37.857 129.723 38.4418 129.983 39.1378C130.244 39.8291 130.374 40.6222 130.374 41.517V42.3835H120.892V40.3665H127.142C127.138 39.9972 127.05 39.6681 126.88 39.3793C126.709 39.0904 126.475 38.8655 126.176 38.7045C125.883 38.5388 125.544 38.456 125.161 38.456C124.773 38.456 124.425 38.5436 124.117 38.7188C123.809 38.8892 123.565 39.1236 123.385 39.4219C123.205 39.7154 123.111 40.0492 123.101 40.4233V42.4759C123.101 42.9209 123.189 43.3116 123.364 43.6477C123.539 43.9792 123.788 44.2372 124.11 44.4219C124.432 44.6065 124.815 44.6989 125.26 44.6989C125.568 44.6989 125.847 44.6562 126.098 44.571C126.349 44.4858 126.565 44.3603 126.745 44.1946C126.925 44.0289 127.06 43.8253 127.15 43.5838L130.338 43.6761C130.206 44.3911 129.915 45.0137 129.465 45.544C129.02 46.0696 128.435 46.4792 127.711 46.7727C126.986 47.0616 126.148 47.206 125.196 47.206ZM137.247 47.206C136.106 47.206 135.121 46.9811 134.293 46.5312C133.469 46.0767 132.834 45.4304 132.389 44.5923C131.949 43.7495 131.729 42.7481 131.729 41.5881C131.729 40.4612 131.951 39.4763 132.396 38.6335C132.841 37.786 133.469 37.1278 134.278 36.6591C135.088 36.1856 136.042 35.9489 137.141 35.9489C137.917 35.9489 138.627 36.0696 139.271 36.3111C139.915 36.5526 140.472 36.91 140.94 37.3835C141.409 37.857 141.774 38.4418 142.034 39.1378C142.295 39.8291 142.425 40.6222 142.425 41.517V42.3835H132.943V40.3665H139.193C139.188 39.9972 139.101 39.6681 138.93 39.3793C138.76 39.0904 138.526 38.8655 138.227 38.7045C137.934 38.5388 137.595 38.456 137.212 38.456C136.823 38.456 136.475 38.5436 136.168 38.7188C135.86 38.8892 135.616 39.1236 135.436 39.4219C135.256 39.7154 135.161 40.0492 135.152 40.4233V42.4759C135.152 42.9209 135.24 43.3116 135.415 43.6477C135.59 43.9792 135.839 44.2372 136.161 44.4219C136.482 44.6065 136.866 44.6989 137.311 44.6989C137.619 44.6989 137.898 44.6562 138.149 44.571C138.4 44.4858 138.616 44.3603 138.795 44.1946C138.975 44.0289 139.11 43.8253 139.2 43.5838L142.389 43.6761C142.257 44.3911 141.965 45.0137 141.516 45.544C141.071 46.0696 140.486 46.4792 139.761 46.7727C139.037 47.0616 138.199 47.206 137.247 47.206ZM147.672 40.7784V47H144.199V36.0909H147.501V38.0938H147.622C147.863 37.4261 148.275 36.9029 148.858 36.5241C149.44 36.1406 150.134 35.9489 150.939 35.9489C151.706 35.9489 152.371 36.1217 152.934 36.4673C153.502 36.8082 153.943 37.2865 154.255 37.902C154.573 38.5128 154.729 39.2277 154.724 40.0469V47H151.251V40.7287C151.256 40.1226 151.102 39.6491 150.789 39.3082C150.482 38.9673 150.053 38.7969 149.504 38.7969C149.139 38.7969 148.817 38.8774 148.538 39.0384C148.263 39.1946 148.05 39.4195 147.899 39.7131C147.752 40.0066 147.676 40.3617 147.672 40.7784ZM161.171 51.0909V36.0909H164.609V37.9588H164.715C164.857 37.6274 165.058 37.3078 165.319 37C165.584 36.6922 165.92 36.4413 166.327 36.2472C166.739 36.0483 167.232 35.9489 167.805 35.9489C168.562 35.9489 169.27 36.1477 169.928 36.5455C170.591 36.9432 171.126 37.5563 171.533 38.3849C171.941 39.2135 172.144 40.2694 172.144 41.5526C172.144 42.7884 171.948 43.8229 171.555 44.6562C171.166 45.4896 170.641 46.1146 169.978 46.5312C169.32 46.9479 168.588 47.1562 167.783 47.1562C167.234 47.1562 166.758 47.0663 166.356 46.8864C165.953 46.7064 165.615 46.4697 165.34 46.1761C165.07 45.8826 164.862 45.5677 164.715 45.2315H164.644V51.0909H161.171ZM164.573 41.5455C164.573 42.1326 164.651 42.6439 164.808 43.0795C164.969 43.5152 165.198 43.8537 165.496 44.0952C165.799 44.3319 166.162 44.4503 166.583 44.4503C167.009 44.4503 167.371 44.3319 167.67 44.0952C167.968 43.8537 168.193 43.5152 168.344 43.0795C168.501 42.6439 168.579 42.1326 168.579 41.5455C168.579 40.9583 168.501 40.4493 168.344 40.0185C168.193 39.5876 167.968 39.2538 167.67 39.017C167.376 38.7803 167.014 38.6619 166.583 38.6619C166.157 38.6619 165.795 38.7779 165.496 39.0099C165.198 39.242 164.969 39.5734 164.808 40.0043C164.651 40.4351 164.573 40.9489 164.573 41.5455ZM177.039 47.1847C176.343 47.1847 175.725 47.0687 175.186 46.8366C174.651 46.5999 174.227 46.2448 173.914 45.7713C173.607 45.2931 173.453 44.6941 173.453 43.9744C173.453 43.3684 173.559 42.857 173.772 42.4403C173.985 42.0237 174.279 41.6851 174.653 41.4247C175.027 41.1643 175.458 40.9678 175.946 40.8352C176.433 40.6979 176.954 40.6056 177.508 40.5582C178.128 40.5014 178.628 40.4422 179.007 40.3807C179.386 40.3144 179.66 40.2221 179.831 40.1037C180.006 39.9806 180.093 39.8078 180.093 39.5852V39.5497C180.093 39.1851 179.968 38.9034 179.717 38.7045C179.466 38.5057 179.127 38.4062 178.701 38.4062C178.242 38.4062 177.873 38.5057 177.593 38.7045C177.314 38.9034 177.136 39.178 177.061 39.5284L173.858 39.4148C173.952 38.7519 174.196 38.16 174.589 37.6392C174.987 37.1136 175.531 36.7017 176.223 36.4034C176.919 36.1004 177.754 35.9489 178.73 35.9489C179.426 35.9489 180.067 36.0317 180.654 36.1974C181.242 36.3584 181.753 36.5952 182.189 36.9077C182.624 37.2154 182.96 37.5942 183.197 38.044C183.439 38.4938 183.559 39.0076 183.559 39.5852V47H180.292V45.4801H180.207C180.013 45.8494 179.764 46.1619 179.461 46.4176C179.163 46.6733 178.81 46.8651 178.403 46.9929C178.001 47.1207 177.546 47.1847 177.039 47.1847ZM178.112 44.9119C178.486 44.9119 178.822 44.8362 179.12 44.6847C179.423 44.5331 179.665 44.3248 179.845 44.0597C180.025 43.7898 180.115 43.4773 180.115 43.1222V42.0852C180.015 42.1373 179.895 42.1847 179.752 42.2273C179.615 42.2699 179.464 42.3101 179.298 42.348C179.132 42.3859 178.962 42.419 178.787 42.4474C178.611 42.4759 178.443 42.5019 178.282 42.5256C177.956 42.5777 177.676 42.6581 177.444 42.767C177.217 42.8759 177.042 43.018 176.919 43.1932C176.8 43.3636 176.741 43.5672 176.741 43.804C176.741 44.1638 176.869 44.4384 177.125 44.6278C177.385 44.8172 177.714 44.9119 178.112 44.9119ZM195.207 39.4219L192.018 39.5071C191.985 39.2798 191.895 39.0786 191.748 38.9034C191.601 38.7235 191.41 38.5838 191.173 38.4844C190.941 38.3802 190.671 38.3281 190.363 38.3281C189.961 38.3281 189.618 38.4086 189.333 38.5696C189.054 38.7306 188.917 38.9484 188.922 39.223C188.917 39.4361 189.002 39.6207 189.177 39.777C189.357 39.9332 189.677 40.0587 190.136 40.1534L192.238 40.5511C193.327 40.7595 194.137 41.1051 194.667 41.5881C195.202 42.071 195.472 42.7102 195.477 43.5057C195.472 44.2538 195.25 44.9048 194.809 45.4588C194.374 46.0128 193.777 46.4437 193.02 46.7514C192.262 47.0545 191.395 47.206 190.42 47.206C188.862 47.206 187.634 46.8864 186.734 46.2472C185.839 45.6032 185.328 44.7415 185.2 43.6619L188.63 43.5767C188.706 43.9744 188.903 44.2775 189.22 44.4858C189.537 44.6941 189.942 44.7983 190.434 44.7983C190.879 44.7983 191.242 44.7154 191.521 44.5497C191.8 44.384 191.942 44.1638 191.947 43.8892C191.942 43.643 191.833 43.4465 191.62 43.2997C191.407 43.1482 191.074 43.0298 190.619 42.9446L188.716 42.5824C187.622 42.3835 186.807 42.0166 186.272 41.4815C185.737 40.9418 185.472 40.2552 185.477 39.4219C185.472 38.6927 185.666 38.0701 186.059 37.554C186.452 37.0331 187.011 36.6354 187.735 36.3608C188.46 36.0862 189.315 35.9489 190.299 35.9489C191.777 35.9489 192.941 36.259 193.794 36.8793C194.646 37.4948 195.117 38.3423 195.207 39.4219ZM206.711 39.4219L203.522 39.5071C203.489 39.2798 203.399 39.0786 203.252 38.9034C203.105 38.7235 202.914 38.5838 202.677 38.4844C202.445 38.3802 202.175 38.3281 201.867 38.3281C201.465 38.3281 201.121 38.4086 200.837 38.5696C200.558 38.7306 200.421 38.9484 200.425 39.223C200.421 39.4361 200.506 39.6207 200.681 39.777C200.861 39.9332 201.181 40.0587 201.64 40.1534L203.742 40.5511C204.831 40.7595 205.641 41.1051 206.171 41.5881C206.706 42.071 206.976 42.7102 206.981 43.5057C206.976 44.2538 206.754 44.9048 206.313 45.4588C205.878 46.0128 205.281 46.4437 204.523 46.7514C203.766 47.0545 202.899 47.206 201.924 47.206C200.366 47.206 199.138 46.8864 198.238 46.2472C197.343 45.6032 196.832 44.7415 196.704 43.6619L200.134 43.5767C200.21 43.9744 200.406 44.2775 200.724 44.4858C201.041 44.6941 201.446 44.7983 201.938 44.7983C202.383 44.7983 202.746 44.7154 203.025 44.5497C203.304 44.384 203.446 44.1638 203.451 43.8892C203.446 43.643 203.337 43.4465 203.124 43.2997C202.911 43.1482 202.577 43.0298 202.123 42.9446L200.219 42.5824C199.126 42.3835 198.311 42.0166 197.776 41.4815C197.241 40.9418 196.976 40.2552 196.981 39.4219C196.976 38.6927 197.17 38.0701 197.563 37.554C197.956 37.0331 198.515 36.6354 199.239 36.3608C199.964 36.0862 200.818 35.9489 201.803 35.9489C203.281 35.9489 204.445 36.259 205.298 36.8793C206.15 37.4948 206.621 38.3423 206.711 39.4219ZM208.691 47V36.0909H212.164V47H208.691ZM210.431 34.8196C209.943 34.8196 209.524 34.6586 209.174 34.3366C208.823 34.0099 208.648 33.617 208.648 33.1577C208.648 32.7031 208.823 32.3149 209.174 31.9929C209.524 31.6662 209.943 31.5028 210.431 31.5028C210.923 31.5028 211.342 31.6662 211.688 31.9929C212.038 32.3149 212.213 32.7031 212.213 33.1577C212.213 33.617 212.038 34.0099 211.688 34.3366C211.342 34.6586 210.923 34.8196 210.431 34.8196ZM217.847 40.7784V47H214.374V36.0909H217.677V38.0938H217.798C218.039 37.4261 218.451 36.9029 219.033 36.5241C219.616 36.1406 220.309 35.9489 221.114 35.9489C221.881 35.9489 222.547 36.1217 223.11 36.4673C223.678 36.8082 224.119 37.2865 224.431 37.902C224.748 38.5128 224.905 39.2277 224.9 40.0469V47H221.427V40.7287C221.432 40.1226 221.278 39.6491 220.965 39.3082C220.657 38.9673 220.229 38.7969 219.68 38.7969C219.315 38.7969 218.993 38.8774 218.714 39.0384C218.439 39.1946 218.226 39.4195 218.075 39.7131C217.928 40.0066 217.852 40.3617 217.847 40.7784ZM232.135 51.3182C231.098 51.3182 230.211 51.1738 229.472 50.8849C228.733 50.5961 228.153 50.2008 227.732 49.6989C227.31 49.197 227.057 48.6288 226.972 47.9943L230.26 47.8097C230.322 48.0322 230.435 48.2263 230.601 48.392C230.772 48.5578 230.992 48.6856 231.262 48.7756C231.536 48.8655 231.858 48.9105 232.228 48.9105C232.81 48.9105 233.291 48.7685 233.669 48.4844C234.053 48.205 234.245 47.715 234.245 47.0142V45.0966H234.124C233.987 45.4328 233.778 45.7334 233.499 45.9986C233.22 46.2637 232.872 46.4721 232.455 46.6236C232.043 46.7751 231.569 46.8509 231.034 46.8509C230.239 46.8509 229.51 46.6662 228.847 46.2969C228.189 45.9228 227.661 45.3452 227.263 44.5639C226.87 43.7779 226.674 42.767 226.674 41.5312C226.674 40.2576 226.877 39.2088 227.284 38.3849C227.692 37.5563 228.224 36.9432 228.882 36.5455C229.545 36.1477 230.258 35.9489 231.02 35.9489C231.593 35.9489 232.083 36.0483 232.49 36.2472C232.902 36.4413 233.241 36.6922 233.506 37C233.771 37.3078 233.972 37.6274 234.11 37.9588H234.209V36.0909H237.668V47.0426C237.668 47.9659 237.436 48.7448 236.972 49.3793C236.508 50.0137 235.859 50.4943 235.026 50.821C234.193 51.1525 233.229 51.3182 232.135 51.3182ZM232.242 44.3224C232.663 44.3224 233.023 44.2112 233.321 43.9886C233.62 43.7661 233.849 43.4465 234.01 43.0298C234.171 42.6132 234.252 42.1136 234.252 41.5312C234.252 40.9394 234.171 40.4304 234.01 40.0043C233.854 39.5734 233.624 39.242 233.321 39.0099C233.023 38.7779 232.663 38.6619 232.242 38.6619C231.811 38.6619 231.446 38.7803 231.148 39.017C230.85 39.2538 230.623 39.5876 230.466 40.0185C230.315 40.4446 230.239 40.9489 230.239 41.5312C230.239 42.1136 230.317 42.6132 230.473 43.0298C230.63 43.4465 230.855 43.7661 231.148 43.9886C231.446 44.2112 231.811 44.3224 232.242 44.3224ZM247.254 47.1847C246.558 47.1847 245.94 47.0687 245.401 46.8366C244.866 46.5999 244.442 46.2448 244.129 45.7713C243.821 45.2931 243.668 44.6941 243.668 43.9744C243.668 43.3684 243.774 42.857 243.987 42.4403C244.2 42.0237 244.494 41.6851 244.868 41.4247C245.242 41.1643 245.673 40.9678 246.161 40.8352C246.648 40.6979 247.169 40.6056 247.723 40.5582C248.343 40.5014 248.843 40.4422 249.222 40.3807C249.6 40.3144 249.875 40.2221 250.045 40.1037C250.221 39.9806 250.308 39.8078 250.308 39.5852V39.5497C250.308 39.1851 250.183 38.9034 249.932 38.7045C249.681 38.5057 249.342 38.4062 248.916 38.4062C248.457 38.4062 248.088 38.5057 247.808 38.7045C247.529 38.9034 247.351 39.178 247.276 39.5284L244.072 39.4148C244.167 38.7519 244.411 38.16 244.804 37.6392C245.202 37.1136 245.746 36.7017 246.438 36.4034C247.134 36.1004 247.969 35.9489 248.945 35.9489C249.641 35.9489 250.282 36.0317 250.869 36.1974C251.456 36.3584 251.968 36.5952 252.403 36.9077C252.839 37.2154 253.175 37.5942 253.412 38.044C253.653 38.4938 253.774 39.0076 253.774 39.5852V47H250.507V45.4801H250.422C250.228 45.8494 249.979 46.1619 249.676 46.4176C249.378 46.6733 249.025 46.8651 248.618 46.9929C248.215 47.1207 247.761 47.1847 247.254 47.1847ZM248.327 44.9119C248.701 44.9119 249.037 44.8362 249.335 44.6847C249.638 44.5331 249.88 44.3248 250.06 44.0597C250.24 43.7898 250.33 43.4773 250.33 43.1222V42.0852C250.23 42.1373 250.109 42.1847 249.967 42.2273C249.83 42.2699 249.679 42.3101 249.513 42.348C249.347 42.3859 249.177 42.419 249.001 42.4474C248.826 42.4759 248.658 42.5019 248.497 42.5256C248.17 42.5777 247.891 42.6581 247.659 42.767C247.432 42.8759 247.257 43.018 247.134 43.1932C247.015 43.3636 246.956 43.5672 246.956 43.804C246.956 44.1638 247.084 44.4384 247.339 44.6278C247.6 44.8172 247.929 44.9119 248.327 44.9119ZM259.371 32.4545V47H255.898V32.4545H259.371ZM265.054 32.4545V47H261.581V32.4545H265.054ZM281.086 39.4219L277.897 39.5071C277.864 39.2798 277.774 39.0786 277.627 38.9034C277.48 38.7235 277.289 38.5838 277.052 38.4844C276.82 38.3802 276.55 38.3281 276.242 38.3281C275.84 38.3281 275.496 38.4086 275.212 38.5696C274.933 38.7306 274.796 38.9484 274.8 39.223C274.796 39.4361 274.881 39.6207 275.056 39.777C275.236 39.9332 275.556 40.0587 276.015 40.1534L278.117 40.5511C279.206 40.7595 280.016 41.1051 280.546 41.5881C281.081 42.071 281.351 42.7102 281.356 43.5057C281.351 44.2538 281.129 44.9048 280.688 45.4588C280.253 46.0128 279.656 46.4437 278.898 46.7514C278.141 47.0545 277.274 47.206 276.299 47.206C274.741 47.206 273.513 46.8864 272.613 46.2472C271.718 45.6032 271.207 44.7415 271.079 43.6619L274.509 43.5767C274.585 43.9744 274.781 44.2775 275.099 44.4858C275.416 44.6941 275.821 44.7983 276.313 44.7983C276.758 44.7983 277.121 44.7154 277.4 44.5497C277.679 44.384 277.821 44.1638 277.826 43.8892C277.821 43.643 277.712 43.4465 277.499 43.2997C277.286 43.1482 276.952 43.0298 276.498 42.9446L274.594 42.5824C273.501 42.3835 272.686 42.0166 272.151 41.4815C271.616 40.9418 271.351 40.2552 271.356 39.4219C271.351 38.6927 271.545 38.0701 271.938 37.554C272.331 37.0331 272.89 36.6354 273.614 36.3608C274.339 36.0862 275.193 35.9489 276.178 35.9489C277.656 35.9489 278.82 36.259 279.673 36.8793C280.525 37.4948 280.996 38.3423 281.086 39.4219ZM289.223 36.0909V38.6477H282.341V36.0909H289.223ZM283.783 33.4773H287.256V43.5696C287.256 43.7827 287.289 43.9555 287.355 44.0881C287.426 44.2159 287.528 44.3082 287.661 44.3651C287.793 44.4171 287.952 44.4432 288.137 44.4432C288.269 44.4432 288.409 44.4313 288.556 44.4077C288.707 44.3793 288.821 44.3556 288.897 44.3366L289.422 46.8438C289.257 46.8911 289.022 46.9503 288.719 47.0213C288.421 47.0923 288.063 47.1373 287.647 47.1562C286.832 47.1941 286.134 47.0994 285.551 46.8722C284.974 46.6402 284.531 46.2803 284.223 45.7926C283.92 45.3049 283.774 44.6918 283.783 43.9531V33.4773ZM294.071 47.1847C293.375 47.1847 292.757 47.0687 292.217 46.8366C291.682 46.5999 291.258 46.2448 290.946 45.7713C290.638 45.2931 290.484 44.6941 290.484 43.9744C290.484 43.3684 290.591 42.857 290.804 42.4403C291.017 42.0237 291.31 41.6851 291.684 41.4247C292.058 41.1643 292.489 40.9678 292.977 40.8352C293.465 40.6979 293.985 40.6056 294.539 40.5582C295.16 40.5014 295.659 40.4422 296.038 40.3807C296.417 40.3144 296.691 40.2221 296.862 40.1037C297.037 39.9806 297.125 39.8078 297.125 39.5852V39.5497C297.125 39.1851 296.999 38.9034 296.748 38.7045C296.497 38.5057 296.159 38.4062 295.733 38.4062C295.273 38.4062 294.904 38.5057 294.625 38.7045C294.345 38.9034 294.168 39.178 294.092 39.5284L290.889 39.4148C290.984 38.7519 291.227 38.16 291.62 37.6392C292.018 37.1136 292.563 36.7017 293.254 36.4034C293.95 36.1004 294.786 35.9489 295.761 35.9489C296.457 35.9489 297.099 36.0317 297.686 36.1974C298.273 36.3584 298.784 36.5952 299.22 36.9077C299.655 37.2154 299.992 37.5942 300.228 38.044C300.47 38.4938 300.591 39.0076 300.591 39.5852V47H297.324V45.4801H297.238C297.044 45.8494 296.796 46.1619 296.493 46.4176C296.194 46.6733 295.842 46.8651 295.434 46.9929C295.032 47.1207 294.577 47.1847 294.071 47.1847ZM295.143 44.9119C295.517 44.9119 295.853 44.8362 296.152 44.6847C296.455 44.5331 296.696 44.3248 296.876 44.0597C297.056 43.7898 297.146 43.4773 297.146 43.1222V42.0852C297.047 42.1373 296.926 42.1847 296.784 42.2273C296.646 42.2699 296.495 42.3101 296.329 42.348C296.163 42.3859 295.993 42.419 295.818 42.4474C295.643 42.4759 295.475 42.5019 295.314 42.5256C294.987 42.5777 294.708 42.6581 294.475 42.767C294.248 42.8759 294.073 43.018 293.95 43.1932C293.832 43.3636 293.772 43.5672 293.772 43.804C293.772 44.1638 293.9 44.4384 294.156 44.6278C294.416 44.8172 294.745 44.9119 295.143 44.9119ZM307.799 51.3182C306.762 51.3182 305.875 51.1738 305.136 50.8849C304.397 50.5961 303.817 50.2008 303.396 49.6989C302.975 49.197 302.721 48.6288 302.636 47.9943L305.924 47.8097C305.986 48.0322 306.1 48.2263 306.265 48.392C306.436 48.5578 306.656 48.6856 306.926 48.7756C307.2 48.8655 307.522 48.9105 307.892 48.9105C308.474 48.9105 308.955 48.7685 309.333 48.4844C309.717 48.205 309.909 47.715 309.909 47.0142V45.0966H309.788C309.651 45.4328 309.442 45.7334 309.163 45.9986C308.884 46.2637 308.536 46.4721 308.119 46.6236C307.707 46.7751 307.234 46.8509 306.699 46.8509C305.903 46.8509 305.174 46.6662 304.511 46.2969C303.853 45.9228 303.325 45.3452 302.927 44.5639C302.534 43.7779 302.338 42.767 302.338 41.5312C302.338 40.2576 302.541 39.2088 302.949 38.3849C303.356 37.5563 303.888 36.9432 304.547 36.5455C305.209 36.1477 305.922 35.9489 306.684 35.9489C307.257 35.9489 307.747 36.0483 308.154 36.2472C308.566 36.4413 308.905 36.6922 309.17 37C309.435 37.3078 309.636 37.6274 309.774 37.9588H309.873V36.0909H313.332V47.0426C313.332 47.9659 313.1 48.7448 312.636 49.3793C312.172 50.0137 311.523 50.4943 310.69 50.821C309.857 51.1525 308.893 51.3182 307.799 51.3182ZM307.906 44.3224C308.327 44.3224 308.687 44.2112 308.985 43.9886C309.284 43.7661 309.513 43.4465 309.674 43.0298C309.835 42.6132 309.916 42.1136 309.916 41.5312C309.916 40.9394 309.835 40.4304 309.674 40.0043C309.518 39.5734 309.288 39.242 308.985 39.0099C308.687 38.7779 308.327 38.6619 307.906 38.6619C307.475 38.6619 307.11 38.7803 306.812 39.017C306.514 39.2538 306.287 39.5876 306.13 40.0185C305.979 40.4446 305.903 40.9489 305.903 41.5312C305.903 42.1136 305.981 42.6132 306.137 43.0298C306.294 43.4465 306.519 43.7661 306.812 43.9886C307.11 44.2112 307.475 44.3224 307.906 44.3224ZM320.646 47.206C319.504 47.206 318.52 46.9811 317.691 46.5312C316.867 46.0767 316.233 45.4304 315.788 44.5923C315.347 43.7495 315.127 42.7481 315.127 41.5881C315.127 40.4612 315.35 39.4763 315.795 38.6335C316.24 37.786 316.867 37.1278 317.677 36.6591C318.487 36.1856 319.441 35.9489 320.539 35.9489C321.316 35.9489 322.026 36.0696 322.67 36.3111C323.314 36.5526 323.87 36.91 324.339 37.3835C324.808 37.857 325.172 38.4418 325.433 39.1378C325.693 39.8291 325.823 40.6222 325.823 41.517V42.3835H316.342V40.3665H322.592C322.587 39.9972 322.499 39.6681 322.329 39.3793C322.158 39.0904 321.924 38.8655 321.626 38.7045C321.332 38.5388 320.994 38.456 320.61 38.456C320.222 38.456 319.874 38.5436 319.566 38.7188C319.258 38.8892 319.014 39.1236 318.835 39.4219C318.655 39.7154 318.56 40.0492 318.55 40.4233V42.4759C318.55 42.9209 318.638 43.3116 318.813 43.6477C318.988 43.9792 319.237 44.2372 319.559 44.4219C319.881 44.6065 320.264 44.6989 320.71 44.6989C321.017 44.6989 321.297 44.6562 321.548 44.571C321.799 44.4858 322.014 44.3603 322.194 44.1946C322.374 44.0289 322.509 43.8253 322.599 43.5838L325.788 43.6761C325.655 44.3911 325.364 45.0137 324.914 45.544C324.469 46.0696 323.884 46.4792 323.16 46.7727C322.435 47.0616 321.597 47.206 320.646 47.206ZM337.121 39.4219L333.932 39.5071C333.899 39.2798 333.809 39.0786 333.662 38.9034C333.516 38.7235 333.324 38.5838 333.087 38.4844C332.855 38.3802 332.585 38.3281 332.277 38.3281C331.875 38.3281 331.532 38.4086 331.248 38.5696C330.968 38.7306 330.831 38.9484 330.836 39.223C330.831 39.4361 330.916 39.6207 331.091 39.777C331.271 39.9332 331.591 40.0587 332.05 40.1534L334.152 40.5511C335.241 40.7595 336.051 41.1051 336.581 41.5881C337.116 42.071 337.386 42.7102 337.391 43.5057C337.386 44.2538 337.164 44.9048 336.723 45.4588C336.288 46.0128 335.691 46.4437 334.934 46.7514C334.176 47.0545 333.31 47.206 332.334 47.206C330.776 47.206 329.548 46.8864 328.648 46.2472C327.753 45.6032 327.242 44.7415 327.114 43.6619L330.544 43.5767C330.62 43.9744 330.817 44.2775 331.134 44.4858C331.451 44.6941 331.856 44.7983 332.348 44.7983C332.793 44.7983 333.156 44.7154 333.435 44.5497C333.714 44.384 333.856 44.1638 333.861 43.8892C333.856 43.643 333.748 43.4465 333.534 43.2997C333.321 43.1482 332.988 43.0298 332.533 42.9446L330.63 42.5824C329.536 42.3835 328.721 42.0166 328.186 41.4815C327.651 40.9418 327.386 40.2552 327.391 39.4219C327.386 38.6927 327.58 38.0701 327.973 37.554C328.366 37.0331 328.925 36.6354 329.65 36.3608C330.374 36.0862 331.229 35.9489 332.213 35.9489C333.691 35.9489 334.855 36.259 335.708 36.8793C336.56 37.4948 337.031 38.3423 337.121 39.4219ZM352.922 39.4219L349.733 39.5071C349.7 39.2798 349.61 39.0786 349.463 38.9034C349.316 38.7235 349.125 38.5838 348.888 38.4844C348.656 38.3802 348.386 38.3281 348.078 38.3281C347.676 38.3281 347.332 38.4086 347.048 38.5696C346.769 38.7306 346.632 38.9484 346.636 39.223C346.632 39.4361 346.717 39.6207 346.892 39.777C347.072 39.9332 347.392 40.0587 347.851 40.1534L349.953 40.5511C351.042 40.7595 351.852 41.1051 352.382 41.5881C352.917 42.071 353.187 42.7102 353.192 43.5057C353.187 44.2538 352.964 44.9048 352.524 45.4588C352.089 46.0128 351.492 46.4437 350.734 46.7514C349.977 47.0545 349.11 47.206 348.135 47.206C346.577 47.206 345.348 46.8864 344.449 46.2472C343.554 45.6032 343.043 44.7415 342.915 43.6619L346.345 43.5767C346.421 43.9744 346.617 44.2775 346.935 44.4858C347.252 44.6941 347.657 44.7983 348.149 44.7983C348.594 44.7983 348.956 44.7154 349.236 44.5497C349.515 44.384 349.657 44.1638 349.662 43.8892C349.657 43.643 349.548 43.4465 349.335 43.2997C349.122 43.1482 348.788 43.0298 348.334 42.9446L346.43 42.5824C345.337 42.3835 344.522 42.0166 343.987 41.4815C343.452 40.9418 343.187 40.2552 343.192 39.4219C343.187 38.6927 343.381 38.0701 343.774 37.554C344.167 37.0331 344.726 36.6354 345.45 36.3608C346.175 36.0862 347.029 35.9489 348.014 35.9489C349.491 35.9489 350.656 36.259 351.509 36.8793C352.361 37.4948 352.832 38.3423 352.922 39.4219ZM354.902 47V36.0909H358.204V38.0938H358.325C358.552 37.4309 358.936 36.9077 359.475 36.5241C360.015 36.1406 360.659 35.9489 361.407 35.9489C362.165 35.9489 362.814 36.143 363.353 36.5312C363.893 36.9195 364.236 37.4403 364.383 38.0938H364.497C364.7 37.4451 365.098 36.9266 365.69 36.5384C366.282 36.1454 366.98 35.9489 367.785 35.9489C368.817 35.9489 369.655 36.2803 370.299 36.9432C370.943 37.6013 371.265 38.5057 371.265 39.6562V47H367.792V40.4517C367.792 39.9072 367.653 39.4929 367.373 39.2088C367.094 38.92 366.732 38.7756 366.287 38.7756C365.808 38.7756 365.432 38.9318 365.157 39.2443C364.887 39.5521 364.752 39.9664 364.752 40.4872V47H361.414V40.4162C361.414 39.9096 361.277 39.5095 361.002 39.2159C360.728 38.9223 360.366 38.7756 359.916 38.7756C359.613 38.7756 359.345 38.849 359.113 38.9957C358.881 39.1378 358.699 39.3414 358.566 39.6065C358.439 39.8717 358.375 40.1842 358.375 40.544V47H354.902ZM378.51 47.206C377.364 47.206 376.379 46.9716 375.555 46.5028C374.736 46.0294 374.104 45.3712 373.659 44.5284C373.218 43.6809 372.998 42.6984 372.998 41.581C372.998 40.4588 373.218 39.4763 373.659 38.6335C374.104 37.786 374.736 37.1278 375.555 36.6591C376.379 36.1856 377.364 35.9489 378.51 35.9489C379.655 35.9489 380.638 36.1856 381.457 36.6591C382.281 37.1278 382.913 37.786 383.353 38.6335C383.798 39.4763 384.021 40.4588 384.021 41.581C384.021 42.6984 383.798 43.6809 383.353 44.5284C382.913 45.3712 382.281 46.0294 381.457 46.5028C380.638 46.9716 379.655 47.206 378.51 47.206ZM378.531 44.5852C378.948 44.5852 379.3 44.4574 379.589 44.2017C379.878 43.946 380.098 43.5909 380.25 43.1364C380.406 42.6818 380.484 42.1562 380.484 41.5597C380.484 40.9536 380.406 40.4233 380.25 39.9688C380.098 39.5142 379.878 39.1591 379.589 38.9034C379.3 38.6477 378.948 38.5199 378.531 38.5199C378.1 38.5199 377.735 38.6477 377.437 38.9034C377.144 39.1591 376.919 39.5142 376.762 39.9688C376.611 40.4233 376.535 40.9536 376.535 41.5597C376.535 42.1562 376.611 42.6818 376.762 43.1364C376.919 43.5909 377.144 43.946 377.437 44.2017C377.735 44.4574 378.1 44.5852 378.531 44.5852ZM390.892 47.206C389.747 47.206 388.762 46.9716 387.938 46.5028C387.119 46.0294 386.487 45.3712 386.042 44.5284C385.601 43.6809 385.381 42.6984 385.381 41.581C385.381 40.4588 385.601 39.4763 386.042 38.6335C386.487 37.786 387.119 37.1278 387.938 36.6591C388.762 36.1856 389.747 35.9489 390.892 35.9489C392.038 35.9489 393.021 36.1856 393.84 36.6591C394.664 37.1278 395.296 37.786 395.736 38.6335C396.181 39.4763 396.404 40.4588 396.404 41.581C396.404 42.6984 396.181 43.6809 395.736 44.5284C395.296 45.3712 394.664 46.0294 393.84 46.5028C393.021 46.9716 392.038 47.206 390.892 47.206ZM390.914 44.5852C391.33 44.5852 391.683 44.4574 391.972 44.2017C392.261 43.946 392.481 43.5909 392.632 43.1364C392.789 42.6818 392.867 42.1562 392.867 41.5597C392.867 40.9536 392.789 40.4233 392.632 39.9688C392.481 39.5142 392.261 39.1591 391.972 38.9034C391.683 38.6477 391.33 38.5199 390.914 38.5199C390.483 38.5199 390.118 38.6477 389.82 38.9034C389.526 39.1591 389.301 39.5142 389.145 39.9688C388.994 40.4233 388.918 40.9536 388.918 41.5597C388.918 42.1562 388.994 42.6818 389.145 43.1364C389.301 43.5909 389.526 43.946 389.82 44.2017C390.118 44.4574 390.483 44.5852 390.914 44.5852ZM404.341 36.0909V38.6477H397.458V36.0909H404.341ZM398.9 33.4773H402.373V43.5696C402.373 43.7827 402.406 43.9555 402.473 44.0881C402.544 44.2159 402.645 44.3082 402.778 44.3651C402.911 44.4171 403.069 44.4432 403.254 44.4432C403.386 44.4432 403.526 44.4313 403.673 44.4077C403.824 44.3793 403.938 44.3556 404.014 44.3366L404.539 46.8438C404.374 46.8911 404.139 46.9503 403.836 47.0213C403.538 47.0923 403.181 47.1373 402.764 47.1562C401.949 47.1941 401.251 47.0994 400.669 46.8722C400.091 46.6402 399.648 46.2803 399.341 45.7926C399.038 45.3049 398.891 44.6918 398.9 43.9531V33.4773ZM409.82 40.7784V47H406.347V32.4545H409.706V38.0938H409.827C410.073 37.4214 410.476 36.8958 411.034 36.517C411.598 36.1383 412.287 35.9489 413.101 35.9489C413.868 35.9489 414.536 36.1193 415.104 36.4602C415.672 36.7964 416.113 37.2723 416.425 37.8878C416.742 38.5033 416.899 39.223 416.894 40.0469V47H413.421V40.7287C413.426 40.1226 413.274 39.6491 412.966 39.3082C412.658 38.9673 412.225 38.7969 411.667 38.7969C411.302 38.7969 410.98 38.8774 410.701 39.0384C410.426 39.1946 410.211 39.4195 410.054 39.7131C409.903 40.0066 409.825 40.3617 409.82 40.7784ZM422.535 32.4545V47H419.062V32.4545H422.535ZM426.869 51.0909C426.452 51.0909 426.059 51.0578 425.69 50.9915C425.321 50.9299 425.003 50.8471 424.738 50.7429L425.505 48.2216C425.846 48.3352 426.154 48.4015 426.429 48.4205C426.708 48.4394 426.947 48.3944 427.146 48.2855C427.35 48.1813 427.506 47.9943 427.615 47.7244L427.75 47.3977L423.872 36.0909H427.508L429.518 43.875H429.632L431.67 36.0909H435.328L431.216 48.044C431.017 48.6406 430.735 49.1662 430.37 49.6207C430.011 50.08 429.544 50.4399 428.971 50.7003C428.403 50.9607 427.702 51.0909 426.869 51.0909Z" fill="#4A5568"/>
<rect x="9" y="8" width="446" height="63" rx="20" stroke="url(#paint0_radial_4039_21372)" stroke-width="2"/>
<rect x="9" y="8" width="446" height="63" rx="20" stroke="url(#paint1_radial_4039_21372)" stroke-width="2"/>
<rect x="9" y="8" width="446" height="63" rx="20" stroke="url(#paint2_linear_4039_21372)" stroke-width="2"/>
<rect x="9" y="8" width="446" height="63" rx="20" stroke="#C1BABA" stroke-opacity="0.2" stroke-width="2"/>
</g>
<defs>
<filter id="filter0_d_4039_21372" x="0" y="0" width="490" height="107" filterUnits="userSpaceOnUse" color-interpolation-filters="sRGB">
<feFlood flood-opacity="0" result="BackgroundImageFix"/>
<feColorMatrix in="SourceAlpha" type="matrix" values="0 0 0 0 0 0 0 0 0 0 0 0 0 0 0 0 0 0 127 0" result="hardAlpha"/>
<feOffset dx="13" dy="14"/>
<feGaussianBlur stdDeviation="10.5"/>
<feColorMatrix type="matrix" values="0 0 0 0 0 0 0 0 0 0 0 0 0 0 0 0 0 0 0.06 0"/>
<feBlend mode="normal" in2="BackgroundImageFix" result="effect1_dropShadow_4039_21372"/>
<feBlend mode="normal" in="SourceGraphic" in2="effect1_dropShadow_4039_21372" result="shape"/>
</filter>
<radialGradient id="paint0_radial_4039_21372" cx="0" cy="0" r="1" gradientUnits="userSpaceOnUse" gradientTransform="translate(12.0296 8.93388) rotate(7.99627) scale(441.388 194.596)">
<stop stop-color="#D8D8D8" stop-opacity="0"/>
<stop offset="1" stop-color="#D8D8D8"/>
</radialGradient>
<radialGradient id="paint1_radial_4039_21372" cx="0" cy="0" r="1" gradientUnits="userSpaceOnUse" gradientTransform="translate(14.163 70.0124) rotate(-7.99334) scale(439.23 193.374)">
<stop stop-color="#D8D8D8" stop-opacity="0"/>
<stop offset="1" stop-color="#D8D8D8"/>
</radialGradient>
<linearGradient id="paint2_linear_4039_21372" x1="16.2963" y1="8.77273" x2="73.7033" y2="189.545" gradientUnits="userSpaceOnUse">
<stop stop-color="white" stop-opacity="0.9"/>
<stop offset="1" stop-color="white" stop-opacity="0"/>
</linearGradient>
</defs>
</svg>
