<svg width="325" height="213" viewBox="0 0 325 213" fill="none" xmlns="http://www.w3.org/2000/svg">
<g clip-path="url(#clip0_4676_18997)">
<g filter="url(#filter0_d_4676_18997)">
<path d="M281 3H145H19C7.95431 3 -1 11.9543 -1 23V146.5C-1 157.546 7.95431 166.5 19 166.5H23C24.1046 166.5 25 167.395 25 168.5V193.65C25 199.175 31.8369 201.764 35.496 197.623L61.5074 168.189C62.4565 167.115 63.8208 166.5 65.254 166.5H281C292.046 166.5 301 157.546 301 146.5V23C301 11.9543 292.046 3 281 3Z" fill="#E2E8F0"/>
<path d="M281 3H145H19C7.95431 3 -1 11.9543 -1 23V146.5C-1 157.546 7.95431 166.5 19 166.5H23C24.1046 166.5 25 167.395 25 168.5V193.65C25 199.175 31.8369 201.764 35.496 197.623L61.5074 168.189C62.4565 167.115 63.8208 166.5 65.254 166.5H281C292.046 166.5 301 157.546 301 146.5V23C301 11.9543 292.046 3 281 3Z" stroke="url(#paint0_radial_4676_18997)" stroke-width="2"/>
<path d="M281 3H145H19C7.95431 3 -1 11.9543 -1 23V146.5C-1 157.546 7.95431 166.5 19 166.5H23C24.1046 166.5 25 167.395 25 168.5V193.65C25 199.175 31.8369 201.764 35.496 197.623L61.5074 168.189C62.4565 167.115 63.8208 166.5 65.254 166.5H281C292.046 166.5 301 157.546 301 146.5V23C301 11.9543 292.046 3 281 3Z" stroke="url(#paint1_radial_4676_18997)" stroke-width="2"/>
<path d="M281 3H145H19C7.95431 3 -1 11.9543 -1 23V146.5C-1 157.546 7.95431 166.5 19 166.5H23C24.1046 166.5 25 167.395 25 168.5V193.65C25 199.175 31.8369 201.764 35.496 197.623L61.5074 168.189C62.4565 167.115 63.8208 166.5 65.254 166.5H281C292.046 166.5 301 157.546 301 146.5V23C301 11.9543 292.046 3 281 3Z" stroke="url(#paint2_linear_4676_18997)" stroke-width="2"/>
<path d="M281 3H145H19C7.95431 3 -1 11.9543 -1 23V146.5C-1 157.546 7.95431 166.5 19 166.5H23C24.1046 166.5 25 167.395 25 168.5V193.65C25 199.175 31.8369 201.764 35.496 197.623L61.5074 168.189C62.4565 167.115 63.8208 166.5 65.254 166.5H281C292.046 166.5 301 157.546 301 146.5V23C301 11.9543 292.046 3 281 3Z" stroke="#C1BABA" stroke-opacity="0.2" stroke-width="2"/>
</g>
<path d="M50.1197 50.9999H48.5345C48.4407 50.5439 48.2767 50.1434 48.0423 49.7982C47.8122 49.453 47.5309 49.1633 47.1986 48.9289C46.8704 48.6902 46.5061 48.5113 46.1055 48.3919C45.7049 48.2726 45.2873 48.213 44.8527 48.213C44.0601 48.213 43.342 48.4133 42.6986 48.8138C42.0593 49.2144 41.5501 49.8046 41.1709 50.5844C40.7959 51.3642 40.6084 52.3209 40.6084 53.4544C40.6084 54.588 40.7959 55.5446 41.1709 56.3245C41.5501 57.1043 42.0593 57.6945 42.6986 58.0951C43.342 58.4956 44.0601 58.6959 44.8527 58.6959C45.2873 58.6959 45.7049 58.6363 46.1055 58.5169C46.5061 58.3976 46.8704 58.2208 47.1986 57.9864C47.5309 57.7478 47.8122 57.4559 48.0423 57.1107C48.2767 56.7613 48.4407 56.3607 48.5345 55.909H50.1197C50.0004 56.578 49.7831 57.1767 49.4677 57.7052C49.1524 58.2336 48.7603 58.6831 48.2916 59.0539C47.8228 59.4204 47.2966 59.6995 46.7128 59.8912C46.1332 60.083 45.5132 60.1789 44.8527 60.1789C43.7362 60.1789 42.7433 59.9061 41.874 59.3607C41.0047 58.8152 40.3207 58.0397 39.8221 57.034C39.3236 56.0283 39.0743 54.8351 39.0743 53.4544C39.0743 52.0738 39.3236 50.8806 39.8221 49.8749C40.3207 48.8692 41.0047 48.0937 41.874 47.5482C42.7433 47.0027 43.7362 46.73 44.8527 46.73C45.5132 46.73 46.1332 46.8259 46.7128 47.0177C47.2966 47.2094 47.8228 47.4907 48.2916 47.8614C48.7603 48.2279 49.1524 48.6753 49.4677 49.2037C49.7831 49.7279 50.0004 50.3266 50.1197 50.9999ZM53.9853 46.909V59.9999H52.4768V46.909H53.9853ZM56.7483 59.9999V50.1817H58.2568V59.9999H56.7483ZM57.5153 48.5454C57.2213 48.5454 56.9677 48.4452 56.7547 48.2449C56.5459 48.0446 56.4415 47.8039 56.4415 47.5226C56.4415 47.2414 56.5459 47.0006 56.7547 46.8003C56.9677 46.6 57.2213 46.4999 57.5153 46.4999C57.8093 46.4999 58.0608 46.6 58.2696 46.8003C58.4826 47.0006 58.5892 47.2414 58.5892 47.5226C58.5892 47.8039 58.4826 48.0446 58.2696 48.2449C58.0608 48.4452 57.8093 48.5454 57.5153 48.5454ZM65.0084 60.2044C64.0879 60.2044 63.2953 59.9871 62.6305 59.5525C61.9658 59.1178 61.4544 58.5191 61.0965 57.7563C60.7385 56.9935 60.5595 56.1221 60.5595 55.1419C60.5595 54.1448 60.7428 53.2648 61.1092 52.502C61.48 51.735 61.9956 51.1363 62.6561 50.7059C63.3209 50.2712 64.0965 50.0539 64.9828 50.0539C65.6732 50.0539 66.2953 50.1817 66.8493 50.4374C67.4033 50.6931 67.8571 51.051 68.2108 51.5113C68.5645 51.9715 68.784 52.5084 68.8692 53.1221H67.3607C67.2456 52.6746 66.9899 52.2783 66.5936 51.9331C66.2016 51.5837 65.6732 51.409 65.0084 51.409C64.4203 51.409 63.9047 51.5624 63.4615 51.8692C63.0226 52.1718 62.6796 52.6 62.4324 53.154C62.1895 53.7037 62.068 54.3493 62.068 55.0908C62.068 55.8493 62.1874 56.5098 62.426 57.0723C62.6689 57.6348 63.0098 58.0716 63.4487 58.3827C63.8919 58.6938 64.4118 58.8493 65.0084 58.8493C65.4004 58.8493 65.7563 58.7811 66.0759 58.6448C66.3955 58.5084 66.6661 58.3124 66.8877 58.0567C67.1092 57.801 67.2669 57.4942 67.3607 57.1363H68.8692C68.784 57.7158 68.573 58.2378 68.2364 58.7023C67.904 59.1625 67.4629 59.529 66.9132 59.8017C66.3678 60.0702 65.7328 60.2044 65.0084 60.2044ZM72.4807 56.4204L72.4551 54.5539H72.7619L77.0574 50.1817H78.9239L74.3472 54.8096H74.2193L72.4807 56.4204ZM71.0744 59.9999V46.909H72.583V59.9999H71.0744ZM77.3131 59.9999L73.4779 55.1419L74.5517 54.0937L79.2307 59.9999H77.3131ZM89.9166 60.2044C89.0302 60.2044 88.2525 59.9935 87.5835 59.5716C86.9187 59.1498 86.3988 58.5596 86.0238 57.801C85.6531 57.0425 85.4677 56.1561 85.4677 55.1419C85.4677 54.1192 85.6531 53.2265 86.0238 52.4637C86.3988 51.7009 86.9187 51.1086 87.5835 50.6867C88.2525 50.2648 89.0302 50.0539 89.9166 50.0539C90.803 50.0539 91.5785 50.2648 92.2433 50.6867C92.9123 51.1086 93.4322 51.7009 93.803 52.4637C94.178 53.2265 94.3655 54.1192 94.3655 55.1419C94.3655 56.1561 94.178 57.0425 93.803 57.801C93.4322 58.5596 92.9123 59.1498 92.2433 59.5716C91.5785 59.9935 90.803 60.2044 89.9166 60.2044ZM89.9166 58.8493C90.5899 58.8493 91.1439 58.6767 91.5785 58.3316C92.0132 57.9864 92.3349 57.5326 92.5437 56.9701C92.7525 56.4076 92.8569 55.7982 92.8569 55.1419C92.8569 54.4857 92.7525 53.8742 92.5437 53.3074C92.3349 52.7407 92.0132 52.2826 91.5785 51.9331C91.1439 51.5837 90.5899 51.409 89.9166 51.409C89.2433 51.409 88.6893 51.5837 88.2547 51.9331C87.82 52.2826 87.4983 52.7407 87.2895 53.3074C87.0807 53.8742 86.9763 54.4857 86.9763 55.1419C86.9763 55.7982 87.0807 56.4076 87.2895 56.9701C87.4983 57.5326 87.82 57.9864 88.2547 58.3316C88.6893 58.6767 89.2433 58.8493 89.9166 58.8493ZM98.1767 54.0937V59.9999H96.6682V50.1817H98.1256V51.7158H98.2534C98.4835 51.2172 98.833 50.8167 99.3017 50.5141C99.7705 50.2073 100.375 50.0539 101.117 50.0539C101.781 50.0539 102.363 50.1902 102.862 50.463C103.36 50.7314 103.748 51.1405 104.025 51.6902C104.302 52.2357 104.441 52.926 104.441 53.7613V59.9999H102.932V53.8635C102.932 53.0922 102.732 52.4914 102.331 52.061C101.931 51.6263 101.381 51.409 100.682 51.409C100.2 51.409 99.7705 51.5134 99.3912 51.7222C99.0162 51.931 98.72 52.2357 98.5027 52.6363C98.2854 53.0368 98.1767 53.5226 98.1767 54.0937ZM111.314 60.2044C110.368 60.2044 109.551 59.9956 108.865 59.578C108.184 59.1561 107.657 58.5681 107.287 57.8138C106.92 57.0553 106.737 56.1732 106.737 55.1675C106.737 54.1618 106.92 53.2755 107.287 52.5084C107.657 51.7371 108.173 51.1363 108.833 50.7059C109.498 50.2712 110.274 50.0539 111.16 50.0539C111.672 50.0539 112.176 50.1391 112.675 50.3096C113.174 50.48 113.627 50.757 114.037 51.1405C114.446 51.5198 114.772 52.0226 115.015 52.649C115.257 53.2755 115.379 54.0468 115.379 54.963V55.6022H107.811V54.2982H113.845C113.845 53.7442 113.734 53.2499 113.512 52.8152C113.295 52.3806 112.984 52.0375 112.579 51.7861C112.179 51.5347 111.706 51.409 111.16 51.409C110.559 51.409 110.039 51.5581 109.6 51.8564C109.166 52.1505 108.831 52.534 108.597 53.007C108.363 53.48 108.245 53.9871 108.245 54.5283V55.3976C108.245 56.1391 108.373 56.7677 108.629 57.2833C108.889 57.7946 109.249 58.1846 109.709 58.453C110.169 58.7172 110.704 58.8493 111.314 58.8493C111.71 58.8493 112.068 58.7939 112.387 58.6831C112.711 58.5681 112.99 58.3976 113.225 58.1718C113.459 57.9417 113.64 57.6561 113.768 57.3152L115.225 57.7243C115.072 58.2187 114.814 58.6533 114.452 59.0283C114.09 59.399 113.642 59.6888 113.11 59.8976C112.577 60.1022 111.978 60.2044 111.314 60.2044ZM126.725 60.2044C125.838 60.2044 125.061 59.9935 124.392 59.5716C123.727 59.1498 123.207 58.5596 122.832 57.801C122.461 57.0425 122.276 56.1561 122.276 55.1419C122.276 54.1192 122.461 53.2265 122.832 52.4637C123.207 51.7009 123.727 51.1086 124.392 50.6867C125.061 50.2648 125.838 50.0539 126.725 50.0539C127.611 50.0539 128.387 50.2648 129.051 50.6867C129.721 51.1086 130.24 51.7009 130.611 52.4637C130.986 53.2265 131.174 54.1192 131.174 55.1419C131.174 56.1561 130.986 57.0425 130.611 57.801C130.24 58.5596 129.721 59.1498 129.051 59.5716C128.387 59.9935 127.611 60.2044 126.725 60.2044ZM126.725 58.8493C127.398 58.8493 127.952 58.6767 128.387 58.3316C128.821 57.9864 129.143 57.5326 129.352 56.9701C129.561 56.4076 129.665 55.7982 129.665 55.1419C129.665 54.4857 129.561 53.8742 129.352 53.3074C129.143 52.7407 128.821 52.2826 128.387 51.9331C127.952 51.5837 127.398 51.409 126.725 51.409C126.051 51.409 125.498 51.5837 125.063 51.9331C124.628 52.2826 124.306 52.7407 124.098 53.3074C123.889 53.8742 123.784 54.4857 123.784 55.1419C123.784 55.7982 123.889 56.4076 124.098 56.9701C124.306 57.5326 124.628 57.9864 125.063 58.3316C125.498 58.6767 126.051 58.8493 126.725 58.8493ZM137.849 50.1817V51.4601H132.556V50.1817H137.849ZM134.141 59.9999V48.8266C134.141 48.2641 134.273 47.7954 134.537 47.4204C134.802 47.0454 135.145 46.7641 135.567 46.5766C135.988 46.3891 136.434 46.2954 136.903 46.2954C137.273 46.2954 137.576 46.3252 137.81 46.3848C138.045 46.4445 138.219 46.4999 138.334 46.551L137.9 47.855C137.823 47.8294 137.716 47.7975 137.58 47.7591C137.448 47.7208 137.273 47.7016 137.056 47.7016C136.557 47.7016 136.197 47.8273 135.976 48.0787C135.758 48.3302 135.65 48.6988 135.65 49.1846V59.9999H134.141ZM149.295 50.1817V51.4601H144.207V50.1817H149.295ZM145.69 47.8294H147.199V57.1874C147.199 57.6135 147.26 57.9331 147.384 58.1462C147.512 58.355 147.674 58.4956 147.87 58.5681C148.07 58.6363 148.281 58.6704 148.502 58.6704C148.669 58.6704 148.805 58.6618 148.912 58.6448C149.018 58.6235 149.103 58.6064 149.167 58.5937L149.474 59.9488C149.372 59.9871 149.229 60.0255 149.046 60.0638C148.863 60.1064 148.63 60.1277 148.349 60.1277C147.923 60.1277 147.505 60.0361 147.096 59.8529C146.691 59.6696 146.355 59.3905 146.086 59.0155C145.822 58.6405 145.69 58.1675 145.69 57.5965V47.8294ZM153.284 54.0937V59.9999H151.775V46.909H153.284V51.7158H153.412C153.642 51.2087 153.987 50.806 154.447 50.5077C154.912 50.2052 155.529 50.0539 156.301 50.0539C156.97 50.0539 157.556 50.1881 158.059 50.4566C158.561 50.7208 158.951 51.1277 159.228 51.6775C159.51 52.2229 159.65 52.9175 159.65 53.7613V59.9999H158.142V53.8635C158.142 53.0837 157.939 52.4807 157.534 52.0546C157.134 51.6242 156.578 51.409 155.866 51.409C155.372 51.409 154.929 51.5134 154.537 51.7222C154.149 51.931 153.842 52.2357 153.616 52.6363C153.395 53.0368 153.284 53.5226 153.284 54.0937ZM166.526 60.2044C165.58 60.2044 164.764 59.9956 164.078 59.578C163.396 59.1561 162.87 58.5681 162.499 57.8138C162.133 57.0553 161.95 56.1732 161.95 55.1675C161.95 54.1618 162.133 53.2755 162.499 52.5084C162.87 51.7371 163.386 51.1363 164.046 50.7059C164.711 50.2712 165.487 50.0539 166.373 50.0539C166.884 50.0539 167.389 50.1391 167.888 50.3096C168.387 50.48 168.84 50.757 169.249 51.1405C169.659 51.5198 169.985 52.0226 170.227 52.649C170.47 53.2755 170.592 54.0468 170.592 54.963V55.6022H163.024V54.2982H169.058C169.058 53.7442 168.947 53.2499 168.725 52.8152C168.508 52.3806 168.197 52.0375 167.792 51.7861C167.392 51.5347 166.919 51.409 166.373 51.409C165.772 51.409 165.252 51.5581 164.813 51.8564C164.379 52.1505 164.044 52.534 163.81 53.007C163.575 53.48 163.458 53.9871 163.458 54.5283V55.3976C163.458 56.1391 163.586 56.7677 163.842 57.2833C164.102 57.7946 164.462 58.1846 164.922 58.453C165.382 58.7172 165.917 58.8493 166.526 58.8493C166.923 58.8493 167.281 58.7939 167.6 58.6831C167.924 58.5681 168.203 58.3976 168.438 58.1718C168.672 57.9417 168.853 57.6561 168.981 57.3152L170.438 57.7243C170.285 58.2187 170.027 58.6533 169.665 59.0283C169.303 59.399 168.855 59.6888 168.323 59.8976C167.79 60.1022 167.191 60.2044 166.526 60.2044ZM177.949 63.6817V50.1817H179.406V51.7414H179.585C179.696 51.5709 179.85 51.3536 180.046 51.0894C180.246 50.8209 180.531 50.5823 180.902 50.3735C181.277 50.1604 181.784 50.0539 182.423 50.0539C183.25 50.0539 183.979 50.2606 184.61 50.6739C185.24 51.0873 185.732 51.6732 186.086 52.4317C186.44 53.1902 186.617 54.0851 186.617 55.1164C186.617 56.1561 186.44 57.0574 186.086 57.8202C185.732 58.5787 185.242 59.1668 184.616 59.5844C183.99 59.9978 183.267 60.2044 182.449 60.2044C181.818 60.2044 181.313 60.1 180.934 59.8912C180.555 59.6782 180.263 59.4374 180.058 59.1689C179.854 58.8962 179.696 58.6704 179.585 58.4914H179.458V63.6817H177.949ZM179.432 55.0908C179.432 55.8323 179.541 56.4864 179.758 57.0532C179.975 57.6157 180.293 58.0567 180.71 58.3763C181.128 58.6917 181.639 58.8493 182.244 58.8493C182.875 58.8493 183.401 58.6831 183.823 58.3508C184.249 58.0141 184.569 57.5624 184.782 56.9956C184.999 56.4246 185.108 55.7897 185.108 55.0908C185.108 54.4005 185.002 53.7783 184.789 53.2243C184.58 52.6661 184.262 52.225 183.836 51.9012C183.414 51.5731 182.884 51.409 182.244 51.409C181.631 51.409 181.115 51.5645 180.698 51.8756C180.28 52.1824 179.965 52.6128 179.752 53.1668C179.539 53.7165 179.432 54.3579 179.432 55.0908ZM193.034 60.2044C192.088 60.2044 191.272 59.9956 190.586 59.578C189.904 59.1561 189.378 58.5681 189.007 57.8138C188.641 57.0553 188.458 56.1732 188.458 55.1675C188.458 54.1618 188.641 53.2755 189.007 52.5084C189.378 51.7371 189.894 51.1363 190.554 50.7059C191.219 50.2712 191.994 50.0539 192.881 50.0539C193.392 50.0539 193.897 50.1391 194.396 50.3096C194.894 50.48 195.348 50.757 195.757 51.1405C196.166 51.5198 196.492 52.0226 196.735 52.649C196.978 53.2755 197.1 54.0468 197.1 54.963V55.6022H189.531V54.2982H195.566C195.566 53.7442 195.455 53.2499 195.233 52.8152C195.016 52.3806 194.705 52.0375 194.3 51.7861C193.899 51.5347 193.426 51.409 192.881 51.409C192.28 51.409 191.76 51.5581 191.321 51.8564C190.887 52.1505 190.552 52.534 190.318 53.007C190.083 53.48 189.966 53.9871 189.966 54.5283V55.3976C189.966 56.1391 190.094 56.7677 190.35 57.2833C190.61 57.7946 190.97 58.1846 191.43 58.453C191.89 58.7172 192.425 58.8493 193.034 58.8493C193.431 58.8493 193.789 58.7939 194.108 58.6831C194.432 58.5681 194.711 58.3976 194.945 58.1718C195.18 57.9417 195.361 57.6561 195.489 57.3152L196.946 57.7243C196.793 58.2187 196.535 58.6533 196.173 59.0283C195.811 59.399 195.363 59.6888 194.83 59.8976C194.298 60.1022 193.699 60.2044 193.034 60.2044ZM199.394 59.9999V50.1817H200.852V51.6647H200.954C201.133 51.1789 201.457 50.7847 201.926 50.4821C202.394 50.1796 202.923 50.0283 203.511 50.0283C203.622 50.0283 203.76 50.0304 203.926 50.0347C204.093 50.039 204.218 50.0454 204.303 50.0539V51.588C204.252 51.5752 204.135 51.556 203.952 51.5304C203.773 51.5006 203.583 51.4857 203.383 51.4857C202.906 51.4857 202.48 51.5858 202.105 51.7861C201.734 51.9821 201.44 52.2549 201.222 52.6043C201.009 52.9495 200.903 53.3436 200.903 53.7868V59.9999H199.394ZM213.046 52.3806L211.691 52.7641C211.606 52.5383 211.48 52.3188 211.314 52.1057C211.152 51.8884 210.93 51.7094 210.649 51.5688C210.368 51.4282 210.008 51.3579 209.569 51.3579C208.968 51.3579 208.467 51.4963 208.067 51.7733C207.67 52.0461 207.472 52.3934 207.472 52.8152C207.472 53.1902 207.609 53.4864 207.881 53.7037C208.154 53.9211 208.58 54.1022 209.16 54.2471L210.617 54.605C211.495 54.8181 212.149 55.1441 212.58 55.583C213.01 56.0177 213.225 56.578 213.225 57.2641C213.225 57.8266 213.063 58.3294 212.739 58.7726C212.42 59.2158 211.972 59.5652 211.397 59.8209C210.822 60.0766 210.153 60.2044 209.39 60.2044C208.388 60.2044 207.56 59.9871 206.903 59.5525C206.247 59.1178 205.832 58.4829 205.657 57.6476L207.089 57.2897C207.225 57.8181 207.483 58.2144 207.862 58.4786C208.246 58.7428 208.746 58.8749 209.364 58.8749C210.067 58.8749 210.626 58.7258 211.039 58.4275C211.457 58.1249 211.665 57.7627 211.665 57.3408C211.665 56.9999 211.546 56.7144 211.308 56.4843C211.069 56.2499 210.702 56.0752 210.208 55.9601L208.572 55.5766C207.673 55.3635 207.012 55.0333 206.59 54.5858C206.173 54.1341 205.964 53.5695 205.964 52.8919C205.964 52.338 206.119 51.8479 206.43 51.4218C206.746 50.9956 207.174 50.6611 207.715 50.4182C208.261 50.1753 208.879 50.0539 209.569 50.0539C210.54 50.0539 211.303 50.2669 211.857 50.6931C212.415 51.1192 212.812 51.6817 213.046 52.3806ZM219.485 60.2044C218.598 60.2044 217.82 59.9935 217.151 59.5716C216.487 59.1498 215.967 58.5596 215.592 57.801C215.221 57.0425 215.036 56.1561 215.036 55.1419C215.036 54.1192 215.221 53.2265 215.592 52.4637C215.967 51.7009 216.487 51.1086 217.151 50.6867C217.82 50.2648 218.598 50.0539 219.485 50.0539C220.371 50.0539 221.146 50.2648 221.811 50.6867C222.48 51.1086 223 51.7009 223.371 52.4637C223.746 53.2265 223.933 54.1192 223.933 55.1419C223.933 56.1561 223.746 57.0425 223.371 57.801C223 58.5596 222.48 59.1498 221.811 59.5716C221.146 59.9935 220.371 60.2044 219.485 60.2044ZM219.485 58.8493C220.158 58.8493 220.712 58.6767 221.146 58.3316C221.581 57.9864 221.903 57.5326 222.112 56.9701C222.32 56.4076 222.425 55.7982 222.425 55.1419C222.425 54.4857 222.32 53.8742 222.112 53.3074C221.903 52.7407 221.581 52.2826 221.146 51.9331C220.712 51.5837 220.158 51.409 219.485 51.409C218.811 51.409 218.257 51.5837 217.823 51.9331C217.388 52.2826 217.066 52.7407 216.857 53.3074C216.649 53.8742 216.544 54.4857 216.544 55.1419C216.544 55.7982 216.649 56.4076 216.857 56.9701C217.066 57.5326 217.388 57.9864 217.823 58.3316C218.257 58.6767 218.811 58.8493 219.485 58.8493ZM227.745 54.0937V59.9999H226.236V50.1817H227.694V51.7158H227.821C228.051 51.2172 228.401 50.8167 228.87 50.5141C229.338 50.2073 229.944 50.0539 230.685 50.0539C231.35 50.0539 231.931 50.1902 232.43 50.463C232.929 50.7314 233.316 51.1405 233.593 51.6902C233.87 52.2357 234.009 52.926 234.009 53.7613V59.9999H232.5V53.8635C232.5 53.0922 232.3 52.4914 231.9 52.061C231.499 51.6263 230.949 51.409 230.25 51.409C229.769 51.409 229.338 51.5134 228.959 51.7222C228.584 51.931 228.288 52.2357 228.071 52.6363C227.853 53.0368 227.745 53.5226 227.745 54.0937ZM42.2703 91.23C41.6481 91.23 41.0835 91.1128 40.5764 90.8785C40.0693 90.6398 39.6666 90.2968 39.3683 89.8493C39.07 89.3976 38.9209 88.8522 38.9209 88.213C38.9209 87.6505 39.0317 87.1945 39.2532 86.8451C39.4748 86.4914 39.771 86.2144 40.1417 86.0141C40.5125 85.8138 40.9216 85.6647 41.369 85.5667C41.8207 85.4644 42.2745 85.3834 42.7305 85.3238C43.3271 85.2471 43.8108 85.1895 44.1815 85.1512C44.5565 85.1086 44.8292 85.0383 44.9997 84.9402C45.1744 84.8422 45.2618 84.6718 45.2618 84.4289V84.3777C45.2618 83.7471 45.0892 83.257 44.744 82.9076C44.4031 82.5581 43.8853 82.3834 43.1907 82.3834C42.4706 82.3834 41.9059 82.5411 41.4968 82.8564C41.0878 83.1718 40.8001 83.5084 40.6339 83.8664L39.2021 83.355C39.4578 82.7584 39.7987 82.2939 40.2248 81.9615C40.6552 81.6249 41.124 81.3905 41.6311 81.2584C42.1424 81.1221 42.6453 81.0539 43.1396 81.0539C43.4549 81.0539 43.8172 81.0922 44.2263 81.1689C44.6396 81.2414 45.038 81.3927 45.4216 81.6228C45.8093 81.8529 46.1311 82.2002 46.3868 82.6647C46.6424 83.1292 46.7703 83.7513 46.7703 84.5311V90.9999H45.2618V89.6704H45.1851C45.0828 89.8834 44.9123 90.1114 44.6737 90.3543C44.4351 90.5972 44.1176 90.8039 43.7213 90.9743C43.325 91.1448 42.8413 91.23 42.2703 91.23ZM42.5004 89.8749C43.097 89.8749 43.5998 89.7577 44.0089 89.5233C44.4223 89.289 44.7334 88.9864 44.9422 88.6157C45.1552 88.2449 45.2618 87.855 45.2618 87.4459V86.0652C45.1978 86.1419 45.0572 86.2123 44.8399 86.2762C44.6268 86.3358 44.3797 86.3891 44.0984 86.436C43.8214 86.4786 43.5508 86.5169 43.2866 86.551C43.0267 86.5809 42.8157 86.6064 42.6538 86.6277C42.2618 86.6789 41.8953 86.762 41.5544 86.877C41.2177 86.9878 40.945 87.1561 40.7362 87.382C40.5317 87.6036 40.4294 87.9061 40.4294 88.2897C40.4294 88.8138 40.6233 89.2101 41.0111 89.4786C41.4031 89.7428 41.8995 89.8749 42.5004 89.8749ZM49.7282 90.9999V77.909H51.2367V82.7414H51.3646C51.4754 82.5709 51.6288 82.3536 51.8248 82.0894C52.0251 81.8209 52.3106 81.5823 52.6813 81.3735C53.0563 81.1604 53.5634 81.0539 54.2026 81.0539C55.0293 81.0539 55.758 81.2606 56.3887 81.6739C57.0194 82.0873 57.5116 82.6732 57.8653 83.4317C58.219 84.1902 58.3958 85.0851 58.3958 86.1164C58.3958 87.1561 58.219 88.0574 57.8653 88.8202C57.5116 89.5787 57.0215 90.1668 56.3951 90.5844C55.7687 90.9978 55.0464 91.2044 54.2282 91.2044C53.5975 91.2044 53.0926 91.1 52.7133 90.8912C52.334 90.6782 52.0421 90.4374 51.8376 90.1689C51.633 89.8962 51.4754 89.6704 51.3646 89.4914H51.1856V90.9999H49.7282ZM51.2112 86.0908C51.2112 86.8323 51.3198 87.4864 51.5372 88.0532C51.7545 88.6157 52.072 89.0567 52.4896 89.3763C52.9072 89.6917 53.4185 89.8493 54.0237 89.8493C54.6543 89.8493 55.1806 89.6831 55.6025 89.3508C56.0286 89.0141 56.3482 88.5624 56.5613 87.9956C56.7786 87.4246 56.8873 86.7897 56.8873 86.0908C56.8873 85.4005 56.7808 84.7783 56.5677 84.2243C56.3589 83.6661 56.0414 83.225 55.6153 82.9012C55.1934 82.5731 54.6629 82.409 54.0237 82.409C53.41 82.409 52.8944 82.5645 52.4768 82.8756C52.0592 83.1824 51.7438 83.6128 51.5308 84.1668C51.3177 84.7165 51.2112 85.3579 51.2112 86.0908ZM64.692 91.2044C63.8056 91.2044 63.0279 90.9935 62.3589 90.5716C61.6941 90.1498 61.1742 89.5596 60.7992 88.801C60.4285 88.0425 60.2431 87.1561 60.2431 86.1419C60.2431 85.1192 60.4285 84.2265 60.7992 83.4637C61.1742 82.7009 61.6941 82.1086 62.3589 81.6867C63.0279 81.2648 63.8056 81.0539 64.692 81.0539C65.5783 81.0539 66.3539 81.2648 67.0187 81.6867C67.6877 82.1086 68.2076 82.7009 68.5783 83.4637C68.9533 84.2265 69.1408 85.1192 69.1408 86.1419C69.1408 87.1561 68.9533 88.0425 68.5783 88.801C68.2076 89.5596 67.6877 90.1498 67.0187 90.5716C66.3539 90.9935 65.5783 91.2044 64.692 91.2044ZM64.692 89.8493C65.3653 89.8493 65.9193 89.6767 66.3539 89.3316C66.7886 88.9864 67.1103 88.5326 67.3191 87.9701C67.5279 87.4076 67.6323 86.7982 67.6323 86.1419C67.6323 85.4857 67.5279 84.8742 67.3191 84.3074C67.1103 83.7407 66.7886 83.2826 66.3539 82.9331C65.9193 82.5837 65.3653 82.409 64.692 82.409C64.0187 82.409 63.4647 82.5837 63.0301 82.9331C62.5954 83.2826 62.2737 83.7407 62.0649 84.3074C61.856 84.8742 61.7516 85.4857 61.7516 86.1419C61.7516 86.7982 61.856 87.4076 62.0649 87.9701C62.2737 88.5326 62.5954 88.9864 63.0301 89.3316C63.4647 89.6767 64.0187 89.8493 64.692 89.8493ZM79.1204 81.1817L75.4897 90.9999H73.9557L70.325 81.1817H71.9613L74.6716 89.0056H74.7738L77.4841 81.1817H79.1204ZM84.8765 91.2044C83.9304 91.2044 83.1144 90.9956 82.4283 90.578C81.7465 90.1561 81.2202 89.5681 80.8495 88.8138C80.483 88.0553 80.2998 87.1732 80.2998 86.1675C80.2998 85.1618 80.483 84.2755 80.8495 83.5084C81.2202 82.7371 81.7358 82.1363 82.3964 81.7059C83.0611 81.2712 83.8367 81.0539 84.7231 81.0539C85.2344 81.0539 85.7394 81.1391 86.238 81.3096C86.7366 81.48 87.1904 81.757 87.5995 82.1405C88.0086 82.5198 88.3346 83.0226 88.5775 83.649C88.8204 84.2755 88.9418 85.0468 88.9418 85.963V86.6022H81.3736V85.2982H87.4077C87.4077 84.7442 87.2969 84.2499 87.0753 83.8152C86.858 83.3806 86.5469 83.0375 86.1421 82.7861C85.7415 82.5347 85.2685 82.409 84.7231 82.409C84.1222 82.409 83.6023 82.5581 83.1634 82.8564C82.7287 83.1505 82.3942 83.534 82.1598 84.007C81.9255 84.48 81.8083 84.9871 81.8083 85.5283V86.3976C81.8083 87.1391 81.9361 87.7677 82.1918 88.2833C82.4517 88.7946 82.8118 89.1846 83.2721 89.453C83.7323 89.7172 84.2671 89.8493 84.8765 89.8493C85.2728 89.8493 85.6307 89.7939 85.9503 89.6831C86.2742 89.5681 86.5533 89.3976 86.7877 89.1718C87.0221 88.9417 87.2032 88.6561 87.331 88.3152L88.7884 88.7243C88.635 89.2187 88.3772 89.6533 88.015 90.0283C87.6527 90.399 87.2053 90.6888 86.6726 90.8976C86.14 91.1022 85.5412 91.2044 84.8765 91.2044ZM100.569 81.1817V82.4601H95.4809V81.1817H100.569ZM96.9638 78.8294H98.4723V88.1874C98.4723 88.6135 98.5341 88.9331 98.6577 89.1462C98.7856 89.355 98.9475 89.4956 99.1435 89.5681C99.3438 89.6363 99.5547 89.6704 99.7763 89.6704C99.9425 89.6704 100.078 89.6618 100.185 89.6448C100.292 89.6235 100.377 89.6064 100.441 89.5937L100.748 90.9488C100.645 90.9871 100.502 91.0255 100.319 91.0638C100.136 91.1064 99.9042 91.1277 99.6229 91.1277C99.1968 91.1277 98.7792 91.0361 98.3701 90.8529C97.9652 90.6696 97.6286 90.3905 97.3601 90.0155C97.0959 89.6405 96.9638 89.1675 96.9638 88.5965V78.8294ZM106.721 91.2044C105.835 91.2044 105.057 90.9935 104.388 90.5716C103.723 90.1498 103.203 89.5596 102.828 88.801C102.457 88.0425 102.272 87.1561 102.272 86.1419C102.272 85.1192 102.457 84.2265 102.828 83.4637C103.203 82.7009 103.723 82.1086 104.388 81.6867C105.057 81.2648 105.835 81.0539 106.721 81.0539C107.607 81.0539 108.383 81.2648 109.048 81.6867C109.717 82.1086 110.237 82.7009 110.607 83.4637C110.982 84.2265 111.17 85.1192 111.17 86.1419C111.17 87.1561 110.982 88.0425 110.607 88.801C110.237 89.5596 109.717 90.1498 109.048 90.5716C108.383 90.9935 107.607 91.2044 106.721 91.2044ZM106.721 89.8493C107.394 89.8493 107.948 89.6767 108.383 89.3316C108.817 88.9864 109.139 88.5326 109.348 87.9701C109.557 87.4076 109.661 86.7982 109.661 86.1419C109.661 85.4857 109.557 84.8742 109.348 84.3074C109.139 83.7407 108.817 83.2826 108.383 82.9331C107.948 82.5837 107.394 82.409 106.721 82.409C106.048 82.409 105.494 82.5837 105.059 82.9331C104.624 83.2826 104.303 83.7407 104.094 84.3074C103.885 84.8742 103.781 85.4857 103.781 86.1419C103.781 86.7982 103.885 87.4076 104.094 87.9701C104.303 88.5326 104.624 88.9864 105.059 89.3316C105.494 89.6767 106.048 89.8493 106.721 89.8493ZM120.044 85.0937V90.9999H118.535V77.909H120.044V82.7158H120.171C120.401 82.2087 120.747 81.806 121.207 81.5077C121.671 81.2052 122.289 81.0539 123.061 81.0539C123.73 81.0539 124.316 81.1881 124.818 81.4566C125.321 81.7208 125.711 82.1277 125.988 82.6775C126.269 83.2229 126.41 83.9175 126.41 84.7613V90.9999H124.901V84.8635C124.901 84.0837 124.699 83.4807 124.294 83.0546C123.894 82.6242 123.338 82.409 122.626 82.409C122.132 82.409 121.688 82.5134 121.296 82.7222C120.909 82.931 120.602 83.2357 120.376 83.6363C120.154 84.0368 120.044 84.5226 120.044 85.0937ZM133.286 91.2044C132.34 91.2044 131.524 90.9956 130.838 90.578C130.156 90.1561 129.63 89.5681 129.259 88.8138C128.893 88.0553 128.71 87.1732 128.71 86.1675C128.71 85.1618 128.893 84.2755 129.259 83.5084C129.63 82.7371 130.146 82.1363 130.806 81.7059C131.471 81.2712 132.246 81.0539 133.133 81.0539C133.644 81.0539 134.149 81.1391 134.648 81.3096C135.146 81.48 135.6 81.757 136.009 82.1405C136.418 82.5198 136.744 83.0226 136.987 83.649C137.23 84.2755 137.352 85.0468 137.352 85.963V86.6022H129.783V85.2982H135.817C135.817 84.7442 135.707 84.2499 135.485 83.8152C135.268 83.3806 134.957 83.0375 134.552 82.7861C134.151 82.5347 133.678 82.409 133.133 82.409C132.532 82.409 132.012 82.5581 131.573 82.8564C131.138 83.1505 130.804 83.534 130.57 84.007C130.335 84.48 130.218 84.9871 130.218 85.5283V86.3976C130.218 87.1391 130.346 87.7677 130.602 88.2833C130.862 88.7946 131.222 89.1846 131.682 89.453C132.142 89.7172 132.677 89.8493 133.286 89.8493C133.683 89.8493 134.04 89.7939 134.36 89.6831C134.684 89.5681 134.963 89.3976 135.197 89.1718C135.432 88.9417 135.613 88.6561 135.741 88.3152L137.198 88.7243C137.045 89.2187 136.787 89.6533 136.425 90.0283C136.063 90.399 135.615 90.6888 135.082 90.8976C134.55 91.1022 133.951 91.2044 133.286 91.2044ZM141.155 77.909V90.9999H139.646V77.909H141.155ZM143.918 94.6817V81.1817H145.375V82.7414H145.554C145.665 82.5709 145.818 82.3536 146.014 82.0894C146.215 81.8209 146.5 81.5823 146.871 81.3735C147.246 81.1604 147.753 81.0539 148.392 81.0539C149.219 81.0539 149.948 81.2606 150.578 81.6739C151.209 82.0873 151.701 82.6732 152.055 83.4317C152.409 84.1902 152.585 85.0851 152.585 86.1164C152.585 87.1561 152.409 88.0574 152.055 88.8202C151.701 89.5787 151.211 90.1668 150.585 90.5844C149.958 90.9978 149.236 91.2044 148.418 91.2044C147.787 91.2044 147.282 91.1 146.903 90.8912C146.524 90.6782 146.232 90.4374 146.027 90.1689C145.823 89.8962 145.665 89.6704 145.554 89.4914H145.426V94.6817H143.918ZM145.401 86.0908C145.401 86.8323 145.509 87.4864 145.727 88.0532C145.944 88.6157 146.262 89.0567 146.679 89.3763C147.097 89.6917 147.608 89.8493 148.213 89.8493C148.844 89.8493 149.37 89.6831 149.792 89.3508C150.218 89.0141 150.538 88.5624 150.751 87.9956C150.968 87.4246 151.077 86.7897 151.077 86.0908C151.077 85.4005 150.97 84.7783 150.757 84.2243C150.548 83.6661 150.231 83.225 149.805 82.9012C149.383 82.5731 148.852 82.409 148.213 82.409C147.6 82.409 147.084 82.5645 146.666 82.8756C146.249 83.1824 145.933 83.6128 145.72 84.1668C145.507 84.7165 145.401 85.3579 145.401 86.0908ZM164.219 81.1817V82.4601H159.131V81.1817H164.219ZM160.614 78.8294H162.122V88.1874C162.122 88.6135 162.184 88.9331 162.308 89.1462C162.436 89.355 162.597 89.4956 162.794 89.5681C162.994 89.6363 163.205 89.6704 163.426 89.6704C163.593 89.6704 163.729 89.6618 163.835 89.6448C163.942 89.6235 164.027 89.6064 164.091 89.5937L164.398 90.9488C164.296 90.9871 164.153 91.0255 163.97 91.0638C163.786 91.1064 163.554 91.1277 163.273 91.1277C162.847 91.1277 162.429 91.0361 162.02 90.8529C161.615 90.6696 161.279 90.3905 161.01 90.0155C160.746 89.6405 160.614 89.1675 160.614 88.5965V78.8294ZM168.208 85.0937V90.9999H166.699V77.909H168.208V82.7158H168.335C168.566 82.2087 168.911 81.806 169.371 81.5077C169.835 81.2052 170.453 81.0539 171.225 81.0539C171.894 81.0539 172.48 81.1881 172.982 81.4566C173.485 81.7208 173.875 82.1277 174.152 82.6775C174.433 83.2229 174.574 83.9175 174.574 84.7613V90.9999H173.066V84.8635C173.066 84.0837 172.863 83.4807 172.458 83.0546C172.058 82.6242 171.502 82.409 170.79 82.409C170.296 82.409 169.852 82.5134 169.46 82.7222C169.073 82.931 168.766 83.2357 168.54 83.6363C168.318 84.0368 168.208 84.5226 168.208 85.0937ZM181.45 91.2044C180.504 91.2044 179.688 90.9956 179.002 90.578C178.32 90.1561 177.794 89.5681 177.423 88.8138C177.057 88.0553 176.874 87.1732 176.874 86.1675C176.874 85.1618 177.057 84.2755 177.423 83.5084C177.794 82.7371 178.31 82.1363 178.97 81.7059C179.635 81.2712 180.411 81.0539 181.297 81.0539C181.808 81.0539 182.313 81.1391 182.812 81.3096C183.31 81.48 183.764 81.757 184.173 82.1405C184.582 82.5198 184.908 83.0226 185.151 83.649C185.394 84.2755 185.516 85.0468 185.516 85.963V86.6022H177.947V85.2982H183.982C183.982 84.7442 183.871 84.2499 183.649 83.8152C183.432 83.3806 183.121 83.0375 182.716 82.7861C182.315 82.5347 181.842 82.409 181.297 82.409C180.696 82.409 180.176 82.5581 179.737 82.8564C179.303 83.1505 178.968 83.534 178.734 84.007C178.499 84.48 178.382 84.9871 178.382 85.5283V86.3976C178.382 87.1391 178.51 87.7677 178.766 88.2833C179.026 88.7946 179.386 89.1846 179.846 89.453C180.306 89.7172 180.841 89.8493 181.45 89.8493C181.847 89.8493 182.205 89.7939 182.524 89.6831C182.848 89.5681 183.127 89.3976 183.362 89.1718C183.596 88.9417 183.777 88.6561 183.905 88.3152L185.362 88.7243C185.209 89.2187 184.951 89.6533 184.589 90.0283C184.227 90.399 183.779 90.6888 183.246 90.8976C182.714 91.1022 182.115 91.2044 181.45 91.2044ZM187.81 90.9999V81.1817H189.268V82.7158H189.396C189.6 82.1917 189.93 81.7847 190.386 81.4949C190.842 81.2009 191.39 81.0539 192.029 81.0539C192.677 81.0539 193.216 81.2009 193.646 81.4949C194.081 81.7847 194.42 82.1917 194.663 82.7158H194.765C195.016 82.2087 195.393 81.806 195.896 81.5077C196.399 81.2052 197.002 81.0539 197.705 81.0539C198.583 81.0539 199.301 81.3287 199.859 81.8785C200.418 82.4239 200.697 83.274 200.697 84.4289V90.9999H199.188V84.4289C199.188 83.7044 198.99 83.1867 198.594 82.8756C198.197 82.5645 197.731 82.409 197.194 82.409C196.504 82.409 195.969 82.6178 195.589 83.0354C195.21 83.4488 195.021 83.9729 195.021 84.6079V90.9999H193.487V84.2755C193.487 83.7172 193.305 83.2677 192.943 82.9267C192.581 82.5816 192.114 82.409 191.543 82.409C191.151 82.409 190.785 82.5134 190.444 82.7222C190.107 82.931 189.835 83.2208 189.626 83.5915C189.421 83.958 189.319 84.382 189.319 84.8635V90.9999H187.81ZM212.48 94.8863C211.752 94.8863 211.125 94.7925 210.601 94.605C210.077 94.4218 209.64 94.1789 209.291 93.8763C208.946 93.578 208.671 93.2584 208.466 92.9175L209.668 92.0738C209.804 92.2527 209.977 92.4573 210.186 92.6874C210.395 92.9218 210.68 93.1242 211.042 93.2946C211.409 93.4694 211.888 93.5567 212.48 93.5567C213.273 93.5567 213.927 93.365 214.443 92.9814C214.958 92.5979 215.216 91.9971 215.216 91.1789V89.1846H215.088C214.978 89.3635 214.82 89.5851 214.615 89.8493C214.415 90.1093 214.125 90.3415 213.746 90.5461C213.371 90.7463 212.864 90.8465 212.225 90.8465C211.432 90.8465 210.721 90.659 210.09 90.284C209.463 89.909 208.967 89.3635 208.6 88.6476C208.238 87.9317 208.057 87.0624 208.057 86.0397C208.057 85.034 208.234 84.1583 208.588 83.4125C208.941 82.6625 209.434 82.083 210.064 81.6739C210.695 81.2606 211.424 81.0539 212.25 81.0539C212.89 81.0539 213.397 81.1604 213.772 81.3735C214.151 81.5823 214.441 81.8209 214.641 82.0894C214.846 82.3536 215.003 82.5709 215.114 82.7414H215.267V81.1817H216.725V91.2811C216.725 92.1249 216.533 92.811 216.15 93.3394C215.77 93.8721 215.259 94.262 214.615 94.5091C213.976 94.7606 213.265 94.8863 212.48 94.8863ZM212.429 89.4914C213.034 89.4914 213.546 89.3529 213.963 89.0759C214.381 88.7989 214.699 88.4005 214.916 87.8806C215.133 87.3607 215.242 86.7385 215.242 86.0141C215.242 85.3067 215.135 84.6824 214.922 84.1412C214.709 83.6 214.394 83.176 213.976 82.8692C213.559 82.5624 213.043 82.409 212.429 82.409C211.79 82.409 211.257 82.5709 210.831 82.8948C210.409 83.2186 210.092 83.6533 209.879 84.1988C209.67 84.7442 209.566 85.3493 209.566 86.0141C209.566 86.6959 209.672 87.2989 209.885 87.8231C210.103 88.3429 210.422 88.752 210.844 89.0503C211.27 89.3444 211.799 89.4914 212.429 89.4914ZM223.603 91.2044C222.657 91.2044 221.841 90.9956 221.154 90.578C220.473 90.1561 219.946 89.5681 219.576 88.8138C219.209 88.0553 219.026 87.1732 219.026 86.1675C219.026 85.1618 219.209 84.2755 219.576 83.5084C219.946 82.7371 220.462 82.1363 221.123 81.7059C221.787 81.2712 222.563 81.0539 223.449 81.0539C223.961 81.0539 224.466 81.1391 224.964 81.3096C225.463 81.48 225.917 81.757 226.326 82.1405C226.735 82.5198 227.061 83.0226 227.304 83.649C227.547 84.2755 227.668 85.0468 227.668 85.963V86.6022H220.1V85.2982H226.134C226.134 84.7442 226.023 84.2499 225.801 83.8152C225.584 83.3806 225.273 83.0375 224.868 82.7861C224.468 82.5347 223.995 82.409 223.449 82.409C222.848 82.409 222.328 82.5581 221.89 82.8564C221.455 83.1505 221.12 83.534 220.886 84.007C220.652 84.48 220.534 84.9871 220.534 85.5283V86.3976C220.534 87.1391 220.662 87.7677 220.918 88.2833C221.178 88.7946 221.538 89.1846 221.998 89.453C222.458 89.7172 222.993 89.8493 223.603 89.8493C223.999 89.8493 224.357 89.7939 224.676 89.6831C225 89.5681 225.279 89.3976 225.514 89.1718C225.748 88.9417 225.929 88.6561 226.057 88.3152L227.515 88.7243C227.361 89.2187 227.103 89.6533 226.741 90.0283C226.379 90.399 225.931 90.6888 225.399 90.8976C224.866 91.1022 224.267 91.2044 223.603 91.2044ZM234.233 81.1817V82.4601H229.145V81.1817H234.233ZM230.627 78.8294H232.136V88.1874C232.136 88.6135 232.198 88.9331 232.321 89.1462C232.449 89.355 232.611 89.4956 232.807 89.5681C233.007 89.6363 233.218 89.6704 233.44 89.6704C233.606 89.6704 233.743 89.6618 233.849 89.6448C233.956 89.6235 234.041 89.6064 234.105 89.5937L234.412 90.9488C234.309 90.9871 234.167 91.0255 233.983 91.0638C233.8 91.1064 233.568 91.1277 233.287 91.1277C232.86 91.1277 232.443 91.0361 232.034 90.8529C231.629 90.6696 231.292 90.3905 231.024 90.0155C230.76 89.6405 230.627 89.1675 230.627 88.5965V78.8294ZM244.453 91.23C243.831 91.23 243.267 91.1128 242.76 90.8785C242.252 90.6398 241.85 90.2968 241.551 89.8493C241.253 89.3976 241.104 88.8522 241.104 88.213C241.104 87.6505 241.215 87.1945 241.436 86.8451C241.658 86.4914 241.954 86.2144 242.325 86.0141C242.696 85.8138 243.105 85.6647 243.552 85.5667C244.004 85.4644 244.458 85.3834 244.914 85.3238C245.51 85.2471 245.994 85.1895 246.365 85.1512C246.74 85.1086 247.012 85.0383 247.183 84.9402C247.358 84.8422 247.445 84.6718 247.445 84.4289V84.3777C247.445 83.7471 247.272 83.257 246.927 82.9076C246.586 82.5581 246.069 82.3834 245.374 82.3834C244.654 82.3834 244.089 82.5411 243.68 82.8564C243.271 83.1718 242.983 83.5084 242.817 83.8664L241.385 83.355C241.641 82.7584 241.982 82.2939 242.408 81.9615C242.838 81.6249 243.307 81.3905 243.814 81.2584C244.326 81.1221 244.828 81.0539 245.323 81.0539C245.638 81.0539 246 81.0922 246.409 81.1689C246.823 81.2414 247.221 81.3927 247.605 81.6228C247.993 81.8529 248.314 82.2002 248.57 82.6647C248.826 83.1292 248.953 83.7513 248.953 84.5311V90.9999H247.445V89.6704H247.368C247.266 89.8834 247.096 90.1114 246.857 90.3543C246.618 90.5972 246.301 90.8039 245.904 90.9743C245.508 91.1448 245.025 91.23 244.453 91.23ZM244.684 89.8749C245.28 89.8749 245.783 89.7577 246.192 89.5233C246.605 89.289 246.917 88.9864 247.125 88.6157C247.338 88.2449 247.445 87.855 247.445 87.4459V86.0652C247.381 86.1419 247.24 86.2123 247.023 86.2762C246.81 86.3358 246.563 86.3891 246.282 86.436C246.005 86.4786 245.734 86.5169 245.47 86.551C245.21 86.5809 244.999 86.6064 244.837 86.6277C244.445 86.6789 244.078 86.762 243.738 86.877C243.401 86.9878 243.128 87.1561 242.919 87.382C242.715 87.6036 242.613 87.9061 242.613 88.2897C242.613 88.8138 242.806 89.2101 243.194 89.4786C243.586 89.7428 244.083 89.8749 244.684 89.8749ZM46.3356 114.381L44.9805 114.764C44.8953 114.538 44.7696 114.319 44.6034 114.106C44.4415 113.888 44.2199 113.71 43.9386 113.569C43.6574 113.428 43.2973 113.358 42.8584 113.358C42.2575 113.358 41.7568 113.496 41.3562 113.773C40.9599 114.046 40.7618 114.393 40.7618 114.815C40.7618 115.19 40.8981 115.487 41.1709 115.704C41.4436 115.921 41.8697 116.102 42.4493 116.247L43.9066 116.605C44.7845 116.818 45.4386 117.144 45.869 117.583C46.2994 118.018 46.5146 118.578 46.5146 119.264C46.5146 119.827 46.3527 120.33 46.0288 120.773C45.7092 121.216 45.2618 121.565 44.6865 121.821C44.1112 122.077 43.4422 122.205 42.6794 122.205C41.678 122.205 40.8491 121.987 40.1929 121.553C39.5366 121.118 39.1211 120.483 38.9464 119.648L40.3782 119.29C40.5146 119.818 40.7724 120.214 41.1517 120.479C41.5352 120.743 42.0359 120.875 42.6538 120.875C43.3569 120.875 43.9152 120.726 44.3285 120.428C44.7461 120.125 44.9549 119.763 44.9549 119.341C44.9549 119 44.8356 118.714 44.597 118.484C44.3584 118.25 43.9919 118.075 43.4976 117.96L41.8612 117.577C40.962 117.364 40.3015 117.033 39.8797 116.586C39.462 116.134 39.2532 115.57 39.2532 114.892C39.2532 114.338 39.4088 113.848 39.7199 113.422C40.0352 112.996 40.4635 112.661 41.0047 112.418C41.5501 112.175 42.168 112.054 42.8584 112.054C43.8299 112.054 44.5927 112.267 45.1467 112.693C45.7049 113.119 46.1013 113.682 46.3356 114.381ZM52.774 122.205C51.8536 122.205 51.0609 121.987 50.3962 121.553C49.7314 121.118 49.22 120.519 48.8621 119.756C48.5041 118.994 48.3252 118.122 48.3252 117.142C48.3252 116.145 48.5084 115.265 48.8749 114.502C49.2456 113.735 49.7612 113.136 50.4217 112.706C51.0865 112.271 51.8621 112.054 52.7484 112.054C53.4388 112.054 54.0609 112.182 54.6149 112.438C55.1689 112.693 55.6227 113.051 55.9764 113.511C56.3301 113.972 56.5496 114.509 56.6348 115.122H55.1263C55.0112 114.675 54.7555 114.278 54.3592 113.933C53.9672 113.584 53.4388 113.409 52.774 113.409C52.1859 113.409 51.6703 113.562 51.2271 113.869C50.7882 114.172 50.4452 114.6 50.198 115.154C49.9551 115.704 49.8337 116.349 49.8337 117.091C49.8337 117.849 49.953 118.51 50.1916 119.072C50.4345 119.635 50.7754 120.072 51.2144 120.383C51.6575 120.694 52.1774 120.849 52.774 120.849C53.1661 120.849 53.5219 120.781 53.8415 120.645C54.1611 120.509 54.4317 120.312 54.6533 120.057C54.8749 119.801 55.0325 119.494 55.1263 119.136H56.6348C56.5496 119.716 56.3386 120.238 56.002 120.702C55.6696 121.163 55.2286 121.529 54.6788 121.802C54.1334 122.07 53.4984 122.205 52.774 122.205ZM60.3486 116.094V122H58.8401V108.909H60.3486V113.716H60.4764C60.7065 113.209 61.0517 112.806 61.5119 112.508C61.9764 112.205 62.5943 112.054 63.3656 112.054C64.0347 112.054 64.6206 112.188 65.1234 112.457C65.6263 112.721 66.0162 113.128 66.2932 113.678C66.5744 114.223 66.7151 114.918 66.7151 115.761V122H65.2065V115.864C65.2065 115.084 65.0041 114.481 64.5993 114.055C64.1987 113.624 63.6426 113.409 62.931 113.409C62.4367 113.409 61.9935 113.513 61.6014 113.722C61.2136 113.931 60.9068 114.236 60.681 114.636C60.4594 115.037 60.3486 115.523 60.3486 116.094ZM73.5913 122.205C72.6453 122.205 71.8292 121.996 71.1432 121.578C70.4613 121.156 69.9351 120.568 69.5643 119.814C69.1978 119.055 69.0146 118.173 69.0146 117.168C69.0146 116.162 69.1978 115.276 69.5643 114.509C69.9351 113.737 70.4507 113.136 71.1112 112.706C71.776 112.271 72.5515 112.054 73.4379 112.054C73.9493 112.054 74.4542 112.139 74.9528 112.31C75.4514 112.48 75.9052 112.757 76.3143 113.141C76.7234 113.52 77.0494 114.023 77.2923 114.649C77.5352 115.276 77.6566 116.047 77.6566 116.963V117.602H70.0885V116.298H76.1226C76.1226 115.744 76.0118 115.25 75.7902 114.815C75.5728 114.381 75.2618 114.038 74.8569 113.786C74.4564 113.535 73.9834 113.409 73.4379 113.409C72.837 113.409 72.3172 113.558 71.8782 113.857C71.4436 114.151 71.1091 114.534 70.8747 115.007C70.6403 115.48 70.5231 115.987 70.5231 116.528V117.398C70.5231 118.139 70.651 118.768 70.9066 119.283C71.1666 119.795 71.5267 120.185 71.9869 120.453C72.4471 120.717 72.9819 120.849 73.5913 120.849C73.9876 120.849 74.3456 120.794 74.6652 120.683C74.989 120.568 75.2682 120.398 75.5025 120.172C75.7369 119.942 75.918 119.656 76.0459 119.315L77.5032 119.724C77.3498 120.219 77.092 120.653 76.7298 121.028C76.3676 121.399 75.9201 121.689 75.3875 121.898C74.8548 122.102 74.2561 122.205 73.5913 122.205ZM83.6588 122.205C82.8406 122.205 82.1183 121.998 81.4919 121.585C80.8655 121.167 80.3754 120.579 80.0217 119.82C79.668 119.058 79.4912 118.156 79.4912 117.116C79.4912 116.085 79.668 115.19 80.0217 114.432C80.3754 113.673 80.8676 113.087 81.4983 112.674C82.129 112.261 82.8576 112.054 83.6843 112.054C84.3236 112.054 84.8285 112.161 85.1993 112.374C85.5743 112.582 85.8598 112.821 86.0558 113.089C86.2561 113.354 86.4116 113.571 86.5224 113.741H86.6503V108.909H88.1588V122H86.7014V120.491H86.5224C86.4116 120.67 86.254 120.896 86.0494 121.169C85.8449 121.437 85.553 121.678 85.1737 121.891C84.7944 122.1 84.2895 122.205 83.6588 122.205ZM83.8633 120.849C84.4684 120.849 84.9798 120.692 85.3974 120.376C85.815 120.057 86.1325 119.616 86.3498 119.053C86.5672 118.487 86.6758 117.832 86.6758 117.091C86.6758 116.358 86.5693 115.717 86.3562 115.167C86.1432 114.613 85.8278 114.183 85.4102 113.876C84.9926 113.565 84.477 113.409 83.8633 113.409C83.2241 113.409 82.6915 113.573 82.2653 113.901C81.8434 114.225 81.526 114.666 81.3129 115.224C81.1041 115.778 80.9997 116.401 80.9997 117.091C80.9997 117.79 81.1062 118.425 81.3193 118.996C81.5366 119.562 81.8562 120.014 82.2781 120.351C82.7042 120.683 83.2326 120.849 83.8633 120.849ZM97.3186 117.986V112.182H98.8271V122H97.3186V120.338H97.2163C96.9862 120.837 96.6282 121.261 96.1424 121.61C95.6567 121.955 95.043 122.128 94.3015 122.128C93.6879 122.128 93.1424 121.994 92.6652 121.725C92.1879 121.452 91.8129 121.043 91.5402 120.498C91.2674 119.948 91.1311 119.256 91.1311 118.42V112.182H92.6396V118.318C92.6396 119.034 92.8399 119.605 93.2405 120.031C93.6453 120.457 94.1609 120.67 94.7873 120.67C95.1623 120.67 95.5437 120.575 95.9315 120.383C96.3236 120.191 96.6517 119.897 96.9159 119.501C97.1843 119.104 97.3186 118.599 97.3186 117.986ZM103.098 108.909V122H101.59V108.909H103.098ZM109.978 122.205C109.032 122.205 108.216 121.996 107.529 121.578C106.848 121.156 106.321 120.568 105.951 119.814C105.584 119.055 105.401 118.173 105.401 117.168C105.401 116.162 105.584 115.276 105.951 114.509C106.321 113.737 106.837 113.136 107.498 112.706C108.162 112.271 108.938 112.054 109.824 112.054C110.336 112.054 110.841 112.139 111.339 112.31C111.838 112.48 112.292 112.757 112.701 113.141C113.11 113.52 113.436 114.023 113.679 114.649C113.922 115.276 114.043 116.047 114.043 116.963V117.602H106.475V116.298H112.509C112.509 115.744 112.398 115.25 112.176 114.815C111.959 114.381 111.648 114.038 111.243 113.786C110.843 113.535 110.37 113.409 109.824 113.409C109.223 113.409 108.703 113.558 108.265 113.857C107.83 114.151 107.495 114.534 107.261 115.007C107.027 115.48 106.909 115.987 106.909 116.528V117.398C106.909 118.139 107.037 118.768 107.293 119.283C107.553 119.795 107.913 120.185 108.373 120.453C108.833 120.717 109.368 120.849 109.978 120.849C110.374 120.849 110.732 120.794 111.051 120.683C111.375 120.568 111.654 120.398 111.889 120.172C112.123 119.942 112.304 119.656 112.432 119.315L113.89 119.724C113.736 120.219 113.478 120.653 113.116 121.028C112.754 121.399 112.306 121.689 111.774 121.898C111.241 122.102 110.642 122.205 109.978 122.205ZM117.437 122.102C117.122 122.102 116.851 121.989 116.625 121.763C116.4 121.538 116.287 121.267 116.287 120.952C116.287 120.636 116.4 120.366 116.625 120.14C116.851 119.914 117.122 119.801 117.437 119.801C117.752 119.801 118.023 119.914 118.249 120.14C118.475 120.366 118.588 120.636 118.588 120.952C118.588 121.161 118.534 121.352 118.428 121.527C118.326 121.702 118.187 121.842 118.012 121.949C117.842 122.051 117.65 122.102 117.437 122.102Z" fill="#2D3748"/>
<path d="M274.673 20.3308C274.445 20.1033 274.078 20.1033 273.85 20.3308L270.998 23.1774L268.145 20.3249C267.918 20.0974 267.55 20.0974 267.323 20.3249C267.095 20.5524 267.095 20.9199 267.323 21.1474L270.175 23.9999L267.323 26.8524C267.095 27.0799 267.095 27.4474 267.323 27.6749C267.55 27.9024 267.918 27.9024 268.145 27.6749L270.998 24.8224L273.85 27.6749C274.078 27.9024 274.445 27.9024 274.673 27.6749C274.9 27.4474 274.9 27.0799 274.673 26.8524L271.82 23.9999L274.673 21.1474C274.895 20.9258 274.895 20.5524 274.673 20.3308Z" fill="#323232"/>
</g>
<defs>
<filter id="filter0_d_4676_18997" x="-7.7828" y="-3.05994" width="334.36" height="229.024" filterUnits="userSpaceOnUse" color-interpolation-filters="sRGB">
<feFlood flood-opacity="0" result="BackgroundImageFix"/>
<feColorMatrix in="SourceAlpha" type="matrix" values="0 0 0 0 0 0 0 0 0 0 0 0 0 0 0 0 0 0 127 0" result="hardAlpha"/>
<feOffset dx="9.39704" dy="10.1199"/>
<feGaussianBlur stdDeviation="7.58992"/>
<feColorMatrix type="matrix" values="0 0 0 0 0.0375 0 0 0 0 0.18975 0 0 0 0 0.3 0 0 0 0.06 0"/>
<feBlend mode="normal" in2="BackgroundImageFix" result="effect1_dropShadow_4676_18997"/>
<feBlend mode="normal" in="SourceGraphic" in2="effect1_dropShadow_4676_18997" result="shape"/>
</filter>
<radialGradient id="paint0_radial_4676_18997" cx="0" cy="0" r="1" gradientUnits="userSpaceOnUse" gradientTransform="translate(1.71641 9.14379) rotate(33.5056) scale(353.368 520.549)">
<stop stop-color="#D8D8D8" stop-opacity="0"/>
<stop offset="1" stop-color="#D8D8D8"/>
</radialGradient>
<radialGradient id="paint1_radial_4676_18997" cx="0" cy="0" r="1" gradientUnits="userSpaceOnUse" gradientTransform="translate(3.15448 203.186) rotate(-33.4958) scale(351.604 517.336)">
<stop stop-color="#D8D8D8" stop-opacity="0"/>
<stop offset="1" stop-color="#D8D8D8"/>
</radialGradient>
<linearGradient id="paint2_linear_4676_18997" x1="4.59259" y1="8.63182" x2="296.638" y2="203.768" gradientUnits="userSpaceOnUse">
<stop stop-color="white" stop-opacity="0.9"/>
<stop offset="1" stop-color="white" stop-opacity="0"/>
</linearGradient>
<clipPath id="clip0_4676_18997">
<rect width="325" height="213" fill="white"/>
</clipPath>
</defs>
</svg>
