<svg width="287" height="182" viewBox="0 0 287 182" fill="none" xmlns="http://www.w3.org/2000/svg">
<g filter="url(#filter0_d_4325_19382)">
<path d="M225.274 8H32.5787C19.7345 8 9.32227 18.4122 9.32227 31.2564V119.116C9.32227 131.96 19.7345 142.372 32.5787 142.372H225.274C238.118 142.372 248.53 131.96 248.53 119.116V31.2564C248.53 18.4122 238.118 8 225.274 8Z" fill="#E2E8F0"/>
<path d="M65.9219 35.6912H71.145L74.7377 44.4466H74.9188L78.5116 35.6912H83.7346V51.149H79.6287V42.2125H79.5079L76.0661 51.0283H73.5904L70.1486 42.1521H70.0279V51.149H65.9219V35.6912ZM91.339 51.3604C90.1012 51.3604 89.0344 51.1239 88.1388 50.6509C87.2481 50.1728 86.5613 49.4885 86.0782 48.5979C85.6002 47.7022 85.3612 46.6304 85.3612 45.3825C85.3612 44.1849 85.6027 43.1383 86.0858 42.2426C86.5688 41.347 87.2507 40.6501 88.1312 40.1519C89.0118 39.6538 90.0509 39.4047 91.2485 39.4047C92.124 39.4047 92.9165 39.5405 93.626 39.8123C94.3355 40.084 94.9418 40.479 95.445 40.9973C95.9482 41.5105 96.3357 42.1345 96.6074 42.8691C96.8791 43.6038 97.015 44.4315 97.015 45.3523V46.3184H86.6594V44.0239H93.1807C93.1757 43.6918 93.0901 43.4 92.9241 43.1484C92.763 42.8918 92.5442 42.693 92.2674 42.5521C91.9957 42.4062 91.6862 42.3332 91.339 42.3332C91.0019 42.3332 90.6924 42.4062 90.4107 42.5521C90.1289 42.693 89.9024 42.8892 89.7314 43.1408C89.5653 43.3924 89.4772 43.6868 89.4672 44.0239V46.4996C89.4672 46.872 89.5452 47.2041 89.7012 47.4959C89.8572 47.7877 90.0811 48.0167 90.3729 48.1827C90.6648 48.3488 91.017 48.4318 91.4296 48.4318C91.7164 48.4318 91.9781 48.3916 92.2146 48.3111C92.4561 48.2306 92.6624 48.1148 92.8335 47.9639C93.0046 47.8079 93.1304 47.6217 93.2109 47.4053H97.015C96.8841 48.2104 96.5747 48.9099 96.0866 49.5036C95.5985 50.0923 94.9519 50.5502 94.1468 50.8773C93.3467 51.1993 92.4108 51.3604 91.339 51.3604ZM104.27 51.3604C103.033 51.3604 101.966 51.1239 101.07 50.6509C100.18 50.1728 99.4925 49.4885 99.0095 48.5979C98.5314 47.7022 98.2924 46.6304 98.2924 45.3825C98.2924 44.1849 98.534 43.1383 99.017 42.2426C99.5001 41.347 100.182 40.6501 101.063 40.1519C101.943 39.6538 102.982 39.4047 104.18 39.4047C105.055 39.4047 105.848 39.5405 106.557 39.8123C107.267 40.084 107.873 40.479 108.376 40.9973C108.88 41.5105 109.267 42.1345 109.539 42.8691C109.811 43.6038 109.946 44.4315 109.946 45.3523V46.3184H99.5906V44.0239H106.112C106.107 43.6918 106.022 43.4 105.855 43.1484C105.694 42.8918 105.476 42.693 105.199 42.5521C104.927 42.4062 104.618 42.3332 104.27 42.3332C103.933 42.3332 103.624 42.4062 103.342 42.5521C103.06 42.693 102.834 42.8892 102.663 43.1408C102.497 43.3924 102.409 43.6868 102.399 44.0239V46.4996C102.399 46.872 102.477 47.2041 102.633 47.4959C102.789 47.7877 103.013 48.0167 103.304 48.1827C103.596 48.3488 103.948 48.4318 104.361 48.4318C104.648 48.4318 104.91 48.3916 105.146 48.3111C105.388 48.2306 105.594 48.1148 105.765 47.9639C105.936 47.8079 106.062 47.6217 106.142 47.4053H109.946C109.816 48.2104 109.506 48.9099 109.018 49.5036C108.53 50.0923 107.883 50.5502 107.078 50.8773C106.278 51.1993 105.342 51.3604 104.27 51.3604ZM118.56 39.5556V42.5747H110.922V39.5556H118.56ZM112.401 36.7781H116.568V47.4204C116.568 47.5814 116.595 47.7173 116.651 47.828C116.706 47.9337 116.792 48.0142 116.907 48.0695C117.023 48.1199 117.172 48.145 117.353 48.145C117.478 48.145 117.624 48.1299 117.79 48.0997C117.962 48.0695 118.087 48.0444 118.168 48.0242L118.772 50.9528C118.585 51.0081 118.319 51.0761 117.972 51.1566C117.629 51.2371 117.222 51.2899 116.749 51.3151C115.793 51.3654 114.99 51.2673 114.341 51.0207C113.692 50.7691 113.204 50.3741 112.877 49.8357C112.55 49.2973 112.391 48.623 112.401 47.8129V36.7781ZM138.866 41.4879H134.609C134.579 41.1356 134.498 40.8161 134.367 40.5293C134.241 40.2425 134.065 39.9959 133.839 39.7896C133.617 39.5783 133.348 39.4173 133.031 39.3066C132.714 39.1908 132.354 39.133 131.952 39.133C131.247 39.133 130.651 39.304 130.163 39.6462C129.68 39.9884 129.313 40.479 129.061 41.118C128.815 41.7571 128.691 42.5244 128.691 43.4201C128.691 44.3661 128.817 45.1586 129.069 45.7977C129.325 46.4317 129.695 46.9097 130.178 47.2317C130.661 47.5487 131.242 47.7072 131.922 47.7072C132.309 47.7072 132.656 47.6594 132.963 47.5638C133.27 47.4632 133.537 47.3198 133.763 47.1336C133.99 46.9474 134.174 46.7235 134.314 46.4619C134.46 46.1952 134.558 45.8958 134.609 45.5637L138.866 45.5939C138.815 46.248 138.632 46.9147 138.315 47.594C137.998 48.2683 137.547 48.8922 136.964 49.4659C136.385 50.0345 135.668 50.4924 134.813 50.8396C133.957 51.1868 132.963 51.3604 131.831 51.3604C130.412 51.3604 129.139 51.0559 128.012 50.4471C126.89 49.8382 126.002 48.9426 125.348 47.7601C124.699 46.5776 124.374 45.1309 124.374 43.4201C124.374 41.6992 124.706 40.25 125.37 39.0726C126.034 37.8901 126.93 36.9969 128.057 36.3931C129.184 35.7843 130.442 35.4798 131.831 35.4798C132.807 35.4798 133.706 35.6132 134.526 35.8799C135.346 36.1466 136.065 36.5365 136.684 37.0498C137.303 37.558 137.801 38.1845 138.179 38.9292C138.556 39.6739 138.785 40.5268 138.866 41.4879ZM140.83 51.149V39.5556H144.996V51.149H140.83ZM142.913 38.348C142.35 38.348 141.867 38.1618 141.464 37.7895C141.061 37.4171 140.86 36.9693 140.86 36.446C140.86 35.9226 141.061 35.4748 141.464 35.1024C141.867 34.7301 142.35 34.5439 142.913 34.5439C143.482 34.5439 143.965 34.7301 144.362 35.1024C144.765 35.4748 144.966 35.9226 144.966 36.446C144.966 36.9693 144.765 37.4171 144.362 37.7895C143.965 38.1618 143.482 38.348 142.913 38.348ZM151.286 44.6277V51.149H147.119V39.5556H151.074V41.7596H151.195C151.447 41.0249 151.889 40.4488 152.523 40.0311C153.162 39.6135 153.907 39.4047 154.758 39.4047C155.578 39.4047 156.29 39.5934 156.894 39.9708C157.502 40.3431 157.973 40.8564 158.305 41.5105C158.642 42.1647 158.808 42.9119 158.803 43.7522V51.149H154.637V44.6277C154.642 44.0541 154.496 43.6038 154.199 43.2767C153.907 42.9496 153.5 42.7861 152.976 42.7861C152.634 42.7861 152.335 42.8616 152.078 43.0125C151.827 43.1584 151.633 43.3698 151.497 43.6465C151.361 43.9183 151.291 44.2453 151.286 44.6277ZM165.056 51.3C164.231 51.3 163.471 51.0836 162.777 50.6509C162.088 50.2181 161.534 49.5615 161.117 48.6809C160.704 47.8003 160.498 46.6908 160.498 45.3523C160.498 43.9535 160.714 42.8163 161.147 41.9407C161.585 41.0652 162.148 40.4236 162.837 40.0161C163.532 39.6085 164.261 39.4047 165.026 39.4047C165.6 39.4047 166.103 39.5053 166.536 39.7066C166.969 39.9028 167.331 40.167 167.623 40.4991C167.915 40.8262 168.136 41.186 168.287 41.5784H168.347V35.6912H172.514V51.149H168.378V49.247H168.287C168.126 49.6395 167.894 49.9917 167.593 50.3037C167.296 50.6106 166.933 50.8547 166.506 51.0358C166.083 51.2119 165.6 51.3 165.056 51.3ZM166.596 48.0997C166.979 48.0997 167.306 47.989 167.577 47.7676C167.854 47.5412 168.066 47.2242 168.211 46.8166C168.362 46.404 168.438 45.9159 168.438 45.3523C168.438 44.7787 168.362 44.2881 168.211 43.8805C168.066 43.4679 167.854 43.1534 167.577 42.937C167.306 42.7156 166.979 42.6049 166.596 42.6049C166.214 42.6049 165.887 42.7156 165.615 42.937C165.348 43.1534 165.142 43.4679 164.996 43.8805C164.855 44.2881 164.785 44.7787 164.785 45.3523C164.785 45.926 164.855 46.4191 164.996 46.8317C165.142 47.2393 165.348 47.5538 165.615 47.7752C165.887 47.9915 166.214 48.0997 166.596 48.0997ZM177.095 55.4965C176.617 55.4965 176.162 55.4588 175.729 55.3833C175.296 55.3129 174.916 55.2148 174.589 55.089L175.495 52.1302C175.837 52.251 176.149 52.329 176.431 52.3642C176.718 52.3994 176.962 52.3793 177.163 52.3038C177.369 52.2284 177.518 52.085 177.608 51.8736L177.699 51.6623L173.623 39.5556H177.971L179.843 47.5865H179.963L181.865 39.5556H186.243L182.016 52.1151C181.805 52.7542 181.498 53.3278 181.096 53.836C180.698 54.3493 180.175 54.7543 179.526 55.0512C178.876 55.3481 178.066 55.4965 177.095 55.4965ZM190.747 49.0356L190.687 49.881C190.637 50.6056 190.516 51.3 190.325 51.9642C190.138 52.6284 189.94 53.2171 189.728 53.7304C189.522 54.2436 189.358 54.6411 189.238 54.9229H186.671C186.752 54.6411 186.865 54.2336 187.011 53.7002C187.162 53.1718 187.298 52.573 187.419 51.9038C187.544 51.2396 187.607 50.5653 187.607 49.881V49.0356H190.747Z" fill="#323230"/>
<path d="M74.55 79.7729H72.868C72.8033 79.4134 72.6829 79.0971 72.5067 78.824C72.3306 78.5508 72.115 78.319 71.8598 78.1285C71.6046 77.938 71.3189 77.7943 71.0026 77.6972C70.6899 77.6002 70.3574 77.5516 70.0052 77.5516C69.369 77.5516 68.7993 77.7116 68.2962 78.0315C67.7966 78.3514 67.4012 78.8204 67.1101 79.4386C66.8225 80.0568 66.6788 80.8116 66.6788 81.7029C66.6788 82.6015 66.8225 83.3598 67.1101 83.978C67.4012 84.5962 67.7984 85.0635 68.3015 85.3798C68.8047 85.6961 69.3708 85.8542 69.9998 85.8542C70.3484 85.8542 70.6791 85.8075 70.9918 85.714C71.3081 85.617 71.5938 85.475 71.849 85.2881C72.1042 85.1012 72.3198 84.873 72.496 84.6034C72.6757 84.3303 72.7997 84.0176 72.868 83.6654L74.55 83.6707C74.4602 84.2135 74.2859 84.7131 74.0271 85.1695C73.7719 85.6224 73.443 86.0141 73.0405 86.3448C72.6415 86.6719 72.1851 86.9253 71.6711 87.105C71.1571 87.2847 70.5964 87.3745 69.989 87.3745C69.033 87.3745 68.1811 87.1481 67.4336 86.6952C66.686 86.2388 66.0965 85.5864 65.6652 84.7382C65.2375 83.89 65.0237 82.8782 65.0237 81.7029C65.0237 80.524 65.2393 79.5123 65.6706 78.6676C66.1019 77.8194 66.6914 77.1689 67.4389 76.716C68.1865 76.2595 69.0366 76.0313 69.989 76.0313C70.5749 76.0313 71.1212 76.1158 71.628 76.2847C72.1383 76.45 72.5966 76.6944 73.0027 77.0179C73.4089 77.3378 73.7449 77.7296 74.0109 78.1932C74.2769 78.6533 74.4566 79.1798 74.55 79.7729ZM76.4141 87.2236V78.9426H78.0261V87.2236H76.4141ZM77.2281 77.6649C76.9478 77.6649 76.707 77.5714 76.5057 77.3845C76.308 77.194 76.2092 76.9676 76.2092 76.7052C76.2092 76.4393 76.308 76.2128 76.5057 76.0259C76.707 75.8354 76.9478 75.7402 77.2281 75.7402C77.5085 75.7402 77.7475 75.8354 77.9452 76.0259C78.1465 76.2128 78.2471 76.4393 78.2471 76.7052C78.2471 76.9676 78.1465 77.194 77.9452 77.3845C77.7475 77.5714 77.5085 77.6649 77.2281 77.6649ZM81.8067 82.3067V87.2236H80.1947V78.9426H81.742V80.2904H81.8444C82.0349 79.8519 82.3332 79.4997 82.7394 79.2337C83.1491 78.9678 83.6649 78.8348 84.2867 78.8348C84.8509 78.8348 85.3451 78.9534 85.7693 79.1906C86.1934 79.4242 86.5222 79.7729 86.7559 80.2365C86.9895 80.7002 87.1063 81.2734 87.1063 81.9563V87.2236H85.4943V82.1504C85.4943 81.5502 85.338 81.0811 85.0253 80.7433C84.7126 80.4018 84.2831 80.2311 83.7368 80.2311C83.363 80.2311 83.0305 80.312 82.7394 80.4737C82.4518 80.6355 82.2236 80.8727 82.0547 81.1854C81.8893 81.4945 81.8067 81.8683 81.8067 82.3067ZM92.3682 87.3853C91.6997 87.3853 91.103 87.2146 90.5783 86.8732C90.0571 86.5281 89.6474 86.0375 89.3491 85.4013C89.0543 84.7616 88.907 83.9942 88.907 83.0993C88.907 82.2043 89.0561 81.4388 89.3545 80.8026C89.6564 80.1664 90.0697 79.6794 90.5945 79.3416C91.1192 79.0037 91.714 78.8348 92.379 78.8348C92.8929 78.8348 93.3063 78.921 93.619 79.0936C93.9352 79.2625 94.1796 79.4602 94.3522 79.6866C94.5283 79.913 94.6649 80.1125 94.7619 80.285H94.8589V76.1823H96.4709V87.2236H94.8967V85.9351H94.7619C94.6649 86.1112 94.5247 86.3125 94.3414 86.5389C94.1617 86.7653 93.9137 86.963 93.5974 87.1319C93.2811 87.3009 92.8714 87.3853 92.3682 87.3853ZM92.724 86.0106C93.1877 86.0106 93.5794 85.8884 93.8993 85.6439C94.2228 85.3959 94.4672 85.0527 94.6325 84.6142C94.8014 84.1757 94.8859 83.6653 94.8859 83.0831C94.8859 82.508 94.8032 82.0048 94.6379 81.5735C94.4726 81.1422 94.23 80.8062 93.9101 80.5654C93.5902 80.3246 93.1948 80.2042 92.724 80.2042C92.2388 80.2042 91.8344 80.33 91.511 80.5815C91.1875 80.8331 90.9431 81.1764 90.7778 81.6113C90.616 82.0462 90.5351 82.5368 90.5351 83.0831C90.5351 83.6366 90.6178 84.1344 90.7831 84.5765C90.9485 85.0186 91.1929 85.369 91.5164 85.6278C91.8434 85.883 92.246 86.0106 92.724 86.0106ZM99.7906 90.329C99.5498 90.329 99.3306 90.3092 99.1329 90.2697C98.9352 90.2337 98.7878 90.1942 98.6908 90.151L99.079 88.8302C99.3737 88.9093 99.6361 88.9434 99.8661 88.9326C100.097 88.9218 100.3 88.8356 100.476 88.6738C100.655 88.5121 100.814 88.2479 100.95 87.8813L101.15 87.3314L98.1193 78.9426H99.8445L101.942 85.369H102.028L104.126 78.9426H105.856L102.444 88.3288C102.285 88.7601 102.084 89.1249 101.84 89.4232C101.595 89.7251 101.304 89.9516 100.966 90.1025C100.628 90.2535 100.237 90.329 99.7906 90.329ZM109.276 76.1823V77.2174C109.276 77.5229 109.218 77.8446 109.103 78.1824C108.992 78.5167 108.834 78.8384 108.629 79.1475C108.424 79.4566 108.183 79.7225 107.906 79.9454L107.108 79.3739C107.32 79.0648 107.504 78.7359 107.658 78.3873C107.816 78.0387 107.895 77.6541 107.895 77.2336V76.1823H109.276ZM115.993 80.9643L114.532 81.2231C114.471 81.0362 114.374 80.8583 114.241 80.6894C114.112 80.5204 113.935 80.3821 113.713 80.2742C113.49 80.1664 113.211 80.1125 112.877 80.1125C112.421 80.1125 112.04 80.2149 111.734 80.4198C111.429 80.6211 111.276 80.8817 111.276 81.2015C111.276 81.4783 111.378 81.7011 111.583 81.8701C111.788 82.039 112.119 82.1774 112.575 82.2852L113.891 82.5871C114.652 82.7632 115.22 83.0346 115.594 83.4012C115.968 83.7678 116.155 84.244 116.155 84.8299C116.155 85.3259 116.011 85.7679 115.724 86.1561C115.44 86.5407 115.042 86.8426 114.532 87.0619C114.025 87.2811 113.438 87.3907 112.769 87.3907C111.842 87.3907 111.085 87.193 110.499 86.7977C109.914 86.3987 109.554 85.8326 109.421 85.0994L110.979 84.8622C111.076 85.2684 111.276 85.5757 111.578 85.7841C111.88 85.989 112.273 86.0914 112.758 86.0914C113.287 86.0914 113.709 85.9818 114.025 85.7626C114.342 85.5397 114.5 85.2684 114.5 84.9485C114.5 84.6897 114.403 84.4722 114.209 84.2961C114.018 84.12 113.725 83.987 113.33 83.8972L111.928 83.5899C111.155 83.4138 110.584 83.1334 110.214 82.7488C109.847 82.3643 109.664 81.8772 109.664 81.2878C109.664 80.799 109.8 80.3713 110.074 80.0047C110.347 79.6381 110.724 79.3523 111.206 79.1475C111.687 78.939 112.239 78.8348 112.861 78.8348C113.756 78.8348 114.46 79.0289 114.974 79.417C115.488 79.8016 115.828 80.3174 115.993 80.9643ZM123.557 82.3067V87.2236H121.945V76.1823H123.536V80.2904H123.638C123.832 79.8447 124.129 79.4907 124.528 79.2283C124.926 78.966 125.448 78.8348 126.091 78.8348C126.659 78.8348 127.155 78.9516 127.579 79.1852C128.007 79.4188 128.337 79.7675 128.571 80.2311C128.808 80.6912 128.927 81.2662 128.927 81.9563V87.2236H127.315V82.1504C127.315 81.543 127.158 81.0721 126.846 80.7379C126.533 80.4 126.098 80.2311 125.541 80.2311C125.16 80.2311 124.819 80.312 124.517 80.4737C124.218 80.6355 123.983 80.8727 123.81 81.1854C123.642 81.4945 123.557 81.8683 123.557 82.3067ZM134.647 87.3907C133.831 87.3907 133.128 87.2164 132.539 86.8678C131.953 86.5155 131.5 86.0213 131.18 85.3852C130.864 84.7454 130.706 83.996 130.706 83.137C130.706 82.2888 130.864 81.5412 131.18 80.8942C131.5 80.2473 131.946 79.7423 132.517 79.3793C133.092 79.0163 133.765 78.8348 134.534 78.8348C135.001 78.8348 135.454 78.912 135.892 79.0666C136.331 79.2211 136.724 79.4638 137.073 79.7944C137.422 80.1251 137.697 80.5546 137.898 81.0829C138.099 81.6077 138.2 82.2456 138.2 82.9968V83.5683H131.617V82.3607H136.62C136.62 81.9365 136.534 81.561 136.361 81.2339C136.189 80.9032 135.946 80.6426 135.634 80.4522C135.324 80.2617 134.961 80.1664 134.544 80.1664C134.092 80.1664 133.696 80.2778 133.358 80.5007C133.024 80.7199 132.765 81.0075 132.582 81.3633C132.402 81.7155 132.313 82.0983 132.313 82.5116V83.4551C132.313 84.0086 132.41 84.4794 132.604 84.8676C132.801 85.2558 133.076 85.5523 133.428 85.7572C133.781 85.9584 134.192 86.0591 134.663 86.0591C134.969 86.0591 135.247 86.0159 135.499 85.9297C135.75 85.8398 135.968 85.7068 136.151 85.5307C136.334 85.3546 136.475 85.1372 136.572 84.8784L138.097 85.1533C137.975 85.6026 137.756 85.9962 137.44 86.334C137.127 86.6683 136.733 86.9289 136.259 87.1158C135.788 87.2991 135.251 87.3907 134.647 87.3907ZM139.988 87.2236V78.9426H141.546V80.2581H141.633C141.784 79.8124 142.05 79.462 142.431 79.2068C142.815 78.948 143.25 78.8186 143.735 78.8186C143.836 78.8186 143.955 78.8222 144.091 78.8294C144.231 78.8366 144.341 78.8456 144.42 78.8563V80.3982C144.355 80.3803 144.24 80.3605 144.075 80.3389C143.91 80.3138 143.744 80.3012 143.579 80.3012C143.198 80.3012 142.858 80.3821 142.56 80.5438C142.265 80.7019 142.032 80.923 141.859 81.2069C141.687 81.4873 141.6 81.8072 141.6 82.1666V87.2236H139.988ZM149.087 87.3907C148.272 87.3907 147.569 87.2164 146.979 86.8678C146.394 86.5155 145.941 86.0213 145.621 85.3852C145.305 84.7454 145.146 83.996 145.146 83.137C145.146 82.2888 145.305 81.5412 145.621 80.8942C145.941 80.2473 146.386 79.7423 146.958 79.3793C147.533 79.0163 148.205 78.8348 148.974 78.8348C149.441 78.8348 149.894 78.912 150.333 79.0666C150.771 79.2211 151.165 79.4638 151.514 79.7944C151.862 80.1251 152.137 80.5546 152.338 81.0829C152.54 81.6077 152.64 82.2456 152.64 82.9968V83.5683H146.058V82.3607H151.061C151.061 81.9365 150.974 81.561 150.802 81.2339C150.629 80.9032 150.387 80.6426 150.074 80.4522C149.765 80.2617 149.402 80.1664 148.985 80.1664C148.532 80.1664 148.137 80.2778 147.799 80.5007C147.465 80.7199 147.206 81.0075 147.023 81.3633C146.843 81.7155 146.753 82.0983 146.753 82.5116V83.4551C146.753 84.0086 146.85 84.4794 147.044 84.8676C147.242 85.2558 147.517 85.5523 147.869 85.7572C148.221 85.9584 148.633 86.0591 149.104 86.0591C149.409 86.0591 149.688 86.0159 149.939 85.9297C150.191 85.8398 150.408 85.7068 150.592 85.5307C150.775 85.3546 150.915 85.1372 151.012 84.8784L152.538 85.1533C152.416 85.6026 152.196 85.9962 151.88 86.334C151.567 86.6683 151.174 86.9289 150.699 87.1158C150.229 87.2991 149.691 87.3907 149.087 87.3907ZM162.312 78.9426V80.2365H157.789V78.9426H162.312ZM159.002 76.9586H160.614V84.7921C160.614 85.1048 160.661 85.3402 160.754 85.4984C160.848 85.6529 160.968 85.759 161.115 85.8165C161.266 85.8704 161.43 85.8973 161.606 85.8973C161.735 85.8973 161.849 85.8884 161.946 85.8704C162.043 85.8524 162.118 85.838 162.172 85.8272L162.463 87.1589C162.37 87.1948 162.237 87.2308 162.064 87.2667C161.892 87.3063 161.676 87.3278 161.417 87.3314C160.993 87.3386 160.598 87.2631 160.231 87.105C159.865 86.9468 159.568 86.7024 159.342 86.3718C159.115 86.0411 159.002 85.626 159.002 85.1264V76.9586ZM164.095 87.2236V78.9426H165.653V80.2581H165.74C165.891 79.8124 166.157 79.462 166.538 79.2068C166.922 78.948 167.357 78.8186 167.842 78.8186C167.943 78.8186 168.062 78.8222 168.198 78.8294C168.338 78.8366 168.448 78.8456 168.527 78.8563V80.3982C168.462 80.3803 168.347 80.3605 168.182 80.3389C168.017 80.3138 167.851 80.3012 167.686 80.3012C167.305 80.3012 166.965 80.3821 166.667 80.5438C166.372 80.7019 166.139 80.923 165.966 81.2069C165.794 81.4873 165.707 81.8072 165.707 82.1666V87.2236H164.095ZM169.922 87.2236V78.9426H171.534V87.2236H169.922ZM170.736 77.6649C170.456 77.6649 170.215 77.5714 170.014 77.3845C169.816 77.194 169.717 76.9676 169.717 76.7052C169.717 76.4393 169.816 76.2128 170.014 76.0259C170.215 75.8354 170.456 75.7402 170.736 75.7402C171.016 75.7402 171.255 75.8354 171.453 76.0259C171.654 76.2128 171.755 76.4393 171.755 76.7052C171.755 76.9676 171.654 77.194 171.453 77.3845C171.255 77.5714 171.016 77.6649 170.736 77.6649ZM177.272 87.3907C176.456 87.3907 175.753 87.2164 175.164 86.8678C174.578 86.5155 174.125 86.0213 173.805 85.3852C173.489 84.7454 173.331 83.996 173.331 83.137C173.331 82.2888 173.489 81.5412 173.805 80.8942C174.125 80.2473 174.571 79.7423 175.142 79.3793C175.717 79.0163 176.389 78.8348 177.158 78.8348C177.626 78.8348 178.079 78.912 178.517 79.0666C178.956 79.2211 179.349 79.4638 179.698 79.7944C180.046 80.1251 180.321 80.5546 180.523 81.0829C180.724 81.6077 180.825 82.2456 180.825 82.9968V83.5683H174.242V82.3607H179.245C179.245 81.9365 179.159 81.561 178.986 81.2339C178.814 80.9032 178.571 80.6426 178.258 80.4522C177.949 80.2617 177.586 80.1664 177.169 80.1664C176.716 80.1664 176.321 80.2778 175.983 80.5007C175.649 80.7199 175.39 81.0075 175.207 81.3633C175.027 81.7155 174.937 82.0983 174.937 82.5116V83.4551C174.937 84.0086 175.034 84.4794 175.228 84.8676C175.426 85.2558 175.701 85.5523 176.053 85.7572C176.405 85.9584 176.817 86.0591 177.288 86.0591C177.593 86.0591 177.872 86.0159 178.123 85.9297C178.375 85.8398 178.593 85.7068 178.776 85.5307C178.959 85.3546 179.099 85.1372 179.196 84.8784L180.722 85.1533C180.6 85.6026 180.381 85.9962 180.064 86.334C179.752 86.6683 179.358 86.9289 178.884 87.1158C178.413 87.2991 177.875 87.3907 177.272 87.3907ZM188.818 80.9643L187.357 81.2231C187.296 81.0362 187.199 80.8583 187.066 80.6894C186.937 80.5204 186.761 80.3821 186.538 80.2742C186.315 80.1664 186.037 80.1125 185.702 80.1125C185.246 80.1125 184.865 80.2149 184.559 80.4198C184.254 80.6211 184.101 80.8817 184.101 81.2015C184.101 81.4783 184.203 81.7011 184.408 81.8701C184.613 82.039 184.944 82.1774 185.4 82.2852L186.716 82.5871C187.478 82.7632 188.046 83.0346 188.419 83.4012C188.793 83.7678 188.98 84.244 188.98 84.8299C188.98 85.3259 188.836 85.7679 188.549 86.1561C188.265 86.5407 187.868 86.8426 187.357 87.0619C186.851 87.2811 186.263 87.3907 185.594 87.3907C184.667 87.3907 183.911 87.193 183.325 86.7977C182.739 86.3987 182.379 85.8326 182.246 85.0994L183.805 84.8622C183.902 85.2684 184.101 85.5757 184.403 85.7841C184.705 85.989 185.098 86.0914 185.584 86.0914C186.112 86.0914 186.534 85.9818 186.851 85.7626C187.167 85.5397 187.325 85.2684 187.325 84.9485C187.325 84.6897 187.228 84.4722 187.034 84.2961C186.843 84.12 186.55 83.987 186.155 83.8972L184.753 83.5899C183.981 83.4138 183.409 83.1334 183.039 82.7488C182.672 82.3643 182.489 81.8772 182.489 81.2878C182.489 80.799 182.626 80.3713 182.899 80.0047C183.172 79.6381 183.549 79.3523 184.031 79.1475C184.513 78.939 185.064 78.8348 185.686 78.8348C186.581 78.8348 187.285 79.0289 187.799 79.417C188.313 79.8016 188.653 80.3174 188.818 80.9643ZM53.578 104.942V106.236H49.0547V104.942H53.578ZM50.2677 102.958H51.8797V110.792C51.8797 111.105 51.9265 111.34 52.0199 111.498C52.1134 111.653 52.2338 111.759 52.3811 111.816C52.5321 111.87 52.6956 111.897 52.8717 111.897C53.0011 111.897 53.1143 111.888 53.2114 111.87C53.3084 111.852 53.3839 111.838 53.4378 111.827L53.7289 113.159C53.6355 113.195 53.5025 113.231 53.33 113.267C53.1575 113.306 52.9418 113.328 52.683 113.331C52.2589 113.338 51.8636 113.263 51.497 113.105C51.1303 112.947 50.8338 112.702 50.6074 112.372C50.381 112.041 50.2677 111.626 50.2677 111.126V102.958ZM58.7603 113.391C57.984 113.391 57.3065 113.213 56.7278 112.857C56.1492 112.501 55.6999 112.003 55.38 111.363C55.0601 110.724 54.9002 109.976 54.9002 109.121C54.9002 108.262 55.0601 107.51 55.38 106.867C55.6999 106.224 56.1492 105.724 56.7278 105.368C57.3065 105.012 57.984 104.835 58.7603 104.835C59.5367 104.835 60.2142 105.012 60.7929 105.368C61.3715 105.724 61.8208 106.224 62.1407 106.867C62.4606 107.51 62.6205 108.262 62.6205 109.121C62.6205 109.976 62.4606 110.724 62.1407 111.363C61.8208 112.003 61.3715 112.501 60.7929 112.857C60.2142 113.213 59.5367 113.391 58.7603 113.391ZM58.7657 112.037C59.2689 112.037 59.6858 111.904 60.0165 111.638C60.3472 111.372 60.5916 111.018 60.7497 110.576C60.9115 110.134 60.9923 109.647 60.9923 109.115C60.9923 108.587 60.9115 108.102 60.7497 107.66C60.5916 107.214 60.3472 106.856 60.0165 106.587C59.6858 106.317 59.2689 106.182 58.7657 106.182C58.259 106.182 57.8384 106.317 57.5042 106.587C57.1735 106.856 56.9273 107.214 56.7656 107.66C56.6074 108.102 56.5284 108.587 56.5284 109.115C56.5284 109.647 56.6074 110.134 56.7656 110.576C56.9273 111.018 57.1735 111.372 57.5042 111.638C57.8384 111.904 58.259 112.037 58.7657 112.037ZM70.8476 113.407C70.3228 113.407 69.8484 113.31 69.4243 113.116C69.0002 112.918 68.6641 112.632 68.4161 112.258C68.1717 111.885 68.0495 111.426 68.0495 110.884C68.0495 110.416 68.1394 110.032 68.3191 109.73C68.4988 109.428 68.7414 109.189 69.0469 109.013C69.3524 108.837 69.6938 108.704 70.0712 108.614C70.4486 108.524 70.8332 108.456 71.225 108.409C71.721 108.351 72.1235 108.305 72.4326 108.269C72.7417 108.229 72.9663 108.166 73.1065 108.08C73.2467 107.994 73.3168 107.854 73.3168 107.66V107.622C73.3168 107.151 73.1838 106.786 72.9178 106.527C72.6554 106.269 72.2637 106.139 71.7425 106.139C71.1998 106.139 70.7721 106.26 70.4594 106.5C70.1503 106.738 69.9364 107.002 69.8178 107.293L68.3029 106.948C68.4826 106.445 68.745 106.039 69.09 105.73C69.4387 105.417 69.8394 105.19 70.2923 105.05C70.7451 104.906 71.2214 104.835 71.721 104.835C72.0516 104.835 72.4021 104.874 72.7723 104.953C73.146 105.029 73.4947 105.169 73.8182 105.374C74.1452 105.579 74.413 105.871 74.6215 106.252C74.8299 106.63 74.9342 107.12 74.9342 107.724V113.223H73.3599V112.091H73.2952C73.191 112.3 73.0346 112.505 72.8262 112.706C72.6177 112.907 72.3499 113.074 72.0229 113.207C71.6958 113.34 71.304 113.407 70.8476 113.407ZM71.198 112.113C71.6437 112.113 72.0247 112.025 72.341 111.849C72.6608 111.672 72.9034 111.442 73.0688 111.159C73.2377 110.871 73.3222 110.564 73.3222 110.237V109.169C73.2647 109.227 73.1532 109.281 72.9879 109.331C72.8262 109.378 72.6411 109.419 72.4326 109.455C72.2241 109.487 72.0211 109.518 71.8234 109.547C71.6257 109.572 71.4604 109.593 71.3274 109.611C71.0147 109.651 70.729 109.717 70.4702 109.811C70.215 109.904 70.0101 110.039 69.8556 110.215C69.7046 110.388 69.6291 110.618 69.6291 110.905C69.6291 111.304 69.7765 111.606 70.0712 111.811C70.366 112.012 70.7415 112.113 71.198 112.113ZM77.0812 116.329V104.942H78.6555V106.285H78.7903C78.8837 106.112 79.0185 105.913 79.1946 105.686C79.3707 105.46 79.6151 105.262 79.9278 105.093C80.2405 104.921 80.6538 104.835 81.1678 104.835C81.8363 104.835 82.433 105.003 82.9577 105.341C83.4825 105.679 83.894 106.166 84.1923 106.802C84.4942 107.439 84.6452 108.204 84.6452 109.099C84.6452 109.994 84.496 110.761 84.1977 111.401C83.8994 112.037 83.4897 112.528 82.9685 112.873C82.4473 113.214 81.8525 113.385 81.184 113.385C80.6808 113.385 80.2693 113.301 79.9494 113.132C79.6331 112.963 79.3851 112.765 79.2054 112.539C79.0257 112.312 78.8873 112.111 78.7903 111.935H78.6932V116.329H77.0812ZM78.6609 109.083C78.6609 109.665 78.7453 110.176 78.9143 110.614C79.0832 111.053 79.3276 111.396 79.6475 111.644C79.9674 111.888 80.3591 112.01 80.8228 112.01C81.3044 112.01 81.7069 111.883 82.0304 111.628C82.3539 111.369 82.5983 111.018 82.7636 110.576C82.9326 110.134 83.017 109.636 83.017 109.083C83.017 108.537 82.9344 108.046 82.769 107.611C82.6073 107.176 82.3629 106.833 82.0358 106.581C81.7123 106.33 81.308 106.204 80.8228 106.204C80.3555 106.204 79.9602 106.324 79.6367 106.565C79.3168 106.806 79.0742 107.142 78.9089 107.573C78.7435 108.005 78.6609 108.508 78.6609 109.083ZM86.4513 116.329V104.942H88.0255V106.285H88.1603C88.2537 106.112 88.3885 105.913 88.5646 105.686C88.7408 105.46 88.9852 105.262 89.2978 105.093C89.6105 104.921 90.0239 104.835 90.5378 104.835C91.2064 104.835 91.803 105.003 92.3277 105.341C92.8525 105.679 93.264 106.166 93.5623 106.802C93.8643 107.439 94.0152 108.204 94.0152 109.099C94.0152 109.994 93.8661 110.761 93.5677 111.401C93.2694 112.037 92.8597 112.528 92.3385 112.873C91.8174 113.214 91.2225 113.385 90.554 113.385C90.0508 113.385 89.6393 113.301 89.3194 113.132C89.0031 112.963 88.7551 112.765 88.5754 112.539C88.3957 112.312 88.2573 112.111 88.1603 111.935H88.0632V116.329H86.4513ZM88.0309 109.083C88.0309 109.665 88.1154 110.176 88.2843 110.614C88.4532 111.053 88.6976 111.396 89.0175 111.644C89.3374 111.888 89.7292 112.01 90.1928 112.01C90.6744 112.01 91.077 111.883 91.4004 111.628C91.7239 111.369 91.9683 111.018 92.1337 110.576C92.3026 110.134 92.387 109.636 92.387 109.083C92.387 108.537 92.3044 108.046 92.139 107.611C91.9773 107.176 91.7329 106.833 91.4058 106.581C91.0824 106.33 90.678 106.204 90.1928 106.204C89.7256 106.204 89.3302 106.324 89.0067 106.565C88.6868 106.806 88.4442 107.142 88.2789 107.573C88.1136 108.005 88.0309 108.508 88.0309 109.083ZM97.4333 102.182V113.223H95.8213V102.182H97.4333ZM100.621 116.329C100.38 116.329 100.161 116.309 99.9631 116.269C99.7654 116.234 99.6181 116.194 99.521 116.151L99.9092 114.83C100.204 114.909 100.467 114.943 100.697 114.932C100.927 114.922 101.13 114.835 101.306 114.674C101.486 114.512 101.644 114.248 101.78 113.881L101.98 113.331L98.9496 104.942H100.675L102.772 111.369H102.859L104.956 104.942H106.686L103.274 114.329C103.116 114.76 102.914 115.125 102.67 115.423C102.426 115.725 102.134 115.951 101.797 116.102C101.459 116.253 101.067 116.329 100.621 116.329ZM114.629 113.407C114.104 113.407 113.63 113.31 113.206 113.116C112.782 112.918 112.446 112.632 112.198 112.258C111.953 111.885 111.831 111.426 111.831 110.884C111.831 110.416 111.921 110.032 112.101 109.73C112.28 109.428 112.523 109.189 112.828 109.013C113.134 108.837 113.475 108.704 113.853 108.614C114.23 108.524 114.615 108.456 115.007 108.409C115.503 108.351 115.905 108.305 116.214 108.269C116.523 108.229 116.748 108.166 116.888 108.08C117.028 107.994 117.098 107.854 117.098 107.66V107.622C117.098 107.151 116.965 106.786 116.699 106.527C116.437 106.269 116.045 106.139 115.524 106.139C114.981 106.139 114.554 106.26 114.241 106.5C113.932 106.738 113.718 107.002 113.599 107.293L112.084 106.948C112.264 106.445 112.527 106.039 112.872 105.73C113.22 105.417 113.621 105.19 114.074 105.05C114.527 104.906 115.003 104.835 115.503 104.835C115.833 104.835 116.184 104.874 116.554 104.953C116.928 105.029 117.276 105.169 117.6 105.374C117.927 105.579 118.195 105.871 118.403 106.252C118.611 106.63 118.716 107.12 118.716 107.724V113.223H117.141V112.091H117.077C116.973 112.3 116.816 112.505 116.608 112.706C116.399 112.907 116.131 113.074 115.804 113.207C115.477 113.34 115.086 113.407 114.629 113.407ZM114.98 112.113C115.425 112.113 115.806 112.025 116.123 111.849C116.442 111.672 116.685 111.442 116.85 111.159C117.019 110.871 117.104 110.564 117.104 110.237V109.169C117.046 109.227 116.935 109.281 116.769 109.331C116.608 109.378 116.423 109.419 116.214 109.455C116.006 109.487 115.803 109.518 115.605 109.547C115.407 109.572 115.242 109.593 115.109 109.611C114.796 109.651 114.511 109.717 114.252 109.811C113.997 109.904 113.792 110.039 113.637 110.215C113.486 110.388 113.411 110.618 113.411 110.905C113.411 111.304 113.558 111.606 113.853 111.811C114.148 112.012 114.523 112.113 114.98 112.113ZM127.068 106.964L125.607 107.223C125.546 107.036 125.449 106.858 125.316 106.689C125.187 106.52 125.01 106.382 124.788 106.274C124.565 106.166 124.286 106.112 123.952 106.112C123.496 106.112 123.115 106.215 122.809 106.42C122.504 106.621 122.351 106.881 122.351 107.201C122.351 107.478 122.453 107.701 122.658 107.87C122.863 108.039 123.194 108.177 123.65 108.285L124.966 108.587C125.728 108.763 126.295 109.034 126.669 109.401C127.043 109.768 127.23 110.244 127.23 110.83C127.23 111.326 127.086 111.768 126.799 112.156C126.515 112.54 126.117 112.842 125.607 113.062C125.1 113.281 124.513 113.391 123.844 113.391C122.917 113.391 122.16 113.193 121.574 112.797C120.989 112.399 120.629 111.832 120.496 111.099L122.054 110.862C122.151 111.268 122.351 111.575 122.653 111.784C122.955 111.989 123.348 112.091 123.833 112.091C124.362 112.091 124.784 111.982 125.1 111.762C125.417 111.54 125.575 111.268 125.575 110.948C125.575 110.689 125.478 110.472 125.284 110.296C125.093 110.12 124.8 109.987 124.405 109.897L123.003 109.59C122.23 109.414 121.659 109.133 121.289 108.749C120.922 108.364 120.739 107.877 120.739 107.288C120.739 106.799 120.875 106.371 121.149 106.004C121.422 105.638 121.799 105.352 122.281 105.147C122.762 104.939 123.314 104.835 123.936 104.835C124.831 104.835 125.535 105.029 126.049 105.417C126.563 105.801 126.903 106.317 127.068 106.964ZM133.149 102.182H135.171L138.686 110.765H138.816L142.331 102.182H144.353V113.223H142.768V105.234H142.665L139.409 113.207H138.093L134.837 105.228H134.735V113.223H133.149V102.182ZM149.055 113.407C148.53 113.407 148.056 113.31 147.632 113.116C147.208 112.918 146.872 112.632 146.624 112.258C146.379 111.885 146.257 111.426 146.257 110.884C146.257 110.416 146.347 110.032 146.527 109.73C146.706 109.428 146.949 109.189 147.254 109.013C147.56 108.837 147.901 108.704 148.279 108.614C148.656 108.524 149.041 108.456 149.432 108.409C149.928 108.351 150.331 108.305 150.64 108.269C150.949 108.229 151.174 108.166 151.314 108.08C151.454 107.994 151.524 107.854 151.524 107.66V107.622C151.524 107.151 151.391 106.786 151.125 106.527C150.863 106.269 150.471 106.139 149.95 106.139C149.407 106.139 148.98 106.26 148.667 106.5C148.358 106.738 148.144 107.002 148.025 107.293L146.51 106.948C146.69 106.445 146.952 106.039 147.298 105.73C147.646 105.417 148.047 105.19 148.5 105.05C148.953 104.906 149.429 104.835 149.928 104.835C150.259 104.835 150.61 104.874 150.98 104.953C151.354 105.029 151.702 105.169 152.026 105.374C152.353 105.579 152.621 105.871 152.829 106.252C153.037 106.63 153.142 107.12 153.142 107.724V113.223H151.567V112.091H151.503C151.398 112.3 151.242 112.505 151.034 112.706C150.825 112.907 150.557 113.074 150.23 113.207C149.903 113.34 149.512 113.407 149.055 113.407ZM149.406 112.113C149.851 112.113 150.232 112.025 150.548 111.849C150.868 111.672 151.111 111.442 151.276 111.159C151.445 110.871 151.53 110.564 151.53 110.237V109.169C151.472 109.227 151.361 109.281 151.195 109.331C151.034 109.378 150.849 109.419 150.64 109.455C150.432 109.487 150.229 109.518 150.031 109.547C149.833 109.572 149.668 109.593 149.535 109.611C149.222 109.651 148.936 109.717 148.678 109.811C148.423 109.904 148.218 110.039 148.063 110.215C147.912 110.388 147.837 110.618 147.837 110.905C147.837 111.304 147.984 111.606 148.279 111.811C148.573 112.012 148.949 112.113 149.406 112.113ZM155.289 113.223V104.942H156.847V106.258H156.933C157.084 105.812 157.35 105.462 157.731 105.207C158.116 104.948 158.55 104.818 159.036 104.818C159.136 104.818 159.255 104.822 159.392 104.829C159.532 104.836 159.641 104.845 159.72 104.856V106.398C159.656 106.38 159.541 106.36 159.375 106.339C159.21 106.314 159.045 106.301 158.879 106.301C158.498 106.301 158.159 106.382 157.86 106.544C157.566 106.702 157.332 106.923 157.16 107.207C156.987 107.487 156.901 107.807 156.901 108.166V113.223H155.289ZM162.598 110.415L162.587 108.447H162.868L166.167 104.942H168.097L164.334 108.932H164.081L162.598 110.415ZM161.115 113.223V102.182H162.727V113.223H161.115ZM166.345 113.223L163.38 109.288L164.49 108.161L168.323 113.223H166.345ZM172.794 113.391C171.978 113.391 171.276 113.216 170.686 112.868C170.1 112.515 169.647 112.021 169.328 111.385C169.011 110.745 168.853 109.996 168.853 109.137C168.853 108.289 169.011 107.541 169.328 106.894C169.647 106.247 170.093 105.742 170.665 105.379C171.24 105.016 171.912 104.835 172.681 104.835C173.148 104.835 173.601 104.912 174.04 105.066C174.478 105.221 174.872 105.464 175.22 105.794C175.569 106.125 175.844 106.554 176.045 107.083C176.246 107.607 176.347 108.245 176.347 108.997V109.568H169.764V108.36H174.767C174.767 107.936 174.681 107.561 174.509 107.234C174.336 106.903 174.093 106.642 173.781 106.452C173.472 106.261 173.109 106.166 172.692 106.166C172.239 106.166 171.844 106.278 171.506 106.5C171.171 106.72 170.913 107.007 170.729 107.363C170.55 107.715 170.46 108.098 170.46 108.511V109.455C170.46 110.008 170.557 110.479 170.751 110.867C170.949 111.256 171.224 111.552 171.576 111.757C171.928 111.958 172.34 112.059 172.81 112.059C173.116 112.059 173.394 112.016 173.646 111.929C173.898 111.84 174.115 111.707 174.298 111.531C174.482 111.354 174.622 111.137 174.719 110.878L176.245 111.153C176.122 111.602 175.903 111.996 175.587 112.334C175.274 112.668 174.881 112.929 174.406 113.116C173.935 113.299 173.398 113.391 172.794 113.391ZM182.001 104.942V106.236H177.478V104.942H182.001ZM178.691 102.958H180.303V110.792C180.303 111.105 180.35 111.34 180.443 111.498C180.537 111.653 180.657 111.759 180.804 111.816C180.955 111.87 181.119 111.897 181.295 111.897C181.424 111.897 181.538 111.888 181.635 111.87C181.732 111.852 181.807 111.838 181.861 111.827L182.152 113.159C182.059 113.195 181.926 113.231 181.753 113.267C181.581 113.306 181.365 113.328 181.106 113.331C180.682 113.338 180.287 113.263 179.92 113.105C179.554 112.947 179.257 112.702 179.031 112.372C178.804 112.041 178.691 111.626 178.691 111.126V102.958ZM183.784 113.223V104.942H185.396V113.223H183.784ZM184.598 103.665C184.318 103.665 184.077 103.571 183.876 103.384C183.678 103.194 183.579 102.967 183.579 102.705C183.579 102.439 183.678 102.213 183.876 102.026C184.077 101.835 184.318 101.74 184.598 101.74C184.879 101.74 185.118 101.835 185.315 102.026C185.517 102.213 185.617 102.439 185.617 102.705C185.617 102.967 185.517 103.194 185.315 103.384C185.118 103.571 184.879 103.665 184.598 103.665ZM189.177 108.307V113.223H187.565V104.942H189.112V106.29H189.215C189.405 105.852 189.703 105.499 190.11 105.234C190.519 104.968 191.035 104.835 191.657 104.835C192.221 104.835 192.715 104.953 193.14 105.19C193.564 105.424 193.892 105.773 194.126 106.236C194.36 106.7 194.477 107.273 194.477 107.956V113.223H192.865V108.15C192.865 107.55 192.708 107.081 192.396 106.743C192.083 106.402 191.653 106.231 191.107 106.231C190.733 106.231 190.401 106.312 190.11 106.474C189.822 106.635 189.594 106.872 189.425 107.185C189.26 107.494 189.177 107.868 189.177 108.307ZM200.11 116.501C199.453 116.501 198.887 116.415 198.412 116.243C197.941 116.07 197.557 115.842 197.258 115.558C196.96 115.274 196.737 114.963 196.59 114.625L197.975 114.054C198.073 114.212 198.202 114.379 198.364 114.555C198.529 114.735 198.752 114.887 199.032 115.013C199.316 115.139 199.681 115.202 200.127 115.202C200.738 115.202 201.243 115.053 201.642 114.755C202.041 114.46 202.24 113.989 202.24 113.342V111.714H202.138C202.041 111.89 201.9 112.086 201.717 112.301C201.537 112.517 201.289 112.704 200.973 112.862C200.657 113.02 200.245 113.099 199.738 113.099C199.084 113.099 198.495 112.947 197.97 112.641C197.449 112.332 197.036 111.877 196.73 111.277C196.428 110.673 196.277 109.931 196.277 109.051C196.277 108.17 196.426 107.415 196.725 106.786C197.027 106.157 197.44 105.676 197.965 105.341C198.489 105.003 199.084 104.835 199.749 104.835C200.263 104.835 200.678 104.921 200.995 105.093C201.311 105.262 201.557 105.46 201.733 105.686C201.913 105.913 202.051 106.112 202.148 106.285H202.267V104.942H203.847V113.407C203.847 114.118 203.681 114.702 203.351 115.159C203.02 115.615 202.572 115.953 202.008 116.172C201.447 116.392 200.815 116.501 200.11 116.501ZM200.094 111.762C200.558 111.762 200.95 111.655 201.27 111.439C201.593 111.22 201.837 110.907 202.003 110.501C202.172 110.091 202.256 109.6 202.256 109.029C202.256 108.472 202.173 107.981 202.008 107.557C201.843 107.133 201.6 106.802 201.28 106.565C200.96 106.324 200.565 106.204 200.094 106.204C199.609 106.204 199.205 106.33 198.881 106.581C198.558 106.829 198.313 107.167 198.148 107.595C197.986 108.023 197.905 108.501 197.905 109.029C197.905 109.572 197.988 110.048 198.153 110.458C198.319 110.867 198.563 111.187 198.887 111.417C199.214 111.647 199.616 111.762 200.094 111.762ZM207.071 113.326C206.776 113.326 206.522 113.222 206.31 113.013C206.098 112.801 205.992 112.546 205.992 112.248C205.992 111.953 206.098 111.701 206.31 111.493C206.522 111.281 206.776 111.175 207.071 111.175C207.365 111.175 207.619 111.281 207.831 111.493C208.043 111.701 208.149 111.953 208.149 112.248C208.149 112.445 208.098 112.627 207.998 112.792C207.901 112.954 207.771 113.083 207.61 113.18C207.448 113.277 207.268 113.326 207.071 113.326Z" fill="#4A5568"/>
<path d="M225.274 9.10742H32.5786C20.3461 9.10742 10.4297 19.0238 10.4297 31.2563V119.116C10.4297 131.348 20.3461 141.264 32.5786 141.264H225.274C237.506 141.264 247.423 131.348 247.423 119.116V31.2563C247.423 19.0238 237.506 9.10742 225.274 9.10742Z" stroke="url(#paint0_radial_4325_19382)" stroke-width="2.21489"/>
<path d="M225.274 9.10742H32.5786C20.3461 9.10742 10.4297 19.0238 10.4297 31.2563V119.116C10.4297 131.348 20.3461 141.264 32.5786 141.264H225.274C237.506 141.264 247.423 131.348 247.423 119.116V31.2563C247.423 19.0238 237.506 9.10742 225.274 9.10742Z" stroke="url(#paint1_radial_4325_19382)" stroke-width="2.21489"/>
<path d="M225.274 9.10742H32.5786C20.3461 9.10742 10.4297 19.0238 10.4297 31.2563V119.116C10.4297 131.348 20.3461 141.264 32.5786 141.264H225.274C237.506 141.264 247.423 131.348 247.423 119.116V31.2563C247.423 19.0238 237.506 9.10742 225.274 9.10742Z" stroke="url(#paint2_linear_4325_19382)" stroke-width="2.21489"/>
<path d="M225.274 9.10742H32.5786C20.3461 9.10742 10.4297 19.0238 10.4297 31.2563V119.116C10.4297 131.348 20.3461 141.264 32.5786 141.264H225.274C237.506 141.264 247.423 131.348 247.423 119.116V31.2563C247.423 19.0238 237.506 9.10742 225.274 9.10742Z" stroke="#C1BABA" stroke-opacity="0.2" stroke-width="2.21489"/>
</g>
<defs>
<filter id="filter0_d_4325_19382" x="0.462667" y="0.247801" width="285.722" height="180.885" filterUnits="userSpaceOnUse" color-interpolation-filters="sRGB">
<feFlood flood-opacity="0" result="BackgroundImageFix"/>
<feColorMatrix in="SourceAlpha" type="matrix" values="0 0 0 0 0 0 0 0 0 0 0 0 0 0 0 0 0 0 127 0" result="hardAlpha"/>
<feOffset dx="14.3968" dy="15.5042"/>
<feGaussianBlur stdDeviation="11.6282"/>
<feColorMatrix type="matrix" values="0 0 0 0 0 0 0 0 0 0 0 0 0 0 0 0 0 0 0.06 0"/>
<feBlend mode="normal" in2="BackgroundImageFix" result="effect1_dropShadow_4325_19382"/>
<feBlend mode="normal" in="SourceGraphic" in2="effect1_dropShadow_4325_19382" result="shape"/>
</filter>
<radialGradient id="paint0_radial_4325_19382" cx="0" cy="0" r="1" gradientUnits="userSpaceOnUse" gradientTransform="translate(11.4739 11.9978) rotate(28.5405) scale(265.671 356.866)">
<stop stop-color="#D8D8D8" stop-opacity="0"/>
<stop offset="1" stop-color="#D8D8D8"/>
</radialGradient>
<radialGradient id="paint1_radial_4325_19382" cx="0" cy="0" r="1" gradientUnits="userSpaceOnUse" gradientTransform="translate(12.613 138.263) rotate(-28.5315) scale(264.352 354.653)">
<stop stop-color="#D8D8D8" stop-opacity="0"/>
<stop offset="1" stop-color="#D8D8D8"/>
</radialGradient>
<linearGradient id="paint2_linear_4325_19382" x1="13.752" y1="11.6647" x2="215.134" y2="175.455" gradientUnits="userSpaceOnUse">
<stop stop-color="white" stop-opacity="0.9"/>
<stop offset="1" stop-color="white" stop-opacity="0"/>
</linearGradient>
</defs>
</svg>
