<svg width="258" height="175" viewBox="0 0 258 175" fill="none" xmlns="http://www.w3.org/2000/svg">
<g filter="url(#filter0_d_4325_19299)">
<path d="M204 7H28C16.9543 7 8 15.9543 8 27V120C8 131.046 16.9543 140 28 140H204C215.046 140 224 131.046 224 120V27C224 15.9543 215.046 7 204 7Z" fill="#E2E8F0"/>
<path d="M29.3125 34.6364H36.1932L40.9261 46.1705H41.1648L45.8977 34.6364H52.7784V55H47.3693V43.2273H47.2102L42.6761 54.8409H39.4148L34.8807 43.1477H34.7216V55H29.3125V34.6364ZM62.7962 55.2784C61.1655 55.2784 59.7602 54.9669 58.5803 54.3438C57.407 53.714 56.5021 52.8125 55.8658 51.6392C55.236 50.4593 54.9212 49.0473 54.9212 47.4034C54.9212 45.8258 55.2393 44.447 55.8757 43.267C56.5121 42.0871 57.4103 41.169 58.5703 40.5128C59.7304 39.8565 61.0992 39.5284 62.6768 39.5284C63.8303 39.5284 64.8743 39.7074 65.8089 40.0653C66.7436 40.4233 67.5424 40.9437 68.2053 41.6264C68.8681 42.3026 69.3786 43.1245 69.7365 44.0923C70.0945 45.0601 70.2734 46.1506 70.2734 47.3636V48.6364H56.6314V45.6136H65.2223C65.2157 45.1761 65.103 44.7917 64.8842 44.4602C64.6721 44.1222 64.3838 43.8603 64.0192 43.6747C63.6612 43.4825 63.2536 43.3864 62.7962 43.3864C62.352 43.3864 61.9444 43.4825 61.5732 43.6747C61.2019 43.8603 60.9036 44.1188 60.6783 44.4503C60.4595 44.7817 60.3435 45.1695 60.3303 45.6136V48.875C60.3303 49.3655 60.433 49.803 60.6385 50.1875C60.844 50.572 61.139 50.8736 61.5234 51.0923C61.9079 51.3111 62.3719 51.4205 62.9155 51.4205C63.2933 51.4205 63.638 51.3674 63.9496 51.2614C64.2678 51.1553 64.5395 51.0028 64.7649 50.804C64.9903 50.5985 65.156 50.3532 65.2621 50.0682H70.2734C70.1011 51.1288 69.6934 52.0502 69.0504 52.8324C68.4074 53.608 67.5556 54.2112 66.495 54.642C65.4411 55.0663 64.2081 55.2784 62.7962 55.2784ZM79.8313 55.2784C78.2006 55.2784 76.7953 54.9669 75.6154 54.3438C74.4421 53.714 73.5373 52.8125 72.9009 51.6392C72.2712 50.4593 71.9563 49.0473 71.9563 47.4034C71.9563 45.8258 72.2745 44.447 72.9109 43.267C73.5472 42.0871 74.4454 41.169 75.6055 40.5128C76.7655 39.8565 78.1344 39.5284 79.712 39.5284C80.8654 39.5284 81.9094 39.7074 82.8441 40.0653C83.7788 40.4233 84.5775 40.9437 85.2404 41.6264C85.9033 42.3026 86.4137 43.1245 86.7717 44.0923C87.1296 45.0601 87.3086 46.1506 87.3086 47.3636V48.6364H73.6665V45.6136H82.2575C82.2508 45.1761 82.1381 44.7917 81.9194 44.4602C81.7073 44.1222 81.4189 43.8603 81.0543 43.6747C80.6964 43.4825 80.2887 43.3864 79.8313 43.3864C79.3872 43.3864 78.9795 43.4825 78.6083 43.6747C78.2371 43.8603 77.9388 44.1188 77.7134 44.4503C77.4947 44.7817 77.3787 45.1695 77.3654 45.6136V48.875C77.3654 49.3655 77.4682 49.803 77.6737 50.1875C77.8791 50.572 78.1741 50.8736 78.5586 51.0923C78.9431 51.3111 79.4071 51.4205 79.9506 51.4205C80.3285 51.4205 80.6732 51.3674 80.9847 51.2614C81.3029 51.1553 81.5747 51.0028 81.8001 50.804C82.0254 50.5985 82.1912 50.3532 82.2972 50.0682H87.3086C87.1362 51.1288 86.7286 52.0502 86.0856 52.8324C85.4426 53.608 84.5908 54.2112 83.5302 54.642C82.4762 55.0663 81.2433 55.2784 79.8313 55.2784ZM98.6562 39.7273V43.7045H88.5938V39.7273H98.6562ZM90.5426 36.0682H96.0312V50.0881C96.0312 50.3002 96.0677 50.4792 96.1406 50.625C96.2135 50.7642 96.3262 50.8703 96.4787 50.9432C96.6312 51.0095 96.8267 51.0426 97.0653 51.0426C97.2311 51.0426 97.4233 51.0227 97.642 50.983C97.8674 50.9432 98.0331 50.91 98.1392 50.8835L98.9347 54.7415C98.6894 54.8144 98.3381 54.9039 97.8807 55.0099C97.4299 55.116 96.893 55.1856 96.2699 55.2188C95.0104 55.285 93.9531 55.1558 93.098 54.831C92.2429 54.4995 91.5999 53.9792 91.169 53.2699C90.7382 52.5606 90.5294 51.6723 90.5426 50.6051V36.0682ZM125.406 42.2727H119.798C119.758 41.8087 119.652 41.3878 119.48 41.0099C119.314 40.6321 119.082 40.3073 118.784 40.0355C118.492 39.7571 118.137 39.545 117.72 39.3991C117.302 39.2467 116.828 39.1705 116.298 39.1705C115.37 39.1705 114.584 39.3958 113.941 39.8466C113.305 40.2973 112.821 40.9437 112.49 41.7855C112.165 42.6274 112.002 43.6383 112.002 44.8182C112.002 46.0644 112.168 47.1084 112.5 47.9503C112.838 48.7855 113.325 49.4152 113.961 49.8395C114.598 50.2571 115.363 50.4659 116.258 50.4659C116.769 50.4659 117.226 50.4029 117.63 50.277C118.035 50.1444 118.386 49.9555 118.684 49.7102C118.983 49.465 119.225 49.17 119.41 48.8253C119.602 48.474 119.732 48.0795 119.798 47.642L125.406 47.6818C125.34 48.5436 125.098 49.4219 124.68 50.3168C124.262 51.205 123.669 52.027 122.9 52.7827C122.138 53.5317 121.193 54.1349 120.066 54.5923C118.94 55.0497 117.63 55.2784 116.139 55.2784C114.27 55.2784 112.592 54.8774 111.108 54.0753C109.629 53.2732 108.459 52.0933 107.598 50.5355C106.743 48.9777 106.315 47.072 106.315 44.8182C106.315 42.5511 106.752 40.642 107.627 39.0909C108.502 37.5331 109.682 36.3565 111.167 35.5611C112.652 34.759 114.309 34.358 116.139 34.358C117.425 34.358 118.608 34.5336 119.689 34.8849C120.769 35.2363 121.717 35.75 122.532 36.4261C123.348 37.0956 124.004 37.9209 124.501 38.902C124.998 39.883 125.3 41.0066 125.406 42.2727ZM127.994 55V39.7273H133.482V55H127.994ZM130.738 38.1364C129.996 38.1364 129.359 37.8911 128.829 37.4006C128.299 36.91 128.033 36.3201 128.033 35.6307C128.033 34.9413 128.299 34.3513 128.829 33.8608C129.359 33.3703 129.996 33.125 130.738 33.125C131.487 33.125 132.123 33.3703 132.647 33.8608C133.177 34.3513 133.442 34.9413 133.442 35.6307C133.442 36.3201 133.177 36.91 132.647 37.4006C132.123 37.8911 131.487 38.1364 130.738 38.1364ZM141.767 46.4091V55H136.279V39.7273H141.489V42.6307H141.648C141.98 41.6629 142.563 40.9039 143.398 40.3537C144.24 39.8035 145.221 39.5284 146.341 39.5284C147.422 39.5284 148.36 39.777 149.155 40.2741C149.957 40.7647 150.577 41.4408 151.015 42.3026C151.459 43.1643 151.677 44.1487 151.671 45.2557V55H146.182V46.4091C146.189 45.6534 145.997 45.0601 145.605 44.6293C145.221 44.1984 144.684 43.983 143.995 43.983C143.544 43.983 143.15 44.0824 142.811 44.2812C142.48 44.4735 142.225 44.7519 142.046 45.1165C141.867 45.4744 141.774 45.9053 141.767 46.4091ZM159.909 55.1989C158.822 55.1989 157.821 54.9138 156.906 54.3438C155.998 53.7737 155.269 52.9086 154.718 51.7486C154.175 50.5885 153.903 49.1269 153.903 47.3636C153.903 45.5208 154.188 44.0227 154.758 42.8693C155.335 41.7159 156.077 40.8707 156.985 40.3338C157.9 39.7969 158.861 39.5284 159.869 39.5284C160.625 39.5284 161.288 39.661 161.858 39.9261C162.428 40.1847 162.905 40.5327 163.289 40.9702C163.674 41.401 163.966 41.875 164.164 42.392H164.244V34.6364H169.733V55H164.284V52.4943H164.164C163.952 53.0114 163.647 53.4754 163.25 53.8864C162.859 54.2907 162.381 54.6122 161.818 54.8509C161.261 55.0829 160.625 55.1989 159.909 55.1989ZM161.937 50.983C162.441 50.983 162.872 50.8371 163.23 50.5455C163.594 50.2472 163.873 49.8295 164.065 49.2926C164.264 48.7491 164.363 48.1061 164.363 47.3636C164.363 46.608 164.264 45.9616 164.065 45.4247C163.873 44.8812 163.594 44.4669 163.23 44.1818C162.872 43.8902 162.441 43.7443 161.937 43.7443C161.433 43.7443 161.002 43.8902 160.645 44.1818C160.293 44.4669 160.021 44.8812 159.829 45.4247C159.644 45.9616 159.551 46.608 159.551 47.3636C159.551 48.1193 159.644 48.7689 159.829 49.3125C160.021 49.8494 160.293 50.2637 160.645 50.5554C161.002 50.8404 161.433 50.983 161.937 50.983ZM175.768 60.7273C175.138 60.7273 174.538 60.6776 173.968 60.5781C173.398 60.4853 172.898 60.3561 172.467 60.1903L173.66 56.2926C174.111 56.4517 174.522 56.5545 174.893 56.6009C175.271 56.6473 175.592 56.6207 175.858 56.5213C176.129 56.4219 176.325 56.233 176.444 55.9545L176.564 55.6761L171.194 39.7273H176.922L179.387 50.3068H179.547L182.052 39.7273H187.819L182.251 56.2727C181.973 57.1146 181.568 57.8703 181.038 58.5398C180.514 59.2159 179.825 59.7495 178.97 60.1406C178.115 60.5317 177.047 60.7273 175.768 60.7273ZM193.753 52.2159L193.673 53.3295C193.607 54.2841 193.448 55.1989 193.196 56.0739C192.951 56.9489 192.689 57.7244 192.411 58.4006C192.139 59.0767 191.923 59.6004 191.764 59.9716H188.384C188.49 59.6004 188.639 59.0634 188.831 58.3608C189.03 57.6648 189.209 56.8759 189.368 55.9943C189.534 55.1193 189.616 54.2311 189.616 53.3295V52.2159H193.753Z" fill="#323230"/>
<path d="M37.5746 82.1294H36.0234C35.9638 81.7979 35.8528 81.5063 35.6904 81.2544C35.5279 81.0025 35.3291 80.7887 35.0938 80.613C34.8584 80.4374 34.5949 80.3048 34.3033 80.2153C34.0149 80.1258 33.7083 80.0811 33.3835 80.0811C32.7969 80.0811 32.2716 80.2286 31.8075 80.5235C31.3468 80.8185 30.9823 81.251 30.7138 81.8211C30.4486 82.3912 30.3161 83.0872 30.3161 83.9092C30.3161 84.7378 30.4486 85.4371 30.7138 86.0072C30.9823 86.5773 31.3485 87.0081 31.8125 87.2998C32.2765 87.5915 32.7985 87.7373 33.3786 87.7373C33.7001 87.7373 34.005 87.6942 34.2933 87.6081C34.585 87.5186 34.8485 87.3876 35.0838 87.2153C35.3191 87.043 35.518 86.8325 35.6804 86.5839C35.8461 86.332 35.9605 86.0437 36.0234 85.7189L37.5746 85.7238C37.4917 86.2243 37.331 86.685 37.0923 87.1059C36.857 87.5235 36.5538 87.8848 36.1825 88.1897C35.8146 88.4913 35.3937 88.725 34.9198 88.8907C34.4458 89.0564 33.9288 89.1393 33.3686 89.1393C32.487 89.1393 31.7015 88.9305 31.0121 88.5129C30.3227 88.092 29.7791 87.4904 29.3814 86.7082C28.987 85.926 28.7898 84.993 28.7898 83.9092C28.7898 82.8221 28.9886 81.8891 29.3864 81.1102C29.7841 80.328 30.3277 79.7281 31.0171 79.3105C31.7064 78.8895 32.4903 78.6791 33.3686 78.6791C33.9089 78.6791 34.4127 78.757 34.88 78.9127C35.3506 79.0652 35.7732 79.2906 36.1477 79.5889C36.5223 79.8839 36.8322 80.2451 37.0774 80.6727C37.3227 81.0969 37.4884 81.5825 37.5746 82.1294ZM39.2935 89.0001V81.3637H40.78V89.0001H39.2935ZM40.0442 80.1855C39.7857 80.1855 39.5636 80.0993 39.378 79.9269C39.1957 79.7513 39.1046 79.5425 39.1046 79.3005C39.1046 79.0553 39.1957 78.8465 39.378 78.6741C39.5636 78.4984 39.7857 78.4106 40.0442 78.4106C40.3027 78.4106 40.5232 78.4984 40.7054 78.6741C40.891 78.8465 40.9839 79.0553 40.9839 79.3005C40.9839 79.5425 40.891 79.7513 40.7054 79.9269C40.5232 80.0993 40.3027 80.1855 40.0442 80.1855ZM44.2663 84.466V89.0001H42.7798V81.3637H44.2067V82.6066H44.3011C44.4768 82.2023 44.7519 81.8775 45.1264 81.6322C45.5043 81.3869 45.9799 81.2643 46.5533 81.2643C47.0736 81.2643 47.5294 81.3737 47.9205 81.5924C48.3116 81.8079 48.6148 82.1294 48.8303 82.5569C49.0457 82.9845 49.1534 83.5131 49.1534 84.1429V89.0001H47.6669V84.3218C47.6669 83.7683 47.5227 83.3358 47.2344 83.0242C46.946 82.7094 46.55 82.5519 46.0462 82.5519C45.7015 82.5519 45.3949 82.6265 45.1264 82.7757C44.8613 82.9248 44.6508 83.1436 44.495 83.4319C44.3426 83.717 44.2663 84.0617 44.2663 84.466ZM54.0057 89.1492C53.3892 89.1492 52.839 88.9918 52.3551 88.6769C51.8745 88.3588 51.4967 87.9063 51.2216 87.3197C50.9498 86.7297 50.8139 86.0221 50.8139 85.1968C50.8139 84.3715 50.9515 83.6656 51.2266 83.0789C51.505 82.4923 51.8861 82.0432 52.37 81.7316C52.8539 81.4201 53.4025 81.2643 54.0156 81.2643C54.4896 81.2643 54.8707 81.3439 55.1591 81.5029C55.4508 81.6587 55.6761 81.841 55.8352 82.0498C55.9976 82.2586 56.1236 82.4426 56.2131 82.6017H56.3026V78.8183H57.7891V89.0001H56.3374V87.8119H56.2131C56.1236 87.9743 55.9943 88.1599 55.8253 88.3687C55.6596 88.5775 55.4309 88.7598 55.1392 88.9156C54.8475 89.0714 54.4697 89.1492 54.0057 89.1492ZM54.3338 87.8815C54.7614 87.8815 55.1226 87.7688 55.4176 87.5434C55.7159 87.3147 55.9413 86.9982 56.0938 86.5939C56.2495 86.1895 56.3274 85.7188 56.3274 85.1819C56.3274 84.6516 56.2512 84.1876 56.0987 83.7899C55.9463 83.3921 55.7225 83.0822 55.4276 82.8602C55.1326 82.6381 54.768 82.5271 54.3338 82.5271C53.8864 82.5271 53.5135 82.6431 53.2152 82.8751C52.9169 83.1071 52.6915 83.4236 52.5391 83.8247C52.3899 84.2257 52.3154 84.6781 52.3154 85.1819C52.3154 85.6923 52.3916 86.1514 52.544 86.559C52.6965 86.9667 52.9219 87.2899 53.2202 87.5285C53.5218 87.7638 53.893 87.8815 54.3338 87.8815ZM60.8503 91.8637C60.6283 91.8637 60.4261 91.8455 60.2438 91.809C60.0615 91.7759 59.9256 91.7394 59.8361 91.6997L60.1941 90.4816C60.4659 90.5546 60.7078 90.586 60.9199 90.5761C61.1321 90.5662 61.3193 90.4866 61.4817 90.3375C61.6474 90.1883 61.7933 89.9447 61.9192 89.6066L62.1032 89.0995L59.3091 81.3637H60.9L62.834 87.2899H62.9135L64.8475 81.3637H66.4434L63.2964 90.0193C63.1505 90.417 62.9649 90.7534 62.7395 91.0285C62.5142 91.3069 62.2457 91.5157 61.9341 91.6549C61.6226 91.7941 61.2613 91.8637 60.8503 91.8637ZM68.9689 78.8183V82.4426H67.736V78.8183H68.9689ZM76.6115 83.2281L75.2642 83.4667C75.2079 83.2944 75.1184 83.1303 74.9957 82.9745C74.8764 82.8188 74.714 82.6912 74.5085 82.5917C74.303 82.4923 74.0462 82.4426 73.7379 82.4426C73.317 82.4426 72.9657 82.537 72.684 82.726C72.4022 82.9116 72.2614 83.1519 72.2614 83.4468C72.2614 83.702 72.3558 83.9075 72.5448 84.0633C72.7337 84.2191 73.0386 84.3467 73.4595 84.4461L74.6726 84.7245C75.3752 84.8869 75.8989 85.1372 76.2436 85.4752C76.5883 85.8133 76.7607 86.2525 76.7607 86.7927C76.7607 87.2501 76.6281 87.6578 76.3629 88.0157C76.1011 88.3704 75.7349 88.6488 75.2642 88.851C74.7969 89.0531 74.255 89.1542 73.6385 89.1542C72.7834 89.1542 72.0857 88.9719 71.5455 88.6073C71.0052 88.2394 70.6738 87.7174 70.5511 87.0413L71.9879 86.8225C72.0774 87.1971 72.2614 87.4805 72.5398 87.6727C72.8182 87.8616 73.1811 87.9561 73.6286 87.9561C74.1158 87.9561 74.5052 87.855 74.7969 87.6528C75.0886 87.4473 75.2344 87.1971 75.2344 86.9021C75.2344 86.6635 75.1449 86.4629 74.9659 86.3005C74.7903 86.1381 74.5201 86.0155 74.1555 85.9326L72.8629 85.6492C72.1503 85.4868 71.6234 85.2283 71.282 84.8737C70.9439 84.519 70.7749 84.0699 70.7749 83.5264C70.7749 83.0756 70.9008 82.6812 71.1527 82.3431C71.4046 82.0051 71.7526 81.7416 72.1967 81.5527C72.6409 81.3604 73.1496 81.2643 73.723 81.2643C74.5483 81.2643 75.1979 81.4433 75.6719 81.8012C76.1458 82.1559 76.4591 82.6315 76.6115 83.2281ZM83.5867 84.466V89.0001H82.1002V78.8183H83.5668V82.6066H83.6612C83.8402 82.1956 84.1136 81.8692 84.4815 81.6272C84.8494 81.3853 85.33 81.2643 85.9233 81.2643C86.447 81.2643 86.9044 81.372 87.2955 81.5875C87.6899 81.8029 87.9948 82.1244 88.2102 82.5519C88.429 82.9762 88.5384 83.5065 88.5384 84.1429V89.0001H87.0519V84.3218C87.0519 83.7617 86.9077 83.3275 86.6193 83.0193C86.331 82.7077 85.9299 82.5519 85.4162 82.5519C85.0649 82.5519 84.75 82.6265 84.4716 82.7757C84.1965 82.9248 83.9794 83.1436 83.8203 83.4319C83.6645 83.717 83.5867 84.0617 83.5867 84.466ZM93.8132 89.1542C93.0609 89.1542 92.4129 88.9935 91.8693 88.672C91.3291 88.3472 90.9115 87.8914 90.6165 87.3048C90.3248 86.7148 90.179 86.0238 90.179 85.2316C90.179 84.4494 90.3248 83.76 90.6165 83.1635C90.9115 82.5669 91.3225 82.1012 91.8494 81.7664C92.3797 81.4317 92.9995 81.2643 93.7088 81.2643C94.1397 81.2643 94.5573 81.3356 94.9617 81.4781C95.366 81.6206 95.7289 81.8443 96.0504 82.1492C96.3719 82.4542 96.6255 82.8502 96.8111 83.3375C96.9967 83.8214 97.0895 84.4097 97.0895 85.1024V85.6294H91.0192V84.5157H95.6328C95.6328 84.1246 95.5533 83.7783 95.3942 83.4767C95.2351 83.1717 95.0114 82.9314 94.723 82.7558C94.438 82.5801 94.1032 82.4923 93.7188 82.4923C93.3011 82.4923 92.9366 82.595 92.625 82.8005C92.3168 83.0027 92.0781 83.2679 91.9091 83.596C91.7434 83.9208 91.6605 84.2738 91.6605 84.6549V85.525C91.6605 86.0354 91.75 86.4696 91.929 86.8275C92.1113 87.1855 92.3648 87.4589 92.6896 87.6478C93.0145 87.8334 93.3939 87.9262 93.8281 87.9262C94.1099 87.9262 94.3667 87.8865 94.5987 87.8069C94.8307 87.7241 95.0313 87.6014 95.2003 87.439C95.3693 87.2766 95.4986 87.0761 95.5881 86.8375L96.995 87.091C96.8823 87.5053 96.6802 87.8682 96.3885 88.1798C96.1002 88.488 95.7372 88.7283 95.2997 88.9007C94.8655 89.0697 94.37 89.1542 93.8132 89.1542ZM98.7388 89.0001V81.3637H100.175V82.5768H100.255C100.394 82.1658 100.639 81.8427 100.991 81.6073C101.345 81.3687 101.746 81.2494 102.194 81.2494C102.287 81.2494 102.396 81.2527 102.522 81.2593C102.651 81.266 102.752 81.2742 102.825 81.2842V82.7061C102.766 82.6895 102.659 82.6713 102.507 82.6514C102.355 82.6282 102.202 82.6166 102.05 82.6166C101.698 82.6166 101.385 82.6912 101.11 82.8403C100.838 82.9861 100.623 83.19 100.464 83.4518C100.305 83.7103 100.225 84.0053 100.225 84.3367V89.0001H98.7388ZM107.129 89.1542C106.377 89.1542 105.729 88.9935 105.185 88.672C104.645 88.3472 104.228 87.8914 103.933 87.3048C103.641 86.7148 103.495 86.0238 103.495 85.2316C103.495 84.4494 103.641 83.76 103.933 83.1635C104.228 82.5669 104.639 82.1012 105.166 81.7664C105.696 81.4317 106.316 81.2643 107.025 81.2643C107.456 81.2643 107.873 81.3356 108.278 81.4781C108.682 81.6206 109.045 81.8443 109.367 82.1492C109.688 82.4542 109.942 82.8502 110.127 83.3375C110.313 83.8214 110.406 84.4097 110.406 85.1024V85.6294H104.335V84.5157H108.949C108.949 84.1246 108.869 83.7783 108.71 83.4767C108.551 83.1717 108.327 82.9314 108.039 82.7558C107.754 82.5801 107.419 82.4923 107.035 82.4923C106.617 82.4923 106.253 82.595 105.941 82.8005C105.633 83.0027 105.394 83.2679 105.225 83.596C105.059 83.9208 104.977 84.2738 104.977 84.6549V85.525C104.977 86.0354 105.066 86.4696 105.245 86.8275C105.427 87.1855 105.681 87.4589 106.006 87.6478C106.331 87.8334 106.71 87.9262 107.144 87.9262C107.426 87.9262 107.683 87.8865 107.915 87.8069C108.147 87.7241 108.347 87.6014 108.516 87.439C108.685 87.2766 108.815 87.0761 108.904 86.8375L110.311 87.091C110.198 87.5053 109.996 87.8682 109.705 88.1798C109.416 88.488 109.053 88.7283 108.616 88.9007C108.182 89.0697 107.686 89.1542 107.129 89.1542ZM119.325 81.3637V82.5569H115.153V81.3637H119.325ZM116.272 79.5342H117.759V86.7579C117.759 87.0463 117.802 87.2634 117.888 87.4092C117.974 87.5517 118.085 87.6495 118.221 87.7025C118.36 87.7522 118.511 87.7771 118.673 87.7771C118.793 87.7771 118.897 87.7688 118.987 87.7522C119.076 87.7357 119.146 87.7224 119.195 87.7125L119.464 88.9404C119.378 88.9736 119.255 89.0067 119.096 89.0399C118.937 89.0763 118.738 89.0962 118.499 89.0995C118.108 89.1062 117.744 89.0366 117.406 88.8907C117.068 88.7449 116.794 88.5195 116.585 88.2146C116.376 87.9097 116.272 87.5269 116.272 87.0662V79.5342ZM120.969 89.0001V81.3637H122.406V82.5768H122.485C122.625 82.1658 122.87 81.8427 123.221 81.6073C123.576 81.3687 123.977 81.2494 124.424 81.2494C124.517 81.2494 124.626 81.2527 124.752 81.2593C124.882 81.266 124.983 81.2742 125.056 81.2842V82.7061C124.996 82.6895 124.89 82.6713 124.737 82.6514C124.585 82.6282 124.433 82.6166 124.28 82.6166C123.929 82.6166 123.616 82.6912 123.34 82.8403C123.069 82.9861 122.853 83.19 122.694 83.4518C122.535 83.7103 122.455 84.0053 122.455 84.3367V89.0001H120.969ZM127.514 91.8637C127.292 91.8637 127.09 91.8455 126.908 91.809C126.725 91.7759 126.589 91.7394 126.5 91.6997L126.858 90.4816C127.13 90.5546 127.372 90.586 127.584 90.5761C127.796 90.5662 127.983 90.4866 128.145 90.3375C128.311 90.1883 128.457 89.9447 128.583 89.6066L128.767 89.0995L125.973 81.3637H127.564L129.498 87.2899H129.577L131.511 81.3637H133.107L129.96 90.0193C129.814 90.417 129.629 90.7534 129.403 91.0285C129.178 91.3069 128.909 91.5157 128.598 91.6549C128.286 91.7941 127.925 91.8637 127.514 91.8637ZM134.504 89.0001V81.3637H135.991V89.0001H134.504ZM135.255 80.1855C134.996 80.1855 134.774 80.0993 134.589 79.9269C134.406 79.7513 134.315 79.5425 134.315 79.3005C134.315 79.0553 134.406 78.8465 134.589 78.6741C134.774 78.4984 134.996 78.4106 135.255 78.4106C135.513 78.4106 135.734 78.4984 135.916 78.6741C136.102 78.8465 136.194 79.0553 136.194 79.3005C136.194 79.5425 136.102 79.7513 135.916 79.9269C135.734 80.0993 135.513 80.1855 135.255 80.1855ZM139.477 84.466V89.0001H137.99V81.3637H139.417V82.6066H139.512C139.687 82.2023 139.963 81.8775 140.337 81.6322C140.715 81.3869 141.191 81.2643 141.764 81.2643C142.284 81.2643 142.74 81.3737 143.131 81.5924C143.522 81.8079 143.825 82.1294 144.041 82.5569C144.256 82.9845 144.364 83.5131 144.364 84.1429V89.0001H142.878V84.3218C142.878 83.7683 142.733 83.3358 142.445 83.0242C142.157 82.7094 141.761 82.5519 141.257 82.5519C140.912 82.5519 140.606 82.6265 140.337 82.7757C140.072 82.9248 139.861 83.1436 139.706 83.4319C139.553 83.717 139.477 84.0617 139.477 84.466ZM149.559 92.0228C148.953 92.0228 148.431 91.9433 147.993 91.7842C147.559 91.6251 147.204 91.4146 146.929 91.1528C146.654 90.891 146.449 90.6043 146.313 90.2927L147.591 89.7657C147.68 89.9116 147.799 90.0657 147.949 90.2281C148.101 90.3938 148.307 90.5347 148.565 90.6507C148.827 90.7667 149.163 90.8247 149.574 90.8247C150.138 90.8247 150.603 90.6871 150.971 90.412C151.339 90.1403 151.523 89.7061 151.523 89.1095V87.6081H151.429C151.339 87.7705 151.21 87.9511 151.041 88.15C150.875 88.3488 150.646 88.5212 150.355 88.667C150.063 88.8128 149.684 88.8858 149.216 88.8858C148.613 88.8858 148.07 88.7449 147.586 88.4632C147.105 88.1781 146.724 87.7589 146.442 87.2054C146.164 86.6485 146.025 85.9641 146.025 85.1521C146.025 84.3401 146.162 83.644 146.437 83.064C146.716 82.484 147.097 82.0399 147.581 81.7316C148.065 81.4201 148.613 81.2643 149.226 81.2643C149.7 81.2643 150.083 81.3439 150.375 81.5029C150.666 81.6587 150.893 81.841 151.056 82.0498C151.222 82.2586 151.349 82.4426 151.439 82.6017H151.548V81.3637H153.005V89.1691C153.005 89.8254 152.852 90.364 152.547 90.7849C152.242 91.2058 151.83 91.5174 151.309 91.7196C150.792 91.9217 150.209 92.0228 149.559 92.0228ZM149.544 87.6528C149.972 87.6528 150.333 87.5534 150.628 87.3545C150.927 87.1523 151.152 86.864 151.304 86.4894C151.46 86.1116 151.538 85.6592 151.538 85.1322C151.538 84.6185 151.462 84.1661 151.309 83.775C151.157 83.3839 150.933 83.0789 150.638 82.8602C150.343 82.6381 149.979 82.5271 149.544 82.5271C149.097 82.5271 148.724 82.6431 148.426 82.8751C148.128 83.1038 147.902 83.4153 147.75 83.8098C147.601 84.2042 147.526 84.645 147.526 85.1322C147.526 85.6327 147.602 86.0718 147.755 86.4497C147.907 86.8275 148.133 87.1225 148.431 87.3346C148.732 87.5467 149.104 87.6528 149.544 87.6528ZM162.268 81.3637V82.5569H158.097V81.3637H162.268ZM159.215 79.5342H160.702V86.7579C160.702 87.0463 160.745 87.2634 160.831 87.4092C160.917 87.5517 161.028 87.6495 161.164 87.7025C161.304 87.7522 161.454 87.7771 161.617 87.7771C161.736 87.7771 161.84 87.7688 161.93 87.7522C162.019 87.7357 162.089 87.7224 162.139 87.7125L162.407 88.9404C162.321 88.9736 162.198 89.0067 162.039 89.0399C161.88 89.0763 161.681 89.0962 161.443 89.0995C161.052 89.1062 160.687 89.0366 160.349 88.8907C160.011 88.7449 159.737 88.5195 159.529 88.2146C159.32 87.9097 159.215 87.5269 159.215 87.0662V79.5342ZM167.047 89.1542C166.331 89.1542 165.706 88.9902 165.173 88.662C164.639 88.3339 164.225 87.8749 163.93 87.2849C163.635 86.6949 163.487 86.0055 163.487 85.2167C163.487 84.4246 163.635 83.7319 163.93 83.1386C164.225 82.5453 164.639 82.0846 165.173 81.7565C165.706 81.4284 166.331 81.2643 167.047 81.2643C167.763 81.2643 168.388 81.4284 168.921 81.7565C169.455 82.0846 169.869 82.5453 170.164 83.1386C170.459 83.7319 170.607 84.4246 170.607 85.2167C170.607 86.0055 170.459 86.6949 170.164 87.2849C169.869 87.8749 169.455 88.3339 168.921 88.662C168.388 88.9902 167.763 89.1542 167.047 89.1542ZM167.052 87.9063C167.516 87.9063 167.9 87.7837 168.205 87.5385C168.51 87.2932 168.736 86.9667 168.881 86.559C169.031 86.1514 169.105 85.7023 169.105 85.2117C169.105 84.7245 169.031 84.2771 168.881 83.8694C168.736 83.4584 168.51 83.1287 168.205 82.8801C167.9 82.6315 167.516 82.5072 167.052 82.5072C166.585 82.5072 166.197 82.6315 165.889 82.8801C165.584 83.1287 165.357 83.4584 165.207 83.8694C165.062 84.2771 164.989 84.7245 164.989 85.2117C164.989 85.7023 165.062 86.1514 165.207 86.559C165.357 86.9667 165.584 87.2932 165.889 87.5385C166.197 87.7837 166.585 87.9063 167.052 87.9063ZM31.2209 113.169C30.737 113.169 30.2995 113.08 29.9084 112.901C29.5173 112.718 29.2074 112.455 28.9787 112.11C28.7533 111.765 28.6406 111.343 28.6406 110.842C28.6406 110.411 28.7235 110.057 28.8892 109.778C29.0549 109.5 29.2787 109.28 29.5604 109.117C29.8421 108.955 30.157 108.832 30.505 108.749C30.853 108.666 31.2076 108.603 31.5689 108.56C32.0263 108.507 32.3975 108.464 32.6825 108.431C32.9676 108.395 33.1747 108.337 33.304 108.257C33.4332 108.178 33.4979 108.048 33.4979 107.869V107.835C33.4979 107.4 33.3752 107.064 33.13 106.825C32.888 106.587 32.5268 106.467 32.0462 106.467C31.5457 106.467 31.1513 106.578 30.8629 106.8C30.5779 107.019 30.3807 107.263 30.2713 107.531L28.8743 107.213C29.04 106.749 29.282 106.375 29.6002 106.089C29.9216 105.801 30.2912 105.592 30.7088 105.463C31.1264 105.33 31.5656 105.264 32.0263 105.264C32.3312 105.264 32.6544 105.301 32.9957 105.374C33.3404 105.443 33.6619 105.572 33.9602 105.761C34.2618 105.95 34.5088 106.22 34.701 106.572C34.8932 106.92 34.9894 107.372 34.9894 107.929V113H33.5377V111.956H33.478C33.3819 112.148 33.2377 112.337 33.0455 112.523C32.8532 112.708 32.6063 112.862 32.3047 112.985C32.0031 113.108 31.6418 113.169 31.2209 113.169ZM31.544 111.976C31.955 111.976 32.3064 111.895 32.598 111.732C32.893 111.57 33.1167 111.358 33.2692 111.096C33.425 110.831 33.5029 110.547 33.5029 110.246V109.261C33.4498 109.314 33.3471 109.364 33.1946 109.411C33.0455 109.454 32.8748 109.492 32.6825 109.525C32.4903 109.555 32.303 109.583 32.1207 109.609C31.9385 109.633 31.786 109.652 31.6634 109.669C31.375 109.705 31.1115 109.767 30.8729 109.853C30.6376 109.939 30.4486 110.063 30.3061 110.226C30.1669 110.385 30.0973 110.597 30.0973 110.862C30.0973 111.23 30.2332 111.509 30.505 111.697C30.7768 111.883 31.1231 111.976 31.544 111.976ZM36.9693 115.864V105.364H38.421V106.602H38.5453C38.6315 106.442 38.7558 106.259 38.9182 106.05C39.0806 105.841 39.3059 105.659 39.5943 105.503C39.8826 105.344 40.2638 105.264 40.7378 105.264C41.3542 105.264 41.9044 105.42 42.3883 105.732C42.8722 106.043 43.2517 106.492 43.5268 107.079C43.8052 107.665 43.9444 108.371 43.9444 109.197C43.9444 110.022 43.8069 110.73 43.5318 111.32C43.2567 111.906 42.8789 112.359 42.3983 112.677C41.9177 112.992 41.3692 113.149 40.7527 113.149C40.2887 113.149 39.9092 113.071 39.6142 112.915C39.3225 112.76 39.0938 112.577 38.9281 112.369C38.7624 112.16 38.6348 111.974 38.5453 111.812H38.4558V115.864H36.9693ZM38.426 109.182C38.426 109.719 38.5039 110.189 38.6596 110.594C38.8154 110.998 39.0408 111.315 39.3358 111.543C39.6308 111.769 39.992 111.881 40.4196 111.881C40.8637 111.881 41.2349 111.764 41.5332 111.528C41.8315 111.29 42.0569 110.967 42.2093 110.559C42.3651 110.151 42.443 109.692 42.443 109.182C42.443 108.678 42.3668 108.226 42.2143 107.825C42.0652 107.424 41.8398 107.107 41.5382 106.875C41.2399 106.643 40.867 106.527 40.4196 106.527C39.9887 106.527 39.6241 106.638 39.3258 106.86C39.0308 107.082 38.8071 107.392 38.6547 107.79C38.5022 108.187 38.426 108.652 38.426 109.182ZM45.6099 115.864V105.364H47.0616V106.602H47.1859C47.2721 106.442 47.3964 106.259 47.5588 106.05C47.7212 105.841 47.9466 105.659 48.2349 105.503C48.5233 105.344 48.9044 105.264 49.3784 105.264C49.9949 105.264 50.5451 105.42 51.029 105.732C51.5129 106.043 51.8924 106.492 52.1674 107.079C52.4459 107.665 52.5851 108.371 52.5851 109.197C52.5851 110.022 52.4475 110.73 52.1724 111.32C51.8973 111.906 51.5195 112.359 51.0389 112.677C50.5583 112.992 50.0098 113.149 49.3933 113.149C48.9293 113.149 48.5498 113.071 48.2548 112.915C47.9631 112.76 47.7344 112.577 47.5687 112.369C47.403 112.16 47.2754 111.974 47.1859 111.812H47.0964V115.864H45.6099ZM47.0666 109.182C47.0666 109.719 47.1445 110.189 47.3003 110.594C47.456 110.998 47.6814 111.315 47.9764 111.543C48.2714 111.769 48.6326 111.881 49.0602 111.881C49.5043 111.881 49.8755 111.764 50.1738 111.528C50.4721 111.29 50.6975 110.967 50.85 110.559C51.0058 110.151 51.0836 109.692 51.0836 109.182C51.0836 108.678 51.0074 108.226 50.8549 107.825C50.7058 107.424 50.4804 107.107 50.1788 106.875C49.8805 106.643 49.5076 106.527 49.0602 106.527C48.6293 106.527 48.2647 106.638 47.9665 106.86C47.6715 107.082 47.4477 107.392 47.2953 107.79C47.1428 108.187 47.0666 108.652 47.0666 109.182ZM55.737 102.818V113H54.2505V102.818H55.737ZM58.6765 115.864C58.4544 115.864 58.2523 115.845 58.07 115.809C57.8877 115.776 57.7518 115.739 57.6623 115.7L58.0203 114.482C58.292 114.554 58.534 114.586 58.7461 114.576C58.9582 114.566 59.1455 114.487 59.3079 114.337C59.4736 114.188 59.6194 113.945 59.7454 113.607L59.9293 113.099L57.1353 105.364H58.7262L60.6602 111.29H60.7397L62.6737 105.364H64.2695L61.1225 114.019C60.9767 114.417 60.7911 114.753 60.5657 115.028C60.3403 115.307 60.0719 115.516 59.7603 115.655C59.4488 115.794 59.0875 115.864 58.6765 115.864ZM71.5939 113.169C71.11 113.169 70.6725 113.08 70.2814 112.901C69.8903 112.718 69.5804 112.455 69.3518 112.11C69.1264 111.765 69.0137 111.343 69.0137 110.842C69.0137 110.411 69.0965 110.057 69.2623 109.778C69.428 109.5 69.6517 109.28 69.9334 109.117C70.2151 108.955 70.53 108.832 70.878 108.749C71.226 108.666 71.5807 108.603 71.9419 108.56C72.3993 108.507 72.7705 108.464 73.0556 108.431C73.3406 108.395 73.5478 108.337 73.677 108.257C73.8063 108.178 73.8709 108.048 73.8709 107.869V107.835C73.8709 107.4 73.7483 107.064 73.503 106.825C73.2611 106.587 72.8998 106.467 72.4192 106.467C71.9187 106.467 71.5243 106.578 71.236 106.8C70.9509 107.019 70.7537 107.263 70.6444 107.531L69.2473 107.213C69.4131 106.749 69.655 106.375 69.9732 106.089C70.2947 105.801 70.6643 105.592 71.0819 105.463C71.4995 105.33 71.9386 105.264 72.3993 105.264C72.7043 105.264 73.0274 105.301 73.3688 105.374C73.7135 105.443 74.035 105.572 74.3333 105.761C74.6349 105.95 74.8818 106.22 75.0741 106.572C75.2663 106.92 75.3624 107.372 75.3624 107.929V113H73.9107V111.956H73.851C73.7549 112.148 73.6107 112.337 73.4185 112.523C73.2263 112.708 72.9794 112.862 72.6777 112.985C72.3761 113.108 72.0149 113.169 71.5939 113.169ZM71.9171 111.976C72.3281 111.976 72.6794 111.895 72.9711 111.732C73.266 111.57 73.4898 111.358 73.6422 111.096C73.798 110.831 73.8759 110.547 73.8759 110.246V109.261C73.8229 109.314 73.7201 109.364 73.5677 109.411C73.4185 109.454 73.2478 109.492 73.0556 109.525C72.8634 109.555 72.6761 109.583 72.4938 109.609C72.3115 109.633 72.159 109.652 72.0364 109.669C71.7481 109.705 71.4846 109.767 71.2459 109.853C71.0106 109.939 70.8217 110.063 70.6792 110.226C70.54 110.385 70.4704 110.597 70.4704 110.862C70.4704 111.23 70.6062 111.509 70.878 111.697C71.1498 111.883 71.4962 111.976 71.9171 111.976ZM83.0646 107.228L81.7173 107.467C81.661 107.294 81.5715 107.13 81.4489 106.974C81.3296 106.819 81.1672 106.691 80.9617 106.592C80.7562 106.492 80.4993 106.442 80.1911 106.442C79.7701 106.442 79.4188 106.537 79.1371 106.726C78.8554 106.911 78.7145 107.152 78.7145 107.447C78.7145 107.702 78.809 107.907 78.9979 108.063C79.1868 108.219 79.4917 108.347 79.9127 108.446L81.1257 108.724C81.8284 108.887 82.352 109.137 82.6967 109.475C83.0414 109.813 83.2138 110.252 83.2138 110.793C83.2138 111.25 83.0812 111.658 82.8161 112.016C82.5542 112.37 82.188 112.649 81.7173 112.851C81.25 113.053 80.7081 113.154 80.0916 113.154C79.2365 113.154 78.5388 112.972 77.9986 112.607C77.4583 112.239 77.1269 111.717 77.0043 111.041L78.4411 110.822C78.5306 111.197 78.7145 111.48 78.9929 111.673C79.2713 111.862 79.6342 111.956 80.0817 111.956C80.5689 111.956 80.9583 111.855 81.25 111.653C81.5417 111.447 81.6875 111.197 81.6875 110.902C81.6875 110.663 81.598 110.463 81.419 110.3C81.2434 110.138 80.9733 110.015 80.6087 109.933L79.3161 109.649C78.6035 109.487 78.0765 109.228 77.7351 108.874C77.397 108.519 77.228 108.07 77.228 107.526C77.228 107.076 77.3539 106.681 77.6058 106.343C77.8577 106.005 78.2057 105.741 78.6499 105.553C79.094 105.36 79.6028 105.264 80.1761 105.264C81.0014 105.264 81.6511 105.443 82.125 105.801C82.599 106.156 82.9122 106.631 83.0646 107.228ZM90.7756 113.169C90.2917 113.169 89.8542 113.08 89.4631 112.901C89.072 112.718 88.7621 112.455 88.5334 112.11C88.308 111.765 88.1953 111.343 88.1953 110.842C88.1953 110.411 88.2782 110.057 88.4439 109.778C88.6096 109.5 88.8333 109.28 89.1151 109.117C89.3968 108.955 89.7117 108.832 90.0597 108.749C90.4077 108.666 90.7623 108.603 91.1236 108.56C91.581 108.507 91.9522 108.464 92.2372 108.431C92.5223 108.395 92.7294 108.337 92.8587 108.257C92.9879 108.178 93.0526 108.048 93.0526 107.869V107.835C93.0526 107.4 92.9299 107.064 92.6847 106.825C92.4427 106.587 92.0814 106.467 91.6009 106.467C91.1004 106.467 90.706 106.578 90.4176 106.8C90.1326 107.019 89.9354 107.263 89.826 107.531L88.429 107.213C88.5947 106.749 88.8367 106.375 89.1548 106.089C89.4763 105.801 89.8459 105.592 90.2635 105.463C90.6811 105.33 91.1203 105.264 91.581 105.264C91.8859 105.264 92.2091 105.301 92.5504 105.374C92.8951 105.443 93.2166 105.572 93.5149 105.761C93.8165 105.95 94.0635 106.22 94.2557 106.572C94.4479 106.92 94.544 107.372 94.544 107.929V113H93.0923V111.956H93.0327C92.9366 112.148 92.7924 112.337 92.6002 112.523C92.4079 112.708 92.161 112.862 91.8594 112.985C91.5578 113.108 91.1965 113.169 90.7756 113.169ZM91.0987 111.976C91.5097 111.976 91.861 111.895 92.1527 111.732C92.4477 111.57 92.6714 111.358 92.8239 111.096C92.9797 110.831 93.0575 110.547 93.0575 110.246V109.261C93.0045 109.314 92.9018 109.364 92.7493 109.411C92.6002 109.454 92.4295 109.492 92.2372 109.525C92.045 109.555 91.8577 109.583 91.6754 109.609C91.4931 109.633 91.3407 109.652 91.2181 109.669C90.9297 109.705 90.6662 109.767 90.4276 109.853C90.1922 109.939 90.0033 110.063 89.8608 110.226C89.7216 110.385 89.652 110.597 89.652 110.862C89.652 111.23 89.7879 111.509 90.0597 111.697C90.3314 111.883 90.6778 111.976 91.0987 111.976ZM100.348 102.818H102.212L105.454 110.733H105.573L108.815 102.818H110.679V113H109.217V105.632H109.123L106.12 112.985H104.907L101.904 105.627H101.81V113H100.348V102.818ZM115.016 113.169C114.532 113.169 114.094 113.08 113.703 112.901C113.312 112.718 113.002 112.455 112.773 112.11C112.548 111.765 112.435 111.343 112.435 110.842C112.435 110.411 112.518 110.057 112.684 109.778C112.85 109.5 113.073 109.28 113.355 109.117C113.637 108.955 113.952 108.832 114.3 108.749C114.648 108.666 115.002 108.603 115.364 108.56C115.821 108.507 116.192 108.464 116.477 108.431C116.762 108.395 116.969 108.337 117.099 108.257C117.228 108.178 117.293 108.048 117.293 107.869V107.835C117.293 107.4 117.17 107.064 116.925 106.825C116.683 106.587 116.321 106.467 115.841 106.467C115.34 106.467 114.946 106.578 114.658 106.8C114.373 107.019 114.175 107.263 114.066 107.531L112.669 107.213C112.835 106.749 113.077 106.375 113.395 106.089C113.716 105.801 114.086 105.592 114.503 105.463C114.921 105.33 115.36 105.264 115.821 105.264C116.126 105.264 116.449 105.301 116.79 105.374C117.135 105.443 117.457 105.572 117.755 105.761C118.056 105.95 118.303 106.22 118.496 106.572C118.688 106.92 118.784 107.372 118.784 107.929V113H117.332V111.956H117.273C117.176 112.148 117.032 112.337 116.84 112.523C116.648 112.708 116.401 112.862 116.099 112.985C115.798 113.108 115.436 113.169 115.016 113.169ZM115.339 111.976C115.75 111.976 116.101 111.895 116.393 111.732C116.688 111.57 116.911 111.358 117.064 111.096C117.22 110.831 117.297 110.547 117.297 110.246V109.261C117.244 109.314 117.142 109.364 116.989 109.411C116.84 109.454 116.669 109.492 116.477 109.525C116.285 109.555 116.098 109.583 115.915 109.609C115.733 109.633 115.581 109.652 115.458 109.669C115.17 109.705 114.906 109.767 114.668 109.853C114.432 109.939 114.243 110.063 114.101 110.226C113.962 110.385 113.892 110.597 113.892 110.862C113.892 111.23 114.028 111.509 114.3 111.697C114.571 111.883 114.918 111.976 115.339 111.976ZM120.764 113V105.364H122.201V106.577H122.28C122.419 106.166 122.665 105.843 123.016 105.607C123.371 105.369 123.772 105.249 124.219 105.249C124.312 105.249 124.421 105.253 124.547 105.259C124.677 105.266 124.778 105.274 124.851 105.284V106.706C124.791 106.689 124.685 106.671 124.532 106.651C124.38 106.628 124.227 106.616 124.075 106.616C123.724 106.616 123.41 106.691 123.135 106.84C122.864 106.986 122.648 107.19 122.489 107.452C122.33 107.71 122.25 108.005 122.25 108.337V113H120.764ZM127.504 110.41L127.494 108.595H127.753L130.795 105.364H132.575L129.105 109.043H128.871L127.504 110.41ZM126.137 113V102.818H127.623V113H126.137ZM130.959 113L128.225 109.371L129.249 108.332L132.784 113H130.959ZM136.907 113.154C136.154 113.154 135.506 112.993 134.963 112.672C134.423 112.347 134.005 111.891 133.71 111.305C133.418 110.715 133.272 110.024 133.272 109.232C133.272 108.449 133.418 107.76 133.71 107.163C134.005 106.567 134.416 106.101 134.943 105.766C135.473 105.432 136.093 105.264 136.802 105.264C137.233 105.264 137.651 105.335 138.055 105.478C138.459 105.621 138.822 105.844 139.144 106.149C139.465 106.454 139.719 106.85 139.905 107.337C140.09 107.821 140.183 108.41 140.183 109.102V109.629H134.113V108.516H138.726C138.726 108.125 138.647 107.778 138.488 107.477C138.329 107.172 138.105 106.931 137.816 106.756C137.531 106.58 137.197 106.492 136.812 106.492C136.395 106.492 136.03 106.595 135.718 106.8C135.41 107.003 135.172 107.268 135.003 107.596C134.837 107.921 134.754 108.274 134.754 108.655V109.525C134.754 110.035 134.843 110.469 135.022 110.827C135.205 111.185 135.458 111.459 135.783 111.648C136.108 111.833 136.487 111.926 136.922 111.926C137.203 111.926 137.46 111.886 137.692 111.807C137.924 111.724 138.125 111.601 138.294 111.439C138.463 111.277 138.592 111.076 138.682 110.837L140.088 111.091C139.976 111.505 139.774 111.868 139.482 112.18C139.194 112.488 138.831 112.728 138.393 112.901C137.959 113.07 137.463 113.154 136.907 113.154ZM145.397 105.364V106.557H141.226V105.364H145.397ZM142.344 103.534H143.831V110.758C143.831 111.046 143.874 111.263 143.96 111.409C144.046 111.552 144.157 111.649 144.293 111.702C144.432 111.752 144.583 111.777 144.746 111.777C144.865 111.777 144.969 111.769 145.059 111.752C145.148 111.736 145.218 111.722 145.268 111.712L145.536 112.94C145.45 112.973 145.327 113.007 145.168 113.04C145.009 113.076 144.81 113.096 144.572 113.099C144.181 113.106 143.816 113.036 143.478 112.891C143.14 112.745 142.866 112.519 142.658 112.214C142.449 111.91 142.344 111.527 142.344 111.066V103.534ZM147.041 113V105.364H148.528V113H147.041ZM147.792 104.185C147.533 104.185 147.311 104.099 147.126 103.927C146.943 103.751 146.852 103.542 146.852 103.3C146.852 103.055 146.943 102.846 147.126 102.674C147.311 102.498 147.533 102.411 147.792 102.411C148.05 102.411 148.271 102.498 148.453 102.674C148.639 102.846 148.732 103.055 148.732 103.3C148.732 103.542 148.639 103.751 148.453 103.927C148.271 104.099 148.05 104.185 147.792 104.185ZM152.014 108.466V113H150.528V105.364H151.954V106.607H152.049C152.225 106.202 152.5 105.877 152.874 105.632C153.252 105.387 153.728 105.264 154.301 105.264C154.821 105.264 155.277 105.374 155.668 105.592C156.059 105.808 156.363 106.129 156.578 106.557C156.793 106.984 156.901 107.513 156.901 108.143V113H155.415V108.322C155.415 107.768 155.27 107.336 154.982 107.024C154.694 106.709 154.298 106.552 153.794 106.552C153.449 106.552 153.143 106.626 152.874 106.776C152.609 106.925 152.399 107.143 152.243 107.432C152.09 107.717 152.014 108.062 152.014 108.466ZM162.096 116.023C161.49 116.023 160.968 115.943 160.53 115.784C160.096 115.625 159.742 115.415 159.467 115.153C159.191 114.891 158.986 114.604 158.85 114.293L160.128 113.766C160.217 113.911 160.337 114.066 160.486 114.228C160.638 114.394 160.844 114.535 161.102 114.651C161.364 114.767 161.7 114.825 162.111 114.825C162.675 114.825 163.141 114.687 163.508 114.412C163.876 114.14 164.06 113.706 164.06 113.109V111.608H163.966C163.876 111.77 163.747 111.951 163.578 112.15C163.412 112.349 163.184 112.521 162.892 112.667C162.6 112.813 162.221 112.886 161.753 112.886C161.15 112.886 160.607 112.745 160.123 112.463C159.642 112.178 159.261 111.759 158.979 111.205C158.701 110.648 158.562 109.964 158.562 109.152C158.562 108.34 158.699 107.644 158.974 107.064C159.253 106.484 159.634 106.04 160.118 105.732C160.602 105.42 161.15 105.264 161.763 105.264C162.237 105.264 162.62 105.344 162.912 105.503C163.203 105.659 163.431 105.841 163.593 106.05C163.759 106.259 163.886 106.442 163.976 106.602H164.085V105.364H165.542V113.169C165.542 113.825 165.389 114.364 165.084 114.785C164.779 115.206 164.367 115.517 163.846 115.719C163.329 115.922 162.746 116.023 162.096 116.023ZM162.082 111.653C162.509 111.653 162.87 111.553 163.165 111.354C163.464 111.152 163.689 110.864 163.842 110.489C163.997 110.112 164.075 109.659 164.075 109.132C164.075 108.618 163.999 108.166 163.846 107.775C163.694 107.384 163.47 107.079 163.175 106.86C162.88 106.638 162.516 106.527 162.082 106.527C161.634 106.527 161.261 106.643 160.963 106.875C160.665 107.104 160.439 107.415 160.287 107.81C160.138 108.204 160.063 108.645 160.063 109.132C160.063 109.633 160.139 110.072 160.292 110.45C160.444 110.827 160.67 111.122 160.968 111.335C161.27 111.547 161.641 111.653 162.082 111.653ZM168.515 113.094C168.243 113.094 168.009 112.998 167.814 112.806C167.618 112.611 167.52 112.375 167.52 112.1C167.52 111.828 167.618 111.596 167.814 111.404C168.009 111.209 168.243 111.111 168.515 111.111C168.787 111.111 169.02 111.209 169.216 111.404C169.411 111.596 169.509 111.828 169.509 112.1C169.509 112.282 169.463 112.45 169.37 112.602C169.28 112.751 169.161 112.871 169.012 112.96C168.863 113.05 168.697 113.094 168.515 113.094Z" fill="#4A5568"/>
<path d="M204 8H28C17.5066 8 9 16.5066 9 27V120C9 130.493 17.5066 139 28 139H204C214.493 139 223 130.493 223 120V27C223 16.5066 214.493 8 204 8Z" stroke="url(#paint0_radial_4325_19299)" stroke-width="2"/>
<path d="M204 8H28C17.5066 8 9 16.5066 9 27V120C9 130.493 17.5066 139 28 139H204C214.493 139 223 130.493 223 120V27C223 16.5066 214.493 8 204 8Z" stroke="url(#paint1_radial_4325_19299)" stroke-width="2"/>
<path d="M204 8H28C17.5066 8 9 16.5066 9 27V120C9 130.493 17.5066 139 28 139H204C214.493 139 223 130.493 223 120V27C223 16.5066 214.493 8 204 8Z" stroke="url(#paint2_linear_4325_19299)" stroke-width="2"/>
<path d="M204 8H28C17.5066 8 9 16.5066 9 27V120C9 130.493 17.5066 139 28 139H204C214.493 139 223 130.493 223 120V27C223 16.5066 214.493 8 204 8Z" stroke="#C1BABA" stroke-opacity="0.2" stroke-width="2"/>
</g>
<defs>
<filter id="filter0_d_4325_19299" x="0" y="0" width="258" height="175" filterUnits="userSpaceOnUse" color-interpolation-filters="sRGB">
<feFlood flood-opacity="0" result="BackgroundImageFix"/>
<feColorMatrix in="SourceAlpha" type="matrix" values="0 0 0 0 0 0 0 0 0 0 0 0 0 0 0 0 0 0 127 0" result="hardAlpha"/>
<feOffset dx="13" dy="14"/>
<feGaussianBlur stdDeviation="10.5"/>
<feColorMatrix type="matrix" values="0 0 0 0 0 0 0 0 0 0 0 0 0 0 0 0 0 0 0.06 0"/>
<feBlend mode="normal" in2="BackgroundImageFix" result="effect1_dropShadow_4325_19299"/>
<feBlend mode="normal" in="SourceGraphic" in2="effect1_dropShadow_4325_19299" result="shape"/>
</filter>
<radialGradient id="paint0_radial_4325_19299" cx="0" cy="0" r="1" gradientUnits="userSpaceOnUse" gradientTransform="translate(9.94287 10.957) rotate(30.8015) scale(245.35 345.367)">
<stop stop-color="#D8D8D8" stop-opacity="0"/>
<stop offset="1" stop-color="#D8D8D8"/>
</radialGradient>
<radialGradient id="paint1_radial_4325_19299" cx="0" cy="0" r="1" gradientUnits="userSpaceOnUse" gradientTransform="translate(10.9714 135.933) rotate(-30.7922) scale(244.129 343.23)">
<stop stop-color="#D8D8D8" stop-opacity="0"/>
<stop offset="1" stop-color="#D8D8D8"/>
</radialGradient>
<linearGradient id="paint2_linear_4325_19299" x1="12" y1="10.6273" x2="206.855" y2="155.21" gradientUnits="userSpaceOnUse">
<stop stop-color="white" stop-opacity="0.9"/>
<stop offset="1" stop-color="white" stop-opacity="0"/>
</linearGradient>
</defs>
</svg>
