<svg width="155" height="200" viewBox="0 0 155 200" fill="none" xmlns="http://www.w3.org/2000/svg">
<g filter="url(#filter0_bdd_4039_22233)">
<rect x="10" y="10" width="137" height="181.166" rx="17.0362" fill="#EDF2F7"/>
<rect width="17.3589" height="40.6132" rx="8" transform="matrix(0 -1 -1 0 73.3281 91.7366)" fill="#46AFBF"/>
<rect width="17.7461" height="72.404" rx="8" transform="matrix(0 -1 -1 0 105.473 71.0466)" fill="#46AFBF"/>
<rect width="17.0362" height="91.5697" rx="8" transform="matrix(0 -1 -1 0 124.285 49.7512)" fill="#46AFBF"/>
<path d="M41.5354 128.348C40.0351 128.348 38.6951 128.115 37.5154 127.649C36.3417 127.183 35.4161 126.551 34.7385 125.753C34.067 124.954 33.7312 124.053 33.7312 123.048C33.7312 122.28 33.9218 121.578 34.3029 120.943C34.6901 120.308 35.2104 119.782 35.8638 119.364C36.5171 118.941 37.2461 118.668 38.0508 118.547V118.402C36.992 118.221 36.1209 117.752 35.4373 116.996C34.7597 116.233 34.4209 115.335 34.4209 114.3C34.4209 113.326 34.7294 112.461 35.3465 111.705C35.9636 110.943 36.8075 110.344 37.8783 109.908C38.9492 109.473 40.1682 109.255 41.5354 109.255C42.9027 109.255 44.1217 109.476 45.1925 109.917C46.2634 110.353 47.1073 110.952 47.7244 111.714C48.3415 112.47 48.65 113.332 48.65 114.3C48.65 115.341 48.3052 116.239 47.6155 116.996C46.9258 117.752 46.0607 118.221 45.0201 118.402V118.547C45.8187 118.668 46.5447 118.941 47.1981 119.364C47.8514 119.782 48.3717 120.308 48.7589 120.943C49.1461 121.578 49.3397 122.28 49.3397 123.048C49.3397 124.053 49.0009 124.954 48.3233 125.753C47.6518 126.551 46.7262 127.183 45.5465 127.649C44.3728 128.115 43.0358 128.348 41.5354 128.348ZM41.5354 124.863C42.0134 124.863 42.4369 124.767 42.8059 124.573C43.1749 124.379 43.4653 124.113 43.6771 123.774C43.8949 123.43 44.0038 123.042 44.0038 122.613C44.0038 122.183 43.8949 121.802 43.6771 121.469C43.4653 121.137 43.1749 120.877 42.8059 120.689C42.4369 120.495 42.0134 120.399 41.5354 120.399C41.0636 120.399 40.6401 120.495 40.265 120.689C39.896 120.877 39.6025 121.137 39.3847 121.469C39.173 121.802 39.0671 122.183 39.0671 122.613C39.0671 123.042 39.173 123.427 39.3847 123.765C39.6025 124.104 39.896 124.373 40.265 124.573C40.6401 124.767 41.0636 124.863 41.5354 124.863ZM41.5354 116.914C41.9589 116.914 42.334 116.826 42.6607 116.651C42.9874 116.475 43.2445 116.233 43.4321 115.925C43.6196 115.616 43.7134 115.268 43.7134 114.881C43.7134 114.494 43.6196 114.152 43.4321 113.856C43.2445 113.553 42.9874 113.317 42.6607 113.148C42.334 112.973 41.9589 112.885 41.5354 112.885C41.118 112.885 40.7429 112.973 40.4102 113.148C40.0835 113.317 39.8264 113.553 39.6388 113.856C39.4513 114.152 39.3575 114.494 39.3575 114.881C39.3575 115.268 39.4513 115.616 39.6388 115.925C39.8264 116.227 40.0835 116.469 40.4102 116.651C40.7429 116.826 41.118 116.914 41.5354 116.914ZM59.3604 128.348C58.2775 128.348 57.249 128.179 56.275 127.84C55.307 127.495 54.448 126.954 53.6978 126.216C52.9476 125.477 52.3578 124.516 51.9282 123.33C51.5048 122.144 51.296 120.707 51.3021 119.019C51.3081 117.513 51.5017 116.158 51.8829 114.954C52.27 113.75 52.8176 112.724 53.5254 111.878C54.2393 111.031 55.0923 110.383 56.0844 109.936C57.0766 109.482 58.1807 109.255 59.3967 109.255C60.764 109.255 61.9679 109.518 63.0084 110.044C64.049 110.571 64.8778 111.276 65.4949 112.159C66.118 113.036 66.481 114.004 66.5839 115.063H61.6109C61.496 114.536 61.2298 114.152 60.8124 113.91C60.401 113.662 59.9291 113.538 59.3967 113.538C58.338 113.538 57.5606 113.998 57.0645 114.918C56.5745 115.837 56.3234 117.047 56.3113 118.547H56.4202C56.6562 117.979 57.0131 117.492 57.491 117.086C57.969 116.681 58.5255 116.369 59.1608 116.152C59.796 115.934 60.4675 115.825 61.1753 115.825C62.3006 115.825 63.2837 116.079 64.1246 116.587C64.9716 117.095 65.631 117.791 66.1029 118.674C66.5748 119.558 66.8077 120.568 66.8017 121.705C66.8077 123.036 66.4931 124.201 65.8579 125.199C65.2287 126.197 64.3545 126.972 63.2353 127.522C62.1161 128.073 60.8245 128.348 59.3604 128.348ZM59.3241 124.537C59.8262 124.537 60.2709 124.422 60.6581 124.192C61.0513 123.962 61.3568 123.647 61.5746 123.248C61.7985 122.849 61.9074 122.395 61.9013 121.887C61.9074 121.373 61.7985 120.919 61.5746 120.526C61.3568 120.126 61.0513 119.812 60.6581 119.582C60.2709 119.352 59.8262 119.237 59.3241 119.237C58.9551 119.237 58.6133 119.304 58.2987 119.437C57.9901 119.564 57.7209 119.748 57.491 119.99C57.2611 120.226 57.0796 120.508 56.9465 120.834C56.8195 121.155 56.7529 121.506 56.7469 121.887C56.7529 122.395 56.8679 122.849 57.0917 123.248C57.3156 123.647 57.6211 123.962 58.0083 124.192C58.3955 124.422 58.8341 124.537 59.3241 124.537Z" fill="black"/>
<path d="M33.4181 162.452V153.159H37.293C37.9888 153.159 38.571 153.257 39.0399 153.454C39.5118 153.651 39.8657 153.926 40.1016 154.28C40.3406 154.634 40.4601 155.044 40.4601 155.509C40.4601 155.863 40.386 156.179 40.2378 156.458C40.0895 156.733 39.8854 156.961 39.6252 157.143C39.3651 157.324 39.0641 157.451 38.7223 157.524V157.615C39.0974 157.633 39.4437 157.734 39.7613 157.919C40.082 158.103 40.3391 158.36 40.5327 158.69C40.7263 159.017 40.8231 159.404 40.8231 159.852C40.8231 160.351 40.696 160.797 40.4419 161.19C40.1879 161.58 39.8203 161.889 39.3394 162.116C38.8584 162.34 38.2746 162.452 37.588 162.452H33.4181ZM35.6641 160.641H37.0525C37.5396 160.641 37.898 160.549 38.1279 160.364C38.3608 160.18 38.4773 159.923 38.4773 159.593C38.4773 159.354 38.4213 159.148 38.3094 158.976C38.1975 158.8 38.0387 158.666 37.833 158.572C37.6273 158.475 37.3807 158.427 37.0934 158.427H35.6641V160.641ZM35.6641 156.979H36.9074C37.1524 156.979 37.3702 156.939 37.5607 156.857C37.7513 156.775 37.8995 156.657 38.0054 156.503C38.1143 156.349 38.1687 156.163 38.1687 155.945C38.1687 155.633 38.0583 155.388 37.8375 155.21C37.6167 155.031 37.3187 154.942 36.9437 154.942H35.6641V156.979ZM43.8676 162.57C43.423 162.57 43.0282 162.495 42.6834 162.347C42.3416 162.196 42.0709 161.969 41.8712 161.667C41.6746 161.361 41.5763 160.978 41.5763 160.519C41.5763 160.131 41.6443 159.805 41.7805 159.539C41.9166 159.272 42.1041 159.056 42.3431 158.89C42.5821 158.723 42.8573 158.598 43.1689 158.513C43.4805 158.425 43.8132 158.366 44.1671 158.336C44.5634 158.3 44.8825 158.262 45.1245 158.223C45.3665 158.18 45.5419 158.121 45.6508 158.046C45.7627 157.967 45.8187 157.857 45.8187 157.715V157.692C45.8187 157.459 45.7385 157.279 45.5782 157.152C45.4179 157.025 45.2016 156.961 44.9294 156.961C44.636 156.961 44.4 157.025 44.2216 157.152C44.0431 157.279 43.9297 157.454 43.8813 157.678L41.8349 157.606C41.8954 157.182 42.0512 156.804 42.3023 156.471C42.5563 156.136 42.9042 155.872 43.3458 155.682C43.7905 155.488 44.3244 155.391 44.9475 155.391C45.3922 155.391 45.8021 155.444 46.1772 155.55C46.5522 155.653 46.8789 155.804 47.1572 156.004C47.4355 156.201 47.6503 156.443 47.8015 156.73C47.9558 157.017 48.0329 157.346 48.0329 157.715V162.452H45.9457V161.481H45.8913C45.7673 161.716 45.6085 161.916 45.4149 162.079C45.2243 162.243 44.999 162.365 44.7388 162.447C44.4817 162.529 44.1913 162.57 43.8676 162.57ZM44.5528 161.118C44.7917 161.118 45.0065 161.069 45.1971 160.972C45.3907 160.876 45.5449 160.742 45.6599 160.573C45.7748 160.401 45.8323 160.201 45.8323 159.974V159.312C45.7688 159.345 45.6917 159.375 45.6009 159.402C45.5132 159.43 45.4164 159.455 45.3105 159.48C45.2046 159.504 45.0957 159.525 44.9838 159.543C44.8719 159.561 44.7645 159.578 44.6617 159.593C44.453 159.626 44.2745 159.678 44.1263 159.747C43.9811 159.817 43.8692 159.908 43.7905 160.02C43.7149 160.128 43.6771 160.258 43.6771 160.41C43.6771 160.64 43.7587 160.815 43.9221 160.936C44.0885 161.057 44.2987 161.118 44.5528 161.118ZM55.4742 157.61L53.4369 157.665C53.4157 157.519 53.3583 157.391 53.2645 157.279C53.1707 157.164 53.0482 157.075 52.897 157.011C52.7487 156.945 52.5763 156.911 52.3797 156.911C52.1226 156.911 51.9033 156.963 51.7218 157.066C51.5433 157.169 51.4556 157.308 51.4586 157.483C51.4556 157.619 51.51 157.737 51.622 157.837C51.7369 157.937 51.9411 158.017 52.2345 158.078L53.5776 158.332C54.2733 158.465 54.7905 158.686 55.1293 158.994C55.4711 159.303 55.6436 159.711 55.6466 160.219C55.6436 160.697 55.5014 161.113 55.2201 161.467C54.9418 161.821 54.5607 162.096 54.0767 162.293C53.5927 162.486 53.0391 162.583 52.416 162.583C51.4208 162.583 50.6358 162.379 50.0611 161.971C49.4894 161.559 49.1627 161.009 49.0811 160.319L51.2726 160.265C51.321 160.519 51.4465 160.712 51.6492 160.845C51.8519 160.978 52.1105 161.045 52.4251 161.045C52.7094 161.045 52.9408 160.992 53.1193 160.886C53.2978 160.78 53.3885 160.64 53.3915 160.464C53.3885 160.307 53.3189 160.181 53.1828 160.088C53.0467 159.991 52.8334 159.915 52.543 159.861L51.327 159.629C50.6283 159.502 50.108 159.268 49.7662 158.926C49.4244 158.581 49.255 158.143 49.258 157.61C49.255 157.144 49.379 156.747 49.6301 156.417C49.8811 156.084 50.2381 155.83 50.7009 155.655C51.1637 155.479 51.7097 155.391 52.3389 155.391C53.2826 155.391 54.0268 155.59 54.5712 155.986C55.1157 156.379 55.4167 156.921 55.4742 157.61ZM56.739 162.452V155.482H58.9577V162.452H56.739ZM57.8506 154.67C57.539 154.67 57.2713 154.567 57.0475 154.361C56.8237 154.153 56.7117 153.902 56.7117 153.608C56.7117 153.318 56.8237 153.07 57.0475 152.864C57.2713 152.655 57.539 152.551 57.8506 152.551C58.1652 152.551 58.4329 152.655 58.6537 152.864C58.8776 153.07 58.9895 153.318 58.9895 153.608C58.9895 153.902 58.8776 154.153 58.6537 154.361C58.4329 154.567 58.1652 154.67 57.8506 154.67ZM63.6232 162.583C62.8882 162.583 62.2575 162.432 61.7312 162.129C61.2079 161.827 60.8056 161.406 60.5242 160.868C60.2429 160.327 60.1023 159.7 60.1023 158.99C60.1023 158.276 60.2429 157.65 60.5242 157.111C60.8086 156.57 61.2124 156.148 61.7357 155.845C62.262 155.543 62.8897 155.391 63.6187 155.391C64.263 155.391 64.8241 155.508 65.3021 155.741C65.783 155.974 66.1581 156.303 66.4273 156.73C66.6996 157.153 66.8433 157.651 66.8584 158.223H64.7848C64.7425 157.866 64.6215 157.586 64.4218 157.383C64.2252 157.181 63.9681 157.079 63.6505 157.079C63.3934 157.079 63.168 157.152 62.9744 157.297C62.7808 157.439 62.6296 157.651 62.5207 157.932C62.4148 158.211 62.3619 158.555 62.3619 158.967C62.3619 159.378 62.4148 159.726 62.5207 160.01C62.6296 160.292 62.7808 160.505 62.9744 160.65C63.168 160.792 63.3934 160.863 63.6505 160.863C63.8562 160.863 64.0377 160.82 64.195 160.732C64.3553 160.644 64.4869 160.516 64.5897 160.346C64.6925 160.174 64.7576 159.965 64.7848 159.72H66.8584C66.8372 160.295 66.6935 160.797 66.4273 161.226C66.1642 161.656 65.7936 161.99 65.3157 162.229C64.8408 162.465 64.2766 162.583 63.6232 162.583ZM70.7389 162.452V153.159H77.2183V154.983H72.9849V156.889H76.887V158.717H72.9849V160.628H77.2183V162.452H70.7389ZM80.8436 158.477V162.452H78.6248V155.482H80.7347V156.762H80.8118C80.9661 156.335 81.2293 156.001 81.6013 155.759C81.9734 155.514 82.4166 155.391 82.9308 155.391C83.4208 155.391 83.8458 155.502 84.2058 155.723C84.5688 155.94 84.8501 156.246 85.0497 156.639C85.2524 157.029 85.3522 157.486 85.3492 158.009V162.452H83.1304V158.445C83.1335 158.058 83.0351 157.755 82.8355 157.538C82.6389 157.32 82.3651 157.211 82.0142 157.211C81.7813 157.211 81.5756 157.262 81.3972 157.365C81.2217 157.465 81.0856 157.609 80.9888 157.796C80.895 157.984 80.8466 158.211 80.8436 158.477ZM89.9716 165.21C89.3092 165.21 88.742 165.118 88.2701 164.933C87.7982 164.749 87.4277 164.496 87.1585 164.176C86.8892 163.855 86.7274 163.492 86.673 163.087L88.7738 162.969C88.8131 163.111 88.8857 163.235 88.9916 163.341C89.1004 163.447 89.2411 163.528 89.4135 163.586C89.589 163.643 89.7947 163.672 90.0306 163.672C90.4027 163.672 90.7097 163.581 90.9517 163.4C91.1967 163.221 91.3192 162.908 91.3192 162.461V161.236H91.2421C91.1544 161.45 91.0213 161.642 90.8428 161.812C90.6643 161.981 90.442 162.114 90.1758 162.211C89.9126 162.308 89.6101 162.356 89.2683 162.356C88.7601 162.356 88.2943 162.238 87.8708 162.002C87.4504 161.763 87.1131 161.394 86.859 160.895C86.6079 160.393 86.4824 159.747 86.4824 158.958C86.4824 158.144 86.6125 157.474 86.8726 156.948C87.1328 156.418 87.4731 156.027 87.8935 155.773C88.317 155.518 88.7722 155.391 89.2593 155.391C89.6253 155.391 89.9383 155.455 90.1985 155.582C90.4617 155.706 90.6779 155.866 90.8473 156.063C91.0167 156.26 91.1453 156.464 91.233 156.675H91.2965V155.482H93.5062V162.479C93.5062 163.069 93.358 163.566 93.0616 163.972C92.7651 164.377 92.3507 164.684 91.8183 164.893C91.2859 165.104 90.6704 165.21 89.9716 165.21ZM90.0397 160.741C90.3089 160.741 90.5388 160.67 90.7294 160.528C90.9199 160.386 91.0666 160.181 91.1695 159.915C91.2723 159.649 91.3237 159.33 91.3237 158.958C91.3237 158.58 91.2723 158.254 91.1695 157.982C91.0697 157.707 90.9229 157.495 90.7294 157.347C90.5388 157.199 90.3089 157.125 90.0397 157.125C89.7644 157.125 89.5315 157.2 89.3409 157.352C89.1504 157.503 89.0052 157.716 88.9053 157.991C88.8085 158.264 88.7601 158.586 88.7601 158.958C88.7601 159.33 88.8101 159.649 88.9099 159.915C89.0097 160.181 89.1534 160.386 89.3409 160.528C89.5315 160.67 89.7644 160.741 90.0397 160.741ZM97.1395 153.159V162.452H94.9207V153.159H97.1395ZM98.5517 162.452V155.482H100.771V162.452H98.5517ZM99.6634 154.67C99.3518 154.67 99.0841 154.567 98.8603 154.361C98.6364 154.153 98.5245 153.902 98.5245 153.608C98.5245 153.318 98.6364 153.07 98.8603 152.864C99.0841 152.655 99.3518 152.551 99.6634 152.551C99.978 152.551 100.246 152.655 100.466 152.864C100.69 153.07 100.802 153.318 100.802 153.608C100.802 153.902 100.69 154.153 100.466 154.361C100.246 154.567 99.978 154.67 99.6634 154.67ZM108.267 157.61L106.23 157.665C106.209 157.519 106.151 157.391 106.058 157.279C105.964 157.164 105.841 157.075 105.69 157.011C105.542 156.945 105.369 156.911 105.173 156.911C104.916 156.911 104.696 156.963 104.515 157.066C104.336 157.169 104.249 157.308 104.252 157.483C104.249 157.619 104.303 157.737 104.415 157.837C104.53 157.937 104.734 158.017 105.028 158.078L106.371 158.332C107.066 158.465 107.584 158.686 107.922 158.994C108.264 159.303 108.437 159.711 108.44 160.219C108.437 160.697 108.295 161.113 108.013 161.467C107.735 161.821 107.354 162.096 106.87 162.293C106.386 162.486 105.832 162.583 105.209 162.583C104.214 162.583 103.429 162.379 102.854 161.971C102.283 161.559 101.956 161.009 101.874 160.319L104.066 160.265C104.114 160.519 104.24 160.712 104.442 160.845C104.645 160.978 104.904 161.045 105.218 161.045C105.503 161.045 105.734 160.992 105.912 160.886C106.091 160.78 106.182 160.64 106.185 160.464C106.182 160.307 106.112 160.181 105.976 160.088C105.84 159.991 105.627 159.915 105.336 159.861L104.12 159.629C103.421 159.502 102.901 159.268 102.559 158.926C102.218 158.581 102.048 158.143 102.051 157.61C102.048 157.144 102.172 156.747 102.423 156.417C102.674 156.084 103.031 155.83 103.494 155.655C103.957 155.479 104.503 155.391 105.132 155.391C106.076 155.391 106.82 155.59 107.364 155.986C107.909 156.379 108.21 156.921 108.267 157.61ZM111.751 158.477V162.452H109.532V153.159H111.678V156.762H111.755C111.913 156.332 112.17 155.996 112.527 155.754C112.887 155.512 113.327 155.391 113.847 155.391C114.337 155.391 114.764 155.5 115.127 155.718C115.49 155.933 115.771 156.237 115.971 156.63C116.173 157.023 116.273 157.483 116.27 158.009V162.452H114.051V158.445C114.054 158.058 113.958 157.755 113.761 157.538C113.564 157.32 113.288 157.211 112.931 157.211C112.698 157.211 112.492 157.262 112.314 157.365C112.138 157.465 112 157.609 111.901 157.796C111.804 157.984 111.754 158.211 111.751 158.477Z" fill="#2F2E30"/>
<rect x="10.7098" y="10.7098" width="135.58" height="179.747" rx="16.3264" stroke="url(#paint0_radial_4039_22233)" stroke-width="1.41969"/>
<rect x="10.7098" y="10.7098" width="135.58" height="179.747" rx="16.3264" stroke="url(#paint1_radial_4039_22233)" stroke-width="1.41969"/>
<rect x="10.7098" y="10.7098" width="135.58" height="179.747" rx="16.3264" stroke="url(#paint2_linear_4039_22233)" stroke-width="1.41969"/>
<rect x="10.7098" y="10.7098" width="135.58" height="179.747" rx="16.3264" stroke="#C1BABA" stroke-opacity="0.2" stroke-width="1.41969"/>
</g>
<defs>
<filter id="filter0_bdd_4039_22233" x="0.235888" y="0.235888" width="156.528" height="200.695" filterUnits="userSpaceOnUse" color-interpolation-filters="sRGB">
<feFlood flood-opacity="0" result="BackgroundImageFix"/>
<feGaussianBlur in="BackgroundImage" stdDeviation="4.88206"/>
<feComposite in2="SourceAlpha" operator="in" result="effect1_backgroundBlur_4039_22233"/>
<feColorMatrix in="SourceAlpha" type="matrix" values="0 0 0 0 0 0 0 0 0 0 0 0 0 0 0 0 0 0 127 0" result="hardAlpha"/>
<feOffset dx="3.02222" dy="3.2547"/>
<feGaussianBlur stdDeviation="2.44103"/>
<feComposite in2="hardAlpha" operator="out"/>
<feColorMatrix type="matrix" values="0 0 0 0 0 0 0 0 0 0 0 0 0 0 0 0 0 0 0.1 0"/>
<feBlend mode="normal" in2="effect1_backgroundBlur_4039_22233" result="effect2_dropShadow_4039_22233"/>
<feColorMatrix in="SourceAlpha" type="matrix" values="0 0 0 0 0 0 0 0 0 0 0 0 0 0 0 0 0 0 127 0" result="hardAlpha"/>
<feOffset dx="-2.32479" dy="-2.32479"/>
<feGaussianBlur stdDeviation="3.48718"/>
<feComposite in2="hardAlpha" operator="out"/>
<feColorMatrix type="matrix" values="0 0 0 0 0.970833 0 0 0 0 0.985417 0 0 0 0 1 0 0 0 1 0"/>
<feBlend mode="normal" in2="effect2_dropShadow_4039_22233" result="effect3_dropShadow_4039_22233"/>
<feBlend mode="normal" in="SourceGraphic" in2="effect3_dropShadow_4039_22233" result="shape"/>
</filter>
<radialGradient id="paint0_radial_4039_22233" cx="0" cy="0" r="1" gradientUnits="userSpaceOnUse" gradientTransform="translate(11.2323 15.3901) rotate(52.0082) scale(217.149 337.134)">
<stop stop-color="#D8D8D8" stop-opacity="0"/>
<stop offset="1" stop-color="#D8D8D8"/>
</radialGradient>
<radialGradient id="paint1_radial_4039_22233" cx="0" cy="0" r="1" gradientUnits="userSpaceOnUse" gradientTransform="translate(11.8847 185.627) rotate(-51.9979) scale(216.039 335.093)">
<stop stop-color="#D8D8D8" stop-opacity="0"/>
<stop offset="1" stop-color="#D8D8D8"/>
</radialGradient>
<linearGradient id="paint2_linear_4039_22233" x1="12.537" y1="14.9409" x2="183.734" y2="74.089" gradientUnits="userSpaceOnUse">
<stop stop-color="white" stop-opacity="0.9"/>
<stop offset="1" stop-color="white" stop-opacity="0"/>
</linearGradient>
</defs>
</svg>
