<svg width="420" height="281" viewBox="0 0 420 281" fill="none" xmlns="http://www.w3.org/2000/svg">
<g filter="url(#filter0_dd_4590_19880)">
<path d="M382.677 14H40.0317C25.6548 14 14 25.6548 14 40.0317V243.49C14 257.867 25.6548 269.522 40.0317 269.522H382.677C397.054 269.522 408.709 257.867 408.709 243.49V40.0317C408.709 25.6548 397.054 14 382.677 14Z" fill="#E2E8F0"/>
<path d="M382.677 14H40.0317C25.6548 14 14 25.6548 14 40.0317V243.49C14 257.867 25.6548 269.522 40.0317 269.522H382.677C397.054 269.522 408.709 257.867 408.709 243.49V40.0317C408.709 25.6548 397.054 14 382.677 14Z" fill="url(#paint0_linear_4590_19880)"/>
<path d="M208 141.761C208 126.753 203.76 112.051 195.768 99.3485C187.776 86.6458 176.358 76.4595 162.829 69.9634L150.763 95.0926C159.557 99.315 166.979 105.936 172.173 114.193C177.368 122.45 180.124 132.006 180.124 141.761H208Z" fill="#46AFBF"/>
<path d="M83.2632 207.413C95.292 215.675 109.36 220.473 123.93 221.283C138.5 222.094 153.012 218.886 165.884 212.01C178.755 205.134 189.489 194.854 196.915 182.293C204.342 169.731 208.174 155.37 207.994 140.779L180.12 141.123C180.237 150.607 177.746 159.941 172.919 168.106C168.092 176.272 161.115 182.954 152.748 187.423C144.382 191.893 134.949 193.978 125.478 193.451C116.008 192.924 106.864 189.805 99.0451 184.435L83.2632 207.413Z" fill="#FD8F80"/>
<path d="M162.832 69.965C149.133 63.3862 133.837 60.8642 118.751 62.6967C103.664 64.5293 89.4166 70.6399 77.6904 80.3072L95.4228 101.816C103.045 95.5323 112.306 91.5604 122.112 90.3693C131.918 89.1781 141.86 90.8174 150.765 95.0936L162.832 69.965Z" fill="#449F93"/>
<path d="M78.505 79.6448C68.7832 87.4467 61.0284 97.4217 55.8645 108.767C50.7006 120.112 48.2718 132.512 48.7735 144.967C49.2753 157.422 52.6935 169.585 58.7532 180.479C64.8129 191.372 73.3449 200.691 83.6628 207.686L99.3049 184.612C92.5983 180.065 87.0525 174.008 83.1137 166.928C79.1748 159.847 76.953 151.941 76.6269 143.845C76.3007 135.749 77.8795 127.689 81.236 120.315C84.5925 112.94 89.6331 106.457 95.9523 101.385L78.505 79.6448Z" fill="#F5B11E"/>
<path d="M258.476 92.6614C258.476 94.2237 258.176 95.5479 257.575 96.6341C256.974 97.7203 256.161 98.5454 255.135 99.1093C254.113 99.6732 252.967 99.9551 251.696 99.9551C250.42 99.9551 249.272 99.6709 248.25 99.1023C247.229 98.5338 246.417 97.7088 245.816 96.6272C245.22 95.541 244.922 94.2191 244.922 92.6614C244.922 91.0991 245.22 89.7749 245.816 88.6887C246.417 87.6025 247.229 86.7775 248.25 86.2136C249.272 85.6497 250.42 85.3677 251.696 85.3677C252.967 85.3677 254.113 85.6497 255.135 86.2136C256.161 86.7775 256.974 87.6025 257.575 88.6887C258.176 89.7749 258.476 91.0991 258.476 92.6614ZM254.968 92.6614C254.968 91.737 254.837 90.9559 254.573 90.318C254.314 89.6802 253.94 89.1971 253.45 88.869C252.965 88.5408 252.38 88.3767 251.696 88.3767C251.016 88.3767 250.432 88.5408 249.942 88.869C249.452 89.1971 249.075 89.6802 248.812 90.318C248.553 90.9559 248.423 91.737 248.423 92.6614C248.423 93.5858 248.553 94.367 248.812 95.0048C249.075 95.6427 249.452 96.1257 249.942 96.4539C250.432 96.782 251.016 96.9461 251.696 96.9461C252.38 96.9461 252.965 96.782 253.45 96.4539C253.94 96.1257 254.314 95.6427 254.573 95.0048C254.837 94.367 254.968 93.5858 254.968 92.6614ZM270.811 89.1116L267.157 99.761H263.274L259.627 89.1116H263.198L265.16 96.4469H265.271L267.24 89.1116H270.811ZM276.745 99.962C275.631 99.962 274.67 99.7425 273.861 99.3034C273.057 98.8597 272.438 98.2288 272.003 97.4106C271.573 96.5879 271.358 95.6103 271.358 94.4779C271.358 93.3778 271.576 92.4164 272.01 91.5937C272.444 90.7664 273.057 90.1239 273.847 89.6663C274.638 89.2041 275.569 88.973 276.641 88.973C277.399 88.973 278.093 89.0908 278.721 89.3266C279.35 89.5623 279.893 89.9113 280.351 90.3735C280.808 90.8357 281.164 91.4065 281.418 92.086C281.673 92.7608 281.8 93.535 281.8 94.4086V95.2544H272.544V93.2854H278.645C278.64 92.9249 278.555 92.6036 278.389 92.3217C278.222 92.0397 277.993 91.8202 277.702 91.663C277.416 91.5013 277.085 91.4204 276.711 91.4204C276.332 91.4204 275.992 91.5059 275.692 91.6769C275.391 91.8433 275.153 92.0721 274.977 92.3633C274.802 92.6499 274.709 92.9757 274.7 93.3409V95.3446C274.7 95.779 274.786 96.1604 274.957 96.4885C275.128 96.8121 275.37 97.064 275.685 97.2442C275.999 97.4245 276.373 97.5146 276.808 97.5146C277.108 97.5146 277.381 97.473 277.626 97.3898C277.871 97.3066 278.081 97.1842 278.257 97.0224C278.432 96.8606 278.564 96.6619 278.652 96.4261L281.765 96.5163C281.636 97.2142 281.351 97.822 280.912 98.3397C280.478 98.8527 279.907 99.2526 279.2 99.5391C278.493 99.8211 277.674 99.962 276.745 99.962ZM283.531 99.761V89.1116H286.824V91.0529H286.935C287.13 90.3504 287.446 89.8281 287.885 89.486C288.324 89.1394 288.835 88.966 289.417 88.966C289.575 88.966 289.736 88.9776 289.903 89.0007C290.069 89.0192 290.224 89.0492 290.367 89.0908V92.0374C290.206 91.982 289.993 91.9381 289.729 91.9057C289.471 91.8733 289.24 91.8572 289.036 91.8572C288.634 91.8572 288.271 91.9473 287.948 92.1276C287.629 92.3032 287.377 92.5505 287.192 92.8694C287.012 93.1837 286.922 93.5535 286.922 93.9787V99.761H283.531ZM294.35 99.9412C293.671 99.9412 293.068 99.828 292.541 99.6015C292.019 99.3704 291.605 99.0238 291.3 98.5615C290.999 98.0947 290.849 97.51 290.849 96.8075C290.849 96.2158 290.953 95.7166 291.161 95.3099C291.369 94.9031 291.656 94.5727 292.021 94.3184C292.386 94.0642 292.807 93.8724 293.283 93.743C293.759 93.609 294.267 93.5188 294.808 93.4726C295.414 93.4171 295.901 93.3594 296.271 93.2993C296.641 93.2346 296.909 93.1444 297.075 93.0289C297.246 92.9087 297.332 92.74 297.332 92.5228V92.4881C297.332 92.1322 297.209 91.8572 296.964 91.663C296.719 91.4689 296.389 91.3718 295.973 91.3718C295.524 91.3718 295.164 91.4689 294.891 91.663C294.619 91.8572 294.445 92.1253 294.371 92.4673L291.244 92.3564C291.337 91.7093 291.575 91.1315 291.958 90.6231C292.347 90.11 292.878 89.7079 293.553 89.4167C294.233 89.1209 295.048 88.973 296.001 88.973C296.68 88.973 297.306 89.0539 297.879 89.2156C298.453 89.3728 298.952 89.6039 299.377 89.9089C299.802 90.2094 300.13 90.5792 300.361 91.0183C300.597 91.4574 300.715 91.9589 300.715 92.5228V99.761H297.526V98.2773H297.443C297.253 98.6378 297.01 98.9429 296.715 99.1925C296.423 99.4421 296.079 99.6293 295.682 99.7541C295.289 99.8789 294.845 99.9412 294.35 99.9412ZM295.397 97.7226C295.762 97.7226 296.091 97.6487 296.382 97.5008C296.678 97.3529 296.913 97.1495 297.089 96.8907C297.265 96.6272 297.352 96.3221 297.352 95.9755V94.9632C297.255 95.0141 297.138 95.0603 296.999 95.1019C296.865 95.1435 296.717 95.1828 296.555 95.2198C296.393 95.2567 296.227 95.2891 296.056 95.3168C295.885 95.3446 295.721 95.37 295.564 95.3931C295.245 95.4439 294.972 95.5225 294.746 95.6288C294.524 95.7351 294.353 95.8738 294.233 96.0448C294.117 96.2112 294.059 96.41 294.059 96.6411C294.059 96.9923 294.184 97.2604 294.434 97.4453C294.688 97.6302 295.009 97.7226 295.397 97.7226ZM306.178 85.5619V99.761H302.788V85.5619H306.178ZM311.727 85.5619V99.761H308.336V85.5619H311.727ZM325.754 89.8188C325.708 89.3104 325.502 88.9152 325.137 88.6332C324.777 88.3467 324.261 88.2034 323.591 88.2034C323.147 88.2034 322.778 88.2612 322.482 88.3767C322.186 88.4923 321.964 88.6517 321.816 88.8551C321.668 89.0539 321.592 89.2827 321.587 89.5415C321.578 89.7541 321.62 89.9413 321.712 90.1031C321.809 90.2649 321.948 90.4081 322.128 90.5329C322.313 90.6531 322.535 90.7594 322.794 90.8519C323.053 90.9443 323.344 91.0252 323.667 91.0945L324.888 91.3718C325.59 91.5244 326.209 91.7278 326.746 91.982C327.286 92.2362 327.739 92.5389 328.105 92.8902C328.474 93.2415 328.754 93.6459 328.943 94.1035C329.133 94.5611 329.23 95.0742 329.235 95.6427C329.23 96.5394 329.004 97.309 328.555 97.9514C328.107 98.5939 327.462 99.0862 326.621 99.4282C325.784 99.7702 324.774 99.9412 323.591 99.9412C322.403 99.9412 321.368 99.7633 320.485 99.4074C319.602 99.0515 318.916 98.5107 318.426 97.785C317.936 97.0594 317.684 96.1419 317.67 95.0326H320.956C320.984 95.4902 321.107 95.8715 321.324 96.1765C321.541 96.4816 321.839 96.7127 322.218 96.8699C322.602 97.027 323.046 97.1056 323.549 97.1056C324.012 97.1056 324.405 97.0432 324.728 96.9184C325.056 96.7936 325.308 96.6203 325.484 96.3984C325.659 96.1765 325.75 95.9223 325.754 95.6357C325.75 95.3677 325.666 95.1389 325.505 94.9494C325.343 94.7552 325.093 94.5888 324.756 94.4502C324.423 94.3069 323.998 94.1752 323.48 94.055L321.996 93.7083C320.767 93.4264 319.799 92.9711 319.091 92.3425C318.384 91.7093 318.033 90.8542 318.038 89.7772C318.033 88.899 318.269 88.1294 318.745 87.4685C319.221 86.8075 319.88 86.2921 320.721 85.9224C321.562 85.5526 322.521 85.3677 323.598 85.3677C324.698 85.3677 325.653 85.5549 326.461 85.9293C327.275 86.2991 327.906 86.8191 328.354 87.4893C328.803 88.1595 329.031 88.936 329.041 89.8188H325.754ZM335.939 99.962C334.816 99.962 333.852 99.7309 333.048 99.2687C332.248 98.8065 331.634 98.164 331.204 97.3413C330.774 96.514 330.559 95.5572 330.559 94.471C330.559 93.3802 330.774 92.4234 331.204 91.6006C331.638 90.7733 332.255 90.1285 333.055 89.6663C333.859 89.2041 334.818 88.973 335.932 88.973C336.917 88.973 337.774 89.1509 338.504 89.5068C339.239 89.8627 339.812 90.3665 340.224 91.0183C340.64 91.6654 340.859 92.4257 340.882 93.2993H337.714C337.649 92.7539 337.464 92.3263 337.159 92.0166C336.859 91.707 336.466 91.5521 335.981 91.5521C335.588 91.5521 335.243 91.663 334.948 91.8849C334.652 92.1021 334.421 92.4257 334.254 92.8555C334.093 93.2808 334.012 93.8077 334.012 94.4363C334.012 95.0649 334.093 95.5965 334.254 96.0309C334.421 96.4608 334.652 96.7867 334.948 97.0085C335.243 97.2258 335.588 97.3344 335.981 97.3344C336.295 97.3344 336.572 97.2674 336.813 97.1333C337.058 96.9993 337.259 96.8028 337.416 96.544C337.573 96.2805 337.672 95.9616 337.714 95.5872H340.882C340.85 96.4654 340.63 97.2327 340.224 97.889C339.822 98.5454 339.255 99.0561 338.525 99.4213C337.799 99.7818 336.937 99.962 335.939 99.962ZM347.589 99.962C346.47 99.962 345.509 99.7333 344.704 99.2757C343.905 98.8135 343.288 98.171 342.853 97.3482C342.423 96.5209 342.208 95.5618 342.208 94.471C342.208 93.3755 342.423 92.4164 342.853 91.5937C343.288 90.7664 343.905 90.1239 344.704 89.6663C345.509 89.2041 346.47 88.973 347.589 88.973C348.707 88.973 349.666 89.2041 350.466 89.6663C351.27 90.1239 351.887 90.7664 352.317 91.5937C352.751 92.4164 352.969 93.3755 352.969 94.471C352.969 95.5618 352.751 96.5209 352.317 97.3482C351.887 98.171 351.27 98.8135 350.466 99.2757C349.666 99.7333 348.707 99.962 347.589 99.962ZM347.609 97.4037C348.016 97.4037 348.36 97.2789 348.642 97.0293C348.924 96.7797 349.139 96.4331 349.287 95.9893C349.44 95.5456 349.516 95.0326 349.516 94.4502C349.516 93.8585 349.44 93.3409 349.287 92.8971C349.139 92.4534 348.924 92.1068 348.642 91.8572C348.36 91.6076 348.016 91.4828 347.609 91.4828C347.189 91.4828 346.833 91.6076 346.542 91.8572C346.255 92.1068 346.035 92.4534 345.883 92.8971C345.735 93.3409 345.661 93.8585 345.661 94.4502C345.661 95.0326 345.735 95.5456 345.883 95.9893C346.035 96.4331 346.255 96.7797 346.542 97.0293C346.833 97.2789 347.189 97.4037 347.609 97.4037ZM354.705 99.761V89.1116H357.999V91.0529H358.11C358.304 90.3504 358.62 89.8281 359.059 89.486C359.499 89.1394 360.009 88.966 360.592 88.966C360.749 88.966 360.911 88.9776 361.077 89.0007C361.243 89.0192 361.398 89.0492 361.542 89.0908V92.0374C361.38 91.982 361.167 91.9381 360.904 91.9057C360.645 91.8733 360.414 91.8572 360.21 91.8572C359.808 91.8572 359.445 91.9473 359.122 92.1276C358.803 92.3032 358.551 92.5505 358.366 92.8694C358.186 93.1837 358.096 93.5535 358.096 93.9787V99.761H354.705ZM367.348 99.962C366.234 99.962 365.273 99.7425 364.464 99.3034C363.66 98.8597 363.04 98.2288 362.606 97.4106C362.176 96.5879 361.961 95.6103 361.961 94.4779C361.961 93.3778 362.178 92.4164 362.613 91.5937C363.047 90.7664 363.66 90.1239 364.45 89.6663C365.24 89.2041 366.172 88.973 367.244 88.973C368.002 88.973 368.695 89.0908 369.324 89.3266C369.953 89.5623 370.496 89.9113 370.953 90.3735C371.411 90.8357 371.767 91.4065 372.021 92.086C372.275 92.7608 372.402 93.535 372.402 94.4086V95.2544H363.147V93.2854H369.248C369.243 92.9249 369.158 92.6036 368.991 92.3217C368.825 92.0397 368.596 91.8202 368.305 91.663C368.018 91.5013 367.688 91.4204 367.313 91.4204C366.934 91.4204 366.595 91.5059 366.294 91.6769C365.994 91.8433 365.756 92.0721 365.58 92.3633C365.404 92.6499 365.312 92.9757 365.303 93.3409V95.3446C365.303 95.779 365.388 96.1604 365.559 96.4885C365.73 96.8121 365.973 97.064 366.287 97.2442C366.602 97.4245 366.976 97.5146 367.41 97.5146C367.711 97.5146 367.984 97.473 368.229 97.3898C368.474 97.3066 368.684 97.1842 368.859 97.0224C369.035 96.8606 369.167 96.6619 369.255 96.4261L372.368 96.5163C372.238 97.2142 371.954 97.822 371.515 98.3397C371.08 98.8527 370.51 99.2526 369.802 99.5391C369.095 99.8211 368.277 99.962 367.348 99.962Z" fill="#1F1E1F"/>
<path d="M267.472 185.437C263.479 185.437 259.913 184.817 256.774 183.578C253.651 182.338 251.188 180.656 249.385 178.531C247.598 176.406 246.705 174.007 246.705 171.335C246.705 169.29 247.212 167.423 248.226 165.733C249.256 164.042 250.641 162.642 252.379 161.531C254.118 160.404 256.058 159.68 258.199 159.358V158.971C255.382 158.488 253.063 157.241 251.244 155.228C249.441 153.2 248.54 150.809 248.54 148.056C248.54 145.465 249.361 143.162 251.003 141.15C252.645 139.122 254.891 137.528 257.74 136.369C260.589 135.21 263.833 134.63 267.472 134.63C271.11 134.63 274.354 135.218 277.203 136.393C280.053 137.552 282.298 139.146 283.94 141.174C285.582 143.187 286.403 145.481 286.403 148.056C286.403 150.825 285.486 153.216 283.651 155.228C281.815 157.241 279.513 158.488 276.744 158.971V159.358C278.869 159.68 280.801 160.404 282.54 161.531C284.278 162.642 285.663 164.042 286.693 165.733C287.723 167.423 288.239 169.29 288.239 171.335C288.239 174.007 287.337 176.406 285.534 178.531C283.747 180.656 281.284 182.338 278.145 183.578C275.022 184.817 271.464 185.437 267.472 185.437ZM267.472 176.164C268.743 176.164 269.87 175.907 270.852 175.392C271.834 174.877 272.607 174.168 273.17 173.267C273.75 172.349 274.04 171.319 274.04 170.176C274.04 169.033 273.75 168.019 273.17 167.133C272.607 166.248 271.834 165.555 270.852 165.056C269.87 164.541 268.743 164.284 267.472 164.284C266.216 164.284 265.089 164.541 264.091 165.056C263.109 165.555 262.328 166.248 261.749 167.133C261.185 168.019 260.903 169.033 260.903 170.176C260.903 171.319 261.185 172.341 261.749 173.243C262.328 174.144 263.109 174.86 264.091 175.392C265.089 175.907 266.216 176.164 267.472 176.164ZM267.472 155.011C268.598 155.011 269.597 154.778 270.466 154.311C271.335 153.844 272.019 153.2 272.518 152.379C273.018 151.558 273.267 150.632 273.267 149.602C273.267 148.572 273.018 147.662 272.518 146.873C272.019 146.068 271.335 145.44 270.466 144.99C269.597 144.523 268.598 144.289 267.472 144.289C266.361 144.289 265.363 144.523 264.477 144.99C263.608 145.44 262.924 146.068 262.425 146.873C261.926 147.662 261.676 148.572 261.676 149.602C261.676 150.632 261.926 151.558 262.425 152.379C262.924 153.184 263.608 153.828 264.477 154.311C265.363 154.778 266.361 155.011 267.472 155.011ZM314.421 185.437C310.428 185.437 306.863 184.817 303.723 183.578C300.6 182.338 298.137 180.656 296.334 178.531C294.547 176.406 293.654 174.007 293.654 171.335C293.654 169.29 294.161 167.423 295.175 165.733C296.205 164.042 297.59 162.642 299.328 161.531C301.067 160.404 303.007 159.68 305.148 159.358V158.971C302.331 158.488 300.013 157.241 298.194 155.228C296.391 153.2 295.489 150.809 295.489 148.056C295.489 145.465 296.31 143.162 297.952 141.15C299.594 139.122 301.84 137.528 304.689 136.369C307.539 135.21 310.783 134.63 314.421 134.63C318.059 134.63 321.303 135.218 324.152 136.393C327.002 137.552 329.248 139.146 330.89 141.174C332.532 143.187 333.353 145.481 333.353 148.056C333.353 150.825 332.435 153.216 330.6 155.228C328.765 157.241 326.462 158.488 323.694 158.971V159.358C325.819 159.68 327.75 160.404 329.489 161.531C331.228 162.642 332.612 164.042 333.642 165.733C334.673 167.423 335.188 169.29 335.188 171.335C335.188 174.007 334.286 176.406 332.483 178.531C330.696 180.656 328.233 182.338 325.094 183.578C321.971 184.817 318.413 185.437 314.421 185.437ZM314.421 176.164C315.693 176.164 316.819 175.907 317.801 175.392C318.784 174.877 319.556 174.168 320.12 173.267C320.699 172.349 320.989 171.319 320.989 170.176C320.989 169.033 320.699 168.019 320.12 167.133C319.556 166.248 318.784 165.555 317.801 165.056C316.819 164.541 315.693 164.284 314.421 164.284C313.165 164.284 312.038 164.541 311.04 165.056C310.058 165.555 309.277 166.248 308.698 167.133C308.134 168.019 307.853 169.033 307.853 170.176C307.853 171.319 308.134 172.341 308.698 173.243C309.277 174.144 310.058 174.86 311.04 175.392C312.038 175.907 313.165 176.164 314.421 176.164ZM314.421 155.011C315.548 155.011 316.546 154.778 317.415 154.311C318.284 153.844 318.969 153.2 319.468 152.379C319.967 151.558 320.216 150.632 320.216 149.602C320.216 148.572 319.967 147.662 319.468 146.873C318.969 146.068 318.284 145.44 317.415 144.99C316.546 144.523 315.548 144.289 314.421 144.289C313.31 144.289 312.312 144.523 311.426 144.99C310.557 145.44 309.873 146.068 309.374 146.873C308.875 147.662 308.625 148.572 308.625 149.602C308.625 150.632 308.875 151.558 309.374 152.379C309.873 153.184 310.557 153.828 311.426 154.311C312.312 154.778 313.31 155.011 314.421 155.011Z" fill="#2F2E30"/>
<path d="M382.677 15.0847H40.0316C26.2537 15.0847 15.0845 26.2539 15.0845 40.0318V243.491C15.0845 257.269 26.2537 268.438 40.0316 268.438H382.677C396.455 268.438 407.624 257.269 407.624 243.491V40.0318C407.624 26.2539 396.455 15.0847 382.677 15.0847Z" stroke="url(#paint1_radial_4590_19880)" stroke-width="2.16931"/>
<path d="M382.677 15.0847H40.0316C26.2537 15.0847 15.0845 26.2539 15.0845 40.0318V243.491C15.0845 257.269 26.2537 268.438 40.0316 268.438H382.677C396.455 268.438 407.624 257.269 407.624 243.491V40.0318C407.624 26.2539 396.455 15.0847 382.677 15.0847Z" stroke="url(#paint2_radial_4590_19880)" stroke-width="2.16931"/>
<path d="M382.677 15.0847H40.0316C26.2537 15.0847 15.0845 26.2539 15.0845 40.0318V243.491C15.0845 257.269 26.2537 268.438 40.0316 268.438H382.677C396.455 268.438 407.624 257.269 407.624 243.491V40.0318C407.624 26.2539 396.455 15.0847 382.677 15.0847Z" stroke="url(#paint3_linear_4590_19880)" stroke-width="2.16931"/>
<path d="M382.677 15.0847H40.0316C26.2537 15.0847 15.0845 26.2539 15.0845 40.0318V243.491C15.0845 257.269 26.2537 268.438 40.0316 268.438H382.677C396.455 268.438 407.624 257.269 407.624 243.491V40.0318C407.624 26.2539 396.455 15.0847 382.677 15.0847Z" stroke="#C1BABA" stroke-opacity="0.2" stroke-width="2.16931"/>
</g>
<defs>
<filter id="filter0_dd_4590_19880" x="0.8997" y="0.8997" width="418.945" height="280.086" filterUnits="userSpaceOnUse" color-interpolation-filters="sRGB">
<feFlood flood-opacity="0" result="BackgroundImageFix"/>
<feColorMatrix in="SourceAlpha" type="matrix" values="0 0 0 0 0 0 0 0 0 0 0 0 0 0 0 0 0 0 127 0" result="hardAlpha"/>
<feOffset dx="4.2576" dy="4.58511"/>
<feGaussianBlur stdDeviation="3.43883"/>
<feColorMatrix type="matrix" values="0 0 0 0 0 0 0 0 0 0 0 0 0 0 0 0 0 0 0.1 0"/>
<feBlend mode="normal" in2="BackgroundImageFix" result="effect1_dropShadow_4590_19880"/>
<feColorMatrix in="SourceAlpha" type="matrix" values="0 0 0 0 0 0 0 0 0 0 0 0 0 0 0 0 0 0 127 0" result="hardAlpha"/>
<feOffset dx="-3.27508" dy="-3.27508"/>
<feGaussianBlur stdDeviation="4.91261"/>
<feColorMatrix type="matrix" values="0 0 0 0 0.970833 0 0 0 0 0.985417 0 0 0 0 1 0 0 0 1 0"/>
<feBlend mode="normal" in2="effect1_dropShadow_4590_19880" result="effect2_dropShadow_4590_19880"/>
<feBlend mode="normal" in="SourceGraphic" in2="effect2_dropShadow_4590_19880" result="shape"/>
</filter>
<linearGradient id="paint0_linear_4590_19880" x1="14" y1="141.761" x2="408.709" y2="141.761" gradientUnits="userSpaceOnUse">
<stop stop-color="#EDF2F7"/>
<stop offset="1" stop-color="#E2E8F0"/>
</linearGradient>
<radialGradient id="paint1_radial_4590_19880" cx="0" cy="0" r="1" gradientUnits="userSpaceOnUse" gradientTransform="translate(17.5501 21.6023) rotate(32.0785) scale(454.494 654.544)">
<stop stop-color="#D8D8D8" stop-opacity="0"/>
<stop offset="1" stop-color="#D8D8D8"/>
</radialGradient>
<radialGradient id="paint2_radial_4590_19880" cx="0" cy="0" r="1" gradientUnits="userSpaceOnUse" gradientTransform="translate(19.4297 261.708) rotate(-32.069) scale(452.229 650.499)">
<stop stop-color="#D8D8D8" stop-opacity="0"/>
<stop offset="1" stop-color="#D8D8D8"/>
</radialGradient>
<linearGradient id="paint3_linear_4590_19880" x1="21.3092" y1="20.9688" x2="389.853" y2="281.069" gradientUnits="userSpaceOnUse">
<stop stop-color="white" stop-opacity="0.9"/>
<stop offset="1" stop-color="white" stop-opacity="0"/>
</linearGradient>
</defs>
</svg>
