<svg width="156" height="193" viewBox="0 0 156 193" fill="none" xmlns="http://www.w3.org/2000/svg">
<g filter="url(#filter0_d_4325_19391)">
<path d="M113.542 5.49756H22.1977C13.5335 5.49756 6.50977 12.5213 6.50977 21.1855V149.511C6.50977 158.175 13.5335 165.199 22.1977 165.199H113.542C122.206 165.199 129.23 158.175 129.23 149.511V21.1855C129.23 12.5213 122.206 5.49756 113.542 5.49756Z" fill="#E2E8F0"/>
<path d="M95.3239 23.7158H40.4164C31.7522 23.7158 24.7285 30.7395 24.7285 39.4037V94.3112C24.7285 102.975 31.7522 109.999 40.4164 109.999H95.3239C103.988 109.999 111.012 102.975 111.012 94.3112V39.4037C111.012 30.7395 103.988 23.7158 95.3239 23.7158Z" fill="#E0E4E8"/>
<path d="M57.0717 72.9575H48.8639C48.4752 72.9575 48.1602 73.2725 48.1602 73.6612V89.613C48.1602 90.0017 48.4752 90.3167 48.8639 90.3167H57.0743C57.463 90.3167 57.7781 90.0016 57.778 89.6129L57.7754 73.6611C57.7753 73.2725 57.4603 72.9575 57.0717 72.9575Z" fill="#665E66"/>
<path d="M55.2285 72.9575H57.5744C57.9631 72.9575 58.2781 73.2725 58.2781 73.6612V89.613C58.2781 90.0017 57.9631 90.3167 57.5744 90.3167H55.9323L55.933 73.8035C55.933 73.5681 55.8153 73.3482 55.6193 73.2177L55.2285 72.9575Z" fill="#454045"/>
<path d="M86.6361 60.2876H78.4284C78.0397 60.2876 77.7246 60.6027 77.7246 60.9914V89.6107C77.7246 89.9994 78.0397 90.3145 78.4284 90.3145H86.6388C87.0275 90.3145 87.3426 89.9994 87.3425 89.6107L87.3398 60.9913C87.3398 60.6026 87.0247 60.2876 86.6361 60.2876Z" fill="#665E66"/>
<path d="M84.793 60.2876H87.1388C87.5275 60.2876 87.8426 60.6027 87.8426 60.9914V89.6107C87.8426 89.9994 87.5275 90.3145 87.1388 90.3145H85.4967L85.4974 61.362C85.4974 61.1925 85.4363 61.0287 85.3251 60.9006L84.793 60.2876Z" fill="#454045"/>
<path d="M46.3277 69.676C46.0782 69.6698 45.7969 69.6586 45.5113 69.645C44.5619 69.5998 43.9795 68.5994 44.3886 67.7415C44.581 67.3381 44.9693 67.0552 45.4108 66.9856C66.6548 63.6394 74.9854 58.1019 86.6957 43.9787C87.1375 43.446 87.9517 43.1104 88.6405 43.0426C88.8813 43.0188 89.0906 43.0521 89.2228 43.2812C89.3753 43.5453 89.4858 43.8582 89.5611 44.1219C89.6635 44.4803 89.5678 44.8615 89.3475 45.1622C78.2246 60.3426 65.2171 67.6985 46.3277 69.676Z" fill="#FEBD2F"/>
<path d="M80.9571 44.6941L80.9583 44.5547C80.964 43.8463 81.4953 43.2526 82.1987 43.1685L88.6159 42.4017C89.3362 42.3156 90.0039 42.791 90.1582 43.4998L90.1925 43.6574C90.2084 43.7305 90.2185 43.8047 90.2226 43.8793L90.229 43.9952C90.27 44.7366 89.7279 45.3823 88.9907 45.4704L82.5655 46.2382C81.8621 46.3222 81.2059 45.8704 81.0334 45.1833L80.9995 45.0481C80.9704 44.9324 80.9562 44.8134 80.9571 44.6941Z" fill="#FEBD2F"/>
<path d="M88.4829 51.8241L88.3448 51.8059C87.6428 51.7134 87.1188 51.1139 87.1211 50.4059L87.1423 43.8867C87.1446 43.1616 87.6974 42.557 88.4193 42.4898L88.5801 42.4748C88.655 42.4679 88.7303 42.4669 88.8053 42.472L88.921 42.4798C89.6616 42.5298 90.2361 43.1463 90.2337 43.8887L90.2126 50.4159C90.2103 51.1239 89.6824 51.72 88.9799 51.8079L88.8416 51.8253C88.7225 51.8402 88.602 51.8398 88.4829 51.8241Z" fill="#FEBD2F"/>
<path d="M72.0697 69.2109H63.862C63.4733 69.2109 63.1582 69.526 63.1582 69.9146V89.8544C63.1582 90.2431 63.4733 90.5581 63.862 90.5581H72.0723C72.4611 90.5581 72.7762 90.243 72.7761 89.8543L72.7734 69.9146C72.7734 69.5259 72.4583 69.2109 72.0697 69.2109Z" fill="#665E66"/>
<path d="M69.6523 69.2109H71.9981C72.3868 69.2109 72.7019 69.526 72.7019 69.9146V89.8544C72.7019 90.2431 72.3868 90.5581 71.9981 90.5581H70.356L70.3567 70.1211C70.3567 69.9102 70.2621 69.7103 70.0989 69.5767L69.6523 69.2109Z" fill="#454045"/>
<path d="M55.6006 130.968C55.5402 130.359 55.2811 129.886 54.8232 129.549C54.3653 129.212 53.7438 129.044 52.9589 129.044C52.4255 129.044 51.9751 129.119 51.6078 129.27C51.2405 129.416 50.9587 129.62 50.7625 129.881C50.5712 130.143 50.4756 130.44 50.4756 130.772C50.4656 131.049 50.5234 131.29 50.6492 131.497C50.7801 131.703 50.9587 131.882 51.1851 132.033C51.4116 132.178 51.6732 132.307 51.9701 132.417C52.267 132.523 52.584 132.614 52.9211 132.689L54.3099 133.021C54.9842 133.172 55.6031 133.374 56.1667 133.625C56.7302 133.877 57.2183 134.186 57.6309 134.554C58.0435 134.921 58.3631 135.354 58.5895 135.852C58.821 136.35 58.9392 136.921 58.9442 137.565C58.9392 138.511 58.6977 139.331 58.2197 140.026C57.7467 140.715 57.0623 141.251 56.1667 141.633C55.276 142.011 54.2017 142.199 52.9438 142.199C51.6959 142.199 50.609 142.008 49.6831 141.626C48.7623 141.243 48.0427 140.677 47.5245 139.928C47.0112 139.173 46.742 138.239 46.7168 137.127H49.8794C49.9146 137.646 50.063 138.078 50.3247 138.426C50.5914 138.768 50.9461 139.027 51.3889 139.203C51.8368 139.374 52.3425 139.46 52.906 139.46C53.4595 139.46 53.9401 139.379 54.3476 139.218C54.7603 139.057 55.0798 138.833 55.3062 138.546C55.5327 138.259 55.6459 137.93 55.6459 137.558C55.6459 137.21 55.5427 136.918 55.3364 136.682C55.1351 136.445 54.8383 136.244 54.4458 136.078C54.0583 135.912 53.5828 135.761 53.0192 135.625L51.3361 135.203C50.0328 134.886 49.0038 134.39 48.249 133.716C47.4943 133.041 47.1194 132.133 47.1244 130.991C47.1194 130.055 47.3685 129.237 47.8717 128.538C48.3799 127.839 49.0768 127.293 49.9624 126.9C50.848 126.508 51.8544 126.311 52.9815 126.311C54.1288 126.311 55.1301 126.508 55.9855 126.9C56.846 127.293 57.5152 127.839 57.9932 128.538C58.4713 129.237 58.7178 130.047 58.7329 130.968H55.6006ZM63.9956 138.644L64.0031 134.787H64.4711L68.1846 130.387H71.8755L66.8864 136.214H66.1241L63.9956 138.644ZM61.0822 141.981V126.523H64.2975V141.981H61.0822ZM68.328 141.981L64.9164 136.931L67.06 134.659L72.0944 141.981H68.328ZM73.453 141.981V130.387H76.6683V141.981H73.453ZM75.0682 128.893C74.5902 128.893 74.1801 128.734 73.8379 128.417C73.5008 128.095 73.3322 127.71 73.3322 127.262C73.3322 126.82 73.5008 126.44 73.8379 126.123C74.1801 125.801 74.5902 125.64 75.0682 125.64C75.5462 125.64 75.9538 125.801 76.2909 126.123C76.6331 126.44 76.8042 126.82 76.8042 127.262C76.8042 127.71 76.6331 128.095 76.2909 128.417C75.9538 128.734 75.5462 128.893 75.0682 128.893ZM82.4594 126.523V141.981H79.244V126.523H82.4594ZM88.2504 126.523V141.981H85.035V126.523H88.2504Z" fill="#4A5568"/>
<path d="M113.541 6.67383H22.1968C14.1825 6.67383 7.68555 13.1708 7.68555 21.1852V149.511C7.68555 157.525 14.1825 164.022 22.1968 164.022H113.541C121.556 164.022 128.053 157.525 128.053 149.511V21.1852C128.053 13.1708 121.556 6.67383 113.541 6.67383Z" stroke="url(#paint0_radial_4325_19391)" stroke-width="2.35318"/>
<path d="M113.541 6.67383H22.1968C14.1825 6.67383 7.68555 13.1708 7.68555 21.1852V149.511C7.68555 157.525 14.1825 164.022 22.1968 164.022H113.541C121.556 164.022 128.053 157.525 128.053 149.511V21.1852C128.053 13.1708 121.556 6.67383 113.541 6.67383Z" stroke="url(#paint1_radial_4325_19391)" stroke-width="2.35318"/>
<path d="M113.541 6.67383H22.1968C14.1825 6.67383 7.68555 13.1708 7.68555 21.1852V149.511C7.68555 157.525 14.1825 164.022 22.1968 164.022H113.541C121.556 164.022 128.053 157.525 128.053 149.511V21.1852C128.053 13.1708 121.556 6.67383 113.541 6.67383Z" stroke="url(#paint2_linear_4325_19391)" stroke-width="2.35318"/>
<path d="M113.541 6.67383H22.1968C14.1825 6.67383 7.68555 13.1708 7.68555 21.1852V149.511C7.68555 157.525 14.1825 164.022 22.1968 164.022H113.541C121.556 164.022 128.053 157.525 128.053 149.511V21.1852C128.053 13.1708 121.556 6.67383 113.541 6.67383Z" stroke="#C1BABA" stroke-opacity="0.2" stroke-width="2.35318"/>
</g>
<defs>
<filter id="filter0_d_4325_19391" x="0.234585" y="0.00628948" width="155.665" height="192.647" filterUnits="userSpaceOnUse" color-interpolation-filters="sRGB">
<feFlood flood-opacity="0" result="BackgroundImageFix"/>
<feColorMatrix in="SourceAlpha" type="matrix" values="0 0 0 0 0 0 0 0 0 0 0 0 0 0 0 0 0 0 127 0" result="hardAlpha"/>
<feOffset dx="10.1971" dy="10.9815"/>
<feGaussianBlur stdDeviation="8.23614"/>
<feColorMatrix type="matrix" values="0 0 0 0 0 0 0 0 0 0 0 0 0 0 0 0 0 0 0.06 0"/>
<feBlend mode="normal" in2="BackgroundImageFix" result="effect1_dropShadow_4325_19391"/>
<feBlend mode="normal" in="SourceGraphic" in2="effect1_dropShadow_4325_19391" result="shape"/>
</filter>
<radialGradient id="paint0_radial_4325_19391" cx="0" cy="0" r="1" gradientUnits="userSpaceOnUse" gradientTransform="translate(7.61278 10.2487) rotate(51.5617) scale(192.598 300.145)">
<stop stop-color="#D8D8D8" stop-opacity="0"/>
<stop offset="1" stop-color="#D8D8D8"/>
</radialGradient>
<radialGradient id="paint1_radial_4325_19391" cx="0" cy="0" r="1" gradientUnits="userSpaceOnUse" gradientTransform="translate(8.19713 160.315) rotate(-51.5514) scale(191.615 298.327)">
<stop stop-color="#D8D8D8" stop-opacity="0"/>
<stop offset="1" stop-color="#D8D8D8"/>
</radialGradient>
<linearGradient id="paint2_linear_4325_19391" x1="8.78154" y1="9.85273" x2="161.602" y2="63.5053" gradientUnits="userSpaceOnUse">
<stop stop-color="white" stop-opacity="0.9"/>
<stop offset="1" stop-color="white" stop-opacity="0"/>
</linearGradient>
</defs>
</svg>
