<svg width="203" height="194" viewBox="0 0 203 194" fill="none" xmlns="http://www.w3.org/2000/svg">
<g filter="url(#filter0_d_4325_19409)">
<path d="M159.748 6.21582H22.6879C14.0237 6.21582 7 13.2395 7 21.9037V150.229C7 158.893 14.0237 165.917 22.6879 165.917H159.748C168.412 165.917 175.436 158.893 175.436 150.229V21.9037C175.436 13.2395 168.412 6.21582 159.748 6.21582Z" fill="#E2E8F0"/>
<path d="M118.672 24.4341H63.7641C55.0999 24.4341 48.0762 31.4578 48.0762 40.122V95.0295C48.0762 103.694 55.0999 110.717 63.7641 110.717H118.672C127.336 110.717 134.359 103.694 134.359 95.0295V40.122C134.359 31.4578 127.336 24.4341 118.672 24.4341Z" fill="#E0E4E8"/>
<path d="M112.772 47.9668H70.4298C68.2637 47.9668 66.5078 49.7227 66.5078 51.8887V83.5402C66.5078 85.7063 68.2637 87.4622 70.4298 87.4622H112.772C114.938 87.4622 116.694 85.7063 116.694 83.5402V51.8887C116.694 49.7227 114.938 47.9668 112.772 47.9668Z" fill="#665E66"/>
<path d="M114.354 47.9668H107.36C105.96 70.3867 103.337 80.5585 90.0391 87.4622H114.354C116.087 87.4622 117.491 86.0575 117.491 84.3246V51.1043C117.491 49.3715 116.087 47.9668 114.354 47.9668Z" fill="#454045"/>
<path d="M75.3228 53.4619L75.4722 53.1594C75.6195 52.8612 75.9233 52.6724 76.2559 52.6724H101.542C101.907 52.6724 102.234 52.9 102.361 53.2429L102.492 53.5968C102.553 53.7611 102.563 53.9399 102.521 54.11L102.459 54.361C102.363 54.7513 102.013 55.0255 101.611 55.0255H76.2559C75.9233 55.0255 75.6195 54.8367 75.4722 54.5385L75.3228 54.236C75.2023 53.992 75.2023 53.7059 75.3228 53.4619Z" fill="#8D858D"/>
<path d="M75.3955 58.8946L75.5748 58.592C75.7322 58.3264 76.018 58.1636 76.3267 58.1636H106.985C107.331 58.1636 107.644 58.367 107.784 58.6827L107.946 59.0458C108.03 59.2358 108.044 59.4497 107.985 59.6491L107.913 59.891C107.803 60.2622 107.462 60.5168 107.075 60.5168H76.3267C76.018 60.5168 75.7322 60.3539 75.5748 60.0883L75.3955 59.7858C75.2327 59.511 75.2327 59.1693 75.3955 58.8946Z" fill="#8D858D"/>
<path d="M75.204 77.1323L75.2937 76.8298C75.4036 76.4587 75.7446 76.2041 76.1317 76.2041H90.6401C91.0498 76.2041 91.4045 76.4886 91.4934 76.8885L91.5677 77.2229C91.5908 77.3272 91.5947 77.4349 91.579 77.5406L91.5389 77.8113C91.4754 78.2399 91.1076 78.5572 90.6743 78.5572H76.1317C75.7446 78.5572 75.4036 78.3026 75.2937 77.9315L75.204 77.629C75.156 77.4669 75.156 77.2944 75.204 77.1323Z" fill="#8D858D"/>
<path d="M106.788 75.6333H101.588C100.977 75.6333 100.482 76.1283 100.482 76.7388V90.0582C100.482 90.8747 101.337 91.4095 102.072 91.0523L103.62 90.2988C103.919 90.1538 104.266 90.1502 104.567 90.2892L106.327 91.1012C107.059 91.4393 107.896 90.9042 107.895 90.0973L107.894 76.7387C107.894 76.1282 107.399 75.6333 106.788 75.6333Z" fill="#FBC157"/>
<path d="M104.188 79.5365C108.498 79.5365 111.992 76.0428 111.992 71.7331C111.992 67.4234 108.498 63.9297 104.188 63.9297C99.8785 63.9297 96.3848 67.4234 96.3848 71.7331C96.3848 76.0428 99.8785 79.5365 104.188 79.5365Z" fill="#FFA600"/>
<path d="M104.186 74.6577C105.802 74.6577 107.112 73.3476 107.112 71.7315C107.112 70.1153 105.802 68.8052 104.186 68.8052C102.57 68.8052 101.26 70.1153 101.26 71.7315C101.26 73.3476 102.57 74.6577 104.186 74.6577Z" fill="#FBC157"/>
<path d="M40.2016 132.653H36.8957C36.8353 132.225 36.712 131.845 36.5258 131.513C36.3396 131.176 36.1006 130.889 35.8088 130.653C35.5169 130.416 35.1798 130.235 34.7974 130.109C34.42 129.983 34.0099 129.92 33.5671 129.92C32.767 129.92 32.0701 130.119 31.4764 130.517C30.8826 130.909 30.4222 131.483 30.0951 132.238C29.768 132.987 29.6045 133.898 29.6045 134.97C29.6045 136.072 29.768 136.998 30.0951 137.748C30.4272 138.497 30.8901 139.063 31.4839 139.446C32.0777 139.828 32.7645 140.019 33.5445 140.019C33.9822 140.019 34.3873 139.962 34.7596 139.846C35.137 139.73 35.4716 139.561 35.7635 139.34C36.0553 139.114 36.2969 138.839 36.4881 138.517C36.6843 138.195 36.8202 137.828 36.8957 137.415L40.2016 137.431C40.1161 138.14 39.9022 138.824 39.56 139.483C39.2229 140.138 38.7675 140.724 38.1939 141.242C37.6253 141.755 36.946 142.163 36.156 142.465C35.371 142.762 34.4829 142.91 33.4916 142.91C32.1129 142.91 30.8801 142.598 29.7932 141.974C28.7114 141.35 27.8559 140.447 27.227 139.265C26.603 138.082 26.291 136.651 26.291 134.97C26.291 133.284 26.608 131.85 27.2421 130.668C27.8761 129.485 28.7365 128.585 29.8234 127.966C30.9103 127.342 32.133 127.03 33.4916 127.03C34.3873 127.03 35.2175 127.155 35.9824 127.407C36.7523 127.659 37.4341 128.026 38.0278 128.509C38.6216 128.987 39.1046 129.573 39.477 130.268C39.8544 130.962 40.0959 131.757 40.2016 132.653ZM47.7682 142.925C46.5757 142.925 45.5492 142.684 44.6887 142.201C43.8333 141.713 43.1742 141.023 42.7112 140.133C42.2483 139.237 42.0168 138.178 42.0168 136.955C42.0168 135.762 42.2483 134.716 42.7112 133.815C43.1742 132.914 43.8258 132.212 44.6661 131.709C45.5115 131.206 46.5027 130.955 47.6399 130.955C48.4048 130.955 49.1168 131.078 49.7759 131.324C50.4402 131.566 51.0188 131.931 51.5119 132.419C52.0101 132.907 52.3975 133.521 52.6743 134.26C52.951 134.995 53.0894 135.856 53.0894 136.842V137.725H43.3V135.732H50.0628C50.0628 135.269 49.9621 134.859 49.7609 134.502C49.5596 134.145 49.2803 133.865 48.923 133.664C48.5708 133.458 48.1607 133.355 47.6928 133.355C47.2047 133.355 46.7719 133.468 46.3945 133.694C46.0222 133.916 45.7303 134.215 45.519 134.593C45.3077 134.965 45.1995 135.38 45.1944 135.838V137.732C45.1944 138.306 45.3001 138.802 45.5115 139.219C45.7278 139.637 46.0323 139.959 46.4247 140.185C46.8172 140.412 47.2827 140.525 47.8211 140.525C48.1783 140.525 48.5054 140.475 48.8023 140.374C49.0992 140.273 49.3533 140.123 49.5646 139.921C49.7759 139.72 49.937 139.473 50.0477 139.182L53.0215 139.378C52.8705 140.092 52.5611 140.716 52.0931 141.25C51.6302 141.778 51.0314 142.191 50.2967 142.488C49.5671 142.779 48.7243 142.925 47.7682 142.925ZM55.1877 142.699V131.105H58.3049V133.128H58.4257C58.637 132.409 58.9918 131.865 59.4899 131.498C59.9881 131.126 60.5617 130.939 61.2108 130.939C61.3719 130.939 61.5455 130.949 61.7316 130.97C61.9178 130.99 62.0813 131.017 62.2222 131.053V133.906C62.0713 133.86 61.8625 133.82 61.5958 133.785C61.3291 133.75 61.085 133.732 60.8636 133.732C60.3906 133.732 59.968 133.835 59.5956 134.042C59.2283 134.243 58.9364 134.525 58.7201 134.887C58.5087 135.249 58.4031 135.667 58.4031 136.14V142.699H55.1877ZM70.6323 131.105V133.521H63.6507V131.105H70.6323ZM65.2357 128.328H68.451V139.136C68.451 139.433 68.4963 139.665 68.5869 139.831C68.6775 139.992 68.8033 140.105 68.9643 140.17C69.1303 140.236 69.3216 140.268 69.5379 140.268C69.6889 140.268 69.8398 140.256 69.9908 140.231C70.1417 140.201 70.2575 140.178 70.338 140.163L70.8437 142.555C70.6827 142.606 70.4562 142.664 70.1644 142.729C69.8725 142.799 69.5178 142.842 69.1001 142.857C68.3252 142.888 67.6459 142.784 67.0622 142.548C66.4836 142.311 66.0332 141.944 65.7112 141.446C65.3892 140.948 65.2307 140.319 65.2357 139.559V128.328ZM72.7269 142.699V131.105H75.9422V142.699H72.7269ZM74.3421 129.611C73.8641 129.611 73.454 129.453 73.1118 129.135C72.7747 128.813 72.6061 128.429 72.6061 127.981C72.6061 127.538 72.7747 127.158 73.1118 126.841C73.454 126.519 73.8641 126.358 74.3421 126.358C74.8201 126.358 75.2277 126.519 75.5648 126.841C75.907 127.158 76.0781 127.538 76.0781 127.981C76.0781 128.429 75.907 128.813 75.5648 129.135C75.2277 129.453 74.8201 129.611 74.3421 129.611ZM84.7524 131.105V133.521H77.5971V131.105H84.7524ZM79.2349 142.699V130.268C79.2349 129.427 79.3985 128.73 79.7255 128.177C80.0576 127.623 80.5105 127.208 81.0841 126.932C81.6578 126.655 82.3094 126.516 83.039 126.516C83.5321 126.516 83.9825 126.554 84.3901 126.63C84.8027 126.705 85.1096 126.773 85.3109 126.833L84.7373 129.249C84.6115 129.208 84.4555 129.171 84.2693 129.135C84.0882 129.1 83.902 129.083 83.7108 129.083C83.2378 129.083 82.9082 129.193 82.722 129.415C82.5358 129.631 82.4427 129.936 82.4427 130.328V142.699H79.2349ZM86.7167 142.699V131.105H89.932V142.699H86.7167ZM88.3319 129.611C87.8539 129.611 87.4438 129.453 87.1016 129.135C86.7645 128.813 86.5959 128.429 86.5959 127.981C86.5959 127.538 86.7645 127.158 87.1016 126.841C87.4438 126.519 87.8539 126.358 88.3319 126.358C88.8099 126.358 89.2175 126.519 89.5546 126.841C89.8968 127.158 90.0679 127.538 90.0679 127.981C90.0679 128.429 89.8968 128.813 89.5546 129.135C89.2175 129.453 88.8099 129.611 88.3319 129.611ZM97.7459 142.925C96.5583 142.925 95.5369 142.674 94.6815 142.171C93.8311 141.662 93.1769 140.958 92.719 140.057C92.2662 139.156 92.0397 138.12 92.0397 136.947C92.0397 135.76 92.2687 134.718 92.7266 133.823C93.1895 132.922 93.8462 132.22 94.6966 131.717C95.5469 131.209 96.5583 130.955 97.7308 130.955C98.7422 130.955 99.6278 131.138 100.388 131.505C101.148 131.873 101.749 132.389 102.192 133.053C102.635 133.717 102.879 134.497 102.924 135.393H99.8894C99.8039 134.814 99.5775 134.348 99.2101 133.996C98.8478 133.639 98.3723 133.46 97.7836 133.46C97.2854 133.46 96.8502 133.596 96.4778 133.868C96.1105 134.135 95.8237 134.525 95.6174 135.038C95.4111 135.551 95.3079 136.173 95.3079 136.902C95.3079 137.642 95.4086 138.271 95.6098 138.789C95.8161 139.307 96.1055 139.702 96.4778 139.974C96.8502 140.246 97.2854 140.382 97.7836 140.382C98.1509 140.382 98.4805 140.306 98.7724 140.155C99.0692 140.004 99.3133 139.785 99.5045 139.499C99.7007 139.207 99.829 138.857 99.8894 138.449H102.924C102.874 139.335 102.632 140.115 102.2 140.789C101.772 141.459 101.181 141.982 100.426 142.359C99.6705 142.737 98.7774 142.925 97.7459 142.925ZM108.289 142.918C107.549 142.918 106.89 142.789 106.311 142.533C105.733 142.271 105.275 141.886 104.938 141.378C104.605 140.865 104.439 140.226 104.439 139.461C104.439 138.817 104.558 138.276 104.794 137.838C105.031 137.4 105.353 137.048 105.76 136.781C106.168 136.515 106.631 136.313 107.149 136.178C107.672 136.042 108.221 135.946 108.794 135.891C109.469 135.82 110.012 135.755 110.425 135.695C110.837 135.629 111.137 135.533 111.323 135.408C111.509 135.282 111.602 135.096 111.602 134.849V134.804C111.602 134.326 111.451 133.956 111.149 133.694C110.852 133.433 110.43 133.302 109.881 133.302C109.303 133.302 108.842 133.43 108.5 133.687C108.158 133.938 107.931 134.255 107.821 134.638L104.847 134.396C104.998 133.692 105.295 133.083 105.738 132.57C106.18 132.051 106.751 131.654 107.451 131.377C108.155 131.095 108.971 130.955 109.896 130.955C110.54 130.955 111.157 131.03 111.746 131.181C112.339 131.332 112.865 131.566 113.323 131.883C113.786 132.2 114.151 132.607 114.418 133.106C114.684 133.599 114.818 134.19 114.818 134.879V142.699H111.768V141.091H111.678C111.491 141.453 111.242 141.773 110.93 142.05C110.618 142.321 110.244 142.535 109.806 142.691C109.368 142.842 108.862 142.918 108.289 142.918ZM109.21 140.699C109.683 140.699 110.1 140.606 110.462 140.419C110.825 140.228 111.109 139.972 111.315 139.65C111.522 139.328 111.625 138.963 111.625 138.555V137.325C111.524 137.39 111.386 137.451 111.21 137.506C111.039 137.556 110.845 137.604 110.629 137.649C110.412 137.69 110.196 137.727 109.979 137.763C109.763 137.793 109.567 137.82 109.391 137.846C109.013 137.901 108.684 137.989 108.402 138.11C108.12 138.231 107.901 138.394 107.745 138.6C107.589 138.802 107.511 139.053 107.511 139.355C107.511 139.793 107.67 140.128 107.987 140.359C108.309 140.585 108.716 140.699 109.21 140.699ZM123.479 131.105V133.521H116.497V131.105H123.479ZM118.082 128.328H121.297V139.136C121.297 139.433 121.343 139.665 121.433 139.831C121.524 139.992 121.65 140.105 121.811 140.17C121.977 140.236 122.168 140.268 122.384 140.268C122.535 140.268 122.686 140.256 122.837 140.231C122.988 140.201 123.104 140.178 123.184 140.163L123.69 142.555C123.529 142.606 123.303 142.664 123.011 142.729C122.719 142.799 122.364 142.842 121.946 142.857C121.172 142.888 120.492 142.784 119.909 142.548C119.33 142.311 118.88 141.944 118.557 141.446C118.235 140.948 118.077 140.319 118.082 139.559V128.328ZM125.573 142.699V131.105H128.788V142.699H125.573ZM127.188 129.611C126.71 129.611 126.3 129.453 125.958 129.135C125.621 128.813 125.452 128.429 125.452 127.981C125.452 127.538 125.621 127.158 125.958 126.841C126.3 126.519 126.71 126.358 127.188 126.358C127.666 126.358 128.074 126.519 128.411 126.841C128.753 127.158 128.924 127.538 128.924 127.981C128.924 128.429 128.753 128.813 128.411 129.135C128.074 129.453 127.666 129.611 127.188 129.611ZM136.602 142.925C135.43 142.925 134.416 142.676 133.561 142.178C132.71 141.675 132.054 140.975 131.591 140.08C131.128 139.179 130.896 138.135 130.896 136.947C130.896 135.75 131.128 134.703 131.591 133.808C132.054 132.907 132.71 132.207 133.561 131.709C134.416 131.206 135.43 130.955 136.602 130.955C137.775 130.955 138.786 131.206 139.637 131.709C140.492 132.207 141.151 132.907 141.614 133.808C142.077 134.703 142.308 135.75 142.308 136.947C142.308 138.135 142.077 139.179 141.614 140.08C141.151 140.975 140.492 141.675 139.637 142.178C138.786 142.676 137.775 142.925 136.602 142.925ZM136.617 140.435C137.151 140.435 137.596 140.284 137.953 139.982C138.311 139.675 138.58 139.257 138.761 138.729C138.947 138.2 139.04 137.599 139.04 136.925C139.04 136.251 138.947 135.649 138.761 135.121C138.58 134.593 138.311 134.175 137.953 133.868C137.596 133.561 137.151 133.408 136.617 133.408C136.079 133.408 135.626 133.561 135.259 133.868C134.897 134.175 134.622 134.593 134.436 135.121C134.255 135.649 134.164 136.251 134.164 136.925C134.164 137.599 134.255 138.2 134.436 138.729C134.622 139.257 134.897 139.675 135.259 139.982C135.626 140.284 136.079 140.435 136.617 140.435ZM147.615 135.996V142.699H144.399V131.105H147.464V133.151H147.599C147.856 132.477 148.286 131.943 148.89 131.551C149.494 131.153 150.226 130.955 151.087 130.955C151.892 130.955 152.594 131.131 153.192 131.483C153.791 131.835 154.257 132.338 154.589 132.992C154.921 133.642 155.087 134.416 155.087 135.317V142.699H151.871V135.891C151.877 135.181 151.695 134.628 151.328 134.23C150.961 133.828 150.455 133.626 149.811 133.626C149.378 133.626 148.996 133.72 148.664 133.906C148.337 134.092 148.08 134.364 147.894 134.721C147.713 135.073 147.62 135.498 147.615 135.996Z" fill="#4A5568"/>
<path d="M159.747 7.39209H22.6871C14.6727 7.39209 8.17578 13.8891 8.17578 21.9034V150.229C8.17578 158.243 14.6727 164.74 22.6871 164.74H159.747C167.762 164.74 174.259 158.243 174.259 150.229V21.9034C174.259 13.8891 167.762 7.39209 159.747 7.39209Z" stroke="url(#paint0_radial_4325_19409)" stroke-width="2.35318"/>
<path d="M159.747 7.39209H22.6871C14.6727 7.39209 8.17578 13.8891 8.17578 21.9034V150.229C8.17578 158.243 14.6727 164.74 22.6871 164.74H159.747C167.762 164.74 174.259 158.243 174.259 150.229V21.9034C174.259 13.8891 167.762 7.39209 159.747 7.39209Z" stroke="url(#paint1_radial_4325_19409)" stroke-width="2.35318"/>
<path d="M159.747 7.39209H22.6871C14.6727 7.39209 8.17578 13.8891 8.17578 21.9034V150.229C8.17578 158.243 14.6727 164.74 22.6871 164.74H159.747C167.762 164.74 174.259 158.243 174.259 150.229V21.9034C174.259 13.8891 167.762 7.39209 159.747 7.39209Z" stroke="url(#paint2_linear_4325_19409)" stroke-width="2.35318"/>
<path d="M159.747 7.39209H22.6871C14.6727 7.39209 8.17578 13.8891 8.17578 21.9034V150.229C8.17578 158.243 14.6727 164.74 22.6871 164.74H159.747C167.762 164.74 174.259 158.243 174.259 150.229V21.9034C174.259 13.8891 167.762 7.39209 159.747 7.39209Z" stroke="#C1BABA" stroke-opacity="0.2" stroke-width="2.35318"/>
</g>
<defs>
<filter id="filter0_d_4325_19409" x="0.724819" y="0.724551" width="201.38" height="192.646" filterUnits="userSpaceOnUse" color-interpolation-filters="sRGB">
<feFlood flood-opacity="0" result="BackgroundImageFix"/>
<feColorMatrix in="SourceAlpha" type="matrix" values="0 0 0 0 0 0 0 0 0 0 0 0 0 0 0 0 0 0 127 0" result="hardAlpha"/>
<feOffset dx="10.1971" dy="10.9815"/>
<feGaussianBlur stdDeviation="8.23614"/>
<feColorMatrix type="matrix" values="0 0 0 0 0 0 0 0 0 0 0 0 0 0 0 0 0 0 0.06 0"/>
<feBlend mode="normal" in2="BackgroundImageFix" result="effect1_dropShadow_4325_19409"/>
<feBlend mode="normal" in="SourceGraphic" in2="effect1_dropShadow_4325_19409" result="shape"/>
</filter>
<radialGradient id="paint0_radial_4325_19409" cx="0" cy="0" r="1" gradientUnits="userSpaceOnUse" gradientTransform="translate(8.51422 10.967) rotate(42.5514) scale(223.08 355.668)">
<stop stop-color="#D8D8D8" stop-opacity="0"/>
<stop offset="1" stop-color="#D8D8D8"/>
</radialGradient>
<radialGradient id="paint1_radial_4325_19409" cx="0" cy="0" r="1" gradientUnits="userSpaceOnUse" gradientTransform="translate(9.3163 161.034) rotate(-42.5408) scale(221.954 353.493)">
<stop stop-color="#D8D8D8" stop-opacity="0"/>
<stop offset="1" stop-color="#D8D8D8"/>
</radialGradient>
<linearGradient id="paint2_linear_4325_19409" x1="10.1184" y1="10.571" x2="201.325" y2="102.708" gradientUnits="userSpaceOnUse">
<stop stop-color="white" stop-opacity="0.9"/>
<stop offset="1" stop-color="white" stop-opacity="0"/>
</linearGradient>
</defs>
</svg>
