<svg width="175" height="193" viewBox="0 0 175 193" fill="none" xmlns="http://www.w3.org/2000/svg">
<g filter="url(#filter0_d_4325_19345)">
<path d="M132.039 5.66113H21.9789C13.3147 5.66113 6.29102 12.6848 6.29102 21.349V149.674C6.29102 158.338 13.3147 165.362 21.9789 165.362H132.039C140.703 165.362 147.727 158.338 147.727 149.674V21.349C147.727 12.6848 140.703 5.66113 132.039 5.66113Z" fill="#E2E8F0"/>
<path d="M104.463 23.8794H49.5551C40.8909 23.8794 33.8672 30.9031 33.8672 39.5673V94.4748C33.8672 103.139 40.8909 110.163 49.5551 110.163H104.463C113.127 110.163 120.15 103.139 120.15 94.4748V39.5673C120.15 30.9031 113.127 23.8794 104.463 23.8794Z" fill="#E0E4E8"/>
<path d="M76.5393 83.6253C84.3803 83.7743 92.7895 81.4489 91.9188 69.9868C88.1465 69.9869 61.7402 69.9868 61.7402 69.9868C61.7402 81.7391 68.8705 83.4795 76.5393 83.6253Z" fill="#665E66"/>
<path d="M91.9151 70.7126V67.5205L78.3879 74.2843C77.2242 74.8661 75.8523 74.8555 74.6978 74.2556L61.7363 67.5205V70.2773L73.6436 76.6979C75.4585 77.6765 77.6341 77.7184 79.4852 76.8103L91.9151 70.7126Z" fill="#454045"/>
<path d="M73.4961 83.1901C84.668 84.0607 92.3579 81.5942 91.9226 70.7124H84.6681C83.6524 79.4178 80.6055 82.1745 73.4961 83.1901Z" fill="#454045"/>
<path d="M79.6793 48.2201L99.4526 58.7312C101.501 59.82 101.507 62.7529 99.4631 63.8501L79.7324 74.4424C77.8296 75.4639 75.5394 75.4541 73.6454 74.4164L54.1188 63.7184C52.0946 62.6093 52.1126 59.6955 54.1504 58.6115L73.6848 48.2209C75.5586 47.2242 77.8053 47.2239 79.6793 48.2201Z" fill="#665E66"/>
<path d="M86.1875 70.8603L77.2666 60.5867C76.973 60.2487 76.461 60.2127 76.123 60.5062C75.7849 60.7998 75.7488 61.3117 76.0423 61.6498L84.9629 71.9236C85.2565 72.2617 85.7687 72.298 86.1069 72.0043C86.445 71.7107 86.4811 71.1984 86.1875 70.8603Z" fill="#EAB14D"/>
<path d="M86.4148 84.6997L86.4143 71.5225C86.4143 71.0748 86.0514 70.7119 85.6037 70.7119C85.1559 70.7119 84.793 71.0748 84.793 71.5225V84.6997C84.793 85.1476 85.156 85.5106 85.6039 85.5106C86.0517 85.5106 86.4148 85.1476 86.4148 84.6997Z" fill="#EAB14D"/>
<path d="M82.4809 88.9935C82.3358 90.8797 83.4965 91.7502 85.6728 91.7502C87.8492 91.7502 88.8649 90.8797 88.7198 88.9935C87.9944 86.9622 86.7378 84.3506 85.6729 84.3506C84.3671 84.3506 83.0613 87.2524 82.4809 88.9935Z" fill="#F4DD45"/>
<path d="M25.8535 142.144V126.686H36.2694V129.381H29.1217V133.064H35.7335V135.759H29.1217V139.45H36.2996V142.144H25.8535ZM43.0794 142.333C42.1988 142.333 41.4013 142.107 40.6867 141.654C39.9773 141.196 39.4137 140.524 38.996 139.638C38.5834 138.748 38.3771 137.656 38.3771 136.363C38.3771 135.034 38.591 133.93 39.0187 133.049C39.4464 132.164 40.015 131.502 40.7245 131.064C41.439 130.621 42.2215 130.4 43.0718 130.4C43.7209 130.4 44.2619 130.511 44.6946 130.732C45.1324 130.948 45.4846 131.22 45.7513 131.547C46.023 131.869 46.2293 132.186 46.3702 132.498H46.4683V126.686H49.6761V142.144H46.5061V140.288H46.3702C46.2193 140.61 46.0054 140.929 45.7287 141.246C45.4569 141.558 45.1022 141.817 44.6644 142.024C44.2317 142.23 43.7033 142.333 43.0794 142.333ZM44.0983 139.774C44.6166 139.774 45.0544 139.633 45.4117 139.352C45.7739 139.065 46.0507 138.665 46.2419 138.152C46.4381 137.638 46.5363 137.037 46.5363 136.348C46.5363 135.658 46.4407 135.059 46.2495 134.551C46.0582 134.043 45.7815 133.651 45.4192 133.374C45.0569 133.097 44.6166 132.959 44.0983 132.959C43.57 132.959 43.1247 133.102 42.7624 133.389C42.4001 133.676 42.1259 134.073 41.9397 134.581C41.7535 135.09 41.6604 135.678 41.6604 136.348C41.6604 137.022 41.7535 137.618 41.9397 138.136C42.1309 138.65 42.4051 139.052 42.7624 139.344C43.1247 139.631 43.57 139.774 44.0983 139.774ZM59.7543 137.208V130.551H62.9697V142.144H59.8826V140.038H59.7619C59.5002 140.718 59.065 141.264 58.4561 141.676C57.8523 142.089 57.1151 142.295 56.2446 142.295C55.4697 142.295 54.7879 142.119 54.1992 141.767C53.6104 141.415 53.15 140.914 52.8179 140.265C52.4908 139.616 52.3248 138.838 52.3198 137.933V130.551H55.5351V137.359C55.5401 138.043 55.7238 138.584 56.0861 138.982C56.4484 139.379 56.934 139.578 57.5428 139.578C57.9303 139.578 58.2926 139.49 58.6297 139.314C58.9668 139.133 59.2386 138.866 59.4449 138.514C59.6562 138.162 59.7594 137.726 59.7543 137.208ZM70.7797 142.371C69.5922 142.371 68.5708 142.119 67.7153 141.616C66.865 141.108 66.2108 140.403 65.7529 139.503C65.3 138.602 65.0736 137.565 65.0736 136.393C65.0736 135.205 65.3026 134.164 65.7605 133.268C66.2234 132.367 66.8801 131.665 67.7304 131.162C68.5808 130.654 69.5922 130.4 70.7646 130.4C71.776 130.4 72.6616 130.584 73.4215 130.951C74.1813 131.318 74.7826 131.834 75.2254 132.498C75.6682 133.162 75.9122 133.942 75.9575 134.838H72.9233C72.8378 134.259 72.6113 133.794 72.244 133.442C71.8817 133.084 71.4062 132.906 70.8175 132.906C70.3193 132.906 69.8841 133.042 69.5117 133.313C69.1444 133.58 68.8576 133.97 68.6513 134.483C68.445 134.997 68.3418 135.618 68.3418 136.348C68.3418 137.087 68.4424 137.716 68.6437 138.235C68.85 138.753 69.1394 139.148 69.5117 139.42C69.8841 139.691 70.3193 139.827 70.8175 139.827C71.1848 139.827 71.5144 139.752 71.8062 139.601C72.1031 139.45 72.3472 139.231 72.5384 138.944C72.7346 138.652 72.8629 138.302 72.9233 137.895H75.9575C75.9072 138.78 75.6657 139.56 75.2329 140.235C74.8052 140.904 74.214 141.427 73.4592 141.805C72.7044 142.182 71.8113 142.371 70.7797 142.371ZM81.3221 142.363C80.5824 142.363 79.9232 142.235 79.3446 141.978C78.7659 141.717 78.308 141.332 77.9709 140.823C77.6388 140.31 77.4727 139.671 77.4727 138.906C77.4727 138.262 77.591 137.721 77.8275 137.284C78.064 136.846 78.386 136.494 78.7936 136.227C79.2012 135.96 79.6641 135.759 80.1824 135.623C80.7057 135.487 81.2542 135.392 81.8278 135.336C82.5021 135.266 83.0455 135.2 83.4581 135.14C83.8707 135.075 84.1701 134.979 84.3563 134.853C84.5425 134.727 84.6356 134.541 84.6356 134.295V134.249C84.6356 133.771 84.4846 133.401 84.1827 133.14C83.8858 132.878 83.4632 132.747 82.9147 132.747C82.336 132.747 81.8756 132.876 81.5334 133.132C81.1913 133.384 80.9648 133.701 80.8541 134.083L77.8803 133.842C78.0313 133.137 78.3281 132.528 78.7709 132.015C79.2138 131.497 79.7849 131.099 80.4843 130.823C81.1888 130.541 82.0039 130.4 82.9298 130.4C83.5739 130.4 84.1903 130.475 84.779 130.626C85.3727 130.777 85.8986 131.011 86.3565 131.328C86.8194 131.645 87.1842 132.053 87.4509 132.551C87.7176 133.044 87.8509 133.635 87.8509 134.325V142.144H84.8016V140.537H84.7111C84.5249 140.899 84.2758 141.218 83.9638 141.495C83.6518 141.767 83.277 141.981 82.8392 142.137C82.4014 142.288 81.8957 142.363 81.3221 142.363ZM82.2429 140.144C82.7159 140.144 83.1336 140.051 83.4959 139.865C83.8582 139.674 84.1425 139.417 84.3488 139.095C84.5551 138.773 84.6582 138.408 84.6582 138.001V136.77C84.5576 136.836 84.4192 136.896 84.2431 136.951C84.072 137.002 83.8783 137.05 83.6619 137.095C83.4455 137.135 83.2292 137.173 83.0128 137.208C82.7964 137.238 82.6002 137.266 82.4241 137.291C82.0467 137.346 81.7171 137.434 81.4353 137.555C81.1535 137.676 80.9346 137.84 80.7787 138.046C80.6227 138.247 80.5447 138.499 80.5447 138.801C80.5447 139.238 80.7032 139.573 81.0202 139.804C81.3422 140.031 81.7498 140.144 82.2429 140.144ZM96.512 130.551V132.966H89.5303V130.551H96.512ZM91.1153 127.773H94.3307V138.582C94.3307 138.879 94.376 139.11 94.4666 139.276C94.5571 139.437 94.6829 139.55 94.8439 139.616C95.01 139.681 95.2012 139.714 95.4176 139.714C95.5685 139.714 95.7195 139.701 95.8704 139.676C96.0214 139.646 96.1371 139.623 96.2176 139.608L96.7233 142.001C96.5623 142.051 96.3359 142.109 96.044 142.174C95.7522 142.245 95.3974 142.288 94.9798 142.303C94.2049 142.333 93.5256 142.23 92.9419 141.993C92.3632 141.757 91.9129 141.39 91.5908 140.891C91.2688 140.393 91.1103 139.764 91.1153 139.004V127.773ZM98.6065 142.144V130.551H101.822V142.144H98.6065ZM100.222 129.056C99.7437 129.056 99.3336 128.898 98.9914 128.581C98.6543 128.259 98.4857 127.874 98.4857 127.426C98.4857 126.983 98.6543 126.603 98.9914 126.286C99.3336 125.964 99.7437 125.803 100.222 125.803C100.7 125.803 101.107 125.964 101.444 126.286C101.786 126.603 101.958 126.983 101.958 127.426C101.958 127.874 101.786 128.259 101.444 128.581C101.107 128.898 100.7 129.056 100.222 129.056ZM109.636 142.371C108.463 142.371 107.449 142.122 106.594 141.623C105.743 141.12 105.087 140.421 104.624 139.525C104.161 138.625 103.929 137.58 103.929 136.393C103.929 135.195 104.161 134.149 104.624 133.253C105.087 132.352 105.743 131.653 106.594 131.155C107.449 130.652 108.463 130.4 109.636 130.4C110.808 130.4 111.819 130.652 112.67 131.155C113.525 131.653 114.184 132.352 114.647 133.253C115.11 134.149 115.342 135.195 115.342 136.393C115.342 137.58 115.11 138.625 114.647 139.525C114.184 140.421 113.525 141.12 112.67 141.623C111.819 142.122 110.808 142.371 109.636 142.371ZM109.651 139.88C110.184 139.88 110.629 139.729 110.987 139.427C111.344 139.12 111.613 138.702 111.794 138.174C111.98 137.646 112.073 137.045 112.073 136.37C112.073 135.696 111.98 135.095 111.794 134.566C111.613 134.038 111.344 133.62 110.987 133.313C110.629 133.006 110.184 132.853 109.651 132.853C109.112 132.853 108.659 133.006 108.292 133.313C107.93 133.62 107.655 134.038 107.469 134.566C107.288 135.095 107.198 135.696 107.198 136.37C107.198 137.045 107.288 137.646 107.469 138.174C107.655 138.702 107.93 139.12 108.292 139.427C108.659 139.729 109.112 139.88 109.651 139.88ZM120.648 135.442V142.144H117.432V130.551H120.497V132.596H120.633C120.889 131.922 121.319 131.389 121.923 130.996C122.527 130.599 123.259 130.4 124.12 130.4C124.925 130.4 125.627 130.576 126.226 130.928C126.824 131.281 127.29 131.784 127.622 132.438C127.954 133.087 128.12 133.862 128.12 134.763V142.144H124.905V135.336C124.91 134.627 124.729 134.073 124.361 133.676C123.994 133.273 123.488 133.072 122.844 133.072C122.411 133.072 122.029 133.165 121.697 133.351C121.37 133.537 121.113 133.809 120.927 134.166C120.746 134.519 120.653 134.944 120.648 135.442Z" fill="#4A5568"/>
<path d="M132.038 6.83789H21.9781C13.9637 6.83789 7.4668 13.3348 7.4668 21.3491V149.674C7.4668 157.689 13.9637 164.186 21.9781 164.186H132.038C140.053 164.186 146.55 157.689 146.55 149.674V21.3491C146.55 13.3348 140.053 6.83789 132.038 6.83789Z" stroke="url(#paint0_radial_4325_19345)" stroke-width="2.35318"/>
<path d="M132.038 6.83789H21.9781C13.9637 6.83789 7.4668 13.3348 7.4668 21.3491V149.674C7.4668 157.689 13.9637 164.186 21.9781 164.186H132.038C140.053 164.186 146.55 157.689 146.55 149.674V21.3491C146.55 13.3348 140.053 6.83789 132.038 6.83789Z" stroke="url(#paint1_radial_4325_19345)" stroke-width="2.35318"/>
<path d="M132.038 6.83789H21.9781C13.9637 6.83789 7.4668 13.3348 7.4668 21.3491V149.674C7.4668 157.689 13.9637 164.186 21.9781 164.186H132.038C140.053 164.186 146.55 157.689 146.55 149.674V21.3491C146.55 13.3348 140.053 6.83789 132.038 6.83789Z" stroke="url(#paint2_linear_4325_19345)" stroke-width="2.35318"/>
<path d="M132.038 6.83789H21.9781C13.9637 6.83789 7.4668 13.3348 7.4668 21.3491V149.674C7.4668 157.689 13.9637 164.186 21.9781 164.186H132.038C140.053 164.186 146.55 157.689 146.55 149.674V21.3491C146.55 13.3348 140.053 6.83789 132.038 6.83789Z" stroke="#C1BABA" stroke-opacity="0.2" stroke-width="2.35318"/>
</g>
<defs>
<filter id="filter0_d_4325_19345" x="0.0148582" y="0.170352" width="174.381" height="192.646" filterUnits="userSpaceOnUse" color-interpolation-filters="sRGB">
<feFlood flood-opacity="0" result="BackgroundImageFix"/>
<feColorMatrix in="SourceAlpha" type="matrix" values="0 0 0 0 0 0 0 0 0 0 0 0 0 0 0 0 0 0 127 0" result="hardAlpha"/>
<feOffset dx="10.1971" dy="10.9815"/>
<feGaussianBlur stdDeviation="8.23614"/>
<feColorMatrix type="matrix" values="0 0 0 0 0 0 0 0 0 0 0 0 0 0 0 0 0 0 0.06 0"/>
<feBlend mode="normal" in2="BackgroundImageFix" result="effect1_dropShadow_4325_19345"/>
<feBlend mode="normal" in="SourceGraphic" in2="effect1_dropShadow_4325_19345" result="shape"/>
</filter>
<radialGradient id="paint0_radial_4325_19345" cx="0" cy="0" r="1" gradientUnits="userSpaceOnUse" gradientTransform="translate(7.56239 10.4127) rotate(47.55) scale(204.452 325.867)">
<stop stop-color="#D8D8D8" stop-opacity="0"/>
<stop offset="1" stop-color="#D8D8D8"/>
</radialGradient>
<radialGradient id="paint1_radial_4325_19345" cx="0" cy="0" r="1" gradientUnits="userSpaceOnUse" gradientTransform="translate(8.23588 160.479) rotate(-47.5394) scale(203.413 323.884)">
<stop stop-color="#D8D8D8" stop-opacity="0"/>
<stop offset="1" stop-color="#D8D8D8"/>
</radialGradient>
<linearGradient id="paint2_linear_4325_19345" x1="8.9094" y1="10.0167" x2="178.913" y2="78.805" gradientUnits="userSpaceOnUse">
<stop stop-color="white" stop-opacity="0.9"/>
<stop offset="1" stop-color="white" stop-opacity="0"/>
</linearGradient>
</defs>
</svg>
