<svg width="187" height="194" viewBox="0 0 187 194" fill="none" xmlns="http://www.w3.org/2000/svg">
<g filter="url(#filter0_d_4325_19361)">
<path d="M144.557 5.94336H22.4965C13.8323 5.94336 6.80859 12.967 6.80859 21.6312V149.956C6.80859 158.62 13.8323 165.644 22.4965 165.644H144.557C153.221 165.644 160.245 158.62 160.245 149.956V21.6312C160.245 12.967 153.221 5.94336 144.557 5.94336Z" fill="#E2E8F0"/>
<path d="M110.98 24.1616H56.0727C47.4085 24.1616 40.3848 31.1853 40.3848 39.8495V94.757C40.3848 103.421 47.4085 110.445 56.0727 110.445H110.98C119.644 110.445 126.668 103.421 126.668 94.757V39.8495C126.668 31.1853 119.644 24.1616 110.98 24.1616Z" fill="#E0E4E8"/>
<path d="M95.8685 93.192H71.2908C70.2016 93.192 69.3413 92.2574 69.4893 91.1784C70.7314 82.1265 74.7111 77.4953 76.6701 76.269H90.3239C95.2342 80.0919 97.1302 87.0115 97.6329 91.2935C97.7548 92.3317 96.9139 93.192 95.8685 93.192Z" fill="#665E66"/>
<path d="M76.7617 76.2685C78.7008 79.6178 84.5309 84.6915 92.3385 78.1916C90.3353 75.5313 84.4155 71.4224 76.7617 76.2685Z" fill="#454045"/>
<path d="M83.4966 78.9616C88.8601 78.9616 93.2081 74.6136 93.2081 69.2501C93.2081 63.8866 88.8601 59.5386 83.4966 59.5386C78.1331 59.5386 73.7852 63.8866 73.7852 69.2501C73.7852 74.6136 78.1331 78.9616 83.4966 78.9616Z" fill="#665E66"/>
<path d="M77.6293 77.6159C72.3602 82.4236 70.6903 89.9235 70.514 93.1447C69.8675 93.1447 69.3583 92.5884 69.4331 91.9462C70.5412 82.4303 74.6841 77.5608 76.7159 76.2217L77.6293 77.6159Z" fill="#8D858D"/>
<path d="M89.5121 72.9032C83.7813 79.2877 77.4769 76.2365 75.041 73.9128C76.0025 75.7974 77.4288 76.8775 78.0218 77.182C84.9448 81.7493 89.7524 76.5089 90.3294 76.2205C95.4447 70.3359 92.589 64.634 90.5217 62.5186C92.7909 67.2494 90.7941 71.4128 89.5121 72.9032Z" fill="#454045"/>
<path d="M77.89 62.8074C73.6208 66.3843 74.1881 71.7336 75.0055 73.9612C72.0439 68.7305 74.8881 63.9452 76.8112 62.1344C80.6573 58.4036 86.0098 59.5062 88.0611 60.644C81.8592 58.769 78.6112 62.4709 77.89 62.8074Z" fill="#8D858D"/>
<path d="M58.4355 55.0199C58.8382 54.225 59.5195 53.9153 60.3867 53.8533C61.2436 53.7914 62.0902 53.6055 62.9367 53.5023C63.1742 53.4713 63.2877 53.3681 63.391 53.1719C63.8246 52.2944 64.2788 51.4272 64.7124 50.5497C65.0118 49.92 65.497 49.6206 66.1887 49.6206C66.8804 49.6206 67.3553 49.9406 67.6547 50.56C68.078 51.4272 68.5322 52.2738 68.9555 53.1306C69.069 53.3578 69.1826 53.461 69.4407 53.492C70.535 53.6365 71.6293 53.7707 72.703 53.9772C73.8902 54.2043 74.3238 55.6084 73.5186 56.5168C73.4257 56.6201 73.3224 56.713 73.2295 56.8059C72.5585 57.446 71.8874 58.0861 71.2061 58.7261C71.0306 58.8913 70.9583 59.0358 71.0099 59.3043C71.1957 60.2437 71.3403 61.1935 71.5158 62.1433C71.6397 62.804 71.5055 63.3822 70.9583 63.8054C70.4111 64.2287 69.8227 64.2287 69.2136 63.919C68.3154 63.4544 67.4069 63.0105 66.5191 62.5253C66.2816 62.4014 66.0958 62.4014 65.8583 62.5253C65.0015 62.9899 64.1239 63.4131 63.2568 63.8777C62.627 64.2081 62.0076 64.2494 61.4191 63.8054C60.8513 63.3718 60.7377 62.7731 60.872 62.0917C61.0578 61.1625 61.1817 60.2231 61.3675 59.3043C61.4191 59.0358 61.3469 58.8913 61.1713 58.7261C60.6242 58.2203 60.0977 57.7144 59.5608 57.1982C59.1582 56.8162 58.7246 56.4446 58.4459 55.9387C58.4355 55.6393 58.4355 55.3296 58.4355 55.0199Z" fill="#FFCC5B"/>
<path fill-rule="evenodd" clip-rule="evenodd" d="M67.9826 51.2051C68.1062 51.4492 68.2311 51.6923 68.3558 51.935C68.5602 52.3329 68.7641 52.73 68.9613 53.1292C69.0749 53.3563 69.1885 53.4596 69.4466 53.4905C69.579 53.508 69.7115 53.5254 69.8439 53.5427C70.8055 53.6686 71.7652 53.7943 72.7089 53.9758C73.8961 54.2029 74.3297 55.6069 73.5244 56.5154C73.4621 56.5846 73.3952 56.6492 73.3298 56.7123C73.2977 56.7433 73.266 56.7739 73.2354 56.8045C72.5643 57.4445 71.8933 58.0846 71.2119 58.7247C71.0364 58.8899 70.9642 59.0344 71.0158 59.3028C71.1239 59.8493 71.218 60.3992 71.3123 60.9506C71.3802 61.3472 71.4482 61.7445 71.5216 62.1419C71.6455 62.8026 71.5113 63.3807 70.9642 63.804C70.417 64.2273 69.8285 64.2273 69.2194 63.9175C68.92 63.7627 68.6195 63.6101 68.319 63.4576C67.7179 63.1524 67.1168 62.8473 66.5249 62.5238C66.2875 62.4 66.1017 62.4 65.8642 62.5238C65.4128 62.7686 64.9557 63.0018 64.4974 63.2357C64.0857 63.4458 63.673 63.6564 63.2626 63.8763C63.1949 63.9118 63.1273 63.944 63.0598 63.9726C62.731 62.8907 62.5508 61.7152 62.5508 60.4862C62.5508 56.1064 64.84 52.4053 67.9826 51.2051Z" fill="#FEBD2F"/>
<path d="M75.7891 46.0341C76.1917 45.2392 76.8731 44.9295 77.7403 44.8675C78.5971 44.8056 79.4437 44.6198 80.2902 44.5165C80.5277 44.4856 80.6412 44.3823 80.7445 44.1862C81.1781 43.3087 81.6323 42.4415 82.0659 41.5639C82.3653 40.9342 82.8505 40.6348 83.5422 40.6348C84.2339 40.6348 84.7088 40.9548 85.0082 41.5743C85.4315 42.4415 85.8857 43.288 86.309 44.1449C86.4226 44.372 86.5361 44.4752 86.7942 44.5062C87.8885 44.6507 88.9829 44.785 90.0565 44.9914C91.2438 45.2186 91.6774 46.6226 90.8721 47.5311C90.7792 47.6343 90.676 47.7272 90.583 47.8201C89.912 48.4602 89.2409 49.1003 88.5596 49.7404C88.3841 49.9056 88.3118 50.0501 88.3634 50.3185C88.5493 51.258 88.6938 52.2078 88.8693 53.1575C88.9932 53.8183 88.859 54.3964 88.3118 54.8197C87.7646 55.2429 87.1762 55.2429 86.5671 54.9332C85.6689 54.4687 84.7604 54.0247 83.8726 53.5395C83.6351 53.4156 83.4493 53.4156 83.2119 53.5395C82.355 54.0041 81.4775 54.4274 80.6103 54.8919C79.9805 55.2223 79.3611 55.2636 78.7726 54.8197C78.2048 54.3861 78.0913 53.7873 78.2255 53.1059C78.4113 52.1768 78.5352 51.2373 78.721 50.3185C78.7726 50.0501 78.7004 49.9056 78.5249 49.7404C77.9777 49.2345 77.4512 48.7286 76.9144 48.2125C76.5117 47.8305 76.0781 47.4588 75.7994 46.953C75.7891 46.6536 75.7891 46.3438 75.7891 46.0341Z" fill="#FFCC5B"/>
<path fill-rule="evenodd" clip-rule="evenodd" d="M85.3244 42.2178C85.448 42.4619 85.5729 42.705 85.6976 42.9477C85.902 43.3456 86.1059 43.7426 86.3031 44.1419C86.4167 44.369 86.5303 44.4722 86.7884 44.5032C86.9208 44.5207 87.0533 44.538 87.1857 44.5554C88.1473 44.6813 89.1069 44.8069 90.0507 44.9884C91.2379 45.2155 91.6715 46.6196 90.8662 47.5281C90.8039 47.5973 90.737 47.6619 90.6716 47.725C90.6395 47.7559 90.6078 47.7865 90.5772 47.8171C89.9061 48.4572 89.2351 49.0973 88.5537 49.7374C88.3782 49.9025 88.3059 50.0471 88.3576 50.3155C88.4657 50.8619 88.5598 51.4119 88.6541 51.9633C88.722 52.3599 88.79 52.7572 88.8634 53.1545C88.9873 53.8153 88.8531 54.3934 88.3059 54.8167C87.7588 55.2399 87.1703 55.2399 86.5612 54.9302C86.2618 54.7754 85.9613 54.6228 85.6608 54.4702C85.0597 54.1651 84.4586 53.86 83.8667 53.5365C83.6293 53.4126 83.4434 53.4126 83.206 53.5365C82.7546 53.7812 82.2975 54.0145 81.8392 54.2484C81.4275 54.4585 81.0148 54.6691 80.6044 54.8889C80.5367 54.9245 80.4691 54.9566 80.4016 54.9852C80.0728 53.9034 79.8926 52.7278 79.8926 51.4988C79.8926 47.1191 82.1818 43.4179 85.3244 42.2178Z" fill="#FEBD2F"/>
<path d="M93.1191 55.0199C93.5218 54.225 94.2031 53.9153 95.0703 53.8533C95.9272 53.7914 96.7738 53.6055 97.6203 53.5023C97.8578 53.4713 97.9713 53.3681 98.0746 53.1719C98.5082 52.2944 98.9624 51.4272 99.396 50.5497C99.6954 49.92 100.181 49.6206 100.872 49.6206C101.564 49.6206 102.039 49.9406 102.338 50.56C102.762 51.4272 103.216 52.2738 103.639 53.1306C103.753 53.3578 103.866 53.461 104.124 53.492C105.219 53.6365 106.313 53.7707 107.387 53.9772C108.574 54.2043 109.007 55.6084 108.202 56.5168C108.109 56.6201 108.006 56.713 107.913 56.8059C107.242 57.446 106.571 58.0861 105.89 58.7261C105.714 58.8913 105.642 59.0358 105.694 59.3043C105.879 60.2437 106.024 61.1935 106.199 62.1433C106.323 62.804 106.189 63.3822 105.642 63.8054C105.095 64.2287 104.506 64.2287 103.897 63.919C102.999 63.4544 102.091 63.0105 101.203 62.5253C100.965 62.4014 100.779 62.4014 100.542 62.5253C99.6851 62.9899 98.8075 63.4131 97.9403 63.8777C97.3106 64.2081 96.6912 64.2494 96.1027 63.8054C95.5349 63.3718 95.4213 62.7731 95.5556 62.0917C95.7414 61.1625 95.8653 60.2231 96.0511 59.3043C96.1027 59.0358 96.0304 58.8913 95.8549 58.7261C95.3078 58.2203 94.7813 57.7144 94.2444 57.1982C93.8418 56.8162 93.4082 56.4446 93.1295 55.9387C93.1191 55.6393 93.1191 55.3296 93.1191 55.0199Z" fill="#FFC851"/>
<path fill-rule="evenodd" clip-rule="evenodd" d="M102.66 51.2051C102.784 51.4492 102.909 51.6923 103.034 51.935C103.238 52.3329 103.442 52.73 103.639 53.1292C103.753 53.3563 103.866 53.4596 104.124 53.4905C104.257 53.508 104.389 53.5254 104.522 53.5427C105.483 53.6686 106.443 53.7943 107.387 53.9758C108.574 54.2029 109.007 55.6069 108.202 56.5154C108.14 56.5846 108.073 56.6492 108.008 56.7123C107.975 56.7433 107.944 56.7739 107.913 56.8045C107.242 57.4445 106.571 58.0846 105.89 58.7247C105.714 58.8899 105.642 59.0344 105.694 59.3028C105.802 59.8493 105.896 60.3992 105.99 60.9506C106.058 61.3472 106.126 61.7445 106.199 62.1419C106.323 62.8026 106.189 63.3807 105.642 63.804C105.095 64.2273 104.506 64.2273 103.897 63.9175C103.598 63.7627 103.297 63.6101 102.997 63.4576C102.396 63.1524 101.795 62.8473 101.203 62.5238C100.965 62.4 100.779 62.4 100.542 62.5238C100.091 62.7686 99.6335 63.0018 99.1752 63.2357C98.7634 63.4458 98.3507 63.6564 97.9403 63.8763C97.8726 63.9118 97.805 63.944 97.7376 63.9726C97.4088 62.8907 97.2285 61.7152 97.2285 60.4862C97.2285 56.1064 99.5177 52.4053 102.66 51.2051Z" fill="#FEBD2F"/>
<path d="M26.3711 142.426V126.968H36.7871V129.663H29.6393V133.346H36.2512V136.041H29.6393V139.731H36.8173V142.426H26.3711ZM42.012 130.833L44.1405 134.886L46.3218 130.833H49.6202L46.2614 136.629L49.7108 142.426H46.4275L44.1405 138.418L41.8913 142.426H38.5702L42.012 136.629L38.691 130.833H42.012ZM51.5298 146.774V130.833H54.6999V132.78H54.8433C54.9842 132.468 55.1879 132.151 55.4546 131.829C55.7263 131.502 56.0786 131.23 56.5113 131.014C56.9491 130.792 57.4925 130.682 58.1416 130.682C58.987 130.682 59.7669 130.903 60.4814 131.346C61.196 131.784 61.7671 132.445 62.1948 133.331C62.6225 134.212 62.8364 135.316 62.8364 136.644C62.8364 137.938 62.6275 139.03 62.2099 139.92C61.7973 140.806 61.2337 141.478 60.5192 141.935C59.8097 142.388 59.0147 142.615 58.1341 142.615C57.5101 142.615 56.9793 142.512 56.5415 142.305C56.1088 142.099 55.754 141.84 55.4773 141.528C55.2005 141.211 54.9892 140.891 54.8433 140.569H54.7451V146.774H51.5298ZM54.6772 136.629C54.6772 137.319 54.7728 137.92 54.964 138.433C55.1552 138.946 55.432 139.347 55.7943 139.633C56.1566 139.915 56.5969 140.056 57.1151 140.056C57.6385 140.056 58.0813 139.913 58.4435 139.626C58.8058 139.334 59.0801 138.931 59.2663 138.418C59.4575 137.9 59.5531 137.304 59.5531 136.629C59.5531 135.96 59.46 135.371 59.2738 134.863C59.0876 134.355 58.8134 133.957 58.4511 133.671C58.0888 133.384 57.6435 133.24 57.1151 133.24C56.5918 133.24 56.149 133.379 55.7867 133.656C55.4295 133.932 55.1552 134.325 54.964 134.833C54.7728 135.341 54.6772 135.94 54.6772 136.629ZM70.2634 142.652C69.0708 142.652 68.0443 142.411 67.1839 141.928C66.3285 141.44 65.6693 140.75 65.2064 139.86C64.7434 138.964 64.512 137.905 64.512 136.682C64.512 135.49 64.7434 134.443 65.2064 133.542C65.6693 132.642 66.3209 131.94 67.1612 131.436C68.0066 130.933 68.9979 130.682 70.1351 130.682C70.8999 130.682 71.6119 130.805 72.2711 131.052C72.9353 131.293 73.5139 131.658 74.0071 132.146C74.5052 132.634 74.8927 133.248 75.1694 133.988C75.4462 134.722 75.5846 135.583 75.5846 136.569V137.452H65.7951V135.459H72.5579C72.5579 134.996 72.4573 134.586 72.256 134.229C72.0547 133.872 71.7754 133.593 71.4182 133.391C71.066 133.185 70.6559 133.082 70.1879 133.082C69.6998 133.082 69.2671 133.195 68.8897 133.422C68.5173 133.643 68.2255 133.942 68.0141 134.32C67.8028 134.692 67.6946 135.107 67.6896 135.565V137.46C67.6896 138.033 67.7952 138.529 68.0066 138.946C68.223 139.364 68.5274 139.686 68.9199 139.913C69.3124 140.139 69.7778 140.252 70.3162 140.252C70.6735 140.252 71.0005 140.202 71.2974 140.101C71.5943 140.001 71.8484 139.85 72.0597 139.648C72.2711 139.447 72.4321 139.201 72.5428 138.909L75.5166 139.105C75.3657 139.82 75.0562 140.443 74.5882 140.977C74.1253 141.505 73.5265 141.918 72.7919 142.215C72.0623 142.507 71.2194 142.652 70.2634 142.652ZM77.6828 142.426V130.833H80.8001V132.855H80.9208C81.1322 132.136 81.4869 131.592 81.9851 131.225C82.4832 130.853 83.0569 130.667 83.706 130.667C83.867 130.667 84.0406 130.677 84.2268 130.697C84.4129 130.717 84.5765 130.745 84.7174 130.78V133.633C84.5664 133.588 84.3576 133.547 84.0909 133.512C83.8242 133.477 83.5802 133.459 83.3588 133.459C82.8858 133.459 82.4631 133.562 82.0907 133.769C81.7234 133.97 81.4316 134.252 81.2152 134.614C81.0039 134.976 80.8982 135.394 80.8982 135.867V142.426H77.6828ZM86.3798 142.426V130.833H89.5951V142.426H86.3798ZM87.995 129.338C87.517 129.338 87.1069 129.18 86.7647 128.863C86.4276 128.541 86.259 128.156 86.259 127.708C86.259 127.265 86.4276 126.885 86.7647 126.568C87.1069 126.246 87.517 126.085 87.995 126.085C88.473 126.085 88.8806 126.246 89.2177 126.568C89.5599 126.885 89.731 127.265 89.731 127.708C89.731 128.156 89.5599 128.541 89.2177 128.863C88.8806 129.18 88.473 129.338 87.995 129.338ZM97.4542 142.652C96.2617 142.652 95.2352 142.411 94.3747 141.928C93.5193 141.44 92.8602 140.75 92.3972 139.86C91.9343 138.964 91.7028 137.905 91.7028 136.682C91.7028 135.49 91.9343 134.443 92.3972 133.542C92.8602 132.642 93.5118 131.94 94.3521 131.436C95.1975 130.933 96.1887 130.682 97.3259 130.682C98.0908 130.682 98.8028 130.805 99.462 131.052C100.126 131.293 100.705 131.658 101.198 132.146C101.696 132.634 102.083 133.248 102.36 133.988C102.637 134.722 102.775 135.583 102.775 136.569V137.452H92.986V135.459H99.7488C99.7488 134.996 99.6481 134.586 99.4469 134.229C99.2456 133.872 98.9663 133.593 98.6091 133.391C98.2568 133.185 97.8467 133.082 97.3788 133.082C96.8907 133.082 96.4579 133.195 96.0805 133.422C95.7082 133.643 95.4163 133.942 95.205 134.32C94.9937 134.692 94.8855 135.107 94.8805 135.565V137.46C94.8805 138.033 94.9861 138.529 95.1975 138.946C95.4138 139.364 95.7183 139.686 96.1107 139.913C96.5032 140.139 96.9687 140.252 97.5071 140.252C97.8643 140.252 98.1914 140.202 98.4883 140.101C98.7852 140.001 99.0393 139.85 99.2506 139.648C99.462 139.447 99.623 139.201 99.7337 138.909L102.707 139.105C102.556 139.82 102.247 140.443 101.779 140.977C101.316 141.505 100.717 141.918 99.9827 142.215C99.2531 142.507 98.4103 142.652 97.4542 142.652ZM108.089 135.724V142.426H104.873V130.833H107.938V132.878H108.074C108.33 132.204 108.761 131.67 109.364 131.278C109.968 130.88 110.7 130.682 111.561 130.682C112.366 130.682 113.068 130.858 113.667 131.21C114.265 131.562 114.731 132.065 115.063 132.72C115.395 133.369 115.561 134.144 115.561 135.044V142.426H112.346V135.618C112.351 134.908 112.17 134.355 111.802 133.957C111.435 133.555 110.929 133.354 110.285 133.354C109.852 133.354 109.47 133.447 109.138 133.633C108.811 133.819 108.554 134.091 108.368 134.448C108.187 134.8 108.094 135.225 108.089 135.724ZM123.333 142.652C122.146 142.652 121.124 142.401 120.269 141.898C119.419 141.389 118.764 140.685 118.307 139.784C117.854 138.884 117.627 137.847 117.627 136.675C117.627 135.487 117.856 134.446 118.314 133.55C118.777 132.649 119.434 131.947 120.284 131.444C121.134 130.936 122.146 130.682 123.318 130.682C124.33 130.682 125.215 130.865 125.975 131.233C126.735 131.6 127.336 132.116 127.779 132.78C128.222 133.444 128.466 134.224 128.511 135.12H125.477C125.391 134.541 125.165 134.076 124.798 133.723C124.435 133.366 123.96 133.188 123.371 133.188C122.873 133.188 122.438 133.323 122.065 133.595C121.698 133.862 121.411 134.252 121.205 134.765C120.999 135.278 120.895 135.9 120.895 136.629C120.895 137.369 120.996 137.998 121.197 138.516C121.404 139.035 121.693 139.43 122.065 139.701C122.438 139.973 122.873 140.109 123.371 140.109C123.738 140.109 124.068 140.033 124.36 139.882C124.657 139.731 124.901 139.513 125.092 139.226C125.288 138.934 125.417 138.584 125.477 138.177H128.511C128.461 139.062 128.219 139.842 127.787 140.516C127.359 141.186 126.768 141.709 126.013 142.086C125.258 142.464 124.365 142.652 123.333 142.652ZM135.853 142.652C134.661 142.652 133.634 142.411 132.774 141.928C131.918 141.44 131.259 140.75 130.796 139.86C130.333 138.964 130.102 137.905 130.102 136.682C130.102 135.49 130.333 134.443 130.796 133.542C131.259 132.642 131.911 131.94 132.751 131.436C133.596 130.933 134.588 130.682 135.725 130.682C136.49 130.682 137.202 130.805 137.861 131.052C138.525 131.293 139.104 131.658 139.597 132.146C140.095 132.634 140.483 133.248 140.759 133.988C141.036 134.722 141.174 135.583 141.174 136.569V137.452H131.385V135.459H138.148C138.148 134.996 138.047 134.586 137.846 134.229C137.645 133.872 137.365 133.593 137.008 133.391C136.656 133.185 136.246 133.082 135.778 133.082C135.29 133.082 134.857 133.195 134.48 133.422C134.107 133.643 133.815 133.942 133.604 134.32C133.393 134.692 133.285 135.107 133.279 135.565V137.46C133.279 138.033 133.385 138.529 133.596 138.946C133.813 139.364 134.117 139.686 134.51 139.913C134.902 140.139 135.368 140.252 135.906 140.252C136.263 140.252 136.59 140.202 136.887 140.101C137.184 140.001 137.438 139.85 137.65 139.648C137.861 139.447 138.022 139.201 138.133 138.909L141.107 139.105C140.956 139.82 140.646 140.443 140.178 140.977C139.715 141.505 139.116 141.918 138.382 142.215C137.652 142.507 136.809 142.652 135.853 142.652Z" fill="#4A5568"/>
<path d="M144.556 7.11963H22.4957C14.4813 7.11963 7.98438 13.6166 7.98438 21.6309V149.956C7.98438 157.971 14.4813 164.468 22.4957 164.468H144.556C152.57 164.468 159.067 157.971 159.067 149.956V21.6309C159.067 13.6166 152.57 7.11963 144.556 7.11963Z" stroke="url(#paint0_radial_4325_19361)" stroke-width="2.35318"/>
<path d="M144.556 7.11963H22.4957C14.4813 7.11963 7.98438 13.6166 7.98438 21.6309V149.956C7.98438 157.971 14.4813 164.468 22.4957 164.468H144.556C152.57 164.468 159.067 157.971 159.067 149.956V21.6309C159.067 13.6166 152.57 7.11963 144.556 7.11963Z" stroke="url(#paint1_radial_4325_19361)" stroke-width="2.35318"/>
<path d="M144.556 7.11963H22.4957C14.4813 7.11963 7.98438 13.6166 7.98438 21.6309V149.956C7.98438 157.971 14.4813 164.468 22.4957 164.468H144.556C152.57 164.468 159.067 157.971 159.067 149.956V21.6309C159.067 13.6166 152.57 7.11963 144.556 7.11963Z" stroke="url(#paint2_linear_4325_19361)" stroke-width="2.35318"/>
<path d="M144.556 7.11963H22.4957C14.4813 7.11963 7.98438 13.6166 7.98438 21.6309V149.956C7.98438 157.971 14.4813 164.468 22.4957 164.468H144.556C152.57 164.468 159.067 157.971 159.067 149.956V21.6309C159.067 13.6166 152.57 7.11963 144.556 7.11963Z" stroke="#C1BABA" stroke-opacity="0.2" stroke-width="2.35318"/>
</g>
<defs>
<filter id="filter0_d_4325_19361" x="0.532436" y="0.45209" width="186.382" height="192.646" filterUnits="userSpaceOnUse" color-interpolation-filters="sRGB">
<feFlood flood-opacity="0" result="BackgroundImageFix"/>
<feColorMatrix in="SourceAlpha" type="matrix" values="0 0 0 0 0 0 0 0 0 0 0 0 0 0 0 0 0 0 127 0" result="hardAlpha"/>
<feOffset dx="10.1971" dy="10.9815"/>
<feGaussianBlur stdDeviation="8.23614"/>
<feColorMatrix type="matrix" values="0 0 0 0 0 0 0 0 0 0 0 0 0 0 0 0 0 0 0.06 0"/>
<feBlend mode="normal" in2="BackgroundImageFix" result="effect1_dropShadow_4325_19361"/>
<feBlend mode="normal" in="SourceGraphic" in2="effect1_dropShadow_4325_19361" result="shape"/>
</filter>
<radialGradient id="paint0_radial_4325_19361" cx="0" cy="0" r="1" gradientUnits="userSpaceOnUse" gradientTransform="translate(8.18792 10.6944) rotate(45.2204) scale(212.53 340.078)">
<stop stop-color="#D8D8D8" stop-opacity="0"/>
<stop offset="1" stop-color="#D8D8D8"/>
</radialGradient>
<radialGradient id="paint1_radial_4325_19361" cx="0" cy="0" r="1" gradientUnits="userSpaceOnUse" gradientTransform="translate(8.91855 160.761) rotate(-45.2098) scale(211.453 338.004)">
<stop stop-color="#D8D8D8" stop-opacity="0"/>
<stop offset="1" stop-color="#D8D8D8"/>
</radialGradient>
<linearGradient id="paint2_linear_4325_19361" x1="9.64919" y1="10.2985" x2="189.599" y2="89.2887" gradientUnits="userSpaceOnUse">
<stop stop-color="white" stop-opacity="0.9"/>
<stop offset="1" stop-color="white" stop-opacity="0"/>
</linearGradient>
</defs>
</svg>
