<svg width="222" height="223" viewBox="0 0 222 223" fill="none" xmlns="http://www.w3.org/2000/svg">
<g filter="url(#filter0_bdd_4039_21193)">
<rect x="14" y="14" width="196" height="197" rx="20" fill="#EDF2F7"/>
<circle r="23.0614" transform="matrix(-1 0 0 1 129.06 85.0614)" fill="#B4AA99"/>
<path d="M149.714 107.024C147.149 105.205 146.093 102.37 145.78 100.473C145.709 100.04 145.193 99.7969 144.84 100.057L139.303 104.136C138.969 104.383 139.027 104.899 139.409 105.063C144.36 107.184 147.699 107.8 149.529 107.848C150.021 107.861 150.116 107.309 149.714 107.024Z" fill="#867B65"/>
<path d="M147.256 86.6713C147.023 70.0657 135.389 63.4857 129.602 62.2715C147.986 63.3162 152.582 80.4855 151.925 86.6713C151.925 99.6617 136.581 107.703 130.623 108.666C142.529 106.356 146.672 93.0405 147.256 86.6713Z" fill="#867B65"/>
<circle cx="95.0614" cy="98.0614" r="23.0614" fill="#B4AA99"/>
<path d="M74.6768 120.583C77.2418 118.764 78.2981 115.929 78.6102 114.032C78.6813 113.599 79.198 113.356 79.5508 113.616L85.0872 117.695C85.4219 117.942 85.3637 118.458 84.9815 118.622C80.031 120.743 76.692 121.359 74.862 121.407C74.3692 121.42 74.2747 120.868 74.6768 120.583Z" fill="#B4AA99"/>
<path d="M88.0117 103H82.9258V94.4336H88.0117V96.291H85.2402V97.6387H87.8066V99.4961H85.2402V101.113H88.0117V103ZM97.668 103H94.6328L91.5039 96.9648H91.4512C91.4707 97.1484 91.4883 97.3691 91.5039 97.627C91.5195 97.8848 91.5332 98.1484 91.5449 98.418C91.5566 98.6836 91.5625 98.9238 91.5625 99.1387V103H89.5117V94.4336H92.5352L95.6523 100.387H95.6875C95.6758 100.199 95.6641 99.9824 95.6523 99.7363C95.6406 99.4863 95.6289 99.2344 95.6172 98.9805C95.6094 98.7266 95.6055 98.502 95.6055 98.3066V94.4336H97.668V103ZM102.959 97.9844H106.656V102.602C106.215 102.754 105.709 102.879 105.139 102.977C104.568 103.07 103.971 103.117 103.346 103.117C102.521 103.117 101.799 102.957 101.178 102.637C100.557 102.316 100.072 101.83 99.7246 101.178C99.377 100.521 99.2031 99.6934 99.2031 98.6934C99.2031 97.7949 99.375 97.0195 99.7188 96.3672C100.062 95.7109 100.568 95.2051 101.236 94.8496C101.908 94.4902 102.73 94.3105 103.703 94.3105C104.238 94.3105 104.746 94.3613 105.227 94.4629C105.707 94.5645 106.125 94.6934 106.48 94.8496L105.748 96.666C105.439 96.5137 105.119 96.4004 104.787 96.3262C104.455 96.248 104.098 96.209 103.715 96.209C103.203 96.209 102.791 96.3242 102.479 96.5547C102.17 96.7852 101.945 97.0938 101.805 97.4805C101.664 97.8633 101.594 98.2871 101.594 98.752C101.594 99.2832 101.668 99.7324 101.816 100.1C101.969 100.463 102.189 100.74 102.479 100.932C102.771 101.119 103.125 101.213 103.539 101.213C103.676 101.213 103.842 101.203 104.037 101.184C104.236 101.164 104.387 101.141 104.488 101.113V99.7715H102.959V97.9844Z" fill="#FFCF54"/>
<path d="M113.936 99.3998C113.702 82.7942 102.069 76.2143 96.2812 75C114.665 76.0447 119.261 93.214 118.605 99.3998C118.605 112.39 103.26 120.432 97.3026 121.394C109.208 119.085 113.352 105.769 113.936 99.3998Z" fill="#867B66"/>
<path d="M120.804 84.4479C120.804 83.7871 120.997 83.3227 121.384 83.0547C121.777 82.7867 122.247 82.6526 122.796 82.6526C123.313 82.6526 123.762 82.7867 124.142 83.0547C124.522 83.3227 124.712 83.7871 124.712 84.4479C124.712 85.0774 124.522 85.5325 124.142 85.813C123.762 86.0935 123.313 86.2338 122.796 86.2338C122.247 86.2338 121.777 86.0935 121.384 85.813C120.997 85.5325 120.804 85.0774 120.804 84.4479ZM126.339 84.4479C126.339 83.7871 126.533 83.3227 126.919 83.0547C127.312 82.7867 127.782 82.6526 128.331 82.6526C128.848 82.6526 129.297 82.7867 129.677 83.0547C130.058 83.3227 130.248 83.7871 130.248 84.4479C130.248 85.0774 130.058 85.5325 129.677 85.813C129.297 86.0935 128.848 86.2338 128.331 86.2338C127.782 86.2338 127.312 86.0935 126.919 85.813C126.533 85.5325 126.339 85.0774 126.339 84.4479ZM131.875 84.4479C131.875 83.7871 132.068 83.3227 132.454 83.0547C132.847 82.7867 133.318 82.6526 133.866 82.6526C134.384 82.6526 134.833 82.7867 135.213 83.0547C135.593 83.3227 135.783 83.7871 135.783 84.4479C135.783 85.0774 135.593 85.5325 135.213 85.813C134.833 86.0935 134.384 86.2338 133.866 86.2338C133.318 86.2338 132.847 86.0935 132.454 85.813C132.068 85.5325 131.875 85.0774 131.875 84.4479Z" fill="#FFCF54"/>
<path d="M53.6558 174V160.909H59.1146C60.0947 160.909 60.915 161.048 61.5756 161.325C62.2403 161.602 62.7389 161.989 63.0713 162.488C63.4079 162.987 63.5763 163.564 63.5763 164.22C63.5763 164.719 63.4719 165.164 63.2631 165.556C63.0542 165.944 62.7666 166.266 62.4001 166.521C62.0336 166.777 61.6096 166.956 61.1281 167.058V167.186C61.6565 167.212 62.1444 167.354 62.5919 167.614C63.0436 167.874 63.4058 168.237 63.6785 168.701C63.9513 169.161 64.0876 169.707 64.0876 170.337C64.0876 171.04 63.9086 171.669 63.5507 172.223C63.1927 172.773 62.675 173.207 61.9974 173.527C61.3199 173.842 60.4974 174 59.5301 174H53.6558ZM56.8199 171.45H58.7758C59.4619 171.45 59.9669 171.32 60.2907 171.06C60.6189 170.8 60.7829 170.438 60.7829 169.973C60.7829 169.636 60.7041 169.347 60.5464 169.104C60.3888 168.857 60.165 168.667 59.8753 168.535C59.5855 168.398 59.2382 168.33 58.8334 168.33H56.8199V171.45ZM56.8199 166.291H58.5713C58.9165 166.291 59.2233 166.234 59.4917 166.119C59.7602 166.004 59.969 165.837 60.1182 165.62C60.2716 165.403 60.3483 165.141 60.3483 164.834C60.3483 164.395 60.1927 164.05 59.8817 163.798C59.5706 163.547 59.1508 163.421 58.6224 163.421H56.8199V166.291ZM68.3767 174.166C67.7503 174.166 67.1942 174.062 66.7084 173.853C66.2268 173.64 65.8454 173.32 65.5642 172.894C65.2872 172.464 65.1487 171.925 65.1487 171.277C65.1487 170.732 65.2446 170.271 65.4363 169.896C65.6281 169.521 65.8923 169.217 66.229 168.982C66.5656 168.748 66.9534 168.571 67.3923 168.452C67.8312 168.328 68.3 168.245 68.7986 168.202C69.3568 168.151 69.8064 168.098 70.1473 168.043C70.4882 167.983 70.7354 167.9 70.8888 167.793C71.0464 167.683 71.1253 167.527 71.1253 167.327V167.295C71.1253 166.967 71.0123 166.713 70.7865 166.534C70.5606 166.355 70.2559 166.266 69.8724 166.266C69.4591 166.266 69.1267 166.355 68.8753 166.534C68.6238 166.713 68.464 166.96 68.3959 167.276L65.5131 167.173C65.5983 166.577 65.8177 166.044 66.1714 165.575C66.5294 165.102 67.0194 164.732 67.6416 164.463C68.268 164.19 69.0202 164.054 69.898 164.054C70.5244 164.054 71.1018 164.129 71.6302 164.278C72.1586 164.423 72.6189 164.636 73.0109 164.917C73.403 165.194 73.7055 165.535 73.9186 165.94C74.1359 166.344 74.2446 166.807 74.2446 167.327V174H71.3042V172.632H71.2275C71.0528 172.964 70.8291 173.246 70.5564 173.476C70.2879 173.706 69.9704 173.879 69.604 173.994C69.2417 174.109 68.8327 174.166 68.3767 174.166ZM69.3419 172.121C69.6785 172.121 69.9811 172.053 70.2496 171.916C70.5223 171.78 70.7396 171.592 70.9015 171.354C71.0635 171.111 71.1444 170.83 71.1444 170.51V169.577C71.055 169.624 70.9463 169.666 70.8184 169.705C70.6949 169.743 70.5585 169.779 70.4094 169.813C70.2602 169.847 70.1068 169.877 69.9491 169.903C69.7915 169.928 69.6402 169.952 69.4953 169.973C69.2013 170.02 68.9498 170.092 68.741 170.19C68.5365 170.288 68.3788 170.416 68.268 170.574C68.1615 170.727 68.1082 170.911 68.1082 171.124C68.1082 171.447 68.2233 171.695 68.4534 171.865C68.6878 172.036 68.9839 172.121 69.3419 172.121ZM84.7275 167.18L81.8575 167.256C81.8277 167.052 81.7467 166.871 81.6146 166.713C81.4825 166.551 81.3099 166.425 81.0969 166.336C80.8881 166.242 80.6452 166.195 80.3682 166.195C80.0059 166.195 79.697 166.268 79.4413 166.413C79.1899 166.558 79.0663 166.754 79.0706 167.001C79.0663 167.192 79.143 167.359 79.3007 167.499C79.4626 167.64 79.7503 167.753 80.1636 167.838L82.0557 168.196C83.0358 168.384 83.7645 168.695 84.2417 169.129C84.7233 169.564 84.9662 170.139 84.9704 170.855C84.9662 171.528 84.7659 172.114 84.3696 172.613C83.9775 173.112 83.4406 173.499 82.7588 173.776C82.077 174.049 81.2971 174.185 80.4193 174.185C79.0173 174.185 77.9115 173.898 77.1018 173.322C76.2964 172.743 75.8362 171.967 75.7211 170.996L78.8085 170.919C78.8767 171.277 79.0535 171.55 79.339 171.737C79.6246 171.925 79.9889 172.018 80.4321 172.018C80.8327 172.018 81.1586 171.944 81.4101 171.795C81.6615 171.646 81.7893 171.447 81.7936 171.2C81.7893 170.979 81.6913 170.802 81.4996 170.67C81.3078 170.533 81.0074 170.427 80.5983 170.35L78.8852 170.024C77.9008 169.845 77.1679 169.515 76.6863 169.033C76.2048 168.548 75.9662 167.93 75.9704 167.18C75.9662 166.523 76.1409 165.963 76.4946 165.499C76.8483 165.03 77.3511 164.672 78.0031 164.425C78.6551 164.178 79.4243 164.054 80.3106 164.054C81.6402 164.054 82.6885 164.333 83.4555 164.891C84.2226 165.445 84.6466 166.208 84.7275 167.18ZM86.5093 174V164.182H89.635V174H86.5093ZM88.0754 163.038C87.6365 163.038 87.2593 162.893 86.944 162.603C86.6286 162.309 86.471 161.955 86.471 161.542C86.471 161.133 86.6286 160.783 86.944 160.494C87.2593 160.2 87.6365 160.053 88.0754 160.053C88.5186 160.053 88.8957 160.2 89.2068 160.494C89.5221 160.783 89.6798 161.133 89.6798 161.542C89.6798 161.955 89.5221 162.309 89.2068 162.603C88.8957 162.893 88.5186 163.038 88.0754 163.038ZM96.2077 174.185C95.1721 174.185 94.2836 173.972 93.5422 173.546C92.805 173.12 92.2382 172.528 91.8419 171.769C91.4456 171.006 91.2474 170.124 91.2474 169.123C91.2474 168.117 91.4456 167.235 91.8419 166.477C92.2425 165.714 92.8113 165.119 93.5486 164.693C94.29 164.267 95.1743 164.054 96.2013 164.054C97.1089 164.054 97.8994 164.218 98.5727 164.546C99.2503 164.874 99.7787 165.339 100.158 165.94C100.541 166.536 100.744 167.237 100.765 168.043H97.844C97.7844 167.54 97.6139 167.146 97.3327 166.86C97.0557 166.575 96.6934 166.432 96.246 166.432C95.8838 166.432 95.5663 166.534 95.2936 166.739C95.0209 166.939 94.8078 167.237 94.6544 167.634C94.5052 168.026 94.4307 168.511 94.4307 169.091C94.4307 169.67 94.5052 170.161 94.6544 170.561C94.8078 170.957 95.0209 171.258 95.2936 171.462C95.5663 171.663 95.8838 171.763 96.246 171.763C96.5358 171.763 96.7915 171.701 97.0131 171.577C97.2389 171.454 97.4243 171.273 97.5692 171.034C97.714 170.791 97.8057 170.497 97.844 170.152H100.765C100.735 170.962 100.533 171.669 100.158 172.274C99.7872 172.879 99.2652 173.35 98.5919 173.687C97.9229 174.019 97.1281 174.185 96.2077 174.185ZM106.232 174V160.909H115.36V163.479H109.396V166.163H114.893V168.739H109.396V171.43H115.36V174H106.232ZM120.467 168.401V174H117.341V164.182H120.314V165.984H120.422C120.64 165.384 121.01 164.913 121.535 164.572C122.059 164.227 122.683 164.054 123.407 164.054C124.098 164.054 124.696 164.21 125.204 164.521C125.715 164.827 126.111 165.258 126.392 165.812C126.678 166.362 126.819 167.005 126.814 167.742V174H123.689V168.356C123.693 167.81 123.554 167.384 123.273 167.077C122.996 166.771 122.611 166.617 122.116 166.617C121.788 166.617 121.498 166.69 121.247 166.835C121 166.975 120.808 167.178 120.672 167.442C120.54 167.706 120.471 168.026 120.467 168.401ZM133.326 177.886C132.393 177.886 131.594 177.756 130.929 177.496C130.264 177.237 129.742 176.881 129.363 176.429C128.984 175.977 128.756 175.466 128.679 174.895L131.639 174.729C131.694 174.929 131.796 175.104 131.946 175.253C132.099 175.402 132.297 175.517 132.54 175.598C132.787 175.679 133.077 175.719 133.409 175.719C133.934 175.719 134.366 175.592 134.707 175.336C135.052 175.085 135.225 174.643 135.225 174.013V172.287H135.116C134.992 172.589 134.805 172.86 134.554 173.099C134.302 173.337 133.989 173.525 133.614 173.661C133.243 173.798 132.817 173.866 132.335 173.866C131.62 173.866 130.963 173.7 130.367 173.367C129.774 173.031 129.299 172.511 128.941 171.808C128.588 171.1 128.411 170.19 128.411 169.078C128.411 167.932 128.594 166.988 128.96 166.246C129.327 165.501 129.806 164.949 130.399 164.591C130.995 164.233 131.637 164.054 132.323 164.054C132.838 164.054 133.279 164.143 133.646 164.322C134.017 164.497 134.321 164.723 134.56 165C134.799 165.277 134.98 165.565 135.103 165.863H135.193V164.182H138.306V174.038C138.306 174.869 138.097 175.57 137.679 176.141C137.262 176.712 136.678 177.145 135.928 177.439C135.178 177.737 134.311 177.886 133.326 177.886ZM133.422 171.59C133.801 171.59 134.125 171.49 134.394 171.29C134.662 171.089 134.869 170.802 135.014 170.427C135.159 170.052 135.231 169.602 135.231 169.078C135.231 168.545 135.159 168.087 135.014 167.704C134.873 167.316 134.666 167.018 134.394 166.809C134.125 166.6 133.801 166.496 133.422 166.496C133.034 166.496 132.706 166.602 132.438 166.815C132.169 167.028 131.965 167.329 131.824 167.717C131.688 168.1 131.62 168.554 131.62 169.078C131.62 169.602 131.69 170.052 131.831 170.427C131.971 170.802 132.174 171.089 132.438 171.29C132.706 171.49 133.034 171.59 133.422 171.59ZM143.424 160.909V174H140.298V160.909H143.424ZM145.414 174V164.182H148.539V174H145.414ZM146.98 163.038C146.541 163.038 146.164 162.893 145.848 162.603C145.533 162.309 145.375 161.955 145.375 161.542C145.375 161.133 145.533 160.783 145.848 160.494C146.164 160.2 146.541 160.053 146.98 160.053C147.423 160.053 147.8 160.2 148.111 160.494C148.426 160.783 148.584 161.133 148.584 161.542C148.584 161.955 148.426 162.309 148.111 162.603C147.8 162.893 147.423 163.038 146.98 163.038ZM159.101 167.18L156.231 167.256C156.201 167.052 156.12 166.871 155.988 166.713C155.856 166.551 155.683 166.425 155.47 166.336C155.261 166.242 155.018 166.195 154.741 166.195C154.379 166.195 154.07 166.268 153.814 166.413C153.563 166.558 153.439 166.754 153.444 167.001C153.439 167.192 153.516 167.359 153.674 167.499C153.836 167.64 154.123 167.753 154.537 167.838L156.429 168.196C157.409 168.384 158.138 168.695 158.615 169.129C159.096 169.564 159.339 170.139 159.343 170.855C159.339 171.528 159.139 172.114 158.743 172.613C158.351 173.112 157.814 173.499 157.132 173.776C156.45 174.049 155.67 174.185 154.792 174.185C153.39 174.185 152.285 173.898 151.475 173.322C150.669 172.743 150.209 171.967 150.094 170.996L153.182 170.919C153.25 171.277 153.427 171.55 153.712 171.737C153.998 171.925 154.362 172.018 154.805 172.018C155.206 172.018 155.532 171.944 155.783 171.795C156.035 171.646 156.162 171.447 156.167 171.2C156.162 170.979 156.064 170.802 155.873 170.67C155.681 170.533 155.38 170.427 154.971 170.35L153.258 170.024C152.274 169.845 151.541 169.515 151.059 169.033C150.578 168.548 150.339 167.93 150.343 167.18C150.339 166.523 150.514 165.963 150.868 165.499C151.221 165.03 151.724 164.672 152.376 164.425C153.028 164.178 153.797 164.054 154.684 164.054C156.013 164.054 157.062 164.333 157.829 164.891C158.596 165.445 159.02 166.208 159.101 167.18ZM164.008 168.401V174H160.882V160.909H163.906V165.984H164.014C164.236 165.379 164.598 164.906 165.101 164.565C165.608 164.224 166.228 164.054 166.961 164.054C167.652 164.054 168.252 164.207 168.764 164.514C169.275 164.817 169.671 165.245 169.953 165.799C170.238 166.353 170.379 167.001 170.375 167.742V174H167.249V168.356C167.253 167.81 167.117 167.384 166.84 167.077C166.563 166.771 166.173 166.617 165.67 166.617C165.342 166.617 165.052 166.69 164.801 166.835C164.554 166.975 164.36 167.178 164.219 167.442C164.083 167.706 164.012 168.026 164.008 168.401Z" fill="#4A5568"/>
<rect x="15" y="15" width="194" height="195" rx="19" stroke="url(#paint0_radial_4039_21193)" stroke-width="2"/>
<rect x="15" y="15" width="194" height="195" rx="19" stroke="url(#paint1_radial_4039_21193)" stroke-width="2"/>
<rect x="15" y="15" width="194" height="195" rx="19" stroke="url(#paint2_linear_4039_21193)" stroke-width="2"/>
<rect x="15" y="15" width="194" height="195" rx="19" stroke="#C1BABA" stroke-opacity="0.2" stroke-width="2"/>
</g>
<defs>
<filter id="filter0_bdd_4039_21193" x="0.244681" y="0.244681" width="223.511" height="224.511" filterUnits="userSpaceOnUse" color-interpolation-filters="sRGB">
<feFlood flood-opacity="0" result="BackgroundImageFix"/>
<feGaussianBlur in="BackgroundImage" stdDeviation="6.87766"/>
<feComposite in2="SourceAlpha" operator="in" result="effect1_backgroundBlur_4039_21193"/>
<feColorMatrix in="SourceAlpha" type="matrix" values="0 0 0 0 0 0 0 0 0 0 0 0 0 0 0 0 0 0 127 0" result="hardAlpha"/>
<feOffset dx="4.2576" dy="4.58511"/>
<feGaussianBlur stdDeviation="3.43883"/>
<feComposite in2="hardAlpha" operator="out"/>
<feColorMatrix type="matrix" values="0 0 0 0 0 0 0 0 0 0 0 0 0 0 0 0 0 0 0.1 0"/>
<feBlend mode="normal" in2="effect1_backgroundBlur_4039_21193" result="effect2_dropShadow_4039_21193"/>
<feColorMatrix in="SourceAlpha" type="matrix" values="0 0 0 0 0 0 0 0 0 0 0 0 0 0 0 0 0 0 127 0" result="hardAlpha"/>
<feOffset dx="-3.27508" dy="-3.27508"/>
<feGaussianBlur stdDeviation="4.91261"/>
<feComposite in2="hardAlpha" operator="out"/>
<feColorMatrix type="matrix" values="0 0 0 0 0.970833 0 0 0 0 0.985417 0 0 0 0 1 0 0 0 1 0"/>
<feBlend mode="normal" in2="effect2_dropShadow_4039_21193" result="effect3_dropShadow_4039_21193"/>
<feBlend mode="normal" in="SourceGraphic" in2="effect3_dropShadow_4039_21193" result="shape"/>
</filter>
<radialGradient id="paint0_radial_4039_21193" cx="0" cy="0" r="1" gradientUnits="userSpaceOnUse" gradientTransform="translate(15.763 19.8611) rotate(44.2199) scale(266.831 426.823)">
<stop stop-color="#D8D8D8" stop-opacity="0"/>
<stop offset="1" stop-color="#D8D8D8"/>
</radialGradient>
<radialGradient id="paint1_radial_4039_21193" cx="0" cy="0" r="1" gradientUnits="userSpaceOnUse" gradientTransform="translate(16.6963 204.976) rotate(-44.2093) scale(265.481 424.217)">
<stop stop-color="#D8D8D8" stop-opacity="0"/>
<stop offset="1" stop-color="#D8D8D8"/>
</radialGradient>
<linearGradient id="paint2_linear_4039_21193" x1="17.6296" y1="19.3727" x2="244.842" y2="122.654" gradientUnits="userSpaceOnUse">
<stop stop-color="white" stop-opacity="0.9"/>
<stop offset="1" stop-color="white" stop-opacity="0"/>
</linearGradient>
</defs>
</svg>
